G04 #@! TF.FileFunction,Legend,Bot*
%FSLAX46Y46*%
G04 Gerber Fmt 4.6, Leading zero omitted, Abs format (unit mm)*
G04 Created by KiCad (PCBNEW 4.0.2-stable) date 2016-05-24 오전 1:59:57*
%MOMM*%
G01*
G04 APERTURE LIST*
%ADD10C,0.100000*%
%ADD11C,0.250000*%
%ADD12C,0.300000*%
%ADD13C,0.150000*%
G04 APERTURE END LIST*
D10*
D11*
X120426142Y-68750571D02*
X120426142Y-67750571D01*
X120426142Y-67893429D02*
X120378523Y-67822000D01*
X120283285Y-67750571D01*
X120140427Y-67750571D01*
X120045189Y-67822000D01*
X119997570Y-67964857D01*
X119997570Y-68750571D01*
X119997570Y-67964857D02*
X119949951Y-67822000D01*
X119854713Y-67750571D01*
X119711856Y-67750571D01*
X119616618Y-67822000D01*
X119568999Y-67964857D01*
X119568999Y-68750571D01*
X118711856Y-68679143D02*
X118807094Y-68750571D01*
X118997571Y-68750571D01*
X119092809Y-68679143D01*
X119140428Y-68536286D01*
X119140428Y-67964857D01*
X119092809Y-67822000D01*
X118997571Y-67750571D01*
X118807094Y-67750571D01*
X118711856Y-67822000D01*
X118664237Y-67964857D01*
X118664237Y-68107714D01*
X119140428Y-68250571D01*
X117854713Y-68679143D02*
X117949951Y-68750571D01*
X118140428Y-68750571D01*
X118235666Y-68679143D01*
X118283285Y-68536286D01*
X118283285Y-67964857D01*
X118235666Y-67822000D01*
X118140428Y-67750571D01*
X117949951Y-67750571D01*
X117854713Y-67822000D01*
X117807094Y-67964857D01*
X117807094Y-68107714D01*
X118283285Y-68250571D01*
X117426142Y-68679143D02*
X117330904Y-68750571D01*
X117140428Y-68750571D01*
X117045189Y-68679143D01*
X116997570Y-68536286D01*
X116997570Y-68464857D01*
X117045189Y-68322000D01*
X117140428Y-68250571D01*
X117283285Y-68250571D01*
X117378523Y-68179143D01*
X117426142Y-68036286D01*
X117426142Y-67964857D01*
X117378523Y-67822000D01*
X117283285Y-67750571D01*
X117140428Y-67750571D01*
X117045189Y-67822000D01*
X116426142Y-68750571D02*
X116521380Y-68679143D01*
X116568999Y-68607714D01*
X116616618Y-68464857D01*
X116616618Y-68036286D01*
X116568999Y-67893429D01*
X116521380Y-67822000D01*
X116426142Y-67750571D01*
X116283284Y-67750571D01*
X116188046Y-67822000D01*
X116140427Y-67893429D01*
X116092808Y-68036286D01*
X116092808Y-68464857D01*
X116140427Y-68607714D01*
X116188046Y-68679143D01*
X116283284Y-68750571D01*
X116426142Y-68750571D01*
X115664237Y-68607714D02*
X115616618Y-68679143D01*
X115664237Y-68750571D01*
X115711856Y-68679143D01*
X115664237Y-68607714D01*
X115664237Y-68750571D01*
X115188047Y-68750571D02*
X115188047Y-67250571D01*
X115092809Y-68179143D02*
X114807094Y-68750571D01*
X114807094Y-67750571D02*
X115188047Y-68322000D01*
X114378523Y-68750571D02*
X114378523Y-67750571D01*
X114378523Y-67250571D02*
X114426142Y-67322000D01*
X114378523Y-67393429D01*
X114330904Y-67322000D01*
X114378523Y-67250571D01*
X114378523Y-67393429D01*
X113902333Y-68750571D02*
X113902333Y-67750571D01*
X113902333Y-67893429D02*
X113854714Y-67822000D01*
X113759476Y-67750571D01*
X113616618Y-67750571D01*
X113521380Y-67822000D01*
X113473761Y-67964857D01*
X113473761Y-68750571D01*
X113473761Y-67964857D02*
X113426142Y-67822000D01*
X113330904Y-67750571D01*
X113188047Y-67750571D01*
X113092809Y-67822000D01*
X113045190Y-67964857D01*
X113045190Y-68750571D01*
X111949952Y-68036286D02*
X111997571Y-67964857D01*
X112092809Y-67893429D01*
X112188047Y-67893429D01*
X112283285Y-67964857D01*
X112330905Y-68036286D01*
X112378524Y-68179143D01*
X112378524Y-68322000D01*
X112330905Y-68464857D01*
X112283285Y-68536286D01*
X112188047Y-68607714D01*
X112092809Y-68607714D01*
X111997571Y-68536286D01*
X111949952Y-68464857D01*
X111949952Y-67893429D02*
X111949952Y-68464857D01*
X111902333Y-68536286D01*
X111854714Y-68536286D01*
X111759476Y-68464857D01*
X111711857Y-68322000D01*
X111711857Y-67964857D01*
X111807095Y-67750571D01*
X111949952Y-67607714D01*
X112140428Y-67536286D01*
X112330905Y-67607714D01*
X112473762Y-67750571D01*
X112569000Y-67964857D01*
X112616619Y-68250571D01*
X112569000Y-68536286D01*
X112473762Y-68750571D01*
X112330905Y-68893429D01*
X112140428Y-68964857D01*
X111949952Y-68893429D01*
X111807095Y-68750571D01*
X110854714Y-67750571D02*
X110854714Y-68964857D01*
X110902333Y-69107714D01*
X110949952Y-69179143D01*
X111045191Y-69250571D01*
X111188048Y-69250571D01*
X111283286Y-69179143D01*
X110854714Y-68679143D02*
X110949952Y-68750571D01*
X111140429Y-68750571D01*
X111235667Y-68679143D01*
X111283286Y-68607714D01*
X111330905Y-68464857D01*
X111330905Y-68036286D01*
X111283286Y-67893429D01*
X111235667Y-67822000D01*
X111140429Y-67750571D01*
X110949952Y-67750571D01*
X110854714Y-67822000D01*
X110378524Y-68750571D02*
X110378524Y-67750571D01*
X110378524Y-67893429D02*
X110330905Y-67822000D01*
X110235667Y-67750571D01*
X110092809Y-67750571D01*
X109997571Y-67822000D01*
X109949952Y-67964857D01*
X109949952Y-68750571D01*
X109949952Y-67964857D02*
X109902333Y-67822000D01*
X109807095Y-67750571D01*
X109664238Y-67750571D01*
X109569000Y-67822000D01*
X109521381Y-67964857D01*
X109521381Y-68750571D01*
X108616619Y-68750571D02*
X108616619Y-67964857D01*
X108664238Y-67822000D01*
X108759476Y-67750571D01*
X108949953Y-67750571D01*
X109045191Y-67822000D01*
X108616619Y-68679143D02*
X108711857Y-68750571D01*
X108949953Y-68750571D01*
X109045191Y-68679143D01*
X109092810Y-68536286D01*
X109092810Y-68393429D01*
X109045191Y-68250571D01*
X108949953Y-68179143D01*
X108711857Y-68179143D01*
X108616619Y-68107714D01*
X108140429Y-68750571D02*
X108140429Y-67750571D01*
X108140429Y-67250571D02*
X108188048Y-67322000D01*
X108140429Y-67393429D01*
X108092810Y-67322000D01*
X108140429Y-67250571D01*
X108140429Y-67393429D01*
X107521382Y-68750571D02*
X107616620Y-68679143D01*
X107664239Y-68536286D01*
X107664239Y-67250571D01*
X107140429Y-68607714D02*
X107092810Y-68679143D01*
X107140429Y-68750571D01*
X107188048Y-68679143D01*
X107140429Y-68607714D01*
X107140429Y-68750571D01*
X106235667Y-68679143D02*
X106330905Y-68750571D01*
X106521382Y-68750571D01*
X106616620Y-68679143D01*
X106664239Y-68607714D01*
X106711858Y-68464857D01*
X106711858Y-68036286D01*
X106664239Y-67893429D01*
X106616620Y-67822000D01*
X106521382Y-67750571D01*
X106330905Y-67750571D01*
X106235667Y-67822000D01*
X105664239Y-68750571D02*
X105759477Y-68679143D01*
X105807096Y-68607714D01*
X105854715Y-68464857D01*
X105854715Y-68036286D01*
X105807096Y-67893429D01*
X105759477Y-67822000D01*
X105664239Y-67750571D01*
X105521381Y-67750571D01*
X105426143Y-67822000D01*
X105378524Y-67893429D01*
X105330905Y-68036286D01*
X105330905Y-68464857D01*
X105378524Y-68607714D01*
X105426143Y-68679143D01*
X105521381Y-68750571D01*
X105664239Y-68750571D01*
X104902334Y-68750571D02*
X104902334Y-67750571D01*
X104902334Y-67893429D02*
X104854715Y-67822000D01*
X104759477Y-67750571D01*
X104616619Y-67750571D01*
X104521381Y-67822000D01*
X104473762Y-67964857D01*
X104473762Y-68750571D01*
X104473762Y-67964857D02*
X104426143Y-67822000D01*
X104330905Y-67750571D01*
X104188048Y-67750571D01*
X104092810Y-67822000D01*
X104045191Y-67964857D01*
X104045191Y-68750571D01*
X102854715Y-67393429D02*
X102807096Y-67322000D01*
X102711858Y-67250571D01*
X102473762Y-67250571D01*
X102378524Y-67322000D01*
X102330905Y-67393429D01*
X102283286Y-67536286D01*
X102283286Y-67679143D01*
X102330905Y-67893429D01*
X102902334Y-68750571D01*
X102283286Y-68750571D01*
X101664239Y-67250571D02*
X101569000Y-67250571D01*
X101473762Y-67322000D01*
X101426143Y-67393429D01*
X101378524Y-67536286D01*
X101330905Y-67822000D01*
X101330905Y-68179143D01*
X101378524Y-68464857D01*
X101426143Y-68607714D01*
X101473762Y-68679143D01*
X101569000Y-68750571D01*
X101664239Y-68750571D01*
X101759477Y-68679143D01*
X101807096Y-68607714D01*
X101854715Y-68464857D01*
X101902334Y-68179143D01*
X101902334Y-67822000D01*
X101854715Y-67536286D01*
X101807096Y-67393429D01*
X101759477Y-67322000D01*
X101664239Y-67250571D01*
X100378524Y-68750571D02*
X100949953Y-68750571D01*
X100664239Y-68750571D02*
X100664239Y-67250571D01*
X100759477Y-67464857D01*
X100854715Y-67607714D01*
X100949953Y-67679143D01*
X99521381Y-67250571D02*
X99711858Y-67250571D01*
X99807096Y-67322000D01*
X99854715Y-67393429D01*
X99949953Y-67607714D01*
X99997572Y-67893429D01*
X99997572Y-68464857D01*
X99949953Y-68607714D01*
X99902334Y-68679143D01*
X99807096Y-68750571D01*
X99616619Y-68750571D01*
X99521381Y-68679143D01*
X99473762Y-68607714D01*
X99426143Y-68464857D01*
X99426143Y-68107714D01*
X99473762Y-67964857D01*
X99521381Y-67893429D01*
X99616619Y-67822000D01*
X99807096Y-67822000D01*
X99902334Y-67893429D01*
X99949953Y-67964857D01*
X99997572Y-68107714D01*
X98997572Y-68607714D02*
X98949953Y-68679143D01*
X98997572Y-68750571D01*
X99045191Y-68679143D01*
X98997572Y-68607714D01*
X98997572Y-68750571D01*
X98330906Y-67250571D02*
X98235667Y-67250571D01*
X98140429Y-67322000D01*
X98092810Y-67393429D01*
X98045191Y-67536286D01*
X97997572Y-67822000D01*
X97997572Y-68179143D01*
X98045191Y-68464857D01*
X98092810Y-68607714D01*
X98140429Y-68679143D01*
X98235667Y-68750571D01*
X98330906Y-68750571D01*
X98426144Y-68679143D01*
X98473763Y-68607714D01*
X98521382Y-68464857D01*
X98569001Y-68179143D01*
X98569001Y-67822000D01*
X98521382Y-67536286D01*
X98473763Y-67393429D01*
X98426144Y-67322000D01*
X98330906Y-67250571D01*
X97092810Y-67250571D02*
X97569001Y-67250571D01*
X97616620Y-67964857D01*
X97569001Y-67893429D01*
X97473763Y-67822000D01*
X97235667Y-67822000D01*
X97140429Y-67893429D01*
X97092810Y-67964857D01*
X97045191Y-68107714D01*
X97045191Y-68464857D01*
X97092810Y-68607714D01*
X97140429Y-68679143D01*
X97235667Y-68750571D01*
X97473763Y-68750571D01*
X97569001Y-68679143D01*
X97616620Y-68607714D01*
X96616620Y-68607714D02*
X96569001Y-68679143D01*
X96616620Y-68750571D01*
X96664239Y-68679143D01*
X96616620Y-68607714D01*
X96616620Y-68750571D01*
X96188049Y-67393429D02*
X96140430Y-67322000D01*
X96045192Y-67250571D01*
X95807096Y-67250571D01*
X95711858Y-67322000D01*
X95664239Y-67393429D01*
X95616620Y-67536286D01*
X95616620Y-67679143D01*
X95664239Y-67893429D01*
X96235668Y-68750571D01*
X95616620Y-68750571D01*
X94759477Y-67750571D02*
X94759477Y-68750571D01*
X94997573Y-67179143D02*
X95235668Y-68250571D01*
X94616620Y-68250571D01*
D12*
X129988142Y-66039571D02*
X129988142Y-64539571D01*
X129416714Y-64539571D01*
X129273856Y-64611000D01*
X129202428Y-64682429D01*
X129130999Y-64825286D01*
X129130999Y-65039571D01*
X129202428Y-65182429D01*
X129273856Y-65253857D01*
X129416714Y-65325286D01*
X129988142Y-65325286D01*
X128559571Y-65968143D02*
X128345285Y-66039571D01*
X127988142Y-66039571D01*
X127845285Y-65968143D01*
X127773856Y-65896714D01*
X127702428Y-65753857D01*
X127702428Y-65611000D01*
X127773856Y-65468143D01*
X127845285Y-65396714D01*
X127988142Y-65325286D01*
X128273856Y-65253857D01*
X128416714Y-65182429D01*
X128488142Y-65111000D01*
X128559571Y-64968143D01*
X128559571Y-64825286D01*
X128488142Y-64682429D01*
X128416714Y-64611000D01*
X128273856Y-64539571D01*
X127916714Y-64539571D01*
X127702428Y-64611000D01*
X125988143Y-64468143D02*
X127273857Y-66396714D01*
X125559571Y-64682429D02*
X125488142Y-64611000D01*
X125345285Y-64539571D01*
X124988142Y-64539571D01*
X124845285Y-64611000D01*
X124773856Y-64682429D01*
X124702428Y-64825286D01*
X124702428Y-64968143D01*
X124773856Y-65182429D01*
X125630999Y-66039571D01*
X124702428Y-66039571D01*
X128595285Y-66939571D02*
X127595285Y-68439571D01*
X127595285Y-66939571D02*
X128595285Y-68439571D01*
X126238143Y-68439571D02*
X127095286Y-68439571D01*
X126666714Y-68439571D02*
X126666714Y-66939571D01*
X126809571Y-67153857D01*
X126952429Y-67296714D01*
X127095286Y-67368143D01*
X131452427Y-69339571D02*
X130452427Y-70839571D01*
X130452427Y-69339571D02*
X131452427Y-70839571D01*
X129238142Y-69339571D02*
X129523856Y-69339571D01*
X129666713Y-69411000D01*
X129738142Y-69482429D01*
X129880999Y-69696714D01*
X129952428Y-69982429D01*
X129952428Y-70553857D01*
X129880999Y-70696714D01*
X129809571Y-70768143D01*
X129666713Y-70839571D01*
X129380999Y-70839571D01*
X129238142Y-70768143D01*
X129166713Y-70696714D01*
X129095285Y-70553857D01*
X129095285Y-70196714D01*
X129166713Y-70053857D01*
X129238142Y-69982429D01*
X129380999Y-69911000D01*
X129666713Y-69911000D01*
X129809571Y-69982429D01*
X129880999Y-70053857D01*
X129952428Y-70196714D01*
X128238142Y-69982429D02*
X128381000Y-69911000D01*
X128452428Y-69839571D01*
X128523857Y-69696714D01*
X128523857Y-69625286D01*
X128452428Y-69482429D01*
X128381000Y-69411000D01*
X128238142Y-69339571D01*
X127952428Y-69339571D01*
X127809571Y-69411000D01*
X127738142Y-69482429D01*
X127666714Y-69625286D01*
X127666714Y-69696714D01*
X127738142Y-69839571D01*
X127809571Y-69911000D01*
X127952428Y-69982429D01*
X128238142Y-69982429D01*
X128381000Y-70053857D01*
X128452428Y-70125286D01*
X128523857Y-70268143D01*
X128523857Y-70553857D01*
X128452428Y-70696714D01*
X128381000Y-70768143D01*
X128238142Y-70839571D01*
X127952428Y-70839571D01*
X127809571Y-70768143D01*
X127738142Y-70696714D01*
X127666714Y-70553857D01*
X127666714Y-70268143D01*
X127738142Y-70125286D01*
X127809571Y-70053857D01*
X127952428Y-69982429D01*
X126738143Y-69339571D02*
X126595286Y-69339571D01*
X126452429Y-69411000D01*
X126381000Y-69482429D01*
X126309571Y-69625286D01*
X126238143Y-69911000D01*
X126238143Y-70268143D01*
X126309571Y-70553857D01*
X126381000Y-70696714D01*
X126452429Y-70768143D01*
X126595286Y-70839571D01*
X126738143Y-70839571D01*
X126881000Y-70768143D01*
X126952429Y-70696714D01*
X127023857Y-70553857D01*
X127095286Y-70268143D01*
X127095286Y-69911000D01*
X127023857Y-69625286D01*
X126952429Y-69482429D01*
X126881000Y-69411000D01*
X126738143Y-69339571D01*
X125309572Y-69339571D02*
X125166715Y-69339571D01*
X125023858Y-69411000D01*
X124952429Y-69482429D01*
X124881000Y-69625286D01*
X124809572Y-69911000D01*
X124809572Y-70268143D01*
X124881000Y-70553857D01*
X124952429Y-70696714D01*
X125023858Y-70768143D01*
X125166715Y-70839571D01*
X125309572Y-70839571D01*
X125452429Y-70768143D01*
X125523858Y-70696714D01*
X125595286Y-70553857D01*
X125666715Y-70268143D01*
X125666715Y-69911000D01*
X125595286Y-69625286D01*
X125523858Y-69482429D01*
X125452429Y-69411000D01*
X125309572Y-69339571D01*
X123881001Y-69339571D02*
X123738144Y-69339571D01*
X123595287Y-69411000D01*
X123523858Y-69482429D01*
X123452429Y-69625286D01*
X123381001Y-69911000D01*
X123381001Y-70268143D01*
X123452429Y-70553857D01*
X123523858Y-70696714D01*
X123595287Y-70768143D01*
X123738144Y-70839571D01*
X123881001Y-70839571D01*
X124023858Y-70768143D01*
X124095287Y-70696714D01*
X124166715Y-70553857D01*
X124238144Y-70268143D01*
X124238144Y-69911000D01*
X124166715Y-69625286D01*
X124095287Y-69482429D01*
X124023858Y-69411000D01*
X123881001Y-69339571D01*
X132166714Y-73239571D02*
X132166714Y-71739571D01*
X131309571Y-73239571D02*
X131952428Y-72382429D01*
X131309571Y-71739571D02*
X132166714Y-72596714D01*
X130095286Y-73168143D02*
X130238143Y-73239571D01*
X130523857Y-73239571D01*
X130666714Y-73168143D01*
X130738143Y-73025286D01*
X130738143Y-72453857D01*
X130666714Y-72311000D01*
X130523857Y-72239571D01*
X130238143Y-72239571D01*
X130095286Y-72311000D01*
X130023857Y-72453857D01*
X130023857Y-72596714D01*
X130738143Y-72739571D01*
X129523857Y-72239571D02*
X129166714Y-73239571D01*
X128809572Y-72239571D02*
X129166714Y-73239571D01*
X129309572Y-73596714D01*
X129381000Y-73668143D01*
X129523857Y-73739571D01*
X128238143Y-73239571D02*
X128238143Y-71739571D01*
X128238143Y-72311000D02*
X128095286Y-72239571D01*
X127809572Y-72239571D01*
X127666715Y-72311000D01*
X127595286Y-72382429D01*
X127523857Y-72525286D01*
X127523857Y-72953857D01*
X127595286Y-73096714D01*
X127666715Y-73168143D01*
X127809572Y-73239571D01*
X128095286Y-73239571D01*
X128238143Y-73168143D01*
X126666714Y-73239571D02*
X126809572Y-73168143D01*
X126881000Y-73096714D01*
X126952429Y-72953857D01*
X126952429Y-72525286D01*
X126881000Y-72382429D01*
X126809572Y-72311000D01*
X126666714Y-72239571D01*
X126452429Y-72239571D01*
X126309572Y-72311000D01*
X126238143Y-72382429D01*
X126166714Y-72525286D01*
X126166714Y-72953857D01*
X126238143Y-73096714D01*
X126309572Y-73168143D01*
X126452429Y-73239571D01*
X126666714Y-73239571D01*
X124881000Y-73239571D02*
X124881000Y-72453857D01*
X124952429Y-72311000D01*
X125095286Y-72239571D01*
X125381000Y-72239571D01*
X125523857Y-72311000D01*
X124881000Y-73168143D02*
X125023857Y-73239571D01*
X125381000Y-73239571D01*
X125523857Y-73168143D01*
X125595286Y-73025286D01*
X125595286Y-72882429D01*
X125523857Y-72739571D01*
X125381000Y-72668143D01*
X125023857Y-72668143D01*
X124881000Y-72596714D01*
X124166714Y-73239571D02*
X124166714Y-72239571D01*
X124166714Y-72525286D02*
X124095286Y-72382429D01*
X124023857Y-72311000D01*
X123881000Y-72239571D01*
X123738143Y-72239571D01*
X122595286Y-73239571D02*
X122595286Y-71739571D01*
X122595286Y-73168143D02*
X122738143Y-73239571D01*
X123023857Y-73239571D01*
X123166715Y-73168143D01*
X123238143Y-73096714D01*
X123309572Y-72953857D01*
X123309572Y-72525286D01*
X123238143Y-72382429D01*
X123166715Y-72311000D01*
X123023857Y-72239571D01*
X122738143Y-72239571D01*
X122595286Y-72311000D01*
X164254285Y-99228571D02*
X164754285Y-98514286D01*
X165111428Y-99228571D02*
X165111428Y-97728571D01*
X164540000Y-97728571D01*
X164397142Y-97800000D01*
X164325714Y-97871429D01*
X164254285Y-98014286D01*
X164254285Y-98228571D01*
X164325714Y-98371429D01*
X164397142Y-98442857D01*
X164540000Y-98514286D01*
X165111428Y-98514286D01*
X162968571Y-99228571D02*
X162968571Y-98442857D01*
X163040000Y-98300000D01*
X163182857Y-98228571D01*
X163468571Y-98228571D01*
X163611428Y-98300000D01*
X162968571Y-99157143D02*
X163111428Y-99228571D01*
X163468571Y-99228571D01*
X163611428Y-99157143D01*
X163682857Y-99014286D01*
X163682857Y-98871429D01*
X163611428Y-98728571D01*
X163468571Y-98657143D01*
X163111428Y-98657143D01*
X162968571Y-98585714D01*
X162325714Y-99157143D02*
X162182857Y-99228571D01*
X161897142Y-99228571D01*
X161754285Y-99157143D01*
X161682857Y-99014286D01*
X161682857Y-98942857D01*
X161754285Y-98800000D01*
X161897142Y-98728571D01*
X162111428Y-98728571D01*
X162254285Y-98657143D01*
X162325714Y-98514286D01*
X162325714Y-98442857D01*
X162254285Y-98300000D01*
X162111428Y-98228571D01*
X161897142Y-98228571D01*
X161754285Y-98300000D01*
X161039999Y-98228571D02*
X161039999Y-99728571D01*
X161039999Y-98300000D02*
X160897142Y-98228571D01*
X160611428Y-98228571D01*
X160468571Y-98300000D01*
X160397142Y-98371429D01*
X160325713Y-98514286D01*
X160325713Y-98942857D01*
X160397142Y-99085714D01*
X160468571Y-99157143D01*
X160611428Y-99228571D01*
X160897142Y-99228571D01*
X161039999Y-99157143D01*
X159682856Y-99228571D02*
X159682856Y-97728571D01*
X159682856Y-98300000D02*
X159539999Y-98228571D01*
X159254285Y-98228571D01*
X159111428Y-98300000D01*
X159039999Y-98371429D01*
X158968570Y-98514286D01*
X158968570Y-98942857D01*
X159039999Y-99085714D01*
X159111428Y-99157143D01*
X159254285Y-99228571D01*
X159539999Y-99228571D01*
X159682856Y-99157143D01*
X157754285Y-99157143D02*
X157897142Y-99228571D01*
X158182856Y-99228571D01*
X158325713Y-99157143D01*
X158397142Y-99014286D01*
X158397142Y-98442857D01*
X158325713Y-98300000D01*
X158182856Y-98228571D01*
X157897142Y-98228571D01*
X157754285Y-98300000D01*
X157682856Y-98442857D01*
X157682856Y-98585714D01*
X158397142Y-98728571D01*
X157039999Y-99228571D02*
X157039999Y-98228571D01*
X157039999Y-98514286D02*
X156968571Y-98371429D01*
X156897142Y-98300000D01*
X156754285Y-98228571D01*
X156611428Y-98228571D01*
X156111428Y-99228571D02*
X156111428Y-98228571D01*
X156111428Y-98514286D02*
X156040000Y-98371429D01*
X155968571Y-98300000D01*
X155825714Y-98228571D01*
X155682857Y-98228571D01*
X155325714Y-98228571D02*
X154968571Y-99228571D01*
X154611429Y-98228571D02*
X154968571Y-99228571D01*
X155111429Y-99585714D01*
X155182857Y-99657143D01*
X155325714Y-99728571D01*
X152897143Y-99228571D02*
X152897143Y-97728571D01*
X152325715Y-97728571D01*
X152182857Y-97800000D01*
X152111429Y-97871429D01*
X152040000Y-98014286D01*
X152040000Y-98228571D01*
X152111429Y-98371429D01*
X152182857Y-98442857D01*
X152325715Y-98514286D01*
X152897143Y-98514286D01*
X151397143Y-99228571D02*
X151397143Y-98228571D01*
X151397143Y-97728571D02*
X151468572Y-97800000D01*
X151397143Y-97871429D01*
X151325715Y-97800000D01*
X151397143Y-97728571D01*
X151397143Y-97871429D01*
X148754286Y-97800000D02*
X148897143Y-97728571D01*
X149111429Y-97728571D01*
X149325714Y-97800000D01*
X149468572Y-97942857D01*
X149540000Y-98085714D01*
X149611429Y-98371429D01*
X149611429Y-98585714D01*
X149540000Y-98871429D01*
X149468572Y-99014286D01*
X149325714Y-99157143D01*
X149111429Y-99228571D01*
X148968572Y-99228571D01*
X148754286Y-99157143D01*
X148682857Y-99085714D01*
X148682857Y-98585714D01*
X148968572Y-98585714D01*
X148040000Y-99228571D02*
X148040000Y-97728571D01*
X147468572Y-97728571D01*
X147325714Y-97800000D01*
X147254286Y-97871429D01*
X147182857Y-98014286D01*
X147182857Y-98228571D01*
X147254286Y-98371429D01*
X147325714Y-98442857D01*
X147468572Y-98514286D01*
X148040000Y-98514286D01*
X146540000Y-99228571D02*
X146540000Y-97728571D01*
X145540000Y-97728571D02*
X145254286Y-97728571D01*
X145111428Y-97800000D01*
X144968571Y-97942857D01*
X144897143Y-98228571D01*
X144897143Y-98728571D01*
X144968571Y-99014286D01*
X145111428Y-99157143D01*
X145254286Y-99228571D01*
X145540000Y-99228571D01*
X145682857Y-99157143D01*
X145825714Y-99014286D01*
X145897143Y-98728571D01*
X145897143Y-98228571D01*
X145825714Y-97942857D01*
X145682857Y-97800000D01*
X145540000Y-97728571D01*
X142540000Y-99157143D02*
X142682857Y-99228571D01*
X142968571Y-99228571D01*
X143111428Y-99157143D01*
X143182857Y-99014286D01*
X143182857Y-98442857D01*
X143111428Y-98300000D01*
X142968571Y-98228571D01*
X142682857Y-98228571D01*
X142540000Y-98300000D01*
X142468571Y-98442857D01*
X142468571Y-98585714D01*
X143182857Y-98728571D01*
X141968571Y-99228571D02*
X141182857Y-98228571D01*
X141968571Y-98228571D02*
X141182857Y-99228571D01*
X140825714Y-98228571D02*
X140254285Y-98228571D01*
X140611428Y-97728571D02*
X140611428Y-99014286D01*
X140540000Y-99157143D01*
X140397142Y-99228571D01*
X140254285Y-99228571D01*
X139182857Y-99157143D02*
X139325714Y-99228571D01*
X139611428Y-99228571D01*
X139754285Y-99157143D01*
X139825714Y-99014286D01*
X139825714Y-98442857D01*
X139754285Y-98300000D01*
X139611428Y-98228571D01*
X139325714Y-98228571D01*
X139182857Y-98300000D01*
X139111428Y-98442857D01*
X139111428Y-98585714D01*
X139825714Y-98728571D01*
X138468571Y-98228571D02*
X138468571Y-99228571D01*
X138468571Y-98371429D02*
X138397143Y-98300000D01*
X138254285Y-98228571D01*
X138040000Y-98228571D01*
X137897143Y-98300000D01*
X137825714Y-98442857D01*
X137825714Y-99228571D01*
X137182857Y-99157143D02*
X137040000Y-99228571D01*
X136754285Y-99228571D01*
X136611428Y-99157143D01*
X136540000Y-99014286D01*
X136540000Y-98942857D01*
X136611428Y-98800000D01*
X136754285Y-98728571D01*
X136968571Y-98728571D01*
X137111428Y-98657143D01*
X137182857Y-98514286D01*
X137182857Y-98442857D01*
X137111428Y-98300000D01*
X136968571Y-98228571D01*
X136754285Y-98228571D01*
X136611428Y-98300000D01*
X135897142Y-99228571D02*
X135897142Y-98228571D01*
X135897142Y-97728571D02*
X135968571Y-97800000D01*
X135897142Y-97871429D01*
X135825714Y-97800000D01*
X135897142Y-97728571D01*
X135897142Y-97871429D01*
X134968570Y-99228571D02*
X135111428Y-99157143D01*
X135182856Y-99085714D01*
X135254285Y-98942857D01*
X135254285Y-98514286D01*
X135182856Y-98371429D01*
X135111428Y-98300000D01*
X134968570Y-98228571D01*
X134754285Y-98228571D01*
X134611428Y-98300000D01*
X134539999Y-98371429D01*
X134468570Y-98514286D01*
X134468570Y-98942857D01*
X134539999Y-99085714D01*
X134611428Y-99157143D01*
X134754285Y-99228571D01*
X134968570Y-99228571D01*
X133825713Y-98228571D02*
X133825713Y-99228571D01*
X133825713Y-98371429D02*
X133754285Y-98300000D01*
X133611427Y-98228571D01*
X133397142Y-98228571D01*
X133254285Y-98300000D01*
X133182856Y-98442857D01*
X133182856Y-99228571D01*
X130682856Y-99157143D02*
X130825713Y-99228571D01*
X131111427Y-99228571D01*
X131254285Y-99157143D01*
X131325713Y-99085714D01*
X131397142Y-98942857D01*
X131397142Y-98514286D01*
X131325713Y-98371429D01*
X131254285Y-98300000D01*
X131111427Y-98228571D01*
X130825713Y-98228571D01*
X130682856Y-98300000D01*
X129397142Y-99228571D02*
X129397142Y-98442857D01*
X129468571Y-98300000D01*
X129611428Y-98228571D01*
X129897142Y-98228571D01*
X130039999Y-98300000D01*
X129397142Y-99157143D02*
X129539999Y-99228571D01*
X129897142Y-99228571D01*
X130039999Y-99157143D01*
X130111428Y-99014286D01*
X130111428Y-98871429D01*
X130039999Y-98728571D01*
X129897142Y-98657143D01*
X129539999Y-98657143D01*
X129397142Y-98585714D01*
X128682856Y-99228571D02*
X128682856Y-97728571D01*
X128682856Y-98300000D02*
X128539999Y-98228571D01*
X128254285Y-98228571D01*
X128111428Y-98300000D01*
X128039999Y-98371429D01*
X127968570Y-98514286D01*
X127968570Y-98942857D01*
X128039999Y-99085714D01*
X128111428Y-99157143D01*
X128254285Y-99228571D01*
X128539999Y-99228571D01*
X128682856Y-99157143D01*
X127111427Y-99228571D02*
X127254285Y-99157143D01*
X127325713Y-99014286D01*
X127325713Y-97728571D01*
X125968571Y-99157143D02*
X126111428Y-99228571D01*
X126397142Y-99228571D01*
X126539999Y-99157143D01*
X126611428Y-99014286D01*
X126611428Y-98442857D01*
X126539999Y-98300000D01*
X126397142Y-98228571D01*
X126111428Y-98228571D01*
X125968571Y-98300000D01*
X125897142Y-98442857D01*
X125897142Y-98585714D01*
X126611428Y-98728571D01*
D13*
X118210000Y-97080000D02*
X118210000Y-89460000D01*
X118210000Y-89460000D02*
X171550000Y-89460000D01*
X171550000Y-89460000D02*
X171550000Y-97080000D01*
X171550000Y-97080000D02*
X118210000Y-97080000D01*
X146848405Y-110564681D02*
X146848405Y-111374205D01*
X146800786Y-111469443D01*
X146753167Y-111517062D01*
X146657929Y-111564681D01*
X146467452Y-111564681D01*
X146372214Y-111517062D01*
X146324595Y-111469443D01*
X146276976Y-111374205D01*
X146276976Y-110564681D01*
X145276976Y-111564681D02*
X145848405Y-111564681D01*
X145562691Y-111564681D02*
X145562691Y-110564681D01*
X145657929Y-110707538D01*
X145753167Y-110802776D01*
X145848405Y-110850395D01*
X144997433Y-87751601D02*
X144997433Y-88465887D01*
X145045053Y-88608744D01*
X145140291Y-88703982D01*
X145283148Y-88751601D01*
X145378386Y-88751601D01*
X143997433Y-88751601D02*
X144568862Y-88751601D01*
X144283148Y-88751601D02*
X144283148Y-87751601D01*
X144378386Y-87894458D01*
X144473624Y-87989696D01*
X144568862Y-88037315D01*
M02*
