G04 #@! TF.FileFunction,Legend,Top*
%FSLAX46Y46*%
G04 Gerber Fmt 4.6, Leading zero omitted, Abs format (unit mm)*
G04 Created by KiCad (PCBNEW 4.0.2-stable) date 2016-05-24 오전 1:59:57*
%MOMM*%
G01*
G04 APERTURE LIST*
%ADD10C,0.100000*%
%ADD11C,0.200000*%
%ADD12C,0.300000*%
%ADD13C,0.250000*%
%ADD14C,0.150000*%
%ADD15C,0.010000*%
%ADD16C,0.381000*%
%ADD17C,0.304800*%
G04 APERTURE END LIST*
D10*
D11*
X141404762Y-73747619D02*
X141452381Y-73700000D01*
X141547619Y-73652381D01*
X141785715Y-73652381D01*
X141880953Y-73700000D01*
X141928572Y-73747619D01*
X141976191Y-73842857D01*
X141976191Y-73938095D01*
X141928572Y-74080952D01*
X141357143Y-74652381D01*
X141976191Y-74652381D01*
X142595238Y-73652381D02*
X142690477Y-73652381D01*
X142785715Y-73700000D01*
X142833334Y-73747619D01*
X142880953Y-73842857D01*
X142928572Y-74033333D01*
X142928572Y-74271429D01*
X142880953Y-74461905D01*
X142833334Y-74557143D01*
X142785715Y-74604762D01*
X142690477Y-74652381D01*
X142595238Y-74652381D01*
X142500000Y-74604762D01*
X142452381Y-74557143D01*
X142404762Y-74461905D01*
X142357143Y-74271429D01*
X142357143Y-74033333D01*
X142404762Y-73842857D01*
X142452381Y-73747619D01*
X142500000Y-73700000D01*
X142595238Y-73652381D01*
X143880953Y-74652381D02*
X143309524Y-74652381D01*
X143595238Y-74652381D02*
X143595238Y-73652381D01*
X143500000Y-73795238D01*
X143404762Y-73890476D01*
X143309524Y-73938095D01*
X144738096Y-73652381D02*
X144547619Y-73652381D01*
X144452381Y-73700000D01*
X144404762Y-73747619D01*
X144309524Y-73890476D01*
X144261905Y-74080952D01*
X144261905Y-74461905D01*
X144309524Y-74557143D01*
X144357143Y-74604762D01*
X144452381Y-74652381D01*
X144642858Y-74652381D01*
X144738096Y-74604762D01*
X144785715Y-74557143D01*
X144833334Y-74461905D01*
X144833334Y-74223810D01*
X144785715Y-74128571D01*
X144738096Y-74080952D01*
X144642858Y-74033333D01*
X144452381Y-74033333D01*
X144357143Y-74080952D01*
X144309524Y-74128571D01*
X144261905Y-74223810D01*
X145261905Y-74557143D02*
X145309524Y-74604762D01*
X145261905Y-74652381D01*
X145214286Y-74604762D01*
X145261905Y-74557143D01*
X145261905Y-74652381D01*
X145928571Y-73652381D02*
X146023810Y-73652381D01*
X146119048Y-73700000D01*
X146166667Y-73747619D01*
X146214286Y-73842857D01*
X146261905Y-74033333D01*
X146261905Y-74271429D01*
X146214286Y-74461905D01*
X146166667Y-74557143D01*
X146119048Y-74604762D01*
X146023810Y-74652381D01*
X145928571Y-74652381D01*
X145833333Y-74604762D01*
X145785714Y-74557143D01*
X145738095Y-74461905D01*
X145690476Y-74271429D01*
X145690476Y-74033333D01*
X145738095Y-73842857D01*
X145785714Y-73747619D01*
X145833333Y-73700000D01*
X145928571Y-73652381D01*
X147166667Y-73652381D02*
X146690476Y-73652381D01*
X146642857Y-74128571D01*
X146690476Y-74080952D01*
X146785714Y-74033333D01*
X147023810Y-74033333D01*
X147119048Y-74080952D01*
X147166667Y-74128571D01*
X147214286Y-74223810D01*
X147214286Y-74461905D01*
X147166667Y-74557143D01*
X147119048Y-74604762D01*
X147023810Y-74652381D01*
X146785714Y-74652381D01*
X146690476Y-74604762D01*
X146642857Y-74557143D01*
X147642857Y-74557143D02*
X147690476Y-74604762D01*
X147642857Y-74652381D01*
X147595238Y-74604762D01*
X147642857Y-74557143D01*
X147642857Y-74652381D01*
X148071428Y-73747619D02*
X148119047Y-73700000D01*
X148214285Y-73652381D01*
X148452381Y-73652381D01*
X148547619Y-73700000D01*
X148595238Y-73747619D01*
X148642857Y-73842857D01*
X148642857Y-73938095D01*
X148595238Y-74080952D01*
X148023809Y-74652381D01*
X148642857Y-74652381D01*
X149500000Y-73985714D02*
X149500000Y-74652381D01*
X149261904Y-73604762D02*
X149023809Y-74319048D01*
X149642857Y-74319048D01*
X91440000Y-78232000D02*
X179578000Y-78232000D01*
X140433332Y-76752381D02*
X140433332Y-75752381D01*
X140814285Y-75752381D01*
X140909523Y-75800000D01*
X140957142Y-75847619D01*
X141004761Y-75942857D01*
X141004761Y-76085714D01*
X140957142Y-76180952D01*
X140909523Y-76228571D01*
X140814285Y-76276190D01*
X140433332Y-76276190D01*
X141385713Y-76704762D02*
X141528570Y-76752381D01*
X141766666Y-76752381D01*
X141861904Y-76704762D01*
X141909523Y-76657143D01*
X141957142Y-76561905D01*
X141957142Y-76466667D01*
X141909523Y-76371429D01*
X141861904Y-76323810D01*
X141766666Y-76276190D01*
X141576189Y-76228571D01*
X141480951Y-76180952D01*
X141433332Y-76133333D01*
X141385713Y-76038095D01*
X141385713Y-75942857D01*
X141433332Y-75847619D01*
X141480951Y-75800000D01*
X141576189Y-75752381D01*
X141814285Y-75752381D01*
X141957142Y-75800000D01*
X143099999Y-75704762D02*
X142242856Y-76990476D01*
X143385713Y-75847619D02*
X143433332Y-75800000D01*
X143528570Y-75752381D01*
X143766666Y-75752381D01*
X143861904Y-75800000D01*
X143909523Y-75847619D01*
X143957142Y-75942857D01*
X143957142Y-76038095D01*
X143909523Y-76180952D01*
X143338094Y-76752381D01*
X143957142Y-76752381D01*
X145147618Y-76752381D02*
X145147618Y-75752381D01*
X145719047Y-76752381D02*
X145290475Y-76180952D01*
X145719047Y-75752381D02*
X145147618Y-76323810D01*
X146528571Y-76704762D02*
X146433333Y-76752381D01*
X146242856Y-76752381D01*
X146147618Y-76704762D01*
X146099999Y-76609524D01*
X146099999Y-76228571D01*
X146147618Y-76133333D01*
X146242856Y-76085714D01*
X146433333Y-76085714D01*
X146528571Y-76133333D01*
X146576190Y-76228571D01*
X146576190Y-76323810D01*
X146099999Y-76419048D01*
X146909523Y-76085714D02*
X147147618Y-76752381D01*
X147385714Y-76085714D02*
X147147618Y-76752381D01*
X147052380Y-76990476D01*
X147004761Y-77038095D01*
X146909523Y-77085714D01*
X147909523Y-76752381D02*
X147814285Y-76704762D01*
X147766666Y-76609524D01*
X147766666Y-75752381D01*
X148433333Y-76752381D02*
X148338095Y-76704762D01*
X148290476Y-76657143D01*
X148242857Y-76561905D01*
X148242857Y-76276190D01*
X148290476Y-76180952D01*
X148338095Y-76133333D01*
X148433333Y-76085714D01*
X148576191Y-76085714D01*
X148671429Y-76133333D01*
X148719048Y-76180952D01*
X148766667Y-76276190D01*
X148766667Y-76561905D01*
X148719048Y-76657143D01*
X148671429Y-76704762D01*
X148576191Y-76752381D01*
X148433333Y-76752381D01*
X149623810Y-76085714D02*
X149623810Y-76895238D01*
X149576191Y-76990476D01*
X149528572Y-77038095D01*
X149433333Y-77085714D01*
X149290476Y-77085714D01*
X149195238Y-77038095D01*
X149623810Y-76704762D02*
X149528572Y-76752381D01*
X149338095Y-76752381D01*
X149242857Y-76704762D01*
X149195238Y-76657143D01*
X149147619Y-76561905D01*
X149147619Y-76276190D01*
X149195238Y-76180952D01*
X149242857Y-76133333D01*
X149338095Y-76085714D01*
X149528572Y-76085714D01*
X149623810Y-76133333D01*
X150528572Y-76085714D02*
X150528572Y-76895238D01*
X150480953Y-76990476D01*
X150433334Y-77038095D01*
X150338095Y-77085714D01*
X150195238Y-77085714D01*
X150100000Y-77038095D01*
X150528572Y-76704762D02*
X150433334Y-76752381D01*
X150242857Y-76752381D01*
X150147619Y-76704762D01*
X150100000Y-76657143D01*
X150052381Y-76561905D01*
X150052381Y-76276190D01*
X150100000Y-76180952D01*
X150147619Y-76133333D01*
X150242857Y-76085714D01*
X150433334Y-76085714D01*
X150528572Y-76133333D01*
X151385715Y-76704762D02*
X151290477Y-76752381D01*
X151100000Y-76752381D01*
X151004762Y-76704762D01*
X150957143Y-76609524D01*
X150957143Y-76228571D01*
X151004762Y-76133333D01*
X151100000Y-76085714D01*
X151290477Y-76085714D01*
X151385715Y-76133333D01*
X151433334Y-76228571D01*
X151433334Y-76323810D01*
X150957143Y-76419048D01*
X151861905Y-76752381D02*
X151861905Y-76085714D01*
X151861905Y-76276190D02*
X151909524Y-76180952D01*
X151957143Y-76133333D01*
X152052381Y-76085714D01*
X152147620Y-76085714D01*
D12*
X124492858Y-65678571D02*
X124492858Y-64178571D01*
X125064286Y-64178571D01*
X125207144Y-64250000D01*
X125278572Y-64321429D01*
X125350001Y-64464286D01*
X125350001Y-64678571D01*
X125278572Y-64821429D01*
X125207144Y-64892857D01*
X125064286Y-64964286D01*
X124492858Y-64964286D01*
X125921429Y-65607143D02*
X126135715Y-65678571D01*
X126492858Y-65678571D01*
X126635715Y-65607143D01*
X126707144Y-65535714D01*
X126778572Y-65392857D01*
X126778572Y-65250000D01*
X126707144Y-65107143D01*
X126635715Y-65035714D01*
X126492858Y-64964286D01*
X126207144Y-64892857D01*
X126064286Y-64821429D01*
X125992858Y-64750000D01*
X125921429Y-64607143D01*
X125921429Y-64464286D01*
X125992858Y-64321429D01*
X126064286Y-64250000D01*
X126207144Y-64178571D01*
X126564286Y-64178571D01*
X126778572Y-64250000D01*
X128492857Y-64107143D02*
X127207143Y-66035714D01*
X128921429Y-64321429D02*
X128992858Y-64250000D01*
X129135715Y-64178571D01*
X129492858Y-64178571D01*
X129635715Y-64250000D01*
X129707144Y-64321429D01*
X129778572Y-64464286D01*
X129778572Y-64607143D01*
X129707144Y-64821429D01*
X128850001Y-65678571D01*
X129778572Y-65678571D01*
X125885715Y-66578571D02*
X126885715Y-68078571D01*
X126885715Y-66578571D02*
X125885715Y-68078571D01*
X128242857Y-68078571D02*
X127385714Y-68078571D01*
X127814286Y-68078571D02*
X127814286Y-66578571D01*
X127671429Y-66792857D01*
X127528571Y-66935714D01*
X127385714Y-67007143D01*
X123028573Y-68978571D02*
X124028573Y-70478571D01*
X124028573Y-68978571D02*
X123028573Y-70478571D01*
X125242858Y-68978571D02*
X124957144Y-68978571D01*
X124814287Y-69050000D01*
X124742858Y-69121429D01*
X124600001Y-69335714D01*
X124528572Y-69621429D01*
X124528572Y-70192857D01*
X124600001Y-70335714D01*
X124671429Y-70407143D01*
X124814287Y-70478571D01*
X125100001Y-70478571D01*
X125242858Y-70407143D01*
X125314287Y-70335714D01*
X125385715Y-70192857D01*
X125385715Y-69835714D01*
X125314287Y-69692857D01*
X125242858Y-69621429D01*
X125100001Y-69550000D01*
X124814287Y-69550000D01*
X124671429Y-69621429D01*
X124600001Y-69692857D01*
X124528572Y-69835714D01*
X126242858Y-69621429D02*
X126100000Y-69550000D01*
X126028572Y-69478571D01*
X125957143Y-69335714D01*
X125957143Y-69264286D01*
X126028572Y-69121429D01*
X126100000Y-69050000D01*
X126242858Y-68978571D01*
X126528572Y-68978571D01*
X126671429Y-69050000D01*
X126742858Y-69121429D01*
X126814286Y-69264286D01*
X126814286Y-69335714D01*
X126742858Y-69478571D01*
X126671429Y-69550000D01*
X126528572Y-69621429D01*
X126242858Y-69621429D01*
X126100000Y-69692857D01*
X126028572Y-69764286D01*
X125957143Y-69907143D01*
X125957143Y-70192857D01*
X126028572Y-70335714D01*
X126100000Y-70407143D01*
X126242858Y-70478571D01*
X126528572Y-70478571D01*
X126671429Y-70407143D01*
X126742858Y-70335714D01*
X126814286Y-70192857D01*
X126814286Y-69907143D01*
X126742858Y-69764286D01*
X126671429Y-69692857D01*
X126528572Y-69621429D01*
X127742857Y-68978571D02*
X127885714Y-68978571D01*
X128028571Y-69050000D01*
X128100000Y-69121429D01*
X128171429Y-69264286D01*
X128242857Y-69550000D01*
X128242857Y-69907143D01*
X128171429Y-70192857D01*
X128100000Y-70335714D01*
X128028571Y-70407143D01*
X127885714Y-70478571D01*
X127742857Y-70478571D01*
X127600000Y-70407143D01*
X127528571Y-70335714D01*
X127457143Y-70192857D01*
X127385714Y-69907143D01*
X127385714Y-69550000D01*
X127457143Y-69264286D01*
X127528571Y-69121429D01*
X127600000Y-69050000D01*
X127742857Y-68978571D01*
X129171428Y-68978571D02*
X129314285Y-68978571D01*
X129457142Y-69050000D01*
X129528571Y-69121429D01*
X129600000Y-69264286D01*
X129671428Y-69550000D01*
X129671428Y-69907143D01*
X129600000Y-70192857D01*
X129528571Y-70335714D01*
X129457142Y-70407143D01*
X129314285Y-70478571D01*
X129171428Y-70478571D01*
X129028571Y-70407143D01*
X128957142Y-70335714D01*
X128885714Y-70192857D01*
X128814285Y-69907143D01*
X128814285Y-69550000D01*
X128885714Y-69264286D01*
X128957142Y-69121429D01*
X129028571Y-69050000D01*
X129171428Y-68978571D01*
X130599999Y-68978571D02*
X130742856Y-68978571D01*
X130885713Y-69050000D01*
X130957142Y-69121429D01*
X131028571Y-69264286D01*
X131099999Y-69550000D01*
X131099999Y-69907143D01*
X131028571Y-70192857D01*
X130957142Y-70335714D01*
X130885713Y-70407143D01*
X130742856Y-70478571D01*
X130599999Y-70478571D01*
X130457142Y-70407143D01*
X130385713Y-70335714D01*
X130314285Y-70192857D01*
X130242856Y-69907143D01*
X130242856Y-69550000D01*
X130314285Y-69264286D01*
X130385713Y-69121429D01*
X130457142Y-69050000D01*
X130599999Y-68978571D01*
X122314286Y-72878571D02*
X122314286Y-71378571D01*
X123171429Y-72878571D02*
X122528572Y-72021429D01*
X123171429Y-71378571D02*
X122314286Y-72235714D01*
X124385714Y-72807143D02*
X124242857Y-72878571D01*
X123957143Y-72878571D01*
X123814286Y-72807143D01*
X123742857Y-72664286D01*
X123742857Y-72092857D01*
X123814286Y-71950000D01*
X123957143Y-71878571D01*
X124242857Y-71878571D01*
X124385714Y-71950000D01*
X124457143Y-72092857D01*
X124457143Y-72235714D01*
X123742857Y-72378571D01*
X124957143Y-71878571D02*
X125314286Y-72878571D01*
X125671428Y-71878571D02*
X125314286Y-72878571D01*
X125171428Y-73235714D01*
X125100000Y-73307143D01*
X124957143Y-73378571D01*
X126242857Y-72878571D02*
X126242857Y-71378571D01*
X126242857Y-71950000D02*
X126385714Y-71878571D01*
X126671428Y-71878571D01*
X126814285Y-71950000D01*
X126885714Y-72021429D01*
X126957143Y-72164286D01*
X126957143Y-72592857D01*
X126885714Y-72735714D01*
X126814285Y-72807143D01*
X126671428Y-72878571D01*
X126385714Y-72878571D01*
X126242857Y-72807143D01*
X127814286Y-72878571D02*
X127671428Y-72807143D01*
X127600000Y-72735714D01*
X127528571Y-72592857D01*
X127528571Y-72164286D01*
X127600000Y-72021429D01*
X127671428Y-71950000D01*
X127814286Y-71878571D01*
X128028571Y-71878571D01*
X128171428Y-71950000D01*
X128242857Y-72021429D01*
X128314286Y-72164286D01*
X128314286Y-72592857D01*
X128242857Y-72735714D01*
X128171428Y-72807143D01*
X128028571Y-72878571D01*
X127814286Y-72878571D01*
X129600000Y-72878571D02*
X129600000Y-72092857D01*
X129528571Y-71950000D01*
X129385714Y-71878571D01*
X129100000Y-71878571D01*
X128957143Y-71950000D01*
X129600000Y-72807143D02*
X129457143Y-72878571D01*
X129100000Y-72878571D01*
X128957143Y-72807143D01*
X128885714Y-72664286D01*
X128885714Y-72521429D01*
X128957143Y-72378571D01*
X129100000Y-72307143D01*
X129457143Y-72307143D01*
X129600000Y-72235714D01*
X130314286Y-72878571D02*
X130314286Y-71878571D01*
X130314286Y-72164286D02*
X130385714Y-72021429D01*
X130457143Y-71950000D01*
X130600000Y-71878571D01*
X130742857Y-71878571D01*
X131885714Y-72878571D02*
X131885714Y-71378571D01*
X131885714Y-72807143D02*
X131742857Y-72878571D01*
X131457143Y-72878571D01*
X131314285Y-72807143D01*
X131242857Y-72735714D01*
X131171428Y-72592857D01*
X131171428Y-72164286D01*
X131242857Y-72021429D01*
X131314285Y-71950000D01*
X131457143Y-71878571D01*
X131742857Y-71878571D01*
X131885714Y-71950000D01*
D13*
X161209525Y-120762381D02*
X161209525Y-120095714D01*
X161209525Y-120190952D02*
X161257144Y-120143333D01*
X161352382Y-120095714D01*
X161495240Y-120095714D01*
X161590478Y-120143333D01*
X161638097Y-120238571D01*
X161638097Y-120762381D01*
X161638097Y-120238571D02*
X161685716Y-120143333D01*
X161780954Y-120095714D01*
X161923811Y-120095714D01*
X162019049Y-120143333D01*
X162066668Y-120238571D01*
X162066668Y-120762381D01*
X162923811Y-120714762D02*
X162828573Y-120762381D01*
X162638096Y-120762381D01*
X162542858Y-120714762D01*
X162495239Y-120619524D01*
X162495239Y-120238571D01*
X162542858Y-120143333D01*
X162638096Y-120095714D01*
X162828573Y-120095714D01*
X162923811Y-120143333D01*
X162971430Y-120238571D01*
X162971430Y-120333810D01*
X162495239Y-120429048D01*
X163780954Y-120714762D02*
X163685716Y-120762381D01*
X163495239Y-120762381D01*
X163400001Y-120714762D01*
X163352382Y-120619524D01*
X163352382Y-120238571D01*
X163400001Y-120143333D01*
X163495239Y-120095714D01*
X163685716Y-120095714D01*
X163780954Y-120143333D01*
X163828573Y-120238571D01*
X163828573Y-120333810D01*
X163352382Y-120429048D01*
X164209525Y-120714762D02*
X164304763Y-120762381D01*
X164495239Y-120762381D01*
X164590478Y-120714762D01*
X164638097Y-120619524D01*
X164638097Y-120571905D01*
X164590478Y-120476667D01*
X164495239Y-120429048D01*
X164352382Y-120429048D01*
X164257144Y-120381429D01*
X164209525Y-120286190D01*
X164209525Y-120238571D01*
X164257144Y-120143333D01*
X164352382Y-120095714D01*
X164495239Y-120095714D01*
X164590478Y-120143333D01*
X165209525Y-120762381D02*
X165114287Y-120714762D01*
X165066668Y-120667143D01*
X165019049Y-120571905D01*
X165019049Y-120286190D01*
X165066668Y-120190952D01*
X165114287Y-120143333D01*
X165209525Y-120095714D01*
X165352383Y-120095714D01*
X165447621Y-120143333D01*
X165495240Y-120190952D01*
X165542859Y-120286190D01*
X165542859Y-120571905D01*
X165495240Y-120667143D01*
X165447621Y-120714762D01*
X165352383Y-120762381D01*
X165209525Y-120762381D01*
X165971430Y-120667143D02*
X166019049Y-120714762D01*
X165971430Y-120762381D01*
X165923811Y-120714762D01*
X165971430Y-120667143D01*
X165971430Y-120762381D01*
X166447620Y-120762381D02*
X166447620Y-119762381D01*
X166542858Y-120381429D02*
X166828573Y-120762381D01*
X166828573Y-120095714D02*
X166447620Y-120476667D01*
X167257144Y-120762381D02*
X167257144Y-120095714D01*
X167257144Y-119762381D02*
X167209525Y-119810000D01*
X167257144Y-119857619D01*
X167304763Y-119810000D01*
X167257144Y-119762381D01*
X167257144Y-119857619D01*
X167733334Y-120762381D02*
X167733334Y-120095714D01*
X167733334Y-120190952D02*
X167780953Y-120143333D01*
X167876191Y-120095714D01*
X168019049Y-120095714D01*
X168114287Y-120143333D01*
X168161906Y-120238571D01*
X168161906Y-120762381D01*
X168161906Y-120238571D02*
X168209525Y-120143333D01*
X168304763Y-120095714D01*
X168447620Y-120095714D01*
X168542858Y-120143333D01*
X168590477Y-120238571D01*
X168590477Y-120762381D01*
X169685715Y-120286190D02*
X169638096Y-120238571D01*
X169542858Y-120190952D01*
X169447620Y-120190952D01*
X169352382Y-120238571D01*
X169304762Y-120286190D01*
X169257143Y-120381429D01*
X169257143Y-120476667D01*
X169304762Y-120571905D01*
X169352382Y-120619524D01*
X169447620Y-120667143D01*
X169542858Y-120667143D01*
X169638096Y-120619524D01*
X169685715Y-120571905D01*
X169685715Y-120190952D02*
X169685715Y-120571905D01*
X169733334Y-120619524D01*
X169780953Y-120619524D01*
X169876191Y-120571905D01*
X169923810Y-120476667D01*
X169923810Y-120238571D01*
X169828572Y-120095714D01*
X169685715Y-120000476D01*
X169495239Y-119952857D01*
X169304762Y-120000476D01*
X169161905Y-120095714D01*
X169066667Y-120238571D01*
X169019048Y-120429048D01*
X169066667Y-120619524D01*
X169161905Y-120762381D01*
X169304762Y-120857619D01*
X169495239Y-120905238D01*
X169685715Y-120857619D01*
X169828572Y-120762381D01*
X170780953Y-120095714D02*
X170780953Y-120905238D01*
X170733334Y-121000476D01*
X170685715Y-121048095D01*
X170590476Y-121095714D01*
X170447619Y-121095714D01*
X170352381Y-121048095D01*
X170780953Y-120714762D02*
X170685715Y-120762381D01*
X170495238Y-120762381D01*
X170400000Y-120714762D01*
X170352381Y-120667143D01*
X170304762Y-120571905D01*
X170304762Y-120286190D01*
X170352381Y-120190952D01*
X170400000Y-120143333D01*
X170495238Y-120095714D01*
X170685715Y-120095714D01*
X170780953Y-120143333D01*
X171257143Y-120762381D02*
X171257143Y-120095714D01*
X171257143Y-120190952D02*
X171304762Y-120143333D01*
X171400000Y-120095714D01*
X171542858Y-120095714D01*
X171638096Y-120143333D01*
X171685715Y-120238571D01*
X171685715Y-120762381D01*
X171685715Y-120238571D02*
X171733334Y-120143333D01*
X171828572Y-120095714D01*
X171971429Y-120095714D01*
X172066667Y-120143333D01*
X172114286Y-120238571D01*
X172114286Y-120762381D01*
X173019048Y-120762381D02*
X173019048Y-120238571D01*
X172971429Y-120143333D01*
X172876191Y-120095714D01*
X172685714Y-120095714D01*
X172590476Y-120143333D01*
X173019048Y-120714762D02*
X172923810Y-120762381D01*
X172685714Y-120762381D01*
X172590476Y-120714762D01*
X172542857Y-120619524D01*
X172542857Y-120524286D01*
X172590476Y-120429048D01*
X172685714Y-120381429D01*
X172923810Y-120381429D01*
X173019048Y-120333810D01*
X173495238Y-120762381D02*
X173495238Y-120095714D01*
X173495238Y-119762381D02*
X173447619Y-119810000D01*
X173495238Y-119857619D01*
X173542857Y-119810000D01*
X173495238Y-119762381D01*
X173495238Y-119857619D01*
X174114285Y-120762381D02*
X174019047Y-120714762D01*
X173971428Y-120619524D01*
X173971428Y-119762381D01*
X174495238Y-120667143D02*
X174542857Y-120714762D01*
X174495238Y-120762381D01*
X174447619Y-120714762D01*
X174495238Y-120667143D01*
X174495238Y-120762381D01*
X175400000Y-120714762D02*
X175304762Y-120762381D01*
X175114285Y-120762381D01*
X175019047Y-120714762D01*
X174971428Y-120667143D01*
X174923809Y-120571905D01*
X174923809Y-120286190D01*
X174971428Y-120190952D01*
X175019047Y-120143333D01*
X175114285Y-120095714D01*
X175304762Y-120095714D01*
X175400000Y-120143333D01*
X175971428Y-120762381D02*
X175876190Y-120714762D01*
X175828571Y-120667143D01*
X175780952Y-120571905D01*
X175780952Y-120286190D01*
X175828571Y-120190952D01*
X175876190Y-120143333D01*
X175971428Y-120095714D01*
X176114286Y-120095714D01*
X176209524Y-120143333D01*
X176257143Y-120190952D01*
X176304762Y-120286190D01*
X176304762Y-120571905D01*
X176257143Y-120667143D01*
X176209524Y-120714762D01*
X176114286Y-120762381D01*
X175971428Y-120762381D01*
X176733333Y-120762381D02*
X176733333Y-120095714D01*
X176733333Y-120190952D02*
X176780952Y-120143333D01*
X176876190Y-120095714D01*
X177019048Y-120095714D01*
X177114286Y-120143333D01*
X177161905Y-120238571D01*
X177161905Y-120762381D01*
X177161905Y-120238571D02*
X177209524Y-120143333D01*
X177304762Y-120095714D01*
X177447619Y-120095714D01*
X177542857Y-120143333D01*
X177590476Y-120238571D01*
X177590476Y-120762381D01*
D12*
X130771431Y-123248571D02*
X130271431Y-122534286D01*
X129914288Y-123248571D02*
X129914288Y-121748571D01*
X130485716Y-121748571D01*
X130628574Y-121820000D01*
X130700002Y-121891429D01*
X130771431Y-122034286D01*
X130771431Y-122248571D01*
X130700002Y-122391429D01*
X130628574Y-122462857D01*
X130485716Y-122534286D01*
X129914288Y-122534286D01*
X131414288Y-123248571D02*
X131414288Y-121748571D01*
X131985716Y-121748571D01*
X132128574Y-121820000D01*
X132200002Y-121891429D01*
X132271431Y-122034286D01*
X132271431Y-122248571D01*
X132200002Y-122391429D01*
X132128574Y-122462857D01*
X131985716Y-122534286D01*
X131414288Y-122534286D01*
X132914288Y-123248571D02*
X132914288Y-121748571D01*
X133414288Y-122820000D01*
X133914288Y-121748571D01*
X133914288Y-123248571D01*
X135128574Y-122462857D02*
X135342860Y-122534286D01*
X135414288Y-122605714D01*
X135485717Y-122748571D01*
X135485717Y-122962857D01*
X135414288Y-123105714D01*
X135342860Y-123177143D01*
X135200002Y-123248571D01*
X134628574Y-123248571D01*
X134628574Y-121748571D01*
X135128574Y-121748571D01*
X135271431Y-121820000D01*
X135342860Y-121891429D01*
X135414288Y-122034286D01*
X135414288Y-122177143D01*
X135342860Y-122320000D01*
X135271431Y-122391429D01*
X135128574Y-122462857D01*
X134628574Y-122462857D01*
X138128574Y-123248571D02*
X137628574Y-122534286D01*
X137271431Y-123248571D02*
X137271431Y-121748571D01*
X137842859Y-121748571D01*
X137985717Y-121820000D01*
X138057145Y-121891429D01*
X138128574Y-122034286D01*
X138128574Y-122248571D01*
X138057145Y-122391429D01*
X137985717Y-122462857D01*
X137842859Y-122534286D01*
X137271431Y-122534286D01*
X139414288Y-123248571D02*
X139414288Y-122462857D01*
X139342859Y-122320000D01*
X139200002Y-122248571D01*
X138914288Y-122248571D01*
X138771431Y-122320000D01*
X139414288Y-123177143D02*
X139271431Y-123248571D01*
X138914288Y-123248571D01*
X138771431Y-123177143D01*
X138700002Y-123034286D01*
X138700002Y-122891429D01*
X138771431Y-122748571D01*
X138914288Y-122677143D01*
X139271431Y-122677143D01*
X139414288Y-122605714D01*
X140057145Y-123177143D02*
X140200002Y-123248571D01*
X140485717Y-123248571D01*
X140628574Y-123177143D01*
X140700002Y-123034286D01*
X140700002Y-122962857D01*
X140628574Y-122820000D01*
X140485717Y-122748571D01*
X140271431Y-122748571D01*
X140128574Y-122677143D01*
X140057145Y-122534286D01*
X140057145Y-122462857D01*
X140128574Y-122320000D01*
X140271431Y-122248571D01*
X140485717Y-122248571D01*
X140628574Y-122320000D01*
X141342860Y-122248571D02*
X141342860Y-123748571D01*
X141342860Y-122320000D02*
X141485717Y-122248571D01*
X141771431Y-122248571D01*
X141914288Y-122320000D01*
X141985717Y-122391429D01*
X142057146Y-122534286D01*
X142057146Y-122962857D01*
X141985717Y-123105714D01*
X141914288Y-123177143D01*
X141771431Y-123248571D01*
X141485717Y-123248571D01*
X141342860Y-123177143D01*
X142700003Y-123248571D02*
X142700003Y-121748571D01*
X142700003Y-122320000D02*
X142842860Y-122248571D01*
X143128574Y-122248571D01*
X143271431Y-122320000D01*
X143342860Y-122391429D01*
X143414289Y-122534286D01*
X143414289Y-122962857D01*
X143342860Y-123105714D01*
X143271431Y-123177143D01*
X143128574Y-123248571D01*
X142842860Y-123248571D01*
X142700003Y-123177143D01*
X144628574Y-123177143D02*
X144485717Y-123248571D01*
X144200003Y-123248571D01*
X144057146Y-123177143D01*
X143985717Y-123034286D01*
X143985717Y-122462857D01*
X144057146Y-122320000D01*
X144200003Y-122248571D01*
X144485717Y-122248571D01*
X144628574Y-122320000D01*
X144700003Y-122462857D01*
X144700003Y-122605714D01*
X143985717Y-122748571D01*
X145342860Y-123248571D02*
X145342860Y-122248571D01*
X145342860Y-122534286D02*
X145414288Y-122391429D01*
X145485717Y-122320000D01*
X145628574Y-122248571D01*
X145771431Y-122248571D01*
X146271431Y-123248571D02*
X146271431Y-122248571D01*
X146271431Y-122534286D02*
X146342859Y-122391429D01*
X146414288Y-122320000D01*
X146557145Y-122248571D01*
X146700002Y-122248571D01*
X147057145Y-122248571D02*
X147414288Y-123248571D01*
X147771430Y-122248571D02*
X147414288Y-123248571D01*
X147271430Y-123605714D01*
X147200002Y-123677143D01*
X147057145Y-123748571D01*
X149485716Y-123248571D02*
X149485716Y-121748571D01*
X150057144Y-121748571D01*
X150200002Y-121820000D01*
X150271430Y-121891429D01*
X150342859Y-122034286D01*
X150342859Y-122248571D01*
X150271430Y-122391429D01*
X150200002Y-122462857D01*
X150057144Y-122534286D01*
X149485716Y-122534286D01*
X150985716Y-123248571D02*
X150985716Y-122248571D01*
X150985716Y-121748571D02*
X150914287Y-121820000D01*
X150985716Y-121891429D01*
X151057144Y-121820000D01*
X150985716Y-121748571D01*
X150985716Y-121891429D01*
X152842859Y-123248571D02*
X152842859Y-121748571D01*
X153342859Y-122820000D01*
X153842859Y-121748571D01*
X153842859Y-123248571D01*
X155128573Y-123177143D02*
X154985716Y-123248571D01*
X154700002Y-123248571D01*
X154557145Y-123177143D01*
X154485716Y-123034286D01*
X154485716Y-122462857D01*
X154557145Y-122320000D01*
X154700002Y-122248571D01*
X154985716Y-122248571D01*
X155128573Y-122320000D01*
X155200002Y-122462857D01*
X155200002Y-122605714D01*
X154485716Y-122748571D01*
X156485716Y-122248571D02*
X156485716Y-123462857D01*
X156414287Y-123605714D01*
X156342859Y-123677143D01*
X156200002Y-123748571D01*
X155985716Y-123748571D01*
X155842859Y-123677143D01*
X156485716Y-123177143D02*
X156342859Y-123248571D01*
X156057145Y-123248571D01*
X155914287Y-123177143D01*
X155842859Y-123105714D01*
X155771430Y-122962857D01*
X155771430Y-122534286D01*
X155842859Y-122391429D01*
X155914287Y-122320000D01*
X156057145Y-122248571D01*
X156342859Y-122248571D01*
X156485716Y-122320000D01*
X157842859Y-123248571D02*
X157842859Y-122462857D01*
X157771430Y-122320000D01*
X157628573Y-122248571D01*
X157342859Y-122248571D01*
X157200002Y-122320000D01*
X157842859Y-123177143D02*
X157700002Y-123248571D01*
X157342859Y-123248571D01*
X157200002Y-123177143D01*
X157128573Y-123034286D01*
X157128573Y-122891429D01*
X157200002Y-122748571D01*
X157342859Y-122677143D01*
X157700002Y-122677143D01*
X157842859Y-122605714D01*
X160200002Y-122462857D02*
X160414288Y-122534286D01*
X160485716Y-122605714D01*
X160557145Y-122748571D01*
X160557145Y-122962857D01*
X160485716Y-123105714D01*
X160414288Y-123177143D01*
X160271430Y-123248571D01*
X159700002Y-123248571D01*
X159700002Y-121748571D01*
X160200002Y-121748571D01*
X160342859Y-121820000D01*
X160414288Y-121891429D01*
X160485716Y-122034286D01*
X160485716Y-122177143D01*
X160414288Y-122320000D01*
X160342859Y-122391429D01*
X160200002Y-122462857D01*
X159700002Y-122462857D01*
X161485716Y-121748571D02*
X161771430Y-121748571D01*
X161914288Y-121820000D01*
X162057145Y-121962857D01*
X162128573Y-122248571D01*
X162128573Y-122748571D01*
X162057145Y-123034286D01*
X161914288Y-123177143D01*
X161771430Y-123248571D01*
X161485716Y-123248571D01*
X161342859Y-123177143D01*
X161200002Y-123034286D01*
X161128573Y-122748571D01*
X161128573Y-122248571D01*
X161200002Y-121962857D01*
X161342859Y-121820000D01*
X161485716Y-121748571D01*
X162628574Y-121748571D02*
X163628574Y-123248571D01*
X163628574Y-121748571D02*
X162628574Y-123248571D01*
X165271430Y-121891429D02*
X165342859Y-121820000D01*
X165485716Y-121748571D01*
X165842859Y-121748571D01*
X165985716Y-121820000D01*
X166057145Y-121891429D01*
X166128573Y-122034286D01*
X166128573Y-122177143D01*
X166057145Y-122391429D01*
X165200002Y-123248571D01*
X166128573Y-123248571D01*
X167057144Y-121748571D02*
X167200001Y-121748571D01*
X167342858Y-121820000D01*
X167414287Y-121891429D01*
X167485716Y-122034286D01*
X167557144Y-122320000D01*
X167557144Y-122677143D01*
X167485716Y-122962857D01*
X167414287Y-123105714D01*
X167342858Y-123177143D01*
X167200001Y-123248571D01*
X167057144Y-123248571D01*
X166914287Y-123177143D01*
X166842858Y-123105714D01*
X166771430Y-122962857D01*
X166700001Y-122677143D01*
X166700001Y-122320000D01*
X166771430Y-122034286D01*
X166842858Y-121891429D01*
X166914287Y-121820000D01*
X167057144Y-121748571D01*
X168985715Y-123248571D02*
X168128572Y-123248571D01*
X168557144Y-123248571D02*
X168557144Y-121748571D01*
X168414287Y-121962857D01*
X168271429Y-122105714D01*
X168128572Y-122177143D01*
X170271429Y-121748571D02*
X169985715Y-121748571D01*
X169842858Y-121820000D01*
X169771429Y-121891429D01*
X169628572Y-122105714D01*
X169557143Y-122391429D01*
X169557143Y-122962857D01*
X169628572Y-123105714D01*
X169700000Y-123177143D01*
X169842858Y-123248571D01*
X170128572Y-123248571D01*
X170271429Y-123177143D01*
X170342858Y-123105714D01*
X170414286Y-122962857D01*
X170414286Y-122605714D01*
X170342858Y-122462857D01*
X170271429Y-122391429D01*
X170128572Y-122320000D01*
X169842858Y-122320000D01*
X169700000Y-122391429D01*
X169628572Y-122462857D01*
X169557143Y-122605714D01*
X171057143Y-123105714D02*
X171128571Y-123177143D01*
X171057143Y-123248571D01*
X170985714Y-123177143D01*
X171057143Y-123105714D01*
X171057143Y-123248571D01*
X172057143Y-121748571D02*
X172200000Y-121748571D01*
X172342857Y-121820000D01*
X172414286Y-121891429D01*
X172485715Y-122034286D01*
X172557143Y-122320000D01*
X172557143Y-122677143D01*
X172485715Y-122962857D01*
X172414286Y-123105714D01*
X172342857Y-123177143D01*
X172200000Y-123248571D01*
X172057143Y-123248571D01*
X171914286Y-123177143D01*
X171842857Y-123105714D01*
X171771429Y-122962857D01*
X171700000Y-122677143D01*
X171700000Y-122320000D01*
X171771429Y-122034286D01*
X171842857Y-121891429D01*
X171914286Y-121820000D01*
X172057143Y-121748571D01*
X173914286Y-121748571D02*
X173200000Y-121748571D01*
X173128571Y-122462857D01*
X173200000Y-122391429D01*
X173342857Y-122320000D01*
X173700000Y-122320000D01*
X173842857Y-122391429D01*
X173914286Y-122462857D01*
X173985714Y-122605714D01*
X173985714Y-122962857D01*
X173914286Y-123105714D01*
X173842857Y-123177143D01*
X173700000Y-123248571D01*
X173342857Y-123248571D01*
X173200000Y-123177143D01*
X173128571Y-123105714D01*
X174628571Y-123105714D02*
X174699999Y-123177143D01*
X174628571Y-123248571D01*
X174557142Y-123177143D01*
X174628571Y-123105714D01*
X174628571Y-123248571D01*
X175271428Y-121891429D02*
X175342857Y-121820000D01*
X175485714Y-121748571D01*
X175842857Y-121748571D01*
X175985714Y-121820000D01*
X176057143Y-121891429D01*
X176128571Y-122034286D01*
X176128571Y-122177143D01*
X176057143Y-122391429D01*
X175200000Y-123248571D01*
X176128571Y-123248571D01*
X176699999Y-121891429D02*
X176771428Y-121820000D01*
X176914285Y-121748571D01*
X177271428Y-121748571D01*
X177414285Y-121820000D01*
X177485714Y-121891429D01*
X177557142Y-122034286D01*
X177557142Y-122177143D01*
X177485714Y-122391429D01*
X176628571Y-123248571D01*
X177557142Y-123248571D01*
D14*
X180040000Y-77570000D02*
X180040000Y-120750000D01*
X185120000Y-118210000D02*
X185120000Y-77570000D01*
X180040000Y-77570000D02*
X185120000Y-77570000D01*
X180040000Y-120750000D02*
X182580000Y-120750000D01*
X183850000Y-121030000D02*
X185400000Y-121030000D01*
X182580000Y-120750000D02*
X182580000Y-118210000D01*
X182580000Y-118210000D02*
X185120000Y-118210000D01*
X185400000Y-121030000D02*
X185400000Y-119480000D01*
D15*
G36*
X123444600Y-121280683D02*
X123482310Y-121414424D01*
X123518887Y-121544131D01*
X123554056Y-121668822D01*
X123587537Y-121787514D01*
X123619055Y-121899225D01*
X123648331Y-122002974D01*
X123675089Y-122097778D01*
X123699052Y-122182655D01*
X123719942Y-122256623D01*
X123737481Y-122318700D01*
X123751394Y-122367903D01*
X123761402Y-122403251D01*
X123767228Y-122423761D01*
X123768468Y-122428083D01*
X123780222Y-122468467D01*
X124582061Y-122466183D01*
X124716681Y-122465790D01*
X124835405Y-122465408D01*
X124939272Y-122465014D01*
X125029318Y-122464585D01*
X125106582Y-122464099D01*
X125172101Y-122463532D01*
X125226913Y-122462860D01*
X125272056Y-122462061D01*
X125308567Y-122461112D01*
X125337484Y-122459990D01*
X125359845Y-122458671D01*
X125376688Y-122457132D01*
X125389050Y-122455351D01*
X125397969Y-122453303D01*
X125404483Y-122450967D01*
X125409629Y-122448319D01*
X125410619Y-122447729D01*
X125442782Y-122418511D01*
X125465403Y-122376142D01*
X125477886Y-122321845D01*
X125479369Y-122306323D01*
X125480759Y-122271987D01*
X125478053Y-122246407D01*
X125469818Y-122221614D01*
X125460502Y-122201496D01*
X125453193Y-122186078D01*
X125446627Y-122172819D01*
X125439541Y-122161537D01*
X125430675Y-122152050D01*
X125418765Y-122144177D01*
X125402549Y-122137734D01*
X125380766Y-122132541D01*
X125352153Y-122128415D01*
X125315449Y-122125175D01*
X125269391Y-122122639D01*
X125212718Y-122120625D01*
X125144166Y-122118950D01*
X125062475Y-122117434D01*
X124966382Y-122115895D01*
X124854625Y-122114149D01*
X124854348Y-122114145D01*
X124744182Y-122112337D01*
X124649635Y-122110646D01*
X124569395Y-122109020D01*
X124502149Y-122107410D01*
X124446584Y-122105764D01*
X124401386Y-122104032D01*
X124365243Y-122102162D01*
X124336842Y-122100103D01*
X124314869Y-122097804D01*
X124298013Y-122095215D01*
X124284959Y-122092285D01*
X124284000Y-122092023D01*
X124175921Y-122053486D01*
X124074927Y-122000073D01*
X123981916Y-121932675D01*
X123897786Y-121852178D01*
X123823435Y-121759472D01*
X123759764Y-121655445D01*
X123707669Y-121540985D01*
X123696755Y-121511400D01*
X123676330Y-121449801D01*
X123661261Y-121394286D01*
X123650845Y-121340247D01*
X123644376Y-121283079D01*
X123641152Y-121218174D01*
X123640459Y-121143100D01*
X123640895Y-121085946D01*
X123641984Y-121041858D01*
X123644100Y-121006973D01*
X123647616Y-120977426D01*
X123652903Y-120949353D01*
X123660334Y-120918890D01*
X123663087Y-120908524D01*
X123703074Y-120791523D01*
X123757628Y-120682209D01*
X123825830Y-120581427D01*
X123906758Y-120490017D01*
X123999493Y-120408822D01*
X124103114Y-120338685D01*
X124216701Y-120280447D01*
X124339333Y-120234951D01*
X124423487Y-120212605D01*
X124442733Y-120208508D01*
X124463069Y-120204794D01*
X124485367Y-120201444D01*
X124510499Y-120198440D01*
X124539337Y-120195762D01*
X124572755Y-120193394D01*
X124611624Y-120191315D01*
X124656817Y-120189508D01*
X124709206Y-120187953D01*
X124769664Y-120186633D01*
X124839062Y-120185528D01*
X124918274Y-120184621D01*
X125008171Y-120183891D01*
X125109627Y-120183322D01*
X125223512Y-120182894D01*
X125350701Y-120182589D01*
X125492064Y-120182388D01*
X125648475Y-120182272D01*
X125820806Y-120182223D01*
X125850226Y-120182221D01*
X127019286Y-120182133D01*
X127314701Y-120584300D01*
X127368222Y-120657031D01*
X127418816Y-120725533D01*
X127465589Y-120788611D01*
X127507649Y-120845074D01*
X127544101Y-120893730D01*
X127574053Y-120933384D01*
X127596611Y-120962845D01*
X127610882Y-120980919D01*
X127615918Y-120986467D01*
X127621755Y-120979759D01*
X127636471Y-120960459D01*
X127659170Y-120929802D01*
X127688955Y-120889024D01*
X127724931Y-120839360D01*
X127766202Y-120782046D01*
X127811873Y-120718317D01*
X127861046Y-120649409D01*
X127897348Y-120598364D01*
X127948855Y-120525893D01*
X127997765Y-120457179D01*
X128043140Y-120393536D01*
X128084039Y-120336274D01*
X128119525Y-120286707D01*
X128148658Y-120246147D01*
X128170499Y-120215905D01*
X128184109Y-120197294D01*
X128188138Y-120192006D01*
X128203300Y-120173751D01*
X129165634Y-120186367D01*
X128671653Y-120880633D01*
X128602005Y-120978528D01*
X128534563Y-121073336D01*
X128470049Y-121164044D01*
X128409182Y-121249637D01*
X128352683Y-121329101D01*
X128301275Y-121401423D01*
X128255677Y-121465586D01*
X128216611Y-121520579D01*
X128184797Y-121565385D01*
X128160957Y-121598991D01*
X128145810Y-121620383D01*
X128141398Y-121626646D01*
X128105122Y-121678392D01*
X128677028Y-122484370D01*
X128751036Y-122588699D01*
X128822257Y-122689162D01*
X128890083Y-122784897D01*
X128953906Y-122875044D01*
X129013120Y-122958742D01*
X129067115Y-123035131D01*
X129115285Y-123103350D01*
X129157021Y-123162539D01*
X129191716Y-123211837D01*
X129218761Y-123250384D01*
X129237550Y-123277319D01*
X129247474Y-123291782D01*
X129248934Y-123294107D01*
X129240718Y-123294801D01*
X129217078Y-123295453D01*
X129179520Y-123296052D01*
X129129554Y-123296585D01*
X129068686Y-123297042D01*
X128998426Y-123297410D01*
X128920282Y-123297677D01*
X128835761Y-123297832D01*
X128770636Y-123297866D01*
X128292338Y-123297866D01*
X128234794Y-123219550D01*
X128218905Y-123197770D01*
X128194282Y-123163815D01*
X128162065Y-123119263D01*
X128123395Y-123065696D01*
X128079410Y-123004694D01*
X128031251Y-122937838D01*
X127980058Y-122866707D01*
X127926971Y-122792884D01*
X127898917Y-122753847D01*
X127847478Y-122682335D01*
X127799054Y-122615174D01*
X127754532Y-122553582D01*
X127714798Y-122498779D01*
X127680740Y-122451984D01*
X127653244Y-122414416D01*
X127633196Y-122387293D01*
X127621484Y-122371835D01*
X127618709Y-122368613D01*
X127613732Y-122375788D01*
X127600003Y-122395767D01*
X127578326Y-122427373D01*
X127549507Y-122469432D01*
X127514350Y-122520769D01*
X127473660Y-122580207D01*
X127428242Y-122646573D01*
X127378900Y-122718690D01*
X127326441Y-122795383D01*
X127309946Y-122819500D01*
X127256349Y-122897808D01*
X127205330Y-122972230D01*
X127157732Y-123041544D01*
X127114396Y-123104531D01*
X127076164Y-123159968D01*
X127043880Y-123206636D01*
X127018385Y-123243313D01*
X127000521Y-123268778D01*
X126991131Y-123281812D01*
X126990151Y-123283050D01*
X126986513Y-123286197D01*
X126980643Y-123288866D01*
X126971225Y-123291096D01*
X126956944Y-123292927D01*
X126936483Y-123294396D01*
X126908526Y-123295545D01*
X126871758Y-123296410D01*
X126824861Y-123297032D01*
X126766521Y-123297450D01*
X126695422Y-123297702D01*
X126610246Y-123297828D01*
X126509678Y-123297866D01*
X126490815Y-123297866D01*
X126387160Y-123297830D01*
X126299199Y-123297696D01*
X126225691Y-123297433D01*
X126165397Y-123297008D01*
X126117077Y-123296385D01*
X126079492Y-123295533D01*
X126051401Y-123294418D01*
X126031565Y-123293005D01*
X126018745Y-123291263D01*
X126011699Y-123289158D01*
X126009190Y-123286655D01*
X126009366Y-123284896D01*
X126014786Y-123276380D01*
X126029306Y-123254887D01*
X126052308Y-123221306D01*
X126083175Y-123176528D01*
X126121287Y-123121443D01*
X126166026Y-123056940D01*
X126216776Y-122983909D01*
X126272917Y-122903241D01*
X126333832Y-122815825D01*
X126398902Y-122722551D01*
X126467509Y-122624309D01*
X126539036Y-122521989D01*
X126565712Y-122483855D01*
X126654044Y-122357517D01*
X126733026Y-122244358D01*
X126803094Y-122143736D01*
X126864683Y-122055009D01*
X126918227Y-121977536D01*
X126964161Y-121910675D01*
X127002920Y-121853784D01*
X127034939Y-121806221D01*
X127060652Y-121767345D01*
X127080495Y-121736513D01*
X127094903Y-121713085D01*
X127104310Y-121696417D01*
X127109151Y-121685869D01*
X127109860Y-121680799D01*
X127109857Y-121680792D01*
X127103741Y-121671012D01*
X127088966Y-121648699D01*
X127066487Y-121615261D01*
X127037259Y-121572103D01*
X127002237Y-121520634D01*
X126962377Y-121462260D01*
X126918635Y-121398386D01*
X126871966Y-121330421D01*
X126866133Y-121321939D01*
X126629633Y-120978078D01*
X124554167Y-120987994D01*
X124516313Y-121006656D01*
X124481728Y-121032413D01*
X124454293Y-121069814D01*
X124436697Y-121114169D01*
X124431483Y-121154650D01*
X124437329Y-121196103D01*
X124452817Y-121238396D01*
X124475116Y-121275478D01*
X124499445Y-121299955D01*
X124514101Y-121308144D01*
X124534010Y-121314937D01*
X124560703Y-121320461D01*
X124595711Y-121324841D01*
X124640566Y-121328206D01*
X124696797Y-121330680D01*
X124765938Y-121332391D01*
X124849518Y-121333466D01*
X124909767Y-121333870D01*
X125040842Y-121334931D01*
X125160670Y-121336739D01*
X125268477Y-121339262D01*
X125363488Y-121342466D01*
X125444927Y-121346318D01*
X125512018Y-121350786D01*
X125563988Y-121355837D01*
X125600060Y-121361439D01*
X125608267Y-121363382D01*
X125721316Y-121402441D01*
X125828359Y-121456298D01*
X125928107Y-121523491D01*
X126019275Y-121602556D01*
X126100577Y-121692031D01*
X126170724Y-121790451D01*
X126228431Y-121896353D01*
X126272411Y-122008274D01*
X126301377Y-122124752D01*
X126306559Y-122157526D01*
X126309604Y-122191586D01*
X126311395Y-122237362D01*
X126311987Y-122290249D01*
X126311436Y-122345642D01*
X126309799Y-122398937D01*
X126307129Y-122445530D01*
X126303485Y-122480817D01*
X126302572Y-122486524D01*
X126283059Y-122571742D01*
X126254837Y-122659160D01*
X126219908Y-122743854D01*
X126180277Y-122820897D01*
X126143127Y-122878423D01*
X126058198Y-122980612D01*
X125962374Y-123070611D01*
X125856932Y-123147498D01*
X125743150Y-123210352D01*
X125622304Y-123258249D01*
X125612500Y-123261367D01*
X125536300Y-123285166D01*
X123159194Y-123285166D01*
X122977362Y-122603600D01*
X122949509Y-122499381D01*
X122922818Y-122399869D01*
X122897620Y-122306278D01*
X122874247Y-122219826D01*
X122853032Y-122141726D01*
X122834305Y-122073195D01*
X122818399Y-122015448D01*
X122805644Y-121969701D01*
X122796374Y-121937169D01*
X122790919Y-121919068D01*
X122789623Y-121915647D01*
X122786558Y-121922593D01*
X122779507Y-121944675D01*
X122768813Y-121980660D01*
X122754822Y-122029315D01*
X122737879Y-122089406D01*
X122718328Y-122159700D01*
X122696514Y-122238962D01*
X122672782Y-122325961D01*
X122647477Y-122419462D01*
X122620943Y-122518231D01*
X122615669Y-122537947D01*
X122588487Y-122639628D01*
X122562236Y-122737809D01*
X122537294Y-122831073D01*
X122514042Y-122918003D01*
X122492857Y-122997182D01*
X122474119Y-123067192D01*
X122458208Y-123126618D01*
X122445502Y-123174041D01*
X122436381Y-123208046D01*
X122431224Y-123227215D01*
X122431007Y-123228016D01*
X122414390Y-123289400D01*
X121705934Y-123289400D01*
X121690242Y-123236483D01*
X121685472Y-123219950D01*
X121676527Y-123188491D01*
X121663794Y-123143488D01*
X121647664Y-123086320D01*
X121628525Y-123018369D01*
X121606764Y-122941016D01*
X121582772Y-122855641D01*
X121556936Y-122763626D01*
X121529646Y-122666352D01*
X121501289Y-122565198D01*
X121497226Y-122550695D01*
X121469149Y-122450688D01*
X121442329Y-122355544D01*
X121417124Y-122266504D01*
X121393887Y-122184808D01*
X121372977Y-122111695D01*
X121354748Y-122048404D01*
X121339556Y-121996176D01*
X121327758Y-121956249D01*
X121319709Y-121929864D01*
X121315766Y-121918260D01*
X121315474Y-121917812D01*
X121312825Y-121925834D01*
X121306459Y-121949098D01*
X121296679Y-121986399D01*
X121283789Y-122036532D01*
X121268095Y-122098291D01*
X121249900Y-122170469D01*
X121229510Y-122251862D01*
X121207227Y-122341263D01*
X121183358Y-122437466D01*
X121158205Y-122539267D01*
X121142361Y-122603600D01*
X120973674Y-123289400D01*
X120560471Y-123289400D01*
X120454567Y-123289228D01*
X120363811Y-123288714D01*
X120288493Y-123287867D01*
X120228904Y-123286690D01*
X120185335Y-123285191D01*
X120158076Y-123283375D01*
X120147418Y-123281247D01*
X120147267Y-123280940D01*
X120149310Y-123272308D01*
X120155275Y-123248246D01*
X120164912Y-123209733D01*
X120177973Y-123157751D01*
X120194209Y-123093281D01*
X120213371Y-123017303D01*
X120235211Y-122930800D01*
X120259480Y-122834750D01*
X120285930Y-122730136D01*
X120314311Y-122617939D01*
X120344376Y-122499138D01*
X120375875Y-122374716D01*
X120408559Y-122245653D01*
X120442181Y-122112930D01*
X120476490Y-121977528D01*
X120511240Y-121840428D01*
X120546181Y-121702610D01*
X120581063Y-121565056D01*
X120615640Y-121428747D01*
X120649661Y-121294663D01*
X120682879Y-121163786D01*
X120715045Y-121037096D01*
X120745909Y-120915574D01*
X120775224Y-120800201D01*
X120802740Y-120691959D01*
X120828209Y-120591827D01*
X120851383Y-120500788D01*
X120872012Y-120419821D01*
X120889848Y-120349908D01*
X120904642Y-120292029D01*
X120916146Y-120247166D01*
X120924111Y-120216300D01*
X120926953Y-120205417D01*
X120935320Y-120173667D01*
X121663219Y-120173667D01*
X121670388Y-120192717D01*
X121673746Y-120203680D01*
X121681310Y-120229689D01*
X121692721Y-120269480D01*
X121707622Y-120321792D01*
X121725657Y-120385362D01*
X121746468Y-120458928D01*
X121769697Y-120541227D01*
X121794987Y-120630998D01*
X121821981Y-120726978D01*
X121850321Y-120827906D01*
X121862131Y-120870009D01*
X121890753Y-120971973D01*
X121918064Y-121069055D01*
X121943720Y-121160044D01*
X121967378Y-121243731D01*
X121988693Y-121318904D01*
X122007321Y-121384356D01*
X122022919Y-121438875D01*
X122035142Y-121481251D01*
X122043647Y-121510276D01*
X122048089Y-121524738D01*
X122048669Y-121526175D01*
X122051176Y-121518069D01*
X122057994Y-121495170D01*
X122068693Y-121458943D01*
X122082846Y-121410852D01*
X122100024Y-121352363D01*
X122119801Y-121284940D01*
X122141746Y-121210048D01*
X122165434Y-121129150D01*
X122190434Y-121043712D01*
X122216321Y-120955198D01*
X122242665Y-120865073D01*
X122269038Y-120774801D01*
X122295012Y-120685847D01*
X122320160Y-120599675D01*
X122344054Y-120517751D01*
X122366264Y-120441538D01*
X122386364Y-120372501D01*
X122403926Y-120312105D01*
X122418520Y-120261815D01*
X122429720Y-120223094D01*
X122437097Y-120197408D01*
X122439615Y-120188483D01*
X122441559Y-120184800D01*
X122446187Y-120181781D01*
X122455039Y-120179360D01*
X122469653Y-120177472D01*
X122491569Y-120176051D01*
X122522327Y-120175033D01*
X122563465Y-120174350D01*
X122616523Y-120173939D01*
X122683041Y-120173734D01*
X122764557Y-120173669D01*
X122788097Y-120173666D01*
X123132485Y-120173666D01*
X123444600Y-121280683D01*
X123444600Y-121280683D01*
G37*
X123444600Y-121280683D02*
X123482310Y-121414424D01*
X123518887Y-121544131D01*
X123554056Y-121668822D01*
X123587537Y-121787514D01*
X123619055Y-121899225D01*
X123648331Y-122002974D01*
X123675089Y-122097778D01*
X123699052Y-122182655D01*
X123719942Y-122256623D01*
X123737481Y-122318700D01*
X123751394Y-122367903D01*
X123761402Y-122403251D01*
X123767228Y-122423761D01*
X123768468Y-122428083D01*
X123780222Y-122468467D01*
X124582061Y-122466183D01*
X124716681Y-122465790D01*
X124835405Y-122465408D01*
X124939272Y-122465014D01*
X125029318Y-122464585D01*
X125106582Y-122464099D01*
X125172101Y-122463532D01*
X125226913Y-122462860D01*
X125272056Y-122462061D01*
X125308567Y-122461112D01*
X125337484Y-122459990D01*
X125359845Y-122458671D01*
X125376688Y-122457132D01*
X125389050Y-122455351D01*
X125397969Y-122453303D01*
X125404483Y-122450967D01*
X125409629Y-122448319D01*
X125410619Y-122447729D01*
X125442782Y-122418511D01*
X125465403Y-122376142D01*
X125477886Y-122321845D01*
X125479369Y-122306323D01*
X125480759Y-122271987D01*
X125478053Y-122246407D01*
X125469818Y-122221614D01*
X125460502Y-122201496D01*
X125453193Y-122186078D01*
X125446627Y-122172819D01*
X125439541Y-122161537D01*
X125430675Y-122152050D01*
X125418765Y-122144177D01*
X125402549Y-122137734D01*
X125380766Y-122132541D01*
X125352153Y-122128415D01*
X125315449Y-122125175D01*
X125269391Y-122122639D01*
X125212718Y-122120625D01*
X125144166Y-122118950D01*
X125062475Y-122117434D01*
X124966382Y-122115895D01*
X124854625Y-122114149D01*
X124854348Y-122114145D01*
X124744182Y-122112337D01*
X124649635Y-122110646D01*
X124569395Y-122109020D01*
X124502149Y-122107410D01*
X124446584Y-122105764D01*
X124401386Y-122104032D01*
X124365243Y-122102162D01*
X124336842Y-122100103D01*
X124314869Y-122097804D01*
X124298013Y-122095215D01*
X124284959Y-122092285D01*
X124284000Y-122092023D01*
X124175921Y-122053486D01*
X124074927Y-122000073D01*
X123981916Y-121932675D01*
X123897786Y-121852178D01*
X123823435Y-121759472D01*
X123759764Y-121655445D01*
X123707669Y-121540985D01*
X123696755Y-121511400D01*
X123676330Y-121449801D01*
X123661261Y-121394286D01*
X123650845Y-121340247D01*
X123644376Y-121283079D01*
X123641152Y-121218174D01*
X123640459Y-121143100D01*
X123640895Y-121085946D01*
X123641984Y-121041858D01*
X123644100Y-121006973D01*
X123647616Y-120977426D01*
X123652903Y-120949353D01*
X123660334Y-120918890D01*
X123663087Y-120908524D01*
X123703074Y-120791523D01*
X123757628Y-120682209D01*
X123825830Y-120581427D01*
X123906758Y-120490017D01*
X123999493Y-120408822D01*
X124103114Y-120338685D01*
X124216701Y-120280447D01*
X124339333Y-120234951D01*
X124423487Y-120212605D01*
X124442733Y-120208508D01*
X124463069Y-120204794D01*
X124485367Y-120201444D01*
X124510499Y-120198440D01*
X124539337Y-120195762D01*
X124572755Y-120193394D01*
X124611624Y-120191315D01*
X124656817Y-120189508D01*
X124709206Y-120187953D01*
X124769664Y-120186633D01*
X124839062Y-120185528D01*
X124918274Y-120184621D01*
X125008171Y-120183891D01*
X125109627Y-120183322D01*
X125223512Y-120182894D01*
X125350701Y-120182589D01*
X125492064Y-120182388D01*
X125648475Y-120182272D01*
X125820806Y-120182223D01*
X125850226Y-120182221D01*
X127019286Y-120182133D01*
X127314701Y-120584300D01*
X127368222Y-120657031D01*
X127418816Y-120725533D01*
X127465589Y-120788611D01*
X127507649Y-120845074D01*
X127544101Y-120893730D01*
X127574053Y-120933384D01*
X127596611Y-120962845D01*
X127610882Y-120980919D01*
X127615918Y-120986467D01*
X127621755Y-120979759D01*
X127636471Y-120960459D01*
X127659170Y-120929802D01*
X127688955Y-120889024D01*
X127724931Y-120839360D01*
X127766202Y-120782046D01*
X127811873Y-120718317D01*
X127861046Y-120649409D01*
X127897348Y-120598364D01*
X127948855Y-120525893D01*
X127997765Y-120457179D01*
X128043140Y-120393536D01*
X128084039Y-120336274D01*
X128119525Y-120286707D01*
X128148658Y-120246147D01*
X128170499Y-120215905D01*
X128184109Y-120197294D01*
X128188138Y-120192006D01*
X128203300Y-120173751D01*
X129165634Y-120186367D01*
X128671653Y-120880633D01*
X128602005Y-120978528D01*
X128534563Y-121073336D01*
X128470049Y-121164044D01*
X128409182Y-121249637D01*
X128352683Y-121329101D01*
X128301275Y-121401423D01*
X128255677Y-121465586D01*
X128216611Y-121520579D01*
X128184797Y-121565385D01*
X128160957Y-121598991D01*
X128145810Y-121620383D01*
X128141398Y-121626646D01*
X128105122Y-121678392D01*
X128677028Y-122484370D01*
X128751036Y-122588699D01*
X128822257Y-122689162D01*
X128890083Y-122784897D01*
X128953906Y-122875044D01*
X129013120Y-122958742D01*
X129067115Y-123035131D01*
X129115285Y-123103350D01*
X129157021Y-123162539D01*
X129191716Y-123211837D01*
X129218761Y-123250384D01*
X129237550Y-123277319D01*
X129247474Y-123291782D01*
X129248934Y-123294107D01*
X129240718Y-123294801D01*
X129217078Y-123295453D01*
X129179520Y-123296052D01*
X129129554Y-123296585D01*
X129068686Y-123297042D01*
X128998426Y-123297410D01*
X128920282Y-123297677D01*
X128835761Y-123297832D01*
X128770636Y-123297866D01*
X128292338Y-123297866D01*
X128234794Y-123219550D01*
X128218905Y-123197770D01*
X128194282Y-123163815D01*
X128162065Y-123119263D01*
X128123395Y-123065696D01*
X128079410Y-123004694D01*
X128031251Y-122937838D01*
X127980058Y-122866707D01*
X127926971Y-122792884D01*
X127898917Y-122753847D01*
X127847478Y-122682335D01*
X127799054Y-122615174D01*
X127754532Y-122553582D01*
X127714798Y-122498779D01*
X127680740Y-122451984D01*
X127653244Y-122414416D01*
X127633196Y-122387293D01*
X127621484Y-122371835D01*
X127618709Y-122368613D01*
X127613732Y-122375788D01*
X127600003Y-122395767D01*
X127578326Y-122427373D01*
X127549507Y-122469432D01*
X127514350Y-122520769D01*
X127473660Y-122580207D01*
X127428242Y-122646573D01*
X127378900Y-122718690D01*
X127326441Y-122795383D01*
X127309946Y-122819500D01*
X127256349Y-122897808D01*
X127205330Y-122972230D01*
X127157732Y-123041544D01*
X127114396Y-123104531D01*
X127076164Y-123159968D01*
X127043880Y-123206636D01*
X127018385Y-123243313D01*
X127000521Y-123268778D01*
X126991131Y-123281812D01*
X126990151Y-123283050D01*
X126986513Y-123286197D01*
X126980643Y-123288866D01*
X126971225Y-123291096D01*
X126956944Y-123292927D01*
X126936483Y-123294396D01*
X126908526Y-123295545D01*
X126871758Y-123296410D01*
X126824861Y-123297032D01*
X126766521Y-123297450D01*
X126695422Y-123297702D01*
X126610246Y-123297828D01*
X126509678Y-123297866D01*
X126490815Y-123297866D01*
X126387160Y-123297830D01*
X126299199Y-123297696D01*
X126225691Y-123297433D01*
X126165397Y-123297008D01*
X126117077Y-123296385D01*
X126079492Y-123295533D01*
X126051401Y-123294418D01*
X126031565Y-123293005D01*
X126018745Y-123291263D01*
X126011699Y-123289158D01*
X126009190Y-123286655D01*
X126009366Y-123284896D01*
X126014786Y-123276380D01*
X126029306Y-123254887D01*
X126052308Y-123221306D01*
X126083175Y-123176528D01*
X126121287Y-123121443D01*
X126166026Y-123056940D01*
X126216776Y-122983909D01*
X126272917Y-122903241D01*
X126333832Y-122815825D01*
X126398902Y-122722551D01*
X126467509Y-122624309D01*
X126539036Y-122521989D01*
X126565712Y-122483855D01*
X126654044Y-122357517D01*
X126733026Y-122244358D01*
X126803094Y-122143736D01*
X126864683Y-122055009D01*
X126918227Y-121977536D01*
X126964161Y-121910675D01*
X127002920Y-121853784D01*
X127034939Y-121806221D01*
X127060652Y-121767345D01*
X127080495Y-121736513D01*
X127094903Y-121713085D01*
X127104310Y-121696417D01*
X127109151Y-121685869D01*
X127109860Y-121680799D01*
X127109857Y-121680792D01*
X127103741Y-121671012D01*
X127088966Y-121648699D01*
X127066487Y-121615261D01*
X127037259Y-121572103D01*
X127002237Y-121520634D01*
X126962377Y-121462260D01*
X126918635Y-121398386D01*
X126871966Y-121330421D01*
X126866133Y-121321939D01*
X126629633Y-120978078D01*
X124554167Y-120987994D01*
X124516313Y-121006656D01*
X124481728Y-121032413D01*
X124454293Y-121069814D01*
X124436697Y-121114169D01*
X124431483Y-121154650D01*
X124437329Y-121196103D01*
X124452817Y-121238396D01*
X124475116Y-121275478D01*
X124499445Y-121299955D01*
X124514101Y-121308144D01*
X124534010Y-121314937D01*
X124560703Y-121320461D01*
X124595711Y-121324841D01*
X124640566Y-121328206D01*
X124696797Y-121330680D01*
X124765938Y-121332391D01*
X124849518Y-121333466D01*
X124909767Y-121333870D01*
X125040842Y-121334931D01*
X125160670Y-121336739D01*
X125268477Y-121339262D01*
X125363488Y-121342466D01*
X125444927Y-121346318D01*
X125512018Y-121350786D01*
X125563988Y-121355837D01*
X125600060Y-121361439D01*
X125608267Y-121363382D01*
X125721316Y-121402441D01*
X125828359Y-121456298D01*
X125928107Y-121523491D01*
X126019275Y-121602556D01*
X126100577Y-121692031D01*
X126170724Y-121790451D01*
X126228431Y-121896353D01*
X126272411Y-122008274D01*
X126301377Y-122124752D01*
X126306559Y-122157526D01*
X126309604Y-122191586D01*
X126311395Y-122237362D01*
X126311987Y-122290249D01*
X126311436Y-122345642D01*
X126309799Y-122398937D01*
X126307129Y-122445530D01*
X126303485Y-122480817D01*
X126302572Y-122486524D01*
X126283059Y-122571742D01*
X126254837Y-122659160D01*
X126219908Y-122743854D01*
X126180277Y-122820897D01*
X126143127Y-122878423D01*
X126058198Y-122980612D01*
X125962374Y-123070611D01*
X125856932Y-123147498D01*
X125743150Y-123210352D01*
X125622304Y-123258249D01*
X125612500Y-123261367D01*
X125536300Y-123285166D01*
X123159194Y-123285166D01*
X122977362Y-122603600D01*
X122949509Y-122499381D01*
X122922818Y-122399869D01*
X122897620Y-122306278D01*
X122874247Y-122219826D01*
X122853032Y-122141726D01*
X122834305Y-122073195D01*
X122818399Y-122015448D01*
X122805644Y-121969701D01*
X122796374Y-121937169D01*
X122790919Y-121919068D01*
X122789623Y-121915647D01*
X122786558Y-121922593D01*
X122779507Y-121944675D01*
X122768813Y-121980660D01*
X122754822Y-122029315D01*
X122737879Y-122089406D01*
X122718328Y-122159700D01*
X122696514Y-122238962D01*
X122672782Y-122325961D01*
X122647477Y-122419462D01*
X122620943Y-122518231D01*
X122615669Y-122537947D01*
X122588487Y-122639628D01*
X122562236Y-122737809D01*
X122537294Y-122831073D01*
X122514042Y-122918003D01*
X122492857Y-122997182D01*
X122474119Y-123067192D01*
X122458208Y-123126618D01*
X122445502Y-123174041D01*
X122436381Y-123208046D01*
X122431224Y-123227215D01*
X122431007Y-123228016D01*
X122414390Y-123289400D01*
X121705934Y-123289400D01*
X121690242Y-123236483D01*
X121685472Y-123219950D01*
X121676527Y-123188491D01*
X121663794Y-123143488D01*
X121647664Y-123086320D01*
X121628525Y-123018369D01*
X121606764Y-122941016D01*
X121582772Y-122855641D01*
X121556936Y-122763626D01*
X121529646Y-122666352D01*
X121501289Y-122565198D01*
X121497226Y-122550695D01*
X121469149Y-122450688D01*
X121442329Y-122355544D01*
X121417124Y-122266504D01*
X121393887Y-122184808D01*
X121372977Y-122111695D01*
X121354748Y-122048404D01*
X121339556Y-121996176D01*
X121327758Y-121956249D01*
X121319709Y-121929864D01*
X121315766Y-121918260D01*
X121315474Y-121917812D01*
X121312825Y-121925834D01*
X121306459Y-121949098D01*
X121296679Y-121986399D01*
X121283789Y-122036532D01*
X121268095Y-122098291D01*
X121249900Y-122170469D01*
X121229510Y-122251862D01*
X121207227Y-122341263D01*
X121183358Y-122437466D01*
X121158205Y-122539267D01*
X121142361Y-122603600D01*
X120973674Y-123289400D01*
X120560471Y-123289400D01*
X120454567Y-123289228D01*
X120363811Y-123288714D01*
X120288493Y-123287867D01*
X120228904Y-123286690D01*
X120185335Y-123285191D01*
X120158076Y-123283375D01*
X120147418Y-123281247D01*
X120147267Y-123280940D01*
X120149310Y-123272308D01*
X120155275Y-123248246D01*
X120164912Y-123209733D01*
X120177973Y-123157751D01*
X120194209Y-123093281D01*
X120213371Y-123017303D01*
X120235211Y-122930800D01*
X120259480Y-122834750D01*
X120285930Y-122730136D01*
X120314311Y-122617939D01*
X120344376Y-122499138D01*
X120375875Y-122374716D01*
X120408559Y-122245653D01*
X120442181Y-122112930D01*
X120476490Y-121977528D01*
X120511240Y-121840428D01*
X120546181Y-121702610D01*
X120581063Y-121565056D01*
X120615640Y-121428747D01*
X120649661Y-121294663D01*
X120682879Y-121163786D01*
X120715045Y-121037096D01*
X120745909Y-120915574D01*
X120775224Y-120800201D01*
X120802740Y-120691959D01*
X120828209Y-120591827D01*
X120851383Y-120500788D01*
X120872012Y-120419821D01*
X120889848Y-120349908D01*
X120904642Y-120292029D01*
X120916146Y-120247166D01*
X120924111Y-120216300D01*
X120926953Y-120205417D01*
X120935320Y-120173667D01*
X121663219Y-120173667D01*
X121670388Y-120192717D01*
X121673746Y-120203680D01*
X121681310Y-120229689D01*
X121692721Y-120269480D01*
X121707622Y-120321792D01*
X121725657Y-120385362D01*
X121746468Y-120458928D01*
X121769697Y-120541227D01*
X121794987Y-120630998D01*
X121821981Y-120726978D01*
X121850321Y-120827906D01*
X121862131Y-120870009D01*
X121890753Y-120971973D01*
X121918064Y-121069055D01*
X121943720Y-121160044D01*
X121967378Y-121243731D01*
X121988693Y-121318904D01*
X122007321Y-121384356D01*
X122022919Y-121438875D01*
X122035142Y-121481251D01*
X122043647Y-121510276D01*
X122048089Y-121524738D01*
X122048669Y-121526175D01*
X122051176Y-121518069D01*
X122057994Y-121495170D01*
X122068693Y-121458943D01*
X122082846Y-121410852D01*
X122100024Y-121352363D01*
X122119801Y-121284940D01*
X122141746Y-121210048D01*
X122165434Y-121129150D01*
X122190434Y-121043712D01*
X122216321Y-120955198D01*
X122242665Y-120865073D01*
X122269038Y-120774801D01*
X122295012Y-120685847D01*
X122320160Y-120599675D01*
X122344054Y-120517751D01*
X122366264Y-120441538D01*
X122386364Y-120372501D01*
X122403926Y-120312105D01*
X122418520Y-120261815D01*
X122429720Y-120223094D01*
X122437097Y-120197408D01*
X122439615Y-120188483D01*
X122441559Y-120184800D01*
X122446187Y-120181781D01*
X122455039Y-120179360D01*
X122469653Y-120177472D01*
X122491569Y-120176051D01*
X122522327Y-120175033D01*
X122563465Y-120174350D01*
X122616523Y-120173939D01*
X122683041Y-120173734D01*
X122764557Y-120173669D01*
X122788097Y-120173666D01*
X123132485Y-120173666D01*
X123444600Y-121280683D01*
D14*
X103910000Y-129930000D02*
X103910000Y-79130000D01*
X98830000Y-81670000D02*
X98830000Y-129930000D01*
X103910000Y-129930000D02*
X98830000Y-129930000D01*
X103910000Y-79130000D02*
X101370000Y-79130000D01*
X100100000Y-78850000D02*
X98550000Y-78850000D01*
X101370000Y-79130000D02*
X101370000Y-81670000D01*
X101370000Y-81670000D02*
X98830000Y-81670000D01*
X98550000Y-78850000D02*
X98550000Y-80400000D01*
X97510000Y-129930000D02*
X97510000Y-79130000D01*
X92430000Y-81670000D02*
X92430000Y-129930000D01*
X97510000Y-129930000D02*
X92430000Y-129930000D01*
X97510000Y-79130000D02*
X94970000Y-79130000D01*
X93700000Y-78850000D02*
X92150000Y-78850000D01*
X94970000Y-79130000D02*
X94970000Y-81670000D01*
X94970000Y-81670000D02*
X92430000Y-81670000D01*
X92150000Y-78850000D02*
X92150000Y-80400000D01*
X117157000Y-70741000D02*
X117157000Y-65661000D01*
X117157000Y-65661000D02*
X119697000Y-65661000D01*
X119697000Y-65661000D02*
X119697000Y-70741000D01*
X119697000Y-70741000D02*
X117157000Y-70741000D01*
D16*
X130477000Y-50941000D02*
X130477000Y-57291000D01*
X130477000Y-57291000D02*
X117777000Y-57291000D01*
X117777000Y-57291000D02*
X117777000Y-45131000D01*
X117777000Y-45131000D02*
X130477000Y-45131000D01*
X130477000Y-45131000D02*
X130477000Y-50941000D01*
D14*
X92127000Y-45211000D02*
X106127000Y-45211000D01*
X106127000Y-45211000D02*
X106127000Y-57511000D01*
X106127000Y-57511000D02*
X92127000Y-57511000D01*
X92127000Y-57511000D02*
X92127000Y-45211000D01*
X114527000Y-45111000D02*
X114527000Y-57611000D01*
X114527000Y-57611000D02*
X107527000Y-57611000D01*
X107527000Y-57611000D02*
X107527000Y-45111000D01*
X107527000Y-45111000D02*
X114477000Y-45111000D01*
X114477000Y-45111000D02*
X114527000Y-45111000D01*
X111157000Y-70741000D02*
X111157000Y-65661000D01*
X111157000Y-65661000D02*
X113697000Y-65661000D01*
X113697000Y-65661000D02*
X113697000Y-70741000D01*
X113697000Y-70741000D02*
X111157000Y-70741000D01*
X114157000Y-70741000D02*
X114157000Y-65661000D01*
X114157000Y-65661000D02*
X116697000Y-65661000D01*
X116697000Y-65661000D02*
X116697000Y-70741000D01*
X116697000Y-70741000D02*
X114157000Y-70741000D01*
X110697000Y-65681000D02*
X110697000Y-70761000D01*
X110697000Y-70761000D02*
X108157000Y-70761000D01*
X108157000Y-70761000D02*
X108157000Y-65681000D01*
X108157000Y-65681000D02*
X110697000Y-65681000D01*
X107597000Y-65681000D02*
X107597000Y-70761000D01*
X107597000Y-70761000D02*
X105057000Y-70761000D01*
X105057000Y-70761000D02*
X105057000Y-65681000D01*
X105057000Y-65681000D02*
X107597000Y-65681000D01*
X104597000Y-65681000D02*
X104597000Y-70761000D01*
X104597000Y-70761000D02*
X102057000Y-70761000D01*
X102057000Y-70761000D02*
X102057000Y-65681000D01*
X102057000Y-65681000D02*
X104597000Y-65681000D01*
X101597000Y-65681000D02*
X101597000Y-70761000D01*
X101597000Y-70761000D02*
X99057000Y-70761000D01*
X99057000Y-70761000D02*
X99057000Y-65681000D01*
X99057000Y-65681000D02*
X101597000Y-65681000D01*
X98697000Y-65681000D02*
X98697000Y-70761000D01*
X98697000Y-70761000D02*
X96157000Y-70761000D01*
X96157000Y-70761000D02*
X96157000Y-65681000D01*
X96157000Y-65681000D02*
X98697000Y-65681000D01*
D16*
X140540000Y-55380000D02*
X146890000Y-55380000D01*
X146890000Y-55380000D02*
X146890000Y-68080000D01*
X146890000Y-68080000D02*
X134730000Y-68080000D01*
X134730000Y-68080000D02*
X134730000Y-55380000D01*
X134730000Y-55380000D02*
X140540000Y-55380000D01*
D14*
X179500000Y-59440000D02*
X179500000Y-67060000D01*
X182040000Y-59440000D02*
X182040000Y-67060000D01*
X182320000Y-56620000D02*
X182320000Y-58170000D01*
X179500000Y-67060000D02*
X182040000Y-67060000D01*
X182040000Y-59440000D02*
X179500000Y-59440000D01*
X179220000Y-58170000D02*
X179220000Y-56620000D01*
X179220000Y-56620000D02*
X182320000Y-56620000D01*
X153670000Y-62992000D02*
X158750000Y-62992000D01*
X158750000Y-62992000D02*
X158750000Y-65532000D01*
X158750000Y-65532000D02*
X153670000Y-65532000D01*
X153670000Y-65532000D02*
X153670000Y-62992000D01*
X153670000Y-67691000D02*
X158750000Y-67691000D01*
X158750000Y-67691000D02*
X158750000Y-70231000D01*
X158750000Y-70231000D02*
X153670000Y-70231000D01*
X153670000Y-70231000D02*
X153670000Y-67691000D01*
X153670000Y-72517000D02*
X158750000Y-72517000D01*
X158750000Y-72517000D02*
X158750000Y-75057000D01*
X158750000Y-75057000D02*
X153670000Y-75057000D01*
X153670000Y-75057000D02*
X153670000Y-72517000D01*
X165997000Y-47616000D02*
X165997000Y-48886000D01*
X173347000Y-47616000D02*
X173347000Y-48886000D01*
X173347000Y-59826000D02*
X173347000Y-58556000D01*
X165997000Y-59826000D02*
X165997000Y-58556000D01*
X165997000Y-47616000D02*
X173347000Y-47616000D01*
X165997000Y-59826000D02*
X173347000Y-59826000D01*
X165997000Y-48886000D02*
X165062000Y-48886000D01*
X159758000Y-59826000D02*
X159758000Y-58556000D01*
X152408000Y-59826000D02*
X152408000Y-58556000D01*
X152408000Y-47616000D02*
X152408000Y-48886000D01*
X159758000Y-47616000D02*
X159758000Y-48886000D01*
X159758000Y-59826000D02*
X152408000Y-59826000D01*
X159758000Y-47616000D02*
X152408000Y-47616000D01*
X159758000Y-58556000D02*
X160693000Y-58556000D01*
X175069050Y-68840000D02*
G75*
G03X175069050Y-68840000I-4579050J0D01*
G01*
X164140000Y-75190000D02*
X164140000Y-62490000D01*
X164140000Y-62490000D02*
X176840000Y-62490000D01*
X176840000Y-62490000D02*
X176840000Y-75190000D01*
X176840000Y-75190000D02*
X164140000Y-75190000D01*
X144971745Y-136279821D02*
X144971745Y-135279821D01*
X145352698Y-135279821D01*
X145447936Y-135327440D01*
X145495555Y-135375059D01*
X145543174Y-135470297D01*
X145543174Y-135613154D01*
X145495555Y-135708392D01*
X145447936Y-135756011D01*
X145352698Y-135803630D01*
X144971745Y-135803630D01*
X146495555Y-136279821D02*
X145924126Y-136279821D01*
X146209840Y-136279821D02*
X146209840Y-135279821D01*
X146114602Y-135422678D01*
X146019364Y-135517916D01*
X145924126Y-135565535D01*
X182201905Y-122782381D02*
X182201905Y-121782381D01*
X182582858Y-121782381D01*
X182678096Y-121830000D01*
X182725715Y-121877619D01*
X182773334Y-121972857D01*
X182773334Y-122115714D01*
X182725715Y-122210952D01*
X182678096Y-122258571D01*
X182582858Y-122306190D01*
X182201905Y-122306190D01*
X183154286Y-121877619D02*
X183201905Y-121830000D01*
X183297143Y-121782381D01*
X183535239Y-121782381D01*
X183630477Y-121830000D01*
X183678096Y-121877619D01*
X183725715Y-121972857D01*
X183725715Y-122068095D01*
X183678096Y-122210952D01*
X183106667Y-122782381D01*
X183725715Y-122782381D01*
X99361905Y-75752381D02*
X99361905Y-74752381D01*
X99742858Y-74752381D01*
X99838096Y-74800000D01*
X99885715Y-74847619D01*
X99933334Y-74942857D01*
X99933334Y-75085714D01*
X99885715Y-75180952D01*
X99838096Y-75228571D01*
X99742858Y-75276190D01*
X99361905Y-75276190D01*
X100266667Y-74752381D02*
X100885715Y-74752381D01*
X100552381Y-75133333D01*
X100695239Y-75133333D01*
X100790477Y-75180952D01*
X100838096Y-75228571D01*
X100885715Y-75323810D01*
X100885715Y-75561905D01*
X100838096Y-75657143D01*
X100790477Y-75704762D01*
X100695239Y-75752381D01*
X100409524Y-75752381D01*
X100314286Y-75704762D01*
X100266667Y-75657143D01*
X92961905Y-72832381D02*
X92961905Y-71832381D01*
X93342858Y-71832381D01*
X93438096Y-71880000D01*
X93485715Y-71927619D01*
X93533334Y-72022857D01*
X93533334Y-72165714D01*
X93485715Y-72260952D01*
X93438096Y-72308571D01*
X93342858Y-72356190D01*
X92961905Y-72356190D01*
X94390477Y-72165714D02*
X94390477Y-72832381D01*
X94152381Y-71784762D02*
X93914286Y-72499048D01*
X94533334Y-72499048D01*
X118816381Y-68111666D02*
X118340190Y-68445000D01*
X118816381Y-68683095D02*
X117816381Y-68683095D01*
X117816381Y-68302142D01*
X117864000Y-68206904D01*
X117911619Y-68159285D01*
X118006857Y-68111666D01*
X118149714Y-68111666D01*
X118244952Y-68159285D01*
X118292571Y-68206904D01*
X118340190Y-68302142D01*
X118340190Y-68683095D01*
X118816381Y-67159285D02*
X118816381Y-67730714D01*
X118816381Y-67445000D02*
X117816381Y-67445000D01*
X117959238Y-67540238D01*
X118054476Y-67635476D01*
X118102095Y-67730714D01*
D17*
X123825000Y-56424286D02*
X123752429Y-56496857D01*
X123534715Y-56569429D01*
X123389572Y-56569429D01*
X123171857Y-56496857D01*
X123026715Y-56351714D01*
X122954143Y-56206571D01*
X122881572Y-55916286D01*
X122881572Y-55698571D01*
X122954143Y-55408286D01*
X123026715Y-55263143D01*
X123171857Y-55118000D01*
X123389572Y-55045429D01*
X123534715Y-55045429D01*
X123752429Y-55118000D01*
X123825000Y-55190571D01*
X125276429Y-56569429D02*
X124405572Y-56569429D01*
X124841000Y-56569429D02*
X124841000Y-55045429D01*
X124695857Y-55263143D01*
X124550715Y-55408286D01*
X124405572Y-55480857D01*
D14*
X98893334Y-47347143D02*
X98845715Y-47394762D01*
X98702858Y-47442381D01*
X98607620Y-47442381D01*
X98464762Y-47394762D01*
X98369524Y-47299524D01*
X98321905Y-47204286D01*
X98274286Y-47013810D01*
X98274286Y-46870952D01*
X98321905Y-46680476D01*
X98369524Y-46585238D01*
X98464762Y-46490000D01*
X98607620Y-46442381D01*
X98702858Y-46442381D01*
X98845715Y-46490000D01*
X98893334Y-46537619D01*
X99274286Y-46537619D02*
X99321905Y-46490000D01*
X99417143Y-46442381D01*
X99655239Y-46442381D01*
X99750477Y-46490000D01*
X99798096Y-46537619D01*
X99845715Y-46632857D01*
X99845715Y-46728095D01*
X99798096Y-46870952D01*
X99226667Y-47442381D01*
X99845715Y-47442381D01*
X111244143Y-51397666D02*
X111291762Y-51445285D01*
X111339381Y-51588142D01*
X111339381Y-51683380D01*
X111291762Y-51826238D01*
X111196524Y-51921476D01*
X111101286Y-51969095D01*
X110910810Y-52016714D01*
X110767952Y-52016714D01*
X110577476Y-51969095D01*
X110482238Y-51921476D01*
X110387000Y-51826238D01*
X110339381Y-51683380D01*
X110339381Y-51588142D01*
X110387000Y-51445285D01*
X110434619Y-51397666D01*
X110339381Y-51064333D02*
X110339381Y-50445285D01*
X110720333Y-50778619D01*
X110720333Y-50635761D01*
X110767952Y-50540523D01*
X110815571Y-50492904D01*
X110910810Y-50445285D01*
X111148905Y-50445285D01*
X111244143Y-50492904D01*
X111291762Y-50540523D01*
X111339381Y-50635761D01*
X111339381Y-50921476D01*
X111291762Y-51016714D01*
X111244143Y-51064333D01*
X121118381Y-65277905D02*
X121927905Y-65277905D01*
X122023143Y-65230286D01*
X122070762Y-65182667D01*
X122118381Y-65087429D01*
X122118381Y-64896952D01*
X122070762Y-64801714D01*
X122023143Y-64754095D01*
X121927905Y-64706476D01*
X121118381Y-64706476D01*
X121213619Y-64277905D02*
X121166000Y-64230286D01*
X121118381Y-64135048D01*
X121118381Y-63896952D01*
X121166000Y-63801714D01*
X121213619Y-63754095D01*
X121308857Y-63706476D01*
X121404095Y-63706476D01*
X121546952Y-63754095D01*
X122118381Y-64325524D01*
X122118381Y-63706476D01*
X110053381Y-68365666D02*
X109577190Y-68699000D01*
X110053381Y-68937095D02*
X109053381Y-68937095D01*
X109053381Y-68556142D01*
X109101000Y-68460904D01*
X109148619Y-68413285D01*
X109243857Y-68365666D01*
X109386714Y-68365666D01*
X109481952Y-68413285D01*
X109529571Y-68460904D01*
X109577190Y-68556142D01*
X109577190Y-68937095D01*
X109148619Y-67984714D02*
X109101000Y-67937095D01*
X109053381Y-67841857D01*
X109053381Y-67603761D01*
X109101000Y-67508523D01*
X109148619Y-67460904D01*
X109243857Y-67413285D01*
X109339095Y-67413285D01*
X109481952Y-67460904D01*
X110053381Y-68032333D01*
X110053381Y-67413285D01*
X112974381Y-68238666D02*
X112498190Y-68572000D01*
X112974381Y-68810095D02*
X111974381Y-68810095D01*
X111974381Y-68429142D01*
X112022000Y-68333904D01*
X112069619Y-68286285D01*
X112164857Y-68238666D01*
X112307714Y-68238666D01*
X112402952Y-68286285D01*
X112450571Y-68333904D01*
X112498190Y-68429142D01*
X112498190Y-68810095D01*
X111974381Y-67905333D02*
X111974381Y-67286285D01*
X112355333Y-67619619D01*
X112355333Y-67476761D01*
X112402952Y-67381523D01*
X112450571Y-67333904D01*
X112545810Y-67286285D01*
X112783905Y-67286285D01*
X112879143Y-67333904D01*
X112926762Y-67381523D01*
X112974381Y-67476761D01*
X112974381Y-67762476D01*
X112926762Y-67857714D01*
X112879143Y-67905333D01*
X116022381Y-68238666D02*
X115546190Y-68572000D01*
X116022381Y-68810095D02*
X115022381Y-68810095D01*
X115022381Y-68429142D01*
X115070000Y-68333904D01*
X115117619Y-68286285D01*
X115212857Y-68238666D01*
X115355714Y-68238666D01*
X115450952Y-68286285D01*
X115498571Y-68333904D01*
X115546190Y-68429142D01*
X115546190Y-68810095D01*
X115355714Y-67381523D02*
X116022381Y-67381523D01*
X114974762Y-67619619D02*
X115689048Y-67857714D01*
X115689048Y-67238666D01*
X107005381Y-68492666D02*
X106529190Y-68826000D01*
X107005381Y-69064095D02*
X106005381Y-69064095D01*
X106005381Y-68683142D01*
X106053000Y-68587904D01*
X106100619Y-68540285D01*
X106195857Y-68492666D01*
X106338714Y-68492666D01*
X106433952Y-68540285D01*
X106481571Y-68587904D01*
X106529190Y-68683142D01*
X106529190Y-69064095D01*
X106005381Y-67587904D02*
X106005381Y-68064095D01*
X106481571Y-68111714D01*
X106433952Y-68064095D01*
X106386333Y-67968857D01*
X106386333Y-67730761D01*
X106433952Y-67635523D01*
X106481571Y-67587904D01*
X106576810Y-67540285D01*
X106814905Y-67540285D01*
X106910143Y-67587904D01*
X106957762Y-67635523D01*
X107005381Y-67730761D01*
X107005381Y-67968857D01*
X106957762Y-68064095D01*
X106910143Y-68111714D01*
X103957381Y-68492666D02*
X103481190Y-68826000D01*
X103957381Y-69064095D02*
X102957381Y-69064095D01*
X102957381Y-68683142D01*
X103005000Y-68587904D01*
X103052619Y-68540285D01*
X103147857Y-68492666D01*
X103290714Y-68492666D01*
X103385952Y-68540285D01*
X103433571Y-68587904D01*
X103481190Y-68683142D01*
X103481190Y-69064095D01*
X102957381Y-67635523D02*
X102957381Y-67826000D01*
X103005000Y-67921238D01*
X103052619Y-67968857D01*
X103195476Y-68064095D01*
X103385952Y-68111714D01*
X103766905Y-68111714D01*
X103862143Y-68064095D01*
X103909762Y-68016476D01*
X103957381Y-67921238D01*
X103957381Y-67730761D01*
X103909762Y-67635523D01*
X103862143Y-67587904D01*
X103766905Y-67540285D01*
X103528810Y-67540285D01*
X103433571Y-67587904D01*
X103385952Y-67635523D01*
X103338333Y-67730761D01*
X103338333Y-67921238D01*
X103385952Y-68016476D01*
X103433571Y-68064095D01*
X103528810Y-68111714D01*
X100909381Y-68365666D02*
X100433190Y-68699000D01*
X100909381Y-68937095D02*
X99909381Y-68937095D01*
X99909381Y-68556142D01*
X99957000Y-68460904D01*
X100004619Y-68413285D01*
X100099857Y-68365666D01*
X100242714Y-68365666D01*
X100337952Y-68413285D01*
X100385571Y-68460904D01*
X100433190Y-68556142D01*
X100433190Y-68937095D01*
X99909381Y-68032333D02*
X99909381Y-67365666D01*
X100909381Y-67794238D01*
X97988381Y-68492666D02*
X97512190Y-68826000D01*
X97988381Y-69064095D02*
X96988381Y-69064095D01*
X96988381Y-68683142D01*
X97036000Y-68587904D01*
X97083619Y-68540285D01*
X97178857Y-68492666D01*
X97321714Y-68492666D01*
X97416952Y-68540285D01*
X97464571Y-68587904D01*
X97512190Y-68683142D01*
X97512190Y-69064095D01*
X97416952Y-67921238D02*
X97369333Y-68016476D01*
X97321714Y-68064095D01*
X97226476Y-68111714D01*
X97178857Y-68111714D01*
X97083619Y-68064095D01*
X97036000Y-68016476D01*
X96988381Y-67921238D01*
X96988381Y-67730761D01*
X97036000Y-67635523D01*
X97083619Y-67587904D01*
X97178857Y-67540285D01*
X97226476Y-67540285D01*
X97321714Y-67587904D01*
X97369333Y-67635523D01*
X97416952Y-67730761D01*
X97416952Y-67921238D01*
X97464571Y-68016476D01*
X97512190Y-68064095D01*
X97607429Y-68111714D01*
X97797905Y-68111714D01*
X97893143Y-68064095D01*
X97940762Y-68016476D01*
X97988381Y-67921238D01*
X97988381Y-67730761D01*
X97940762Y-67635523D01*
X97893143Y-67587904D01*
X97797905Y-67540285D01*
X97607429Y-67540285D01*
X97512190Y-67587904D01*
X97464571Y-67635523D01*
X97416952Y-67730761D01*
D17*
X149974286Y-61984000D02*
X150046857Y-62056571D01*
X150119429Y-62274285D01*
X150119429Y-62419428D01*
X150046857Y-62637143D01*
X149901714Y-62782285D01*
X149756571Y-62854857D01*
X149466286Y-62927428D01*
X149248571Y-62927428D01*
X148958286Y-62854857D01*
X148813143Y-62782285D01*
X148668000Y-62637143D01*
X148595429Y-62419428D01*
X148595429Y-62274285D01*
X148668000Y-62056571D01*
X148740571Y-61984000D01*
X149103429Y-60677714D02*
X150119429Y-60677714D01*
X148522857Y-61040571D02*
X149611429Y-61403428D01*
X149611429Y-60460000D01*
D14*
X180031905Y-53522381D02*
X180031905Y-52522381D01*
X180412858Y-52522381D01*
X180508096Y-52570000D01*
X180555715Y-52617619D01*
X180603334Y-52712857D01*
X180603334Y-52855714D01*
X180555715Y-52950952D01*
X180508096Y-52998571D01*
X180412858Y-53046190D01*
X180031905Y-53046190D01*
X181508096Y-52522381D02*
X181031905Y-52522381D01*
X180984286Y-52998571D01*
X181031905Y-52950952D01*
X181127143Y-52903333D01*
X181365239Y-52903333D01*
X181460477Y-52950952D01*
X181508096Y-52998571D01*
X181555715Y-53093810D01*
X181555715Y-53331905D01*
X181508096Y-53427143D01*
X181460477Y-53474762D01*
X181365239Y-53522381D01*
X181127143Y-53522381D01*
X181031905Y-53474762D01*
X180984286Y-53427143D01*
X156043334Y-64714381D02*
X155710000Y-64238190D01*
X155471905Y-64714381D02*
X155471905Y-63714381D01*
X155852858Y-63714381D01*
X155948096Y-63762000D01*
X155995715Y-63809619D01*
X156043334Y-63904857D01*
X156043334Y-64047714D01*
X155995715Y-64142952D01*
X155948096Y-64190571D01*
X155852858Y-64238190D01*
X155471905Y-64238190D01*
X156519524Y-64714381D02*
X156710000Y-64714381D01*
X156805239Y-64666762D01*
X156852858Y-64619143D01*
X156948096Y-64476286D01*
X156995715Y-64285810D01*
X156995715Y-63904857D01*
X156948096Y-63809619D01*
X156900477Y-63762000D01*
X156805239Y-63714381D01*
X156614762Y-63714381D01*
X156519524Y-63762000D01*
X156471905Y-63809619D01*
X156424286Y-63904857D01*
X156424286Y-64142952D01*
X156471905Y-64238190D01*
X156519524Y-64285810D01*
X156614762Y-64333429D01*
X156805239Y-64333429D01*
X156900477Y-64285810D01*
X156948096Y-64238190D01*
X156995715Y-64142952D01*
X155694143Y-69540381D02*
X155360809Y-69064190D01*
X155122714Y-69540381D02*
X155122714Y-68540381D01*
X155503667Y-68540381D01*
X155598905Y-68588000D01*
X155646524Y-68635619D01*
X155694143Y-68730857D01*
X155694143Y-68873714D01*
X155646524Y-68968952D01*
X155598905Y-69016571D01*
X155503667Y-69064190D01*
X155122714Y-69064190D01*
X156646524Y-69540381D02*
X156075095Y-69540381D01*
X156360809Y-69540381D02*
X156360809Y-68540381D01*
X156265571Y-68683238D01*
X156170333Y-68778476D01*
X156075095Y-68826095D01*
X157265571Y-68540381D02*
X157360810Y-68540381D01*
X157456048Y-68588000D01*
X157503667Y-68635619D01*
X157551286Y-68730857D01*
X157598905Y-68921333D01*
X157598905Y-69159429D01*
X157551286Y-69349905D01*
X157503667Y-69445143D01*
X157456048Y-69492762D01*
X157360810Y-69540381D01*
X157265571Y-69540381D01*
X157170333Y-69492762D01*
X157122714Y-69445143D01*
X157075095Y-69349905D01*
X157027476Y-69159429D01*
X157027476Y-68921333D01*
X157075095Y-68730857D01*
X157122714Y-68635619D01*
X157170333Y-68588000D01*
X157265571Y-68540381D01*
X155567143Y-74239381D02*
X155233809Y-73763190D01*
X154995714Y-74239381D02*
X154995714Y-73239381D01*
X155376667Y-73239381D01*
X155471905Y-73287000D01*
X155519524Y-73334619D01*
X155567143Y-73429857D01*
X155567143Y-73572714D01*
X155519524Y-73667952D01*
X155471905Y-73715571D01*
X155376667Y-73763190D01*
X154995714Y-73763190D01*
X156519524Y-74239381D02*
X155948095Y-74239381D01*
X156233809Y-74239381D02*
X156233809Y-73239381D01*
X156138571Y-73382238D01*
X156043333Y-73477476D01*
X155948095Y-73525095D01*
X157471905Y-74239381D02*
X156900476Y-74239381D01*
X157186190Y-74239381D02*
X157186190Y-73239381D01*
X157090952Y-73382238D01*
X156995714Y-73477476D01*
X156900476Y-73525095D01*
X165862476Y-46807381D02*
X165862476Y-45807381D01*
X166243429Y-45807381D01*
X166338667Y-45855000D01*
X166386286Y-45902619D01*
X166433905Y-45997857D01*
X166433905Y-46140714D01*
X166386286Y-46235952D01*
X166338667Y-46283571D01*
X166243429Y-46331190D01*
X165862476Y-46331190D01*
X166862476Y-46807381D02*
X166862476Y-45807381D01*
X167910095Y-46712143D02*
X167862476Y-46759762D01*
X167719619Y-46807381D01*
X167624381Y-46807381D01*
X167481523Y-46759762D01*
X167386285Y-46664524D01*
X167338666Y-46569286D01*
X167291047Y-46378810D01*
X167291047Y-46235952D01*
X167338666Y-46045476D01*
X167386285Y-45950238D01*
X167481523Y-45855000D01*
X167624381Y-45807381D01*
X167719619Y-45807381D01*
X167862476Y-45855000D01*
X167910095Y-45902619D01*
X168862476Y-46807381D02*
X168291047Y-46807381D01*
X168576761Y-46807381D02*
X168576761Y-45807381D01*
X168481523Y-45950238D01*
X168386285Y-46045476D01*
X168291047Y-46093095D01*
X169243428Y-45902619D02*
X169291047Y-45855000D01*
X169386285Y-45807381D01*
X169624381Y-45807381D01*
X169719619Y-45855000D01*
X169767238Y-45902619D01*
X169814857Y-45997857D01*
X169814857Y-46093095D01*
X169767238Y-46235952D01*
X169195809Y-46807381D01*
X169814857Y-46807381D01*
X170576762Y-46283571D02*
X170243428Y-46283571D01*
X170243428Y-46807381D02*
X170243428Y-45807381D01*
X170719619Y-45807381D01*
X171529143Y-45807381D02*
X171338666Y-45807381D01*
X171243428Y-45855000D01*
X171195809Y-45902619D01*
X171100571Y-46045476D01*
X171052952Y-46235952D01*
X171052952Y-46616905D01*
X171100571Y-46712143D01*
X171148190Y-46759762D01*
X171243428Y-46807381D01*
X171433905Y-46807381D01*
X171529143Y-46759762D01*
X171576762Y-46712143D01*
X171624381Y-46616905D01*
X171624381Y-46378810D01*
X171576762Y-46283571D01*
X171529143Y-46235952D01*
X171433905Y-46188333D01*
X171243428Y-46188333D01*
X171148190Y-46235952D01*
X171100571Y-46283571D01*
X171052952Y-46378810D01*
X171957714Y-45807381D02*
X172624381Y-45807381D01*
X172195809Y-46807381D01*
X173481524Y-45807381D02*
X173005333Y-45807381D01*
X172957714Y-46283571D01*
X173005333Y-46235952D01*
X173100571Y-46188333D01*
X173338667Y-46188333D01*
X173433905Y-46235952D01*
X173481524Y-46283571D01*
X173529143Y-46378810D01*
X173529143Y-46616905D01*
X173481524Y-46712143D01*
X173433905Y-46759762D01*
X173338667Y-46807381D01*
X173100571Y-46807381D01*
X173005333Y-46759762D01*
X172957714Y-46712143D01*
X159131095Y-62203381D02*
X159131095Y-63012905D01*
X159178714Y-63108143D01*
X159226333Y-63155762D01*
X159321571Y-63203381D01*
X159512048Y-63203381D01*
X159607286Y-63155762D01*
X159654905Y-63108143D01*
X159702524Y-63012905D01*
X159702524Y-62203381D01*
X160607286Y-62536714D02*
X160607286Y-63203381D01*
X160369190Y-62155762D02*
X160131095Y-62870048D01*
X160750143Y-62870048D01*
X153368762Y-46029619D02*
X153416381Y-45982000D01*
X153511619Y-45934381D01*
X153749715Y-45934381D01*
X153844953Y-45982000D01*
X153892572Y-46029619D01*
X153940191Y-46124857D01*
X153940191Y-46220095D01*
X153892572Y-46362952D01*
X153321143Y-46934381D01*
X153940191Y-46934381D01*
X154797334Y-46267714D02*
X154797334Y-46934381D01*
X154559238Y-45886762D02*
X154321143Y-46601048D01*
X154940191Y-46601048D01*
X155797334Y-46934381D02*
X155321143Y-46934381D01*
X155321143Y-45934381D01*
X156702096Y-46839143D02*
X156654477Y-46886762D01*
X156511620Y-46934381D01*
X156416382Y-46934381D01*
X156273524Y-46886762D01*
X156178286Y-46791524D01*
X156130667Y-46696286D01*
X156083048Y-46505810D01*
X156083048Y-46362952D01*
X156130667Y-46172476D01*
X156178286Y-46077238D01*
X156273524Y-45982000D01*
X156416382Y-45934381D01*
X156511620Y-45934381D01*
X156654477Y-45982000D01*
X156702096Y-46029619D01*
X157606858Y-45934381D02*
X157130667Y-45934381D01*
X157083048Y-46410571D01*
X157130667Y-46362952D01*
X157225905Y-46315333D01*
X157464001Y-46315333D01*
X157559239Y-46362952D01*
X157606858Y-46410571D01*
X157654477Y-46505810D01*
X157654477Y-46743905D01*
X157606858Y-46839143D01*
X157559239Y-46886762D01*
X157464001Y-46934381D01*
X157225905Y-46934381D01*
X157130667Y-46886762D01*
X157083048Y-46839143D01*
X158606858Y-46934381D02*
X158035429Y-46934381D01*
X158321143Y-46934381D02*
X158321143Y-45934381D01*
X158225905Y-46077238D01*
X158130667Y-46172476D01*
X158035429Y-46220095D01*
X158987810Y-46029619D02*
X159035429Y-45982000D01*
X159130667Y-45934381D01*
X159368763Y-45934381D01*
X159464001Y-45982000D01*
X159511620Y-46029619D01*
X159559239Y-46124857D01*
X159559239Y-46220095D01*
X159511620Y-46362952D01*
X158940191Y-46934381D01*
X159559239Y-46934381D01*
X170132762Y-70173333D02*
X170180381Y-70030476D01*
X170180381Y-69792380D01*
X170132762Y-69697142D01*
X170085143Y-69649523D01*
X169989905Y-69601904D01*
X169894667Y-69601904D01*
X169799429Y-69649523D01*
X169751810Y-69697142D01*
X169704190Y-69792380D01*
X169656571Y-69982857D01*
X169608952Y-70078095D01*
X169561333Y-70125714D01*
X169466095Y-70173333D01*
X169370857Y-70173333D01*
X169275619Y-70125714D01*
X169228000Y-70078095D01*
X169180381Y-69982857D01*
X169180381Y-69744761D01*
X169228000Y-69601904D01*
X169180381Y-69268571D02*
X170180381Y-69030476D01*
X169466095Y-68839999D01*
X170180381Y-68649523D01*
X169180381Y-68411428D01*
X170180381Y-67506666D02*
X170180381Y-68078095D01*
X170180381Y-67792381D02*
X169180381Y-67792381D01*
X169323238Y-67887619D01*
X169418476Y-67982857D01*
X169466095Y-68078095D01*
M02*
