M48
;DRILL file {KiCad 4.0.2-stable} date 2016-05-24 오전 2:58:47
;FORMAT={-:-/ absolute / inch / decimal}
FMAT,2
INCH,TZ
T1C0.016
T2C0.020
T3C0.028
T4C0.030
T5C0.031
T6C0.032
T7C0.039
T8C0.039
T9C0.040
T10C0.047
T11C0.087
T12C0.100
%
G90
G05
M72
T1
X4.7012Y-4.1327
T2
X4.7619Y-2.1056
X4.7619Y-2.2056
X4.8419Y-2.1056
X4.9269Y-2.1056
X5.0119Y-2.1056
X5.0119Y-2.2056
X5.6331Y-2.3053
X5.6331Y-2.3903
X5.6331Y-2.4753
X5.6331Y-2.5553
X5.7331Y-2.3053
X5.7331Y-2.5553
T3
X4.2539Y-3.225
X4.2539Y-3.325
X4.7039Y-3.2
X4.7039Y-3.3
X4.7039Y-4.5
X4.7039Y-4.6
X4.8039Y-3.2
X4.8039Y-3.3
X4.8039Y-4.5
X4.8039Y-4.6
X4.9039Y-3.2
X4.9039Y-3.3
X4.9039Y-4.5
X4.9039Y-4.6
X5.0039Y-3.2
X5.0039Y-3.3
X5.0039Y-4.5
X5.0039Y-4.6
X5.1039Y-3.2
X5.1039Y-3.3
X5.1039Y-4.5
X5.1039Y-4.6
X5.2039Y-3.2
X5.2039Y-3.3
X5.2039Y-4.5
X5.2039Y-4.6
X5.3039Y-3.2
X5.3039Y-3.3
X5.3039Y-4.5
X5.3039Y-4.6
X5.4039Y-3.2
X5.4039Y-3.3
X5.4039Y-4.5
X5.4039Y-4.6
X5.5039Y-3.2
X5.5039Y-3.3
X5.5039Y-4.5
X5.5039Y-4.6
X5.6039Y-3.2
X5.6039Y-3.3
X5.6039Y-4.5
X5.6039Y-4.6
X5.7039Y-3.2
X5.7039Y-3.3
X5.7039Y-4.5
X5.7039Y-4.6
X5.8039Y-3.2
X5.8039Y-3.3
X5.8039Y-4.5
X5.8039Y-4.6
X5.9039Y-3.2
X5.9039Y-3.3
X5.9039Y-4.5
X5.9039Y-4.6
X6.0039Y-3.2
X6.0039Y-3.3
X6.0039Y-4.5
X6.0039Y-4.6
X6.1039Y-3.2
X6.1039Y-3.3
X6.1039Y-4.5
X6.1039Y-4.6
X6.2039Y-3.2
X6.2039Y-3.3
X6.2039Y-4.5
X6.2039Y-4.6
X6.3039Y-3.2
X6.3039Y-3.3
X6.3039Y-4.5
X6.3039Y-4.6
X6.4039Y-3.2
X6.4039Y-3.3
X6.4039Y-4.5
X6.4039Y-4.6
X6.5039Y-3.2
X6.5039Y-3.3
X6.5039Y-4.5
X6.5039Y-4.6
X6.6039Y-3.2
X6.6039Y-3.3
X6.6039Y-4.5
X6.6039Y-4.6
X6.7039Y-3.2
X6.7039Y-3.3
X6.7039Y-4.5
X6.7039Y-4.6
X6.8039Y-3.2
X6.8039Y-3.3
X6.8039Y-4.5
X6.8039Y-4.6
T4
X3.8251Y-2.3855
X3.8251Y-2.9855
X3.9251Y-2.3855
X3.9251Y-2.9855
X4.0251Y-2.3855
X4.0251Y-2.9855
X4.1251Y-2.3855
X4.1251Y-2.9855
X4.2251Y-2.3855
X4.2251Y-2.9855
X4.3251Y-2.3855
X4.3251Y-2.9855
X4.4251Y-2.3855
X4.4251Y-2.9855
X4.5251Y-2.3855
X4.5251Y-2.9855
X4.6251Y-2.3855
X4.6251Y-2.9855
X4.7251Y-2.3855
X4.7251Y-2.9855
X4.7539Y-3.622
X4.7539Y-3.722
X4.8251Y-2.3855
X4.8251Y-2.9855
X4.8539Y-3.622
X4.8539Y-3.722
X4.9251Y-2.3855
X4.9251Y-2.9855
X4.9539Y-3.622
X4.9539Y-3.722
X5.0539Y-3.622
X5.0539Y-3.722
X5.1539Y-3.622
X5.1539Y-3.722
X5.2539Y-3.622
X5.2539Y-3.722
X5.3539Y-3.622
X5.3539Y-3.722
X5.4539Y-3.622
X5.4539Y-3.722
X5.5539Y-3.622
X5.5539Y-3.722
X5.6539Y-3.622
X5.6539Y-3.722
X5.7539Y-3.622
X5.7539Y-3.722
X5.8539Y-3.622
X5.8539Y-3.722
X5.9539Y-3.622
X5.9539Y-3.722
X6.0539Y-3.622
X6.0539Y-3.722
X6.1539Y-3.622
X6.1539Y-3.722
X6.2539Y-3.622
X6.2539Y-3.722
X6.3539Y-3.622
X6.3539Y-3.722
X6.4539Y-3.622
X6.4539Y-3.722
X6.5539Y-3.622
X6.5539Y-3.722
X6.6539Y-3.622
X6.6539Y-3.722
T5
X5.995Y-1.965
X5.995Y-2.065
X5.995Y-2.165
X5.995Y-2.265
X6.295Y-1.965
X6.295Y-2.065
X6.295Y-2.165
X6.295Y-2.265
X6.53Y-1.965
X6.53Y-2.065
X6.53Y-2.165
X6.53Y-2.265
X6.83Y-1.965
X6.83Y-2.065
X6.83Y-2.165
X6.83Y-2.265
T6
X6.6122Y-2.4602
X6.6122Y-2.9602
X6.8122Y-2.4602
X6.8122Y-2.9602
T7
X3.7747Y-2.1146
X3.7747Y-2.213
X3.8436Y-2.1146
X3.8633Y-2.213
X3.9617Y-2.1146
X3.9617Y-2.213
X4.0306Y-2.1146
X4.0306Y-2.213
T8
X3.8357Y-2.5359
X3.8357Y-2.8359
X3.9499Y-2.5359
X3.9499Y-2.8359
X4.068Y-2.5359
X4.068Y-2.8359
X4.1861Y-2.5359
X4.1861Y-2.8359
X4.3081Y-2.5359
X4.3081Y-2.8359
X4.4263Y-2.5351
X4.4263Y-2.8351
X4.5444Y-2.5351
X4.5444Y-2.8351
X4.6625Y-2.5351
X4.6625Y-2.8351
X6.Y-2.53
X6.Y-2.715
X6.Y-2.905
X6.3Y-2.53
X6.3Y-2.715
X6.3Y-2.905
T9
X3.689Y-3.1654
X3.689Y-3.2654
X3.689Y-3.3654
X3.689Y-3.4654
X3.689Y-3.5654
X3.689Y-3.6654
X3.689Y-3.7654
X3.689Y-3.8654
X3.689Y-3.9654
X3.689Y-4.0654
X3.689Y-4.1654
X3.689Y-4.2654
X3.689Y-4.3654
X3.689Y-4.4654
X3.689Y-4.5654
X3.689Y-4.6654
X3.689Y-4.7654
X3.689Y-4.8654
X3.689Y-4.9654
X3.689Y-5.0654
X3.789Y-3.1654
X3.789Y-3.2654
X3.789Y-3.3654
X3.789Y-3.4654
X3.789Y-3.5654
X3.789Y-3.6654
X3.789Y-3.7654
X3.789Y-3.8654
X3.789Y-3.9654
X3.789Y-4.0654
X3.789Y-4.1654
X3.789Y-4.2654
X3.789Y-4.3654
X3.789Y-4.4654
X3.789Y-4.5654
X3.789Y-4.6654
X3.789Y-4.7654
X3.789Y-4.8654
X3.789Y-4.9654
X3.789Y-5.0654
X3.9409Y-3.1654
X3.9409Y-3.2654
X3.9409Y-3.3654
X3.9409Y-3.4654
X3.9409Y-3.5654
X3.9409Y-3.6654
X3.9409Y-3.7654
X3.9409Y-3.8654
X3.9409Y-3.9654
X3.9409Y-4.0654
X3.9409Y-4.1654
X3.9409Y-4.2654
X3.9409Y-4.3654
X3.9409Y-4.4654
X3.9409Y-4.5654
X3.9409Y-4.6654
X3.9409Y-4.7654
X3.9409Y-4.8654
X3.9409Y-4.9654
X3.9409Y-5.0654
X4.0409Y-3.1654
X4.0409Y-3.2654
X4.0409Y-3.3654
X4.0409Y-3.4654
X4.0409Y-3.5654
X4.0409Y-3.6654
X4.0409Y-3.7654
X4.0409Y-3.8654
X4.0409Y-3.9654
X4.0409Y-4.0654
X4.0409Y-4.1654
X4.0409Y-4.2654
X4.0409Y-4.3654
X4.0409Y-4.4654
X4.0409Y-4.5654
X4.0409Y-4.6654
X4.0409Y-4.7654
X4.0409Y-4.8654
X4.0409Y-4.9654
X4.0409Y-5.0654
X7.1169Y-2.2902
X7.1169Y-2.3902
X7.1169Y-2.4902
X7.1169Y-2.5902
X7.1382Y-3.1039
X7.1382Y-3.2039
X7.1382Y-3.3039
X7.1382Y-3.4039
X7.1382Y-3.5039
X7.1382Y-3.6039
X7.1382Y-3.7039
X7.1382Y-3.8039
X7.1382Y-3.9039
X7.1382Y-4.0039
X7.1382Y-4.1039
X7.1382Y-4.2039
X7.1382Y-4.3039
X7.1382Y-4.4039
X7.1382Y-4.5039
X7.1382Y-4.6039
X7.1382Y-4.7039
X7.2382Y-3.1039
X7.2382Y-3.2039
X7.2382Y-3.3039
X7.2382Y-3.4039
X7.2382Y-3.5039
X7.2382Y-3.6039
X7.2382Y-3.7039
X7.2382Y-3.8039
X7.2382Y-3.9039
X7.2382Y-4.0039
X7.2382Y-4.1039
X7.2382Y-4.2039
X7.2382Y-4.3039
X7.2382Y-4.4039
X7.2382Y-4.5039
X7.2382Y-4.6039
X7.2382Y-4.7039
T10
X4.3711Y-1.8548
X4.3711Y-2.1304
T11
X3.6992Y-2.9488
X5.1401Y-2.9567
X5.4118Y-2.9567
X5.4134Y-1.8976
X7.2047Y-1.8976
X7.2047Y-2.9567
T12
X4.6291Y-4.8229
X6.8336Y-5.0279
T2
X4.9261Y-1.9856G85X4.8477Y-1.9856
G05
X5.5131Y-2.3911G85X5.5131Y-2.4695
G05
T3
X4.6119Y-2.041G85X4.6119Y-1.9701
G05
X5.1619Y-2.041G85X5.1619Y-1.9701
G05
X5.5685Y-2.1553G85X5.4976Y-2.1553
G05
X5.5685Y-2.7053G85X5.4976Y-2.7053
G05
T5
X3.8692Y-1.9571G85X3.9361Y-1.9571
G05
X4.2412Y-1.9G85X4.2412Y-1.9276
G05
X4.2589Y-2.215G85X4.2589Y-2.2426
G05
X4.3574Y-2.2701G85X4.3849Y-2.2701
G05
X4.4833Y-2.215G85X4.4833Y-2.2426
G05
X4.5011Y-1.9G85X4.5011Y-1.9276
G05
T0
M30
