G04 #@! TF.FileFunction,Copper,L1,Top,Signal*
%FSLAX46Y46*%
G04 Gerber Fmt 4.6, Leading zero omitted, Abs format (unit mm)*
G04 Created by KiCad (PCBNEW 4.0.2-stable) date 2016-05-24 오전 1:59:57*
%MOMM*%
G01*
G04 APERTURE LIST*
%ADD10C,0.100000*%
%ADD11C,2.540000*%
%ADD12R,1.800000X8.000000*%
%ADD13R,1.800000X7.000000*%
%ADD14C,1.524000*%
%ADD15R,1.727200X1.727200*%
%ADD16O,1.727200X1.727200*%
%ADD17C,1.998980*%
%ADD18C,1.371600*%
%ADD19R,3.200400X1.998980*%
%ADD20R,2.169160X3.200400*%
%ADD21C,1.500000*%
%ADD22R,4.000000X1.524000*%
%ADD23R,2.500000X1.500000*%
%ADD24R,1.500000X2.500000*%
%ADD25R,2.000000X3.200000*%
%ADD26R,3.200400X2.169160*%
%ADD27R,2.032000X1.727200*%
%ADD28O,2.032000X1.727200*%
%ADD29O,1.600000X1.600000*%
%ADD30O,1.727200X3.048000*%
%ADD31C,0.600000*%
%ADD32C,0.250000*%
%ADD33C,1.000000*%
%ADD34C,1.500000*%
%ADD35C,0.254000*%
G04 APERTURE END LIST*
D10*
D11*
X173573640Y-127707440D03*
D12*
X176189840Y-138637440D03*
X173649840Y-138637440D03*
X171109840Y-138637440D03*
X168569840Y-138637440D03*
X166029840Y-138637440D03*
X163489840Y-138637440D03*
X160949840Y-138637440D03*
X158409840Y-138637440D03*
X155869840Y-138637440D03*
X153329840Y-138637440D03*
X150789840Y-138637440D03*
X148249840Y-138637440D03*
X145709840Y-138637440D03*
X143169840Y-138637440D03*
X140629840Y-138637440D03*
X138089840Y-138637440D03*
X135549840Y-138637440D03*
X133009840Y-138637440D03*
X130469840Y-138637440D03*
X127929840Y-138637440D03*
X125389840Y-138637440D03*
D13*
X122844760Y-138144680D03*
D12*
X120309840Y-138637440D03*
X117769840Y-138637440D03*
X115229840Y-138637440D03*
D11*
X117579340Y-122500440D03*
D14*
X172820000Y-116840000D03*
X172820000Y-114300000D03*
X170280000Y-116840000D03*
X170280000Y-114300000D03*
X167740000Y-116840000D03*
X167740000Y-114300000D03*
X165200000Y-116840000D03*
X165200000Y-114300000D03*
X162660000Y-116840000D03*
X162660000Y-114300000D03*
X160120000Y-116840000D03*
X160120000Y-114300000D03*
X157580000Y-116840000D03*
X157580000Y-114300000D03*
X155040000Y-116840000D03*
X155040000Y-114300000D03*
X152500000Y-116840000D03*
X152500000Y-114300000D03*
X149960000Y-116840000D03*
X149960000Y-114300000D03*
X147420000Y-116840000D03*
X147420000Y-114300000D03*
X144880000Y-116840000D03*
X144880000Y-114300000D03*
X142340000Y-116840000D03*
X142340000Y-114300000D03*
X139800000Y-116840000D03*
X139800000Y-114300000D03*
X137260000Y-116840000D03*
X137260000Y-114300000D03*
X134720000Y-116840000D03*
X134720000Y-114300000D03*
X132180000Y-116840000D03*
X132180000Y-114300000D03*
X129640000Y-116840000D03*
X129640000Y-114300000D03*
X127100000Y-116840000D03*
X127100000Y-114300000D03*
X124560000Y-116840000D03*
X124560000Y-114300000D03*
X122020000Y-116840000D03*
X122020000Y-114300000D03*
X119480000Y-116840000D03*
X119480000Y-114300000D03*
X119480000Y-81280000D03*
X119480000Y-83820000D03*
X122020000Y-81280000D03*
X122020000Y-83820000D03*
X124560000Y-81280000D03*
X124560000Y-83820000D03*
X127100000Y-81280000D03*
X127100000Y-83820000D03*
X129640000Y-81280000D03*
X129640000Y-83820000D03*
X132180000Y-81280000D03*
X132180000Y-83820000D03*
X134720000Y-81280000D03*
X134720000Y-83820000D03*
X137260000Y-81280000D03*
X137260000Y-83820000D03*
X139800000Y-81280000D03*
X139800000Y-83820000D03*
X142340000Y-81280000D03*
X142340000Y-83820000D03*
X144880000Y-81280000D03*
X144880000Y-83820000D03*
X147420000Y-81280000D03*
X147420000Y-83820000D03*
X149960000Y-81280000D03*
X149960000Y-83820000D03*
X152500000Y-81280000D03*
X152500000Y-83820000D03*
X155040000Y-81280000D03*
X155040000Y-83820000D03*
X157580000Y-81280000D03*
X157580000Y-83820000D03*
X160120000Y-81280000D03*
X160120000Y-83820000D03*
X162660000Y-81280000D03*
X162660000Y-83820000D03*
X165200000Y-81280000D03*
X165200000Y-83820000D03*
X167740000Y-81280000D03*
X167740000Y-83820000D03*
X170280000Y-81280000D03*
X170280000Y-83820000D03*
X172820000Y-81280000D03*
X172820000Y-83820000D03*
X108050000Y-81915000D03*
X108050000Y-84455000D03*
D10*
G36*
X168248000Y-95302000D02*
X168248000Y-93778000D01*
X169772000Y-93778000D01*
X169772000Y-95302000D01*
X168248000Y-95302000D01*
X168248000Y-95302000D01*
G37*
D14*
X169010000Y-92000000D03*
X166470000Y-94540000D03*
X166470000Y-92000000D03*
X163930000Y-94540000D03*
X163930000Y-92000000D03*
X161390000Y-94540000D03*
X161390000Y-92000000D03*
X158850000Y-94540000D03*
X158850000Y-92000000D03*
X156310000Y-94540000D03*
X156310000Y-92000000D03*
X153770000Y-94540000D03*
X153770000Y-92000000D03*
X151230000Y-94540000D03*
X151230000Y-92000000D03*
X148690000Y-94540000D03*
X148690000Y-92000000D03*
X146150000Y-94540000D03*
X146150000Y-92000000D03*
X143610000Y-94540000D03*
X143610000Y-92000000D03*
X141070000Y-94540000D03*
X141070000Y-92000000D03*
X138530000Y-94540000D03*
X138530000Y-92000000D03*
X135990000Y-94540000D03*
X135990000Y-92000000D03*
X133450000Y-94540000D03*
X133450000Y-92000000D03*
X130910000Y-94540000D03*
X130910000Y-92000000D03*
X128370000Y-94540000D03*
X128370000Y-92000000D03*
X125830000Y-94540000D03*
X125830000Y-92000000D03*
X123290000Y-94540000D03*
X123290000Y-92000000D03*
X120750000Y-94540000D03*
X120750000Y-92000000D03*
D15*
X183850000Y-119480000D03*
D16*
X181310000Y-119480000D03*
X183850000Y-116940000D03*
X181310000Y-116940000D03*
X183850000Y-114400000D03*
X181310000Y-114400000D03*
X183850000Y-111860000D03*
X181310000Y-111860000D03*
X183850000Y-109320000D03*
X181310000Y-109320000D03*
X183850000Y-106780000D03*
X181310000Y-106780000D03*
X183850000Y-104240000D03*
X181310000Y-104240000D03*
X183850000Y-101700000D03*
X181310000Y-101700000D03*
X183850000Y-99160000D03*
X181310000Y-99160000D03*
X183850000Y-96620000D03*
X181310000Y-96620000D03*
X183850000Y-94080000D03*
X181310000Y-94080000D03*
X183850000Y-91540000D03*
X181310000Y-91540000D03*
X183850000Y-89000000D03*
X181310000Y-89000000D03*
X183850000Y-86460000D03*
X181310000Y-86460000D03*
X183850000Y-83920000D03*
X181310000Y-83920000D03*
X183850000Y-81380000D03*
X181310000Y-81380000D03*
X183850000Y-78840000D03*
X181310000Y-78840000D03*
D15*
X100100000Y-80400000D03*
D16*
X102640000Y-80400000D03*
X100100000Y-82940000D03*
X102640000Y-82940000D03*
X100100000Y-85480000D03*
X102640000Y-85480000D03*
X100100000Y-88020000D03*
X102640000Y-88020000D03*
X100100000Y-90560000D03*
X102640000Y-90560000D03*
X100100000Y-93100000D03*
X102640000Y-93100000D03*
X100100000Y-95640000D03*
X102640000Y-95640000D03*
X100100000Y-98180000D03*
X102640000Y-98180000D03*
X100100000Y-100720000D03*
X102640000Y-100720000D03*
X100100000Y-103260000D03*
X102640000Y-103260000D03*
X100100000Y-105800000D03*
X102640000Y-105800000D03*
X100100000Y-108340000D03*
X102640000Y-108340000D03*
X100100000Y-110880000D03*
X102640000Y-110880000D03*
X100100000Y-113420000D03*
X102640000Y-113420000D03*
X100100000Y-115960000D03*
X102640000Y-115960000D03*
X100100000Y-118500000D03*
X102640000Y-118500000D03*
X100100000Y-121040000D03*
X102640000Y-121040000D03*
X100100000Y-123580000D03*
X102640000Y-123580000D03*
X100100000Y-126120000D03*
X102640000Y-126120000D03*
X100100000Y-128660000D03*
X102640000Y-128660000D03*
D15*
X93700000Y-80400000D03*
D16*
X96240000Y-80400000D03*
X93700000Y-82940000D03*
X96240000Y-82940000D03*
X93700000Y-85480000D03*
X96240000Y-85480000D03*
X93700000Y-88020000D03*
X96240000Y-88020000D03*
X93700000Y-90560000D03*
X96240000Y-90560000D03*
X93700000Y-93100000D03*
X96240000Y-93100000D03*
X93700000Y-95640000D03*
X96240000Y-95640000D03*
X93700000Y-98180000D03*
X96240000Y-98180000D03*
X93700000Y-100720000D03*
X96240000Y-100720000D03*
X93700000Y-103260000D03*
X96240000Y-103260000D03*
X93700000Y-105800000D03*
X96240000Y-105800000D03*
X93700000Y-108340000D03*
X96240000Y-108340000D03*
X93700000Y-110880000D03*
X96240000Y-110880000D03*
X93700000Y-113420000D03*
X96240000Y-113420000D03*
X93700000Y-115960000D03*
X96240000Y-115960000D03*
X93700000Y-118500000D03*
X96240000Y-118500000D03*
X93700000Y-121040000D03*
X96240000Y-121040000D03*
X93700000Y-123580000D03*
X96240000Y-123580000D03*
X93700000Y-126120000D03*
X96240000Y-126120000D03*
X93700000Y-128660000D03*
X96240000Y-128660000D03*
D17*
X118427000Y-72011000D03*
X118427000Y-64391000D03*
D18*
X125143000Y-53481000D03*
X122984000Y-53481000D03*
X120952000Y-56021000D03*
X127302000Y-56021000D03*
X127302000Y-53481000D03*
X120952000Y-53481000D03*
D19*
X124127000Y-50433000D03*
D20*
X117142000Y-50941000D03*
X131112000Y-50941000D03*
D21*
X102377000Y-56211000D03*
X100627000Y-56211000D03*
X98127000Y-56211000D03*
X97627000Y-53711000D03*
X95877000Y-56211000D03*
X95877000Y-53711000D03*
X102377000Y-53711000D03*
D22*
X99127000Y-49711000D03*
D21*
X100627000Y-53711000D03*
D23*
X111027000Y-57661000D03*
D24*
X108177000Y-56611000D03*
X107727000Y-48611000D03*
X113877000Y-56611000D03*
X114327000Y-48611000D03*
D14*
X125097000Y-60591000D03*
X122557000Y-60591000D03*
X120017000Y-60591000D03*
X117477000Y-60591000D03*
X114937000Y-60591000D03*
X112397000Y-60591000D03*
X109857000Y-60591000D03*
X107317000Y-60591000D03*
X104777000Y-60591000D03*
X102237000Y-60591000D03*
X99697000Y-60591000D03*
X97157000Y-60591000D03*
X97157000Y-75831000D03*
X99697000Y-75831000D03*
X102237000Y-75831000D03*
X104777000Y-75831000D03*
X107317000Y-75831000D03*
X109857000Y-75831000D03*
X112397000Y-75831000D03*
X114937000Y-75831000D03*
X117477000Y-75831000D03*
X120017000Y-75831000D03*
X122557000Y-75831000D03*
X125097000Y-75831000D03*
D17*
X112427000Y-72011000D03*
X112427000Y-64391000D03*
X115427000Y-72011000D03*
X115427000Y-64391000D03*
X109427000Y-64411000D03*
X109427000Y-72031000D03*
X106327000Y-64411000D03*
X106327000Y-72031000D03*
X103327000Y-64411000D03*
X103327000Y-72031000D03*
X100327000Y-64411000D03*
X100327000Y-72031000D03*
X97427000Y-64411000D03*
X97427000Y-72031000D03*
D18*
X143080000Y-60714000D03*
X143080000Y-62873000D03*
X145620000Y-64905000D03*
X145620000Y-58555000D03*
X143080000Y-58555000D03*
X143080000Y-64905000D03*
D25*
X140032000Y-61730000D03*
D26*
X140540000Y-68715000D03*
X140540000Y-54745000D03*
D27*
X180770000Y-58170000D03*
D28*
X180770000Y-60710000D03*
X180770000Y-63250000D03*
X180770000Y-65790000D03*
D17*
X152400000Y-64262000D03*
X160020000Y-64262000D03*
X152400000Y-68961000D03*
X160020000Y-68961000D03*
X152400000Y-73787000D03*
X160020000Y-73787000D03*
D29*
X165862000Y-49911000D03*
X165862000Y-52451000D03*
X165862000Y-54991000D03*
X165862000Y-57531000D03*
X173482000Y-57531000D03*
X173482000Y-54991000D03*
X173482000Y-52451000D03*
X173482000Y-49911000D03*
X159893000Y-57531000D03*
X159893000Y-54991000D03*
X159893000Y-52451000D03*
X159893000Y-49911000D03*
X152273000Y-49911000D03*
X152273000Y-52451000D03*
X152273000Y-54991000D03*
X152273000Y-57531000D03*
D30*
X167950000Y-62490000D03*
X173030000Y-62490000D03*
X167950000Y-75190000D03*
X173030000Y-75190000D03*
D31*
X119410000Y-104970000D03*
D32*
X148690000Y-94540000D02*
X148690000Y-99040000D01*
X148690000Y-99040000D02*
X148520000Y-99210000D01*
X169010000Y-94540000D02*
X169010000Y-97960000D01*
X169010000Y-97960000D02*
X167760000Y-99210000D01*
X167760000Y-99210000D02*
X148520000Y-99210000D01*
X148520000Y-99210000D02*
X117120000Y-99210000D01*
X119480000Y-83820000D02*
X118870000Y-83820000D01*
X118870000Y-83820000D02*
X117120000Y-85570000D01*
X117120000Y-85570000D02*
X117120000Y-99210000D01*
X117120000Y-99210000D02*
X117120000Y-114480000D01*
X117120000Y-114480000D02*
X119480000Y-116840000D01*
D33*
X166470000Y-92000000D02*
X169010000Y-92000000D01*
X169010000Y-92000000D02*
X169160000Y-92150000D01*
X169160000Y-92150000D02*
X169990000Y-92150000D01*
X169990000Y-92150000D02*
X172280000Y-94440000D01*
X172280000Y-94440000D02*
X172280000Y-101860000D01*
X172280000Y-101860000D02*
X169170000Y-104970000D01*
X169170000Y-104970000D02*
X119410000Y-104970000D01*
D32*
X155040000Y-81280000D02*
X155080000Y-81280000D01*
X155080000Y-81280000D02*
X156250000Y-82450000D01*
X156250000Y-82450000D02*
X156250000Y-84620000D01*
X156250000Y-84620000D02*
X159910000Y-88280000D01*
X159910000Y-88280000D02*
X163220000Y-88280000D01*
X163220000Y-88280000D02*
X165280000Y-90340000D01*
X165280000Y-90340000D02*
X165280000Y-93350000D01*
X165280000Y-93350000D02*
X166470000Y-94540000D01*
X155040000Y-83820000D02*
X155040000Y-84310000D01*
X155040000Y-84310000D02*
X160000000Y-89270000D01*
X160000000Y-89270000D02*
X160630000Y-89270000D01*
X160630000Y-89270000D02*
X162620000Y-91260000D01*
X162620000Y-91260000D02*
X162620000Y-93240000D01*
X162620000Y-93240000D02*
X163920000Y-94540000D01*
X163920000Y-94540000D02*
X163930000Y-94540000D01*
X152500000Y-83820000D02*
X152520000Y-83820000D01*
X152520000Y-83820000D02*
X159150000Y-90450000D01*
X159150000Y-90450000D02*
X159600000Y-90450000D01*
X159600000Y-90450000D02*
X160170000Y-91020000D01*
X160170000Y-91020000D02*
X160170000Y-93320000D01*
X160170000Y-93320000D02*
X161390000Y-94540000D01*
X152500000Y-81280000D02*
X152500000Y-81420000D01*
X152500000Y-81420000D02*
X153610000Y-82530000D01*
X161390000Y-91140000D02*
X161390000Y-92000000D01*
X160110000Y-89860000D02*
X161390000Y-91140000D01*
X153610000Y-82530000D02*
X153610000Y-84040000D01*
X153610000Y-84040000D02*
X159430000Y-89860000D01*
X159430000Y-89860000D02*
X160110000Y-89860000D01*
X149960000Y-81280000D02*
X149960000Y-81340000D01*
X149960000Y-81340000D02*
X151210000Y-82590000D01*
X151210000Y-82590000D02*
X151210000Y-84360000D01*
X151210000Y-84360000D02*
X158850000Y-92000000D01*
X154980000Y-93210000D02*
X156310000Y-94540000D01*
X154980000Y-90800000D02*
X154980000Y-93210000D01*
X147420000Y-81280000D02*
X148670000Y-82530000D01*
X148670000Y-82530000D02*
X148670000Y-85130000D01*
X148670000Y-85130000D02*
X153730000Y-90190000D01*
X153730000Y-90190000D02*
X154370000Y-90190000D01*
X154370000Y-90190000D02*
X154980000Y-90800000D01*
X149960000Y-83820000D02*
X149960000Y-84810000D01*
X149960000Y-84810000D02*
X154800000Y-89650000D01*
X154800000Y-89650000D02*
X155380000Y-89650000D01*
X155380000Y-89650000D02*
X156310000Y-90580000D01*
X156310000Y-90580000D02*
X156310000Y-92000000D01*
X152390000Y-93130000D02*
X153770000Y-94510000D01*
X153770000Y-94510000D02*
X153770000Y-94540000D01*
X147420000Y-83820000D02*
X147420000Y-85330000D01*
X147420000Y-85330000D02*
X152390000Y-90300000D01*
X152390000Y-90300000D02*
X152390000Y-93130000D01*
X149960000Y-93270000D02*
X151230000Y-94540000D01*
X144880000Y-83820000D02*
X144880000Y-85510000D01*
X144880000Y-85510000D02*
X149960000Y-90750000D01*
X149960000Y-90750000D02*
X149960000Y-93270000D01*
X151230000Y-90540000D02*
X151230000Y-92000000D01*
X144880000Y-81280000D02*
X144990000Y-81280000D01*
X144990000Y-81280000D02*
X146110000Y-82400000D01*
X146110000Y-82400000D02*
X146110000Y-85420000D01*
X146110000Y-85420000D02*
X151230000Y-90540000D01*
X142340000Y-81280000D02*
X142400000Y-81280000D01*
X142400000Y-81280000D02*
X143640000Y-82520000D01*
X148690000Y-91120000D02*
X148690000Y-92000000D01*
X143640000Y-82520000D02*
X143640000Y-86070000D01*
X143640000Y-86070000D02*
X148690000Y-91120000D01*
X142340000Y-83820000D02*
X142340000Y-86220000D01*
X142340000Y-86220000D02*
X145010000Y-88890000D01*
X145010000Y-88890000D02*
X145010000Y-93400000D01*
X145010000Y-93400000D02*
X146150000Y-94540000D01*
X139800000Y-83820000D02*
X139800000Y-87190000D01*
X139800000Y-87190000D02*
X142380000Y-89770000D01*
X142380000Y-89770000D02*
X142380000Y-93310000D01*
X142380000Y-93310000D02*
X143610000Y-94540000D01*
X139800000Y-81280000D02*
X139820000Y-81280000D01*
X139820000Y-81280000D02*
X141100000Y-82560000D01*
X141100000Y-82560000D02*
X141100000Y-86780000D01*
X143610000Y-89290000D02*
X143610000Y-92000000D01*
X141100000Y-86780000D02*
X143610000Y-89290000D01*
X137260000Y-83820000D02*
X137260000Y-88140000D01*
X137260000Y-88140000D02*
X139810000Y-90690000D01*
X139810000Y-90690000D02*
X139810000Y-93280000D01*
X139810000Y-93280000D02*
X141070000Y-94540000D01*
X137260000Y-81280000D02*
X137390000Y-81280000D01*
X137390000Y-81280000D02*
X138500000Y-82390000D01*
X138500000Y-82390000D02*
X138500000Y-87540000D01*
X138500000Y-87540000D02*
X141070000Y-90110000D01*
X141070000Y-90110000D02*
X141070000Y-92000000D01*
X134720000Y-81280000D02*
X134720000Y-81410000D01*
X134720000Y-81410000D02*
X136010000Y-82700000D01*
X136010000Y-82700000D02*
X136010000Y-89480000D01*
X136010000Y-89480000D02*
X138530000Y-92000000D01*
X132180000Y-81280000D02*
X132180000Y-81410000D01*
X132180000Y-81410000D02*
X133440000Y-82670000D01*
X133440000Y-82670000D02*
X133440000Y-89320000D01*
X133440000Y-89320000D02*
X134750000Y-90630000D01*
X134750000Y-90630000D02*
X134750000Y-93300000D01*
X134750000Y-93300000D02*
X135990000Y-94540000D01*
X134720000Y-83820000D02*
X134720000Y-89210000D01*
X134720000Y-89210000D02*
X135990000Y-90480000D01*
X135990000Y-90480000D02*
X135990000Y-92000000D01*
X132180000Y-83820000D02*
X132180000Y-93100000D01*
X132180000Y-93100000D02*
X133450000Y-94370000D01*
X133450000Y-94370000D02*
X133450000Y-94540000D01*
X130910000Y-94510000D02*
X130910000Y-94540000D01*
X129640000Y-83820000D02*
X129640000Y-93240000D01*
X129640000Y-93240000D02*
X130910000Y-94510000D01*
X129640000Y-81280000D02*
X129640000Y-81300000D01*
X129640000Y-81300000D02*
X130910000Y-82570000D01*
X130910000Y-82570000D02*
X130910000Y-92000000D01*
X128370000Y-94480000D02*
X128370000Y-94540000D01*
X127100000Y-83820000D02*
X127100000Y-93210000D01*
X127100000Y-93210000D02*
X128370000Y-94480000D01*
X127100000Y-81280000D02*
X127100000Y-81480000D01*
X125830000Y-82750000D02*
X125830000Y-92000000D01*
X127100000Y-81480000D02*
X125830000Y-82750000D01*
X122020000Y-83820000D02*
X122020000Y-93230000D01*
X122020000Y-93230000D02*
X123290000Y-94500000D01*
X123290000Y-94500000D02*
X123290000Y-94540000D01*
X124560000Y-81280000D02*
X124530000Y-81280000D01*
X124530000Y-81280000D02*
X123290000Y-82520000D01*
X123290000Y-82520000D02*
X123290000Y-92000000D01*
X120750000Y-88510000D02*
X120750000Y-82560000D01*
X120750000Y-82560000D02*
X120740000Y-82550000D01*
X120750000Y-92000000D02*
X120750000Y-88510000D01*
X120750000Y-88510000D02*
X120740000Y-88500000D01*
X122020000Y-81280000D02*
X122010000Y-81280000D01*
X122010000Y-81280000D02*
X120740000Y-82550000D01*
X120740000Y-88500000D02*
X120740000Y-89230000D01*
X170280000Y-116840000D02*
X170280000Y-120370000D01*
X170280000Y-120370000D02*
X176189840Y-126279840D01*
X176189840Y-126279840D02*
X176189840Y-138637440D01*
X167740000Y-116840000D02*
X167740000Y-124990000D01*
X167740000Y-124990000D02*
X167750000Y-125000000D01*
X167750000Y-125000000D02*
X167750000Y-125960000D01*
X167750000Y-125960000D02*
X173649840Y-131859840D01*
X173649840Y-131859840D02*
X173649840Y-138637440D01*
X165200000Y-116840000D02*
X165200000Y-125650000D01*
X165200000Y-125650000D02*
X171109840Y-131559840D01*
X171109840Y-131559840D02*
X171109840Y-138637440D01*
X162660000Y-116840000D02*
X162660000Y-125950000D01*
X162660000Y-125950000D02*
X168569840Y-131859840D01*
X168569840Y-131859840D02*
X168569840Y-138637440D01*
X160120000Y-116840000D02*
X160120000Y-126140000D01*
X160120000Y-126140000D02*
X166029840Y-132049840D01*
X166029840Y-132049840D02*
X166029840Y-138637440D01*
X157580000Y-116840000D02*
X157580000Y-127140000D01*
X157580000Y-127140000D02*
X163489840Y-133049840D01*
X163489840Y-133049840D02*
X163489840Y-138637440D01*
X155040000Y-116840000D02*
X155040000Y-127350000D01*
X155040000Y-127350000D02*
X160949840Y-133259840D01*
X160949840Y-133259840D02*
X160949840Y-138637440D01*
X152500000Y-114300000D02*
X152670000Y-114300000D01*
X152670000Y-114300000D02*
X153770000Y-115400000D01*
X153770000Y-115400000D02*
X153770000Y-128550000D01*
X153770000Y-128550000D02*
X155869840Y-130649840D01*
X155869840Y-130649840D02*
X155869840Y-138637440D01*
X149960000Y-114300000D02*
X150030000Y-114300000D01*
X150030000Y-114300000D02*
X151260000Y-115530000D01*
X151260000Y-115530000D02*
X151260000Y-129090000D01*
X151260000Y-129090000D02*
X153329840Y-131159840D01*
X153329840Y-131159840D02*
X153329840Y-138637440D01*
X147420000Y-114300000D02*
X147550000Y-114300000D01*
X147550000Y-114300000D02*
X148700000Y-115450000D01*
X148700000Y-115450000D02*
X148700000Y-129140000D01*
X148700000Y-129140000D02*
X150789840Y-131229840D01*
X150789840Y-131229840D02*
X150789840Y-138637440D01*
X146130000Y-115560000D02*
X146130000Y-128970000D01*
X146130000Y-128970000D02*
X148249840Y-131089840D01*
X144880000Y-114300000D02*
X144880000Y-114310000D01*
X144880000Y-114310000D02*
X146130000Y-115560000D01*
X148249840Y-131089840D02*
X148249840Y-138637440D01*
X143670000Y-115670000D02*
X143670000Y-129080000D01*
X143670000Y-129080000D02*
X145709840Y-131119840D01*
X145709840Y-131119840D02*
X145709840Y-138637440D01*
X142340000Y-114300000D02*
X142340000Y-114340000D01*
X142340000Y-114340000D02*
X143670000Y-115670000D01*
X139800000Y-114300000D02*
X139800000Y-114320000D01*
X139800000Y-114320000D02*
X140990000Y-115510000D01*
X140990000Y-115510000D02*
X140990000Y-129370000D01*
X140990000Y-129370000D02*
X143169840Y-131549840D01*
X143169840Y-131549840D02*
X143169840Y-138637440D01*
X137260000Y-114300000D02*
X137260000Y-114350000D01*
X137260000Y-114350000D02*
X138640000Y-115730000D01*
X138640000Y-115730000D02*
X138640000Y-128920000D01*
X138640000Y-128920000D02*
X140629840Y-130909840D01*
X140629840Y-130909840D02*
X140629840Y-138637440D01*
X134720000Y-114300000D02*
X134720000Y-114660000D01*
X134720000Y-114660000D02*
X135960000Y-115900000D01*
X138190000Y-132930000D02*
X138190000Y-138537280D01*
X138190000Y-138537280D02*
X138089840Y-138637440D01*
X135960000Y-130700000D02*
X138190000Y-132930000D01*
X135960000Y-115900000D02*
X135960000Y-130700000D01*
X129640000Y-116840000D02*
X129640000Y-126620000D01*
X129640000Y-126620000D02*
X135790000Y-132770000D01*
X135790000Y-132770000D02*
X135790000Y-138397280D01*
X135790000Y-138397280D02*
X135549840Y-138637440D01*
X127100000Y-116840000D02*
X127100000Y-127160000D01*
X127100000Y-127160000D02*
X133050000Y-133110000D01*
X133050000Y-133110000D02*
X133050000Y-138597280D01*
X133050000Y-138597280D02*
X133009840Y-138637440D01*
X124560000Y-116840000D02*
X124560000Y-127190000D01*
X124560000Y-127190000D02*
X130530000Y-133160000D01*
X130530000Y-133160000D02*
X130530000Y-138577280D01*
X130530000Y-138577280D02*
X130469840Y-138637440D01*
X122020000Y-116840000D02*
X122020000Y-127440000D01*
X122020000Y-127440000D02*
X127929840Y-133349840D01*
X127929840Y-133349840D02*
X127929840Y-138637440D01*
X122020000Y-114300000D02*
X122020000Y-114410000D01*
X122020000Y-114410000D02*
X120640000Y-115790000D01*
X120640000Y-115790000D02*
X120640000Y-128850000D01*
X120640000Y-128850000D02*
X125389840Y-133599840D01*
X125389840Y-133599840D02*
X125389840Y-138637440D01*
D34*
X120309840Y-138637440D02*
X120309840Y-133160160D01*
X120309840Y-133160160D02*
X120680000Y-132790000D01*
X120680000Y-132790000D02*
X122510000Y-132790000D01*
X122510000Y-132790000D02*
X122844760Y-133124760D01*
X122844760Y-133124760D02*
X122844760Y-138144680D01*
D32*
X124560000Y-83820000D02*
X124560000Y-93290000D01*
X124560000Y-93290000D02*
X125810000Y-94540000D01*
X125810000Y-94540000D02*
X125830000Y-94540000D01*
X160120000Y-83820000D02*
X160120000Y-84460000D01*
X160120000Y-84460000D02*
X161940000Y-86280000D01*
X178480000Y-101410000D02*
X181310000Y-104240000D01*
X178480000Y-98400000D02*
X178480000Y-101410000D01*
X170440000Y-90360000D02*
X178480000Y-98400000D01*
X167260000Y-90360000D02*
X170440000Y-90360000D01*
X163180000Y-86280000D02*
X167260000Y-90360000D01*
X161940000Y-86280000D02*
X163180000Y-86280000D01*
X160120000Y-83820000D02*
X160120000Y-84570000D01*
X160120000Y-81280000D02*
X160180000Y-81280000D01*
X160180000Y-81280000D02*
X161490000Y-82590000D01*
X161490000Y-82590000D02*
X161490000Y-84770000D01*
X161490000Y-84770000D02*
X162100000Y-85380000D01*
X162100000Y-85380000D02*
X163170000Y-85380000D01*
X163170000Y-85380000D02*
X167420000Y-89630000D01*
X167420000Y-89630000D02*
X171780000Y-89630000D01*
X171780000Y-89630000D02*
X181310000Y-99160000D01*
X162660000Y-83820000D02*
X162660000Y-84100000D01*
X162660000Y-84100000D02*
X167450000Y-88890000D01*
X173580000Y-88890000D02*
X181310000Y-96620000D01*
X167450000Y-88890000D02*
X173580000Y-88890000D01*
X162660000Y-83820000D02*
X162660000Y-84176398D01*
X162660000Y-81280000D02*
X162850000Y-81280000D01*
X162850000Y-81280000D02*
X163980000Y-82410000D01*
X175470000Y-88240000D02*
X181310000Y-94080000D01*
X167640000Y-88240000D02*
X175470000Y-88240000D01*
X163980000Y-82410000D02*
X163980000Y-84580000D01*
X163980000Y-84580000D02*
X167640000Y-88240000D01*
X165200000Y-83820000D02*
X165200000Y-84730000D01*
X177170000Y-87400000D02*
X181310000Y-91540000D01*
X167870000Y-87400000D02*
X177170000Y-87400000D01*
X165200000Y-84730000D02*
X167870000Y-87400000D01*
X165200000Y-81280000D02*
X165200000Y-81460000D01*
X165200000Y-81460000D02*
X166460000Y-82720000D01*
X179060000Y-86750000D02*
X181310000Y-89000000D01*
X168360000Y-86750000D02*
X179060000Y-86750000D01*
X166460000Y-82720000D02*
X166460000Y-84850000D01*
X166460000Y-84850000D02*
X168360000Y-86750000D01*
X167740000Y-83820000D02*
X168130000Y-83820000D01*
X168130000Y-83820000D02*
X170150000Y-85840000D01*
X170150000Y-85840000D02*
X180690000Y-85840000D01*
X180690000Y-85840000D02*
X181310000Y-86460000D01*
X170280000Y-83820000D02*
X170610000Y-83820000D01*
X170610000Y-83820000D02*
X171980000Y-85190000D01*
X171980000Y-85190000D02*
X180040000Y-85190000D01*
X180040000Y-85190000D02*
X181310000Y-83920000D01*
X167740000Y-81280000D02*
X167990000Y-81280000D01*
X167990000Y-81280000D02*
X169200000Y-82490000D01*
X169200000Y-82490000D02*
X180200000Y-82490000D01*
X180200000Y-82490000D02*
X181310000Y-81380000D01*
X170280000Y-81280000D02*
X170280000Y-81250000D01*
X170280000Y-81250000D02*
X171820000Y-79710000D01*
X171820000Y-79710000D02*
X180440000Y-79710000D01*
X180440000Y-79710000D02*
X181310000Y-78840000D01*
X96240000Y-80400000D02*
X96240000Y-80492000D01*
X96240000Y-80492000D02*
X97409000Y-81661000D01*
X97409000Y-81661000D02*
X101379000Y-81661000D01*
X101379000Y-81661000D02*
X102640000Y-80400000D01*
X96240000Y-82940000D02*
X96275000Y-82940000D01*
X96275000Y-82940000D02*
X97536000Y-84201000D01*
X97536000Y-84201000D02*
X101379000Y-84201000D01*
X101379000Y-84201000D02*
X102640000Y-82940000D01*
X96240000Y-85480000D02*
X96402000Y-85480000D01*
X96402000Y-85480000D02*
X97663000Y-86741000D01*
X97663000Y-86741000D02*
X101379000Y-86741000D01*
X101379000Y-86741000D02*
X102640000Y-85480000D01*
X96240000Y-88020000D02*
X96275000Y-88020000D01*
X96275000Y-88020000D02*
X97536000Y-89281000D01*
X97536000Y-89281000D02*
X101379000Y-89281000D01*
X101379000Y-89281000D02*
X102640000Y-88020000D01*
X96240000Y-90560000D02*
X96275000Y-90560000D01*
X96275000Y-90560000D02*
X97536000Y-91821000D01*
X97536000Y-91821000D02*
X101379000Y-91821000D01*
X101379000Y-91821000D02*
X102640000Y-90560000D01*
X96240000Y-93100000D02*
X96240000Y-93192000D01*
X96240000Y-93192000D02*
X97409000Y-94361000D01*
X97409000Y-94361000D02*
X101379000Y-94361000D01*
X101379000Y-94361000D02*
X102640000Y-93100000D01*
X96240000Y-95640000D02*
X96240000Y-95732000D01*
X96240000Y-95732000D02*
X97409000Y-96901000D01*
X97409000Y-96901000D02*
X101379000Y-96901000D01*
X101379000Y-96901000D02*
X102640000Y-95640000D01*
X96240000Y-98180000D02*
X96402000Y-98180000D01*
X96402000Y-98180000D02*
X97663000Y-99441000D01*
X97663000Y-99441000D02*
X101379000Y-99441000D01*
X101379000Y-99441000D02*
X102640000Y-98180000D01*
X96240000Y-100720000D02*
X96275000Y-100720000D01*
X96275000Y-100720000D02*
X97536000Y-101981000D01*
X97536000Y-101981000D02*
X101379000Y-101981000D01*
X101379000Y-101981000D02*
X102640000Y-100720000D01*
X96240000Y-103260000D02*
X96240000Y-103479000D01*
X96240000Y-103479000D02*
X97282000Y-104521000D01*
X97282000Y-104521000D02*
X101379000Y-104521000D01*
X101379000Y-104521000D02*
X102640000Y-103260000D01*
X96240000Y-105800000D02*
X96240000Y-105892000D01*
X96240000Y-105892000D02*
X97409000Y-107061000D01*
X97409000Y-107061000D02*
X101379000Y-107061000D01*
X101379000Y-107061000D02*
X102640000Y-105800000D01*
X96240000Y-108340000D02*
X96402000Y-108340000D01*
X96402000Y-108340000D02*
X97663000Y-109601000D01*
X97663000Y-109601000D02*
X101379000Y-109601000D01*
X101379000Y-109601000D02*
X102640000Y-108340000D01*
X96240000Y-110880000D02*
X96240000Y-111099000D01*
X96240000Y-111099000D02*
X97282000Y-112141000D01*
X97282000Y-112141000D02*
X101379000Y-112141000D01*
X101379000Y-112141000D02*
X102640000Y-110880000D01*
X96240000Y-113420000D02*
X96240000Y-113639000D01*
X96240000Y-113639000D02*
X97282000Y-114681000D01*
X97282000Y-114681000D02*
X101379000Y-114681000D01*
X101379000Y-114681000D02*
X102640000Y-113420000D01*
X96240000Y-115960000D02*
X96240000Y-116179000D01*
X96240000Y-116179000D02*
X97282000Y-117221000D01*
X97282000Y-117221000D02*
X101379000Y-117221000D01*
X101379000Y-117221000D02*
X102640000Y-115960000D01*
X96240000Y-118500000D02*
X96275000Y-118500000D01*
X96275000Y-118500000D02*
X97536000Y-119761000D01*
X97536000Y-119761000D02*
X101379000Y-119761000D01*
X101379000Y-119761000D02*
X102640000Y-118500000D01*
X96240000Y-121040000D02*
X96275000Y-121040000D01*
X96275000Y-121040000D02*
X97536000Y-122301000D01*
X97536000Y-122301000D02*
X101379000Y-122301000D01*
X101379000Y-122301000D02*
X102640000Y-121040000D01*
X96240000Y-123580000D02*
X96402000Y-123580000D01*
X96402000Y-123580000D02*
X97663000Y-124841000D01*
X97663000Y-124841000D02*
X101379000Y-124841000D01*
X101379000Y-124841000D02*
X102640000Y-123580000D01*
X96240000Y-126120000D02*
X96402000Y-126120000D01*
X96402000Y-126120000D02*
X97663000Y-127381000D01*
X97663000Y-127381000D02*
X101379000Y-127381000D01*
X101379000Y-127381000D02*
X102640000Y-126120000D01*
X96240000Y-128660000D02*
X96656000Y-128660000D01*
X96656000Y-128660000D02*
X97917000Y-129921000D01*
X97917000Y-129921000D02*
X101379000Y-129921000D01*
X101379000Y-129921000D02*
X102640000Y-128660000D01*
X118427000Y-64391000D02*
X119107000Y-64391000D01*
X119107000Y-64391000D02*
X120827000Y-66111000D01*
X120827000Y-66111000D02*
X120827000Y-75021000D01*
X120827000Y-75021000D02*
X120017000Y-75831000D01*
X122984000Y-53481000D02*
X122984000Y-53654000D01*
X122984000Y-53654000D02*
X121827000Y-54811000D01*
X121827000Y-54811000D02*
X117027000Y-54811000D01*
X117027000Y-54811000D02*
X116027000Y-55811000D01*
X116027000Y-55811000D02*
X116027000Y-57811000D01*
X116027000Y-57811000D02*
X115027000Y-58811000D01*
X115027000Y-58811000D02*
X113627000Y-58811000D01*
X113627000Y-58811000D02*
X112397000Y-60041000D01*
X112397000Y-60041000D02*
X112397000Y-60591000D01*
X112427000Y-64391000D02*
X112427000Y-60621000D01*
X112427000Y-60621000D02*
X112397000Y-60591000D01*
X115427000Y-64391000D02*
X115427000Y-61081000D01*
X115427000Y-61081000D02*
X114937000Y-60591000D01*
X114937000Y-60591000D02*
X114937000Y-60401000D01*
X114937000Y-60401000D02*
X119027000Y-56311000D01*
X119027000Y-56311000D02*
X120662000Y-56311000D01*
X120662000Y-56311000D02*
X120952000Y-56021000D01*
X106327000Y-64411000D02*
X106327000Y-63011000D01*
X104777000Y-61461000D02*
X104777000Y-60591000D01*
X106327000Y-63011000D02*
X104777000Y-61461000D01*
X102237000Y-60591000D02*
X102237000Y-62021000D01*
X103327000Y-63111000D02*
X103327000Y-64411000D01*
X102237000Y-62021000D02*
X103327000Y-63111000D01*
X99697000Y-60591000D02*
X99697000Y-61981000D01*
X100327000Y-62611000D02*
X100327000Y-64411000D01*
X99697000Y-61981000D02*
X100327000Y-62611000D01*
X97157000Y-60591000D02*
X97157000Y-62081000D01*
X97427000Y-62351000D02*
X97427000Y-64411000D01*
X97157000Y-62081000D02*
X97427000Y-62351000D01*
X109427000Y-64411000D02*
X109427000Y-62701000D01*
X109427000Y-62701000D02*
X107317000Y-60591000D01*
X108177000Y-56611000D02*
X108177000Y-58661000D01*
X108177000Y-58661000D02*
X109857000Y-60341000D01*
X109857000Y-60341000D02*
X109857000Y-60591000D01*
X102377000Y-56211000D02*
X102377000Y-57761000D01*
X104827000Y-70531000D02*
X106327000Y-72031000D01*
X104827000Y-63311000D02*
X104827000Y-70531000D01*
X103527000Y-62011000D02*
X104827000Y-63311000D01*
X103527000Y-58911000D02*
X103527000Y-62011000D01*
X102377000Y-57761000D02*
X103527000Y-58911000D01*
X100627000Y-56211000D02*
X100627000Y-59011000D01*
X101827000Y-70531000D02*
X103327000Y-72031000D01*
X101827000Y-63011000D02*
X101827000Y-70531000D01*
X100927000Y-62111000D02*
X101827000Y-63011000D01*
X100927000Y-59311000D02*
X100927000Y-62111000D01*
X100627000Y-59011000D02*
X100927000Y-59311000D01*
X98127000Y-56211000D02*
X98127000Y-59111000D01*
X98827000Y-70531000D02*
X100327000Y-72031000D01*
X98827000Y-63411000D02*
X98827000Y-70531000D01*
X98427000Y-63011000D02*
X98827000Y-63411000D01*
X98427000Y-59411000D02*
X98427000Y-63011000D01*
X98127000Y-59111000D02*
X98427000Y-59411000D01*
X95877000Y-53711000D02*
X95627000Y-53711000D01*
X95627000Y-53711000D02*
X94127000Y-55211000D01*
X94127000Y-55211000D02*
X94127000Y-70311000D01*
X94127000Y-70311000D02*
X95847000Y-72031000D01*
X95847000Y-72031000D02*
X97427000Y-72031000D01*
X102377000Y-53711000D02*
X102377000Y-54261000D01*
X102377000Y-54261000D02*
X106227000Y-58111000D01*
X106227000Y-58111000D02*
X106227000Y-62011000D01*
X106227000Y-62011000D02*
X107927000Y-63711000D01*
X107927000Y-63711000D02*
X107927000Y-70531000D01*
X107927000Y-70531000D02*
X109427000Y-72031000D01*
X143080000Y-62873000D02*
X149471000Y-62873000D01*
X168910000Y-57531000D02*
X173482000Y-57531000D01*
X164846000Y-61595000D02*
X168910000Y-57531000D01*
X150749000Y-61595000D02*
X164846000Y-61595000D01*
X149471000Y-62873000D02*
X150749000Y-61595000D01*
X180770000Y-60710000D02*
X179201000Y-60710000D01*
X179201000Y-60710000D02*
X175514000Y-57023000D01*
X145620000Y-64905000D02*
X147836000Y-64905000D01*
X175641000Y-57150000D02*
X175514000Y-57023000D01*
X175514000Y-57023000D02*
X173482000Y-54991000D01*
X175641000Y-65278000D02*
X175641000Y-57150000D01*
X174371000Y-66548000D02*
X175641000Y-65278000D01*
X149479000Y-66548000D02*
X174371000Y-66548000D01*
X147836000Y-64905000D02*
X149479000Y-66548000D01*
X150368000Y-56261000D02*
X150368000Y-47752000D01*
X163322000Y-46863000D02*
X165862000Y-49403000D01*
X151257000Y-46863000D02*
X163322000Y-46863000D01*
X150368000Y-47752000D02*
X151257000Y-46863000D01*
X165862000Y-49403000D02*
X165862000Y-49911000D01*
X143080000Y-58555000D02*
X143080000Y-57707000D01*
X151003000Y-56261000D02*
X152273000Y-57531000D01*
X144526000Y-56261000D02*
X150368000Y-56261000D01*
X150368000Y-56261000D02*
X151003000Y-56261000D01*
X143080000Y-57707000D02*
X144526000Y-56261000D01*
X180770000Y-58170000D02*
X180770000Y-49071000D01*
X168021000Y-47752000D02*
X165862000Y-49911000D01*
X179451000Y-47752000D02*
X168021000Y-47752000D01*
X180770000Y-49071000D02*
X179451000Y-47752000D01*
X152273000Y-52451000D02*
X153035000Y-52451000D01*
X153035000Y-52451000D02*
X154305000Y-51181000D01*
X154305000Y-51181000D02*
X164592000Y-51181000D01*
X164592000Y-51181000D02*
X165862000Y-52451000D01*
X160020000Y-73787000D02*
X161036000Y-73787000D01*
X162439000Y-75190000D02*
X167950000Y-75190000D01*
X161036000Y-73787000D02*
X162439000Y-75190000D01*
D35*
G36*
X185003000Y-77603000D02*
X184673636Y-77603000D01*
X184452848Y-77455474D01*
X183879359Y-77341400D01*
X183820641Y-77341400D01*
X183247152Y-77455474D01*
X183026364Y-77603000D01*
X182133636Y-77603000D01*
X181912848Y-77455474D01*
X181339359Y-77341400D01*
X181280641Y-77341400D01*
X180707152Y-77455474D01*
X180486364Y-77603000D01*
X135070000Y-77603000D01*
X135070000Y-75443599D01*
X135723699Y-75443599D01*
X135987281Y-76081515D01*
X136474918Y-76570004D01*
X137112373Y-76834699D01*
X137802599Y-76835301D01*
X138440515Y-76571719D01*
X138929004Y-76084082D01*
X139193699Y-75446627D01*
X139194301Y-74756401D01*
X138930719Y-74118485D01*
X138922942Y-74110694D01*
X150765226Y-74110694D01*
X151013538Y-74711655D01*
X151472927Y-75171846D01*
X152073453Y-75421206D01*
X152723694Y-75421774D01*
X153324655Y-75173462D01*
X153784846Y-74714073D01*
X154034206Y-74113547D01*
X154034208Y-74110694D01*
X158385226Y-74110694D01*
X158633538Y-74711655D01*
X159092927Y-75171846D01*
X159693453Y-75421206D01*
X160343694Y-75421774D01*
X160944655Y-75173462D01*
X161146333Y-74972135D01*
X161901599Y-75727401D01*
X162148161Y-75892148D01*
X162439000Y-75950000D01*
X166462798Y-75950000D01*
X166565474Y-76466186D01*
X166890330Y-76952367D01*
X167376511Y-77277223D01*
X167950000Y-77391297D01*
X168523489Y-77277223D01*
X169009670Y-76952367D01*
X169334526Y-76466186D01*
X169448600Y-75892697D01*
X169448600Y-75317000D01*
X171531400Y-75317000D01*
X171531400Y-75977400D01*
X171694075Y-76541222D01*
X172060132Y-76999873D01*
X172573843Y-77283527D01*
X172670974Y-77305358D01*
X172903000Y-77184217D01*
X172903000Y-75317000D01*
X173157000Y-75317000D01*
X173157000Y-77184217D01*
X173389026Y-77305358D01*
X173486157Y-77283527D01*
X173999868Y-76999873D01*
X174365925Y-76541222D01*
X174528600Y-75977400D01*
X174528600Y-75443599D01*
X181264699Y-75443599D01*
X181528281Y-76081515D01*
X182015918Y-76570004D01*
X182653373Y-76834699D01*
X183343599Y-76835301D01*
X183981515Y-76571719D01*
X184470004Y-76084082D01*
X184734699Y-75446627D01*
X184735301Y-74756401D01*
X184471719Y-74118485D01*
X183984082Y-73629996D01*
X183346627Y-73365301D01*
X182656401Y-73364699D01*
X182018485Y-73628281D01*
X181529996Y-74115918D01*
X181265301Y-74753373D01*
X181264699Y-75443599D01*
X174528600Y-75443599D01*
X174528600Y-75317000D01*
X173157000Y-75317000D01*
X172903000Y-75317000D01*
X171531400Y-75317000D01*
X169448600Y-75317000D01*
X169448600Y-74487303D01*
X169431752Y-74402600D01*
X171531400Y-74402600D01*
X171531400Y-75063000D01*
X172903000Y-75063000D01*
X172903000Y-73195783D01*
X173157000Y-73195783D01*
X173157000Y-75063000D01*
X174528600Y-75063000D01*
X174528600Y-74402600D01*
X174365925Y-73838778D01*
X173999868Y-73380127D01*
X173486157Y-73096473D01*
X173389026Y-73074642D01*
X173157000Y-73195783D01*
X172903000Y-73195783D01*
X172670974Y-73074642D01*
X172573843Y-73096473D01*
X172060132Y-73380127D01*
X171694075Y-73838778D01*
X171531400Y-74402600D01*
X169431752Y-74402600D01*
X169334526Y-73913814D01*
X169009670Y-73427633D01*
X168523489Y-73102777D01*
X167950000Y-72988703D01*
X167376511Y-73102777D01*
X166890330Y-73427633D01*
X166565474Y-73913814D01*
X166462798Y-74430000D01*
X162753802Y-74430000D01*
X161573401Y-73249599D01*
X161563830Y-73243204D01*
X161406462Y-72862345D01*
X160947073Y-72402154D01*
X160346547Y-72152794D01*
X159696306Y-72152226D01*
X159095345Y-72400538D01*
X158635154Y-72859927D01*
X158385794Y-73460453D01*
X158385226Y-74110694D01*
X154034208Y-74110694D01*
X154034774Y-73463306D01*
X153786462Y-72862345D01*
X153327073Y-72402154D01*
X152726547Y-72152794D01*
X152076306Y-72152226D01*
X151475345Y-72400538D01*
X151015154Y-72859927D01*
X150765794Y-73460453D01*
X150765226Y-74110694D01*
X138922942Y-74110694D01*
X138443082Y-73629996D01*
X137805627Y-73365301D01*
X137115401Y-73364699D01*
X136477485Y-73628281D01*
X135988996Y-74115918D01*
X135724301Y-74753373D01*
X135723699Y-75443599D01*
X135070000Y-75443599D01*
X135070000Y-67630420D01*
X138292360Y-67630420D01*
X138292360Y-69799580D01*
X138336638Y-70034897D01*
X138475710Y-70251021D01*
X138687910Y-70396011D01*
X138939800Y-70447020D01*
X142140200Y-70447020D01*
X142375517Y-70402742D01*
X142591641Y-70263670D01*
X142736631Y-70051470D01*
X142787640Y-69799580D01*
X142787640Y-69284694D01*
X150765226Y-69284694D01*
X151013538Y-69885655D01*
X151472927Y-70345846D01*
X152073453Y-70595206D01*
X152723694Y-70595774D01*
X153324655Y-70347462D01*
X153784846Y-69888073D01*
X154034206Y-69287547D01*
X154034208Y-69284694D01*
X158385226Y-69284694D01*
X158633538Y-69885655D01*
X159092927Y-70345846D01*
X159693453Y-70595206D01*
X160343694Y-70595774D01*
X160944655Y-70347462D01*
X161404846Y-69888073D01*
X161654206Y-69287547D01*
X161654774Y-68637306D01*
X161406462Y-68036345D01*
X160947073Y-67576154D01*
X160346547Y-67326794D01*
X159696306Y-67326226D01*
X159095345Y-67574538D01*
X158635154Y-68033927D01*
X158385794Y-68634453D01*
X158385226Y-69284694D01*
X154034208Y-69284694D01*
X154034774Y-68637306D01*
X153786462Y-68036345D01*
X153327073Y-67576154D01*
X152726547Y-67326794D01*
X152076306Y-67326226D01*
X151475345Y-67574538D01*
X151015154Y-68033927D01*
X150765794Y-68634453D01*
X150765226Y-69284694D01*
X142787640Y-69284694D01*
X142787640Y-67630420D01*
X142743362Y-67395103D01*
X142604290Y-67178979D01*
X142392090Y-67033989D01*
X142140200Y-66982980D01*
X138939800Y-66982980D01*
X138704483Y-67027258D01*
X138488359Y-67166330D01*
X138343369Y-67378530D01*
X138292360Y-67630420D01*
X135070000Y-67630420D01*
X135070000Y-65829979D01*
X142334626Y-65829979D01*
X142394717Y-66064277D01*
X142890517Y-66238279D01*
X143415164Y-66209301D01*
X143765283Y-66064277D01*
X143825374Y-65829979D01*
X143080000Y-65084605D01*
X142334626Y-65829979D01*
X135070000Y-65829979D01*
X135070000Y-64715517D01*
X141746721Y-64715517D01*
X141775699Y-65240164D01*
X141920723Y-65590283D01*
X142155021Y-65650374D01*
X142900395Y-64905000D01*
X142155021Y-64159626D01*
X141920723Y-64219717D01*
X141746721Y-64715517D01*
X135070000Y-64715517D01*
X135070000Y-60130000D01*
X138384560Y-60130000D01*
X138384560Y-63330000D01*
X138428838Y-63565317D01*
X138567910Y-63781441D01*
X138780110Y-63926431D01*
X139032000Y-63977440D01*
X141032000Y-63977440D01*
X141267317Y-63933162D01*
X141483441Y-63794090D01*
X141628431Y-63581890D01*
X141679440Y-63330000D01*
X141679440Y-60130000D01*
X141635162Y-59894683D01*
X141496090Y-59678559D01*
X141283890Y-59533569D01*
X141032000Y-59482560D01*
X139032000Y-59482560D01*
X138796683Y-59526838D01*
X138580559Y-59665910D01*
X138435569Y-59878110D01*
X138384560Y-60130000D01*
X135070000Y-60130000D01*
X135070000Y-58816571D01*
X141758971Y-58816571D01*
X141959627Y-59302196D01*
X142291605Y-59634754D01*
X141960933Y-59964850D01*
X141759430Y-60450124D01*
X141758971Y-60975571D01*
X141959627Y-61461196D01*
X142291605Y-61793754D01*
X141960933Y-62123850D01*
X141759430Y-62609124D01*
X141758971Y-63134571D01*
X141959627Y-63620196D01*
X142330850Y-63992067D01*
X142357907Y-64003302D01*
X143080000Y-64725395D01*
X143801337Y-64004058D01*
X143827196Y-63993373D01*
X144188198Y-63633000D01*
X145239770Y-63633000D01*
X144872804Y-63784627D01*
X144500933Y-64155850D01*
X144356700Y-64503202D01*
X144239277Y-64219717D01*
X144004979Y-64159626D01*
X143259605Y-64905000D01*
X144004979Y-65650374D01*
X144239277Y-65590283D01*
X144347100Y-65283053D01*
X144499627Y-65652196D01*
X144870850Y-66024067D01*
X145356124Y-66225570D01*
X145881571Y-66226029D01*
X146367196Y-66025373D01*
X146728198Y-65665000D01*
X147521198Y-65665000D01*
X148941599Y-67085401D01*
X149188161Y-67250148D01*
X149479000Y-67308000D01*
X174371000Y-67308000D01*
X174661839Y-67250148D01*
X174908401Y-67085401D01*
X175844776Y-66149026D01*
X179162642Y-66149026D01*
X179165291Y-66164791D01*
X179419268Y-66692036D01*
X179855680Y-67081954D01*
X180408087Y-67275184D01*
X180643000Y-67130924D01*
X180643000Y-65917000D01*
X180897000Y-65917000D01*
X180897000Y-67130924D01*
X181131913Y-67275184D01*
X181684320Y-67081954D01*
X182120732Y-66692036D01*
X182374709Y-66164791D01*
X182377358Y-66149026D01*
X182256217Y-65917000D01*
X180897000Y-65917000D01*
X180643000Y-65917000D01*
X179283783Y-65917000D01*
X179162642Y-66149026D01*
X175844776Y-66149026D01*
X176178401Y-65815401D01*
X176343148Y-65568840D01*
X176401000Y-65278000D01*
X176401000Y-58984802D01*
X178663599Y-61247401D01*
X178910160Y-61412148D01*
X178958414Y-61421746D01*
X179201000Y-61470000D01*
X179325352Y-61470000D01*
X179525585Y-61769670D01*
X179840366Y-61980000D01*
X179525585Y-62190330D01*
X179200729Y-62676511D01*
X179086655Y-63250000D01*
X179200729Y-63823489D01*
X179525585Y-64309670D01*
X179835069Y-64516461D01*
X179419268Y-64887964D01*
X179165291Y-65415209D01*
X179162642Y-65430974D01*
X179283783Y-65663000D01*
X180643000Y-65663000D01*
X180643000Y-65643000D01*
X180897000Y-65643000D01*
X180897000Y-65663000D01*
X182256217Y-65663000D01*
X182377358Y-65430974D01*
X182374709Y-65415209D01*
X182120732Y-64887964D01*
X181704931Y-64516461D01*
X182014415Y-64309670D01*
X182339271Y-63823489D01*
X182453345Y-63250000D01*
X182339271Y-62676511D01*
X182014415Y-62190330D01*
X181699634Y-61980000D01*
X182014415Y-61769670D01*
X182339271Y-61283489D01*
X182453345Y-60710000D01*
X182339271Y-60136511D01*
X182014415Y-59650330D01*
X182000087Y-59640757D01*
X182021317Y-59636762D01*
X182237441Y-59497690D01*
X182382431Y-59285490D01*
X182433440Y-59033600D01*
X182433440Y-57306400D01*
X182389162Y-57071083D01*
X182250090Y-56854959D01*
X182037890Y-56709969D01*
X181786000Y-56658960D01*
X181530000Y-56658960D01*
X181530000Y-49183237D01*
X182015918Y-49670004D01*
X182653373Y-49934699D01*
X183343599Y-49935301D01*
X183981515Y-49671719D01*
X184470004Y-49184082D01*
X184734699Y-48546627D01*
X184735301Y-47856401D01*
X184471719Y-47218485D01*
X183984082Y-46729996D01*
X183346627Y-46465301D01*
X182656401Y-46464699D01*
X182018485Y-46728281D01*
X181529996Y-47215918D01*
X181265301Y-47853373D01*
X181264745Y-48490943D01*
X179988401Y-47214599D01*
X179741839Y-47049852D01*
X179451000Y-46992000D01*
X168021000Y-46992000D01*
X167730161Y-47049852D01*
X167483599Y-47214599D01*
X166167102Y-48531096D01*
X166039521Y-48505719D01*
X163859401Y-46325599D01*
X163612839Y-46160852D01*
X163322000Y-46103000D01*
X151257000Y-46103000D01*
X150966161Y-46160852D01*
X150719599Y-46325599D01*
X149830599Y-47214599D01*
X149665852Y-47461161D01*
X149608000Y-47752000D01*
X149608000Y-55501000D01*
X144526000Y-55501000D01*
X144235161Y-55558852D01*
X143988599Y-55723599D01*
X142542599Y-57169599D01*
X142377988Y-57415957D01*
X142332804Y-57434627D01*
X141960933Y-57805850D01*
X141759430Y-58291124D01*
X141758971Y-58816571D01*
X135070000Y-58816571D01*
X135070000Y-53660420D01*
X138292360Y-53660420D01*
X138292360Y-55829580D01*
X138336638Y-56064897D01*
X138475710Y-56281021D01*
X138687910Y-56426011D01*
X138939800Y-56477020D01*
X142140200Y-56477020D01*
X142375517Y-56432742D01*
X142591641Y-56293670D01*
X142736631Y-56081470D01*
X142787640Y-55829580D01*
X142787640Y-53660420D01*
X142743362Y-53425103D01*
X142604290Y-53208979D01*
X142392090Y-53063989D01*
X142140200Y-53012980D01*
X138939800Y-53012980D01*
X138704483Y-53057258D01*
X138488359Y-53196330D01*
X138343369Y-53408530D01*
X138292360Y-53660420D01*
X135070000Y-53660420D01*
X135070000Y-48543599D01*
X135764699Y-48543599D01*
X136028281Y-49181515D01*
X136515918Y-49670004D01*
X137153373Y-49934699D01*
X137843599Y-49935301D01*
X138481515Y-49671719D01*
X138970004Y-49184082D01*
X139234699Y-48546627D01*
X139235301Y-47856401D01*
X138971719Y-47218485D01*
X138484082Y-46729996D01*
X137846627Y-46465301D01*
X137156401Y-46464699D01*
X136518485Y-46728281D01*
X136029996Y-47215918D01*
X135765301Y-47853373D01*
X135764699Y-48543599D01*
X135070000Y-48543599D01*
X135070000Y-45710000D01*
X185003000Y-45710000D01*
X185003000Y-77603000D01*
X185003000Y-77603000D01*
G37*
X185003000Y-77603000D02*
X184673636Y-77603000D01*
X184452848Y-77455474D01*
X183879359Y-77341400D01*
X183820641Y-77341400D01*
X183247152Y-77455474D01*
X183026364Y-77603000D01*
X182133636Y-77603000D01*
X181912848Y-77455474D01*
X181339359Y-77341400D01*
X181280641Y-77341400D01*
X180707152Y-77455474D01*
X180486364Y-77603000D01*
X135070000Y-77603000D01*
X135070000Y-75443599D01*
X135723699Y-75443599D01*
X135987281Y-76081515D01*
X136474918Y-76570004D01*
X137112373Y-76834699D01*
X137802599Y-76835301D01*
X138440515Y-76571719D01*
X138929004Y-76084082D01*
X139193699Y-75446627D01*
X139194301Y-74756401D01*
X138930719Y-74118485D01*
X138922942Y-74110694D01*
X150765226Y-74110694D01*
X151013538Y-74711655D01*
X151472927Y-75171846D01*
X152073453Y-75421206D01*
X152723694Y-75421774D01*
X153324655Y-75173462D01*
X153784846Y-74714073D01*
X154034206Y-74113547D01*
X154034208Y-74110694D01*
X158385226Y-74110694D01*
X158633538Y-74711655D01*
X159092927Y-75171846D01*
X159693453Y-75421206D01*
X160343694Y-75421774D01*
X160944655Y-75173462D01*
X161146333Y-74972135D01*
X161901599Y-75727401D01*
X162148161Y-75892148D01*
X162439000Y-75950000D01*
X166462798Y-75950000D01*
X166565474Y-76466186D01*
X166890330Y-76952367D01*
X167376511Y-77277223D01*
X167950000Y-77391297D01*
X168523489Y-77277223D01*
X169009670Y-76952367D01*
X169334526Y-76466186D01*
X169448600Y-75892697D01*
X169448600Y-75317000D01*
X171531400Y-75317000D01*
X171531400Y-75977400D01*
X171694075Y-76541222D01*
X172060132Y-76999873D01*
X172573843Y-77283527D01*
X172670974Y-77305358D01*
X172903000Y-77184217D01*
X172903000Y-75317000D01*
X173157000Y-75317000D01*
X173157000Y-77184217D01*
X173389026Y-77305358D01*
X173486157Y-77283527D01*
X173999868Y-76999873D01*
X174365925Y-76541222D01*
X174528600Y-75977400D01*
X174528600Y-75443599D01*
X181264699Y-75443599D01*
X181528281Y-76081515D01*
X182015918Y-76570004D01*
X182653373Y-76834699D01*
X183343599Y-76835301D01*
X183981515Y-76571719D01*
X184470004Y-76084082D01*
X184734699Y-75446627D01*
X184735301Y-74756401D01*
X184471719Y-74118485D01*
X183984082Y-73629996D01*
X183346627Y-73365301D01*
X182656401Y-73364699D01*
X182018485Y-73628281D01*
X181529996Y-74115918D01*
X181265301Y-74753373D01*
X181264699Y-75443599D01*
X174528600Y-75443599D01*
X174528600Y-75317000D01*
X173157000Y-75317000D01*
X172903000Y-75317000D01*
X171531400Y-75317000D01*
X169448600Y-75317000D01*
X169448600Y-74487303D01*
X169431752Y-74402600D01*
X171531400Y-74402600D01*
X171531400Y-75063000D01*
X172903000Y-75063000D01*
X172903000Y-73195783D01*
X173157000Y-73195783D01*
X173157000Y-75063000D01*
X174528600Y-75063000D01*
X174528600Y-74402600D01*
X174365925Y-73838778D01*
X173999868Y-73380127D01*
X173486157Y-73096473D01*
X173389026Y-73074642D01*
X173157000Y-73195783D01*
X172903000Y-73195783D01*
X172670974Y-73074642D01*
X172573843Y-73096473D01*
X172060132Y-73380127D01*
X171694075Y-73838778D01*
X171531400Y-74402600D01*
X169431752Y-74402600D01*
X169334526Y-73913814D01*
X169009670Y-73427633D01*
X168523489Y-73102777D01*
X167950000Y-72988703D01*
X167376511Y-73102777D01*
X166890330Y-73427633D01*
X166565474Y-73913814D01*
X166462798Y-74430000D01*
X162753802Y-74430000D01*
X161573401Y-73249599D01*
X161563830Y-73243204D01*
X161406462Y-72862345D01*
X160947073Y-72402154D01*
X160346547Y-72152794D01*
X159696306Y-72152226D01*
X159095345Y-72400538D01*
X158635154Y-72859927D01*
X158385794Y-73460453D01*
X158385226Y-74110694D01*
X154034208Y-74110694D01*
X154034774Y-73463306D01*
X153786462Y-72862345D01*
X153327073Y-72402154D01*
X152726547Y-72152794D01*
X152076306Y-72152226D01*
X151475345Y-72400538D01*
X151015154Y-72859927D01*
X150765794Y-73460453D01*
X150765226Y-74110694D01*
X138922942Y-74110694D01*
X138443082Y-73629996D01*
X137805627Y-73365301D01*
X137115401Y-73364699D01*
X136477485Y-73628281D01*
X135988996Y-74115918D01*
X135724301Y-74753373D01*
X135723699Y-75443599D01*
X135070000Y-75443599D01*
X135070000Y-67630420D01*
X138292360Y-67630420D01*
X138292360Y-69799580D01*
X138336638Y-70034897D01*
X138475710Y-70251021D01*
X138687910Y-70396011D01*
X138939800Y-70447020D01*
X142140200Y-70447020D01*
X142375517Y-70402742D01*
X142591641Y-70263670D01*
X142736631Y-70051470D01*
X142787640Y-69799580D01*
X142787640Y-69284694D01*
X150765226Y-69284694D01*
X151013538Y-69885655D01*
X151472927Y-70345846D01*
X152073453Y-70595206D01*
X152723694Y-70595774D01*
X153324655Y-70347462D01*
X153784846Y-69888073D01*
X154034206Y-69287547D01*
X154034208Y-69284694D01*
X158385226Y-69284694D01*
X158633538Y-69885655D01*
X159092927Y-70345846D01*
X159693453Y-70595206D01*
X160343694Y-70595774D01*
X160944655Y-70347462D01*
X161404846Y-69888073D01*
X161654206Y-69287547D01*
X161654774Y-68637306D01*
X161406462Y-68036345D01*
X160947073Y-67576154D01*
X160346547Y-67326794D01*
X159696306Y-67326226D01*
X159095345Y-67574538D01*
X158635154Y-68033927D01*
X158385794Y-68634453D01*
X158385226Y-69284694D01*
X154034208Y-69284694D01*
X154034774Y-68637306D01*
X153786462Y-68036345D01*
X153327073Y-67576154D01*
X152726547Y-67326794D01*
X152076306Y-67326226D01*
X151475345Y-67574538D01*
X151015154Y-68033927D01*
X150765794Y-68634453D01*
X150765226Y-69284694D01*
X142787640Y-69284694D01*
X142787640Y-67630420D01*
X142743362Y-67395103D01*
X142604290Y-67178979D01*
X142392090Y-67033989D01*
X142140200Y-66982980D01*
X138939800Y-66982980D01*
X138704483Y-67027258D01*
X138488359Y-67166330D01*
X138343369Y-67378530D01*
X138292360Y-67630420D01*
X135070000Y-67630420D01*
X135070000Y-65829979D01*
X142334626Y-65829979D01*
X142394717Y-66064277D01*
X142890517Y-66238279D01*
X143415164Y-66209301D01*
X143765283Y-66064277D01*
X143825374Y-65829979D01*
X143080000Y-65084605D01*
X142334626Y-65829979D01*
X135070000Y-65829979D01*
X135070000Y-64715517D01*
X141746721Y-64715517D01*
X141775699Y-65240164D01*
X141920723Y-65590283D01*
X142155021Y-65650374D01*
X142900395Y-64905000D01*
X142155021Y-64159626D01*
X141920723Y-64219717D01*
X141746721Y-64715517D01*
X135070000Y-64715517D01*
X135070000Y-60130000D01*
X138384560Y-60130000D01*
X138384560Y-63330000D01*
X138428838Y-63565317D01*
X138567910Y-63781441D01*
X138780110Y-63926431D01*
X139032000Y-63977440D01*
X141032000Y-63977440D01*
X141267317Y-63933162D01*
X141483441Y-63794090D01*
X141628431Y-63581890D01*
X141679440Y-63330000D01*
X141679440Y-60130000D01*
X141635162Y-59894683D01*
X141496090Y-59678559D01*
X141283890Y-59533569D01*
X141032000Y-59482560D01*
X139032000Y-59482560D01*
X138796683Y-59526838D01*
X138580559Y-59665910D01*
X138435569Y-59878110D01*
X138384560Y-60130000D01*
X135070000Y-60130000D01*
X135070000Y-58816571D01*
X141758971Y-58816571D01*
X141959627Y-59302196D01*
X142291605Y-59634754D01*
X141960933Y-59964850D01*
X141759430Y-60450124D01*
X141758971Y-60975571D01*
X141959627Y-61461196D01*
X142291605Y-61793754D01*
X141960933Y-62123850D01*
X141759430Y-62609124D01*
X141758971Y-63134571D01*
X141959627Y-63620196D01*
X142330850Y-63992067D01*
X142357907Y-64003302D01*
X143080000Y-64725395D01*
X143801337Y-64004058D01*
X143827196Y-63993373D01*
X144188198Y-63633000D01*
X145239770Y-63633000D01*
X144872804Y-63784627D01*
X144500933Y-64155850D01*
X144356700Y-64503202D01*
X144239277Y-64219717D01*
X144004979Y-64159626D01*
X143259605Y-64905000D01*
X144004979Y-65650374D01*
X144239277Y-65590283D01*
X144347100Y-65283053D01*
X144499627Y-65652196D01*
X144870850Y-66024067D01*
X145356124Y-66225570D01*
X145881571Y-66226029D01*
X146367196Y-66025373D01*
X146728198Y-65665000D01*
X147521198Y-65665000D01*
X148941599Y-67085401D01*
X149188161Y-67250148D01*
X149479000Y-67308000D01*
X174371000Y-67308000D01*
X174661839Y-67250148D01*
X174908401Y-67085401D01*
X175844776Y-66149026D01*
X179162642Y-66149026D01*
X179165291Y-66164791D01*
X179419268Y-66692036D01*
X179855680Y-67081954D01*
X180408087Y-67275184D01*
X180643000Y-67130924D01*
X180643000Y-65917000D01*
X180897000Y-65917000D01*
X180897000Y-67130924D01*
X181131913Y-67275184D01*
X181684320Y-67081954D01*
X182120732Y-66692036D01*
X182374709Y-66164791D01*
X182377358Y-66149026D01*
X182256217Y-65917000D01*
X180897000Y-65917000D01*
X180643000Y-65917000D01*
X179283783Y-65917000D01*
X179162642Y-66149026D01*
X175844776Y-66149026D01*
X176178401Y-65815401D01*
X176343148Y-65568840D01*
X176401000Y-65278000D01*
X176401000Y-58984802D01*
X178663599Y-61247401D01*
X178910160Y-61412148D01*
X178958414Y-61421746D01*
X179201000Y-61470000D01*
X179325352Y-61470000D01*
X179525585Y-61769670D01*
X179840366Y-61980000D01*
X179525585Y-62190330D01*
X179200729Y-62676511D01*
X179086655Y-63250000D01*
X179200729Y-63823489D01*
X179525585Y-64309670D01*
X179835069Y-64516461D01*
X179419268Y-64887964D01*
X179165291Y-65415209D01*
X179162642Y-65430974D01*
X179283783Y-65663000D01*
X180643000Y-65663000D01*
X180643000Y-65643000D01*
X180897000Y-65643000D01*
X180897000Y-65663000D01*
X182256217Y-65663000D01*
X182377358Y-65430974D01*
X182374709Y-65415209D01*
X182120732Y-64887964D01*
X181704931Y-64516461D01*
X182014415Y-64309670D01*
X182339271Y-63823489D01*
X182453345Y-63250000D01*
X182339271Y-62676511D01*
X182014415Y-62190330D01*
X181699634Y-61980000D01*
X182014415Y-61769670D01*
X182339271Y-61283489D01*
X182453345Y-60710000D01*
X182339271Y-60136511D01*
X182014415Y-59650330D01*
X182000087Y-59640757D01*
X182021317Y-59636762D01*
X182237441Y-59497690D01*
X182382431Y-59285490D01*
X182433440Y-59033600D01*
X182433440Y-57306400D01*
X182389162Y-57071083D01*
X182250090Y-56854959D01*
X182037890Y-56709969D01*
X181786000Y-56658960D01*
X181530000Y-56658960D01*
X181530000Y-49183237D01*
X182015918Y-49670004D01*
X182653373Y-49934699D01*
X183343599Y-49935301D01*
X183981515Y-49671719D01*
X184470004Y-49184082D01*
X184734699Y-48546627D01*
X184735301Y-47856401D01*
X184471719Y-47218485D01*
X183984082Y-46729996D01*
X183346627Y-46465301D01*
X182656401Y-46464699D01*
X182018485Y-46728281D01*
X181529996Y-47215918D01*
X181265301Y-47853373D01*
X181264745Y-48490943D01*
X179988401Y-47214599D01*
X179741839Y-47049852D01*
X179451000Y-46992000D01*
X168021000Y-46992000D01*
X167730161Y-47049852D01*
X167483599Y-47214599D01*
X166167102Y-48531096D01*
X166039521Y-48505719D01*
X163859401Y-46325599D01*
X163612839Y-46160852D01*
X163322000Y-46103000D01*
X151257000Y-46103000D01*
X150966161Y-46160852D01*
X150719599Y-46325599D01*
X149830599Y-47214599D01*
X149665852Y-47461161D01*
X149608000Y-47752000D01*
X149608000Y-55501000D01*
X144526000Y-55501000D01*
X144235161Y-55558852D01*
X143988599Y-55723599D01*
X142542599Y-57169599D01*
X142377988Y-57415957D01*
X142332804Y-57434627D01*
X141960933Y-57805850D01*
X141759430Y-58291124D01*
X141758971Y-58816571D01*
X135070000Y-58816571D01*
X135070000Y-53660420D01*
X138292360Y-53660420D01*
X138292360Y-55829580D01*
X138336638Y-56064897D01*
X138475710Y-56281021D01*
X138687910Y-56426011D01*
X138939800Y-56477020D01*
X142140200Y-56477020D01*
X142375517Y-56432742D01*
X142591641Y-56293670D01*
X142736631Y-56081470D01*
X142787640Y-55829580D01*
X142787640Y-53660420D01*
X142743362Y-53425103D01*
X142604290Y-53208979D01*
X142392090Y-53063989D01*
X142140200Y-53012980D01*
X138939800Y-53012980D01*
X138704483Y-53057258D01*
X138488359Y-53196330D01*
X138343369Y-53408530D01*
X138292360Y-53660420D01*
X135070000Y-53660420D01*
X135070000Y-48543599D01*
X135764699Y-48543599D01*
X136028281Y-49181515D01*
X136515918Y-49670004D01*
X137153373Y-49934699D01*
X137843599Y-49935301D01*
X138481515Y-49671719D01*
X138970004Y-49184082D01*
X139234699Y-48546627D01*
X139235301Y-47856401D01*
X138971719Y-47218485D01*
X138484082Y-46729996D01*
X137846627Y-46465301D01*
X137156401Y-46464699D01*
X136518485Y-46728281D01*
X136029996Y-47215918D01*
X135765301Y-47853373D01*
X135764699Y-48543599D01*
X135070000Y-48543599D01*
X135070000Y-45710000D01*
X185003000Y-45710000D01*
X185003000Y-77603000D01*
G36*
X174881000Y-64963198D02*
X174056198Y-65788000D01*
X160606947Y-65788000D01*
X160944655Y-65648462D01*
X161404846Y-65189073D01*
X161654206Y-64588547D01*
X161654774Y-63938306D01*
X161406462Y-63337345D01*
X160947073Y-62877154D01*
X160346547Y-62627794D01*
X159696306Y-62627226D01*
X159095345Y-62875538D01*
X158635154Y-63334927D01*
X158385794Y-63935453D01*
X158385226Y-64585694D01*
X158633538Y-65186655D01*
X159092927Y-65646846D01*
X159432864Y-65788000D01*
X152986947Y-65788000D01*
X153324655Y-65648462D01*
X153784846Y-65189073D01*
X154034206Y-64588547D01*
X154034774Y-63938306D01*
X153786462Y-63337345D01*
X153327073Y-62877154D01*
X152726547Y-62627794D01*
X152076306Y-62627226D01*
X151475345Y-62875538D01*
X151015154Y-63334927D01*
X150765794Y-63935453D01*
X150765226Y-64585694D01*
X151013538Y-65186655D01*
X151472927Y-65646846D01*
X151812864Y-65788000D01*
X149793802Y-65788000D01*
X148373401Y-64367599D01*
X148126839Y-64202852D01*
X147836000Y-64145000D01*
X146727591Y-64145000D01*
X146369150Y-63785933D01*
X146000846Y-63633000D01*
X149471000Y-63633000D01*
X149761839Y-63575148D01*
X150008401Y-63410401D01*
X151063802Y-62355000D01*
X164846000Y-62355000D01*
X165136839Y-62297148D01*
X165383401Y-62132401D01*
X165728499Y-61787303D01*
X166451400Y-61787303D01*
X166451400Y-63192697D01*
X166565474Y-63766186D01*
X166890330Y-64252367D01*
X167376511Y-64577223D01*
X167950000Y-64691297D01*
X168523489Y-64577223D01*
X169009670Y-64252367D01*
X169334526Y-63766186D01*
X169448600Y-63192697D01*
X169448600Y-62617000D01*
X171531400Y-62617000D01*
X171531400Y-63277400D01*
X171694075Y-63841222D01*
X172060132Y-64299873D01*
X172573843Y-64583527D01*
X172670974Y-64605358D01*
X172903000Y-64484217D01*
X172903000Y-62617000D01*
X173157000Y-62617000D01*
X173157000Y-64484217D01*
X173389026Y-64605358D01*
X173486157Y-64583527D01*
X173999868Y-64299873D01*
X174365925Y-63841222D01*
X174528600Y-63277400D01*
X174528600Y-62617000D01*
X173157000Y-62617000D01*
X172903000Y-62617000D01*
X171531400Y-62617000D01*
X169448600Y-62617000D01*
X169448600Y-61787303D01*
X169431752Y-61702600D01*
X171531400Y-61702600D01*
X171531400Y-62363000D01*
X172903000Y-62363000D01*
X172903000Y-60495783D01*
X173157000Y-60495783D01*
X173157000Y-62363000D01*
X174528600Y-62363000D01*
X174528600Y-61702600D01*
X174365925Y-61138778D01*
X173999868Y-60680127D01*
X173486157Y-60396473D01*
X173389026Y-60374642D01*
X173157000Y-60495783D01*
X172903000Y-60495783D01*
X172670974Y-60374642D01*
X172573843Y-60396473D01*
X172060132Y-60680127D01*
X171694075Y-61138778D01*
X171531400Y-61702600D01*
X169431752Y-61702600D01*
X169334526Y-61213814D01*
X169009670Y-60727633D01*
X168523489Y-60402777D01*
X167950000Y-60288703D01*
X167376511Y-60402777D01*
X166890330Y-60727633D01*
X166565474Y-61213814D01*
X166451400Y-61787303D01*
X165728499Y-61787303D01*
X169224802Y-58291000D01*
X172269005Y-58291000D01*
X172439189Y-58545698D01*
X172904736Y-58856767D01*
X173453887Y-58966000D01*
X173510113Y-58966000D01*
X174059264Y-58856767D01*
X174524811Y-58545698D01*
X174835880Y-58080151D01*
X174881000Y-57853318D01*
X174881000Y-64963198D01*
X174881000Y-64963198D01*
G37*
X174881000Y-64963198D02*
X174056198Y-65788000D01*
X160606947Y-65788000D01*
X160944655Y-65648462D01*
X161404846Y-65189073D01*
X161654206Y-64588547D01*
X161654774Y-63938306D01*
X161406462Y-63337345D01*
X160947073Y-62877154D01*
X160346547Y-62627794D01*
X159696306Y-62627226D01*
X159095345Y-62875538D01*
X158635154Y-63334927D01*
X158385794Y-63935453D01*
X158385226Y-64585694D01*
X158633538Y-65186655D01*
X159092927Y-65646846D01*
X159432864Y-65788000D01*
X152986947Y-65788000D01*
X153324655Y-65648462D01*
X153784846Y-65189073D01*
X154034206Y-64588547D01*
X154034774Y-63938306D01*
X153786462Y-63337345D01*
X153327073Y-62877154D01*
X152726547Y-62627794D01*
X152076306Y-62627226D01*
X151475345Y-62875538D01*
X151015154Y-63334927D01*
X150765794Y-63935453D01*
X150765226Y-64585694D01*
X151013538Y-65186655D01*
X151472927Y-65646846D01*
X151812864Y-65788000D01*
X149793802Y-65788000D01*
X148373401Y-64367599D01*
X148126839Y-64202852D01*
X147836000Y-64145000D01*
X146727591Y-64145000D01*
X146369150Y-63785933D01*
X146000846Y-63633000D01*
X149471000Y-63633000D01*
X149761839Y-63575148D01*
X150008401Y-63410401D01*
X151063802Y-62355000D01*
X164846000Y-62355000D01*
X165136839Y-62297148D01*
X165383401Y-62132401D01*
X165728499Y-61787303D01*
X166451400Y-61787303D01*
X166451400Y-63192697D01*
X166565474Y-63766186D01*
X166890330Y-64252367D01*
X167376511Y-64577223D01*
X167950000Y-64691297D01*
X168523489Y-64577223D01*
X169009670Y-64252367D01*
X169334526Y-63766186D01*
X169448600Y-63192697D01*
X169448600Y-62617000D01*
X171531400Y-62617000D01*
X171531400Y-63277400D01*
X171694075Y-63841222D01*
X172060132Y-64299873D01*
X172573843Y-64583527D01*
X172670974Y-64605358D01*
X172903000Y-64484217D01*
X172903000Y-62617000D01*
X173157000Y-62617000D01*
X173157000Y-64484217D01*
X173389026Y-64605358D01*
X173486157Y-64583527D01*
X173999868Y-64299873D01*
X174365925Y-63841222D01*
X174528600Y-63277400D01*
X174528600Y-62617000D01*
X173157000Y-62617000D01*
X172903000Y-62617000D01*
X171531400Y-62617000D01*
X169448600Y-62617000D01*
X169448600Y-61787303D01*
X169431752Y-61702600D01*
X171531400Y-61702600D01*
X171531400Y-62363000D01*
X172903000Y-62363000D01*
X172903000Y-60495783D01*
X173157000Y-60495783D01*
X173157000Y-62363000D01*
X174528600Y-62363000D01*
X174528600Y-61702600D01*
X174365925Y-61138778D01*
X173999868Y-60680127D01*
X173486157Y-60396473D01*
X173389026Y-60374642D01*
X173157000Y-60495783D01*
X172903000Y-60495783D01*
X172670974Y-60374642D01*
X172573843Y-60396473D01*
X172060132Y-60680127D01*
X171694075Y-61138778D01*
X171531400Y-61702600D01*
X169431752Y-61702600D01*
X169334526Y-61213814D01*
X169009670Y-60727633D01*
X168523489Y-60402777D01*
X167950000Y-60288703D01*
X167376511Y-60402777D01*
X166890330Y-60727633D01*
X166565474Y-61213814D01*
X166451400Y-61787303D01*
X165728499Y-61787303D01*
X169224802Y-58291000D01*
X172269005Y-58291000D01*
X172439189Y-58545698D01*
X172904736Y-58856767D01*
X173453887Y-58966000D01*
X173510113Y-58966000D01*
X174059264Y-58856767D01*
X174524811Y-58545698D01*
X174835880Y-58080151D01*
X174881000Y-57853318D01*
X174881000Y-64963198D01*
G36*
X158501096Y-52101961D02*
X158623085Y-52324000D01*
X159766000Y-52324000D01*
X159766000Y-52304000D01*
X160020000Y-52304000D01*
X160020000Y-52324000D01*
X161162915Y-52324000D01*
X161284904Y-52101961D01*
X161218236Y-51941000D01*
X164277198Y-51941000D01*
X164463312Y-52127114D01*
X164398887Y-52451000D01*
X164508120Y-53000151D01*
X164819189Y-53465698D01*
X165201275Y-53721000D01*
X164819189Y-53976302D01*
X164508120Y-54441849D01*
X164398887Y-54991000D01*
X164508120Y-55540151D01*
X164819189Y-56005698D01*
X165201275Y-56261000D01*
X164819189Y-56516302D01*
X164508120Y-56981849D01*
X164398887Y-57531000D01*
X164508120Y-58080151D01*
X164819189Y-58545698D01*
X165284736Y-58856767D01*
X165833887Y-58966000D01*
X165890113Y-58966000D01*
X166439264Y-58856767D01*
X166650725Y-58715473D01*
X164531198Y-60835000D01*
X150749000Y-60835000D01*
X150458161Y-60892852D01*
X150211599Y-61057599D01*
X149156198Y-62113000D01*
X144187591Y-62113000D01*
X143868395Y-61793246D01*
X144199067Y-61463150D01*
X144400570Y-60977876D01*
X144401029Y-60452429D01*
X144200373Y-59966804D01*
X143868395Y-59634246D01*
X144199067Y-59304150D01*
X144350123Y-58940367D01*
X144499627Y-59302196D01*
X144870850Y-59674067D01*
X145356124Y-59875570D01*
X145881571Y-59876029D01*
X146367196Y-59675373D01*
X146739067Y-59304150D01*
X146940570Y-58818876D01*
X146941029Y-58293429D01*
X146740373Y-57807804D01*
X146369150Y-57435933D01*
X145883876Y-57234430D01*
X145358429Y-57233971D01*
X144872804Y-57434627D01*
X144500933Y-57805850D01*
X144349877Y-58169633D01*
X144200373Y-57807804D01*
X144127249Y-57734553D01*
X144840802Y-57021000D01*
X150688198Y-57021000D01*
X150874312Y-57207114D01*
X150809887Y-57531000D01*
X150919120Y-58080151D01*
X151230189Y-58545698D01*
X151695736Y-58856767D01*
X152244887Y-58966000D01*
X152301113Y-58966000D01*
X152850264Y-58856767D01*
X153315811Y-58545698D01*
X153626880Y-58080151D01*
X153666684Y-57880039D01*
X158501096Y-57880039D01*
X158661959Y-58268423D01*
X159037866Y-58683389D01*
X159543959Y-58922914D01*
X159766000Y-58801629D01*
X159766000Y-57658000D01*
X160020000Y-57658000D01*
X160020000Y-58801629D01*
X160242041Y-58922914D01*
X160748134Y-58683389D01*
X161124041Y-58268423D01*
X161284904Y-57880039D01*
X161162915Y-57658000D01*
X160020000Y-57658000D01*
X159766000Y-57658000D01*
X158623085Y-57658000D01*
X158501096Y-57880039D01*
X153666684Y-57880039D01*
X153736113Y-57531000D01*
X153626880Y-56981849D01*
X153315811Y-56516302D01*
X152933725Y-56261000D01*
X153315811Y-56005698D01*
X153626880Y-55540151D01*
X153666684Y-55340039D01*
X158501096Y-55340039D01*
X158661959Y-55728423D01*
X159037866Y-56143389D01*
X159286367Y-56261000D01*
X159037866Y-56378611D01*
X158661959Y-56793577D01*
X158501096Y-57181961D01*
X158623085Y-57404000D01*
X159766000Y-57404000D01*
X159766000Y-55118000D01*
X160020000Y-55118000D01*
X160020000Y-57404000D01*
X161162915Y-57404000D01*
X161284904Y-57181961D01*
X161124041Y-56793577D01*
X160748134Y-56378611D01*
X160499633Y-56261000D01*
X160748134Y-56143389D01*
X161124041Y-55728423D01*
X161284904Y-55340039D01*
X161162915Y-55118000D01*
X160020000Y-55118000D01*
X159766000Y-55118000D01*
X158623085Y-55118000D01*
X158501096Y-55340039D01*
X153666684Y-55340039D01*
X153736113Y-54991000D01*
X153626880Y-54441849D01*
X153315811Y-53976302D01*
X152933725Y-53721000D01*
X153315811Y-53465698D01*
X153626880Y-53000151D01*
X153643325Y-52917477D01*
X153760763Y-52800039D01*
X158501096Y-52800039D01*
X158661959Y-53188423D01*
X159037866Y-53603389D01*
X159286367Y-53721000D01*
X159037866Y-53838611D01*
X158661959Y-54253577D01*
X158501096Y-54641961D01*
X158623085Y-54864000D01*
X159766000Y-54864000D01*
X159766000Y-52578000D01*
X160020000Y-52578000D01*
X160020000Y-54864000D01*
X161162915Y-54864000D01*
X161284904Y-54641961D01*
X161124041Y-54253577D01*
X160748134Y-53838611D01*
X160499633Y-53721000D01*
X160748134Y-53603389D01*
X161124041Y-53188423D01*
X161284904Y-52800039D01*
X161162915Y-52578000D01*
X160020000Y-52578000D01*
X159766000Y-52578000D01*
X158623085Y-52578000D01*
X158501096Y-52800039D01*
X153760763Y-52800039D01*
X154619802Y-51941000D01*
X158567764Y-51941000D01*
X158501096Y-52101961D01*
X158501096Y-52101961D01*
G37*
X158501096Y-52101961D02*
X158623085Y-52324000D01*
X159766000Y-52324000D01*
X159766000Y-52304000D01*
X160020000Y-52304000D01*
X160020000Y-52324000D01*
X161162915Y-52324000D01*
X161284904Y-52101961D01*
X161218236Y-51941000D01*
X164277198Y-51941000D01*
X164463312Y-52127114D01*
X164398887Y-52451000D01*
X164508120Y-53000151D01*
X164819189Y-53465698D01*
X165201275Y-53721000D01*
X164819189Y-53976302D01*
X164508120Y-54441849D01*
X164398887Y-54991000D01*
X164508120Y-55540151D01*
X164819189Y-56005698D01*
X165201275Y-56261000D01*
X164819189Y-56516302D01*
X164508120Y-56981849D01*
X164398887Y-57531000D01*
X164508120Y-58080151D01*
X164819189Y-58545698D01*
X165284736Y-58856767D01*
X165833887Y-58966000D01*
X165890113Y-58966000D01*
X166439264Y-58856767D01*
X166650725Y-58715473D01*
X164531198Y-60835000D01*
X150749000Y-60835000D01*
X150458161Y-60892852D01*
X150211599Y-61057599D01*
X149156198Y-62113000D01*
X144187591Y-62113000D01*
X143868395Y-61793246D01*
X144199067Y-61463150D01*
X144400570Y-60977876D01*
X144401029Y-60452429D01*
X144200373Y-59966804D01*
X143868395Y-59634246D01*
X144199067Y-59304150D01*
X144350123Y-58940367D01*
X144499627Y-59302196D01*
X144870850Y-59674067D01*
X145356124Y-59875570D01*
X145881571Y-59876029D01*
X146367196Y-59675373D01*
X146739067Y-59304150D01*
X146940570Y-58818876D01*
X146941029Y-58293429D01*
X146740373Y-57807804D01*
X146369150Y-57435933D01*
X145883876Y-57234430D01*
X145358429Y-57233971D01*
X144872804Y-57434627D01*
X144500933Y-57805850D01*
X144349877Y-58169633D01*
X144200373Y-57807804D01*
X144127249Y-57734553D01*
X144840802Y-57021000D01*
X150688198Y-57021000D01*
X150874312Y-57207114D01*
X150809887Y-57531000D01*
X150919120Y-58080151D01*
X151230189Y-58545698D01*
X151695736Y-58856767D01*
X152244887Y-58966000D01*
X152301113Y-58966000D01*
X152850264Y-58856767D01*
X153315811Y-58545698D01*
X153626880Y-58080151D01*
X153666684Y-57880039D01*
X158501096Y-57880039D01*
X158661959Y-58268423D01*
X159037866Y-58683389D01*
X159543959Y-58922914D01*
X159766000Y-58801629D01*
X159766000Y-57658000D01*
X160020000Y-57658000D01*
X160020000Y-58801629D01*
X160242041Y-58922914D01*
X160748134Y-58683389D01*
X161124041Y-58268423D01*
X161284904Y-57880039D01*
X161162915Y-57658000D01*
X160020000Y-57658000D01*
X159766000Y-57658000D01*
X158623085Y-57658000D01*
X158501096Y-57880039D01*
X153666684Y-57880039D01*
X153736113Y-57531000D01*
X153626880Y-56981849D01*
X153315811Y-56516302D01*
X152933725Y-56261000D01*
X153315811Y-56005698D01*
X153626880Y-55540151D01*
X153666684Y-55340039D01*
X158501096Y-55340039D01*
X158661959Y-55728423D01*
X159037866Y-56143389D01*
X159286367Y-56261000D01*
X159037866Y-56378611D01*
X158661959Y-56793577D01*
X158501096Y-57181961D01*
X158623085Y-57404000D01*
X159766000Y-57404000D01*
X159766000Y-55118000D01*
X160020000Y-55118000D01*
X160020000Y-57404000D01*
X161162915Y-57404000D01*
X161284904Y-57181961D01*
X161124041Y-56793577D01*
X160748134Y-56378611D01*
X160499633Y-56261000D01*
X160748134Y-56143389D01*
X161124041Y-55728423D01*
X161284904Y-55340039D01*
X161162915Y-55118000D01*
X160020000Y-55118000D01*
X159766000Y-55118000D01*
X158623085Y-55118000D01*
X158501096Y-55340039D01*
X153666684Y-55340039D01*
X153736113Y-54991000D01*
X153626880Y-54441849D01*
X153315811Y-53976302D01*
X152933725Y-53721000D01*
X153315811Y-53465698D01*
X153626880Y-53000151D01*
X153643325Y-52917477D01*
X153760763Y-52800039D01*
X158501096Y-52800039D01*
X158661959Y-53188423D01*
X159037866Y-53603389D01*
X159286367Y-53721000D01*
X159037866Y-53838611D01*
X158661959Y-54253577D01*
X158501096Y-54641961D01*
X158623085Y-54864000D01*
X159766000Y-54864000D01*
X159766000Y-52578000D01*
X160020000Y-52578000D01*
X160020000Y-54864000D01*
X161162915Y-54864000D01*
X161284904Y-54641961D01*
X161124041Y-54253577D01*
X160748134Y-53838611D01*
X160499633Y-53721000D01*
X160748134Y-53603389D01*
X161124041Y-53188423D01*
X161284904Y-52800039D01*
X161162915Y-52578000D01*
X160020000Y-52578000D01*
X159766000Y-52578000D01*
X158623085Y-52578000D01*
X158501096Y-52800039D01*
X153760763Y-52800039D01*
X154619802Y-51941000D01*
X158567764Y-51941000D01*
X158501096Y-52101961D01*
G36*
X173354998Y-48640370D02*
X173132959Y-48519086D01*
X172626866Y-48758611D01*
X172250959Y-49173577D01*
X172090096Y-49561961D01*
X172212085Y-49784000D01*
X173355000Y-49784000D01*
X173355000Y-49764000D01*
X173609000Y-49764000D01*
X173609000Y-49784000D01*
X174751915Y-49784000D01*
X174873904Y-49561961D01*
X174713041Y-49173577D01*
X174337134Y-48758611D01*
X173831041Y-48519086D01*
X173609002Y-48640370D01*
X173609002Y-48512000D01*
X179136198Y-48512000D01*
X180010000Y-49385802D01*
X180010000Y-56658960D01*
X179754000Y-56658960D01*
X179518683Y-56703238D01*
X179302559Y-56842310D01*
X179157569Y-57054510D01*
X179106560Y-57306400D01*
X179106560Y-59033600D01*
X179150838Y-59268917D01*
X179289910Y-59485041D01*
X179502110Y-59630031D01*
X179543439Y-59638400D01*
X179525585Y-59650330D01*
X179401635Y-59835833D01*
X174880688Y-55314886D01*
X174945113Y-54991000D01*
X174835880Y-54441849D01*
X174524811Y-53976302D01*
X174142725Y-53721000D01*
X174524811Y-53465698D01*
X174835880Y-53000151D01*
X174945113Y-52451000D01*
X174835880Y-51901849D01*
X174524811Y-51436302D01*
X174120297Y-51166014D01*
X174337134Y-51063389D01*
X174713041Y-50648423D01*
X174873904Y-50260039D01*
X174751915Y-50038000D01*
X173609000Y-50038000D01*
X173609000Y-50058000D01*
X173355000Y-50058000D01*
X173355000Y-50038000D01*
X172212085Y-50038000D01*
X172090096Y-50260039D01*
X172250959Y-50648423D01*
X172626866Y-51063389D01*
X172843703Y-51166014D01*
X172439189Y-51436302D01*
X172128120Y-51901849D01*
X172018887Y-52451000D01*
X172128120Y-53000151D01*
X172439189Y-53465698D01*
X172821275Y-53721000D01*
X172439189Y-53976302D01*
X172128120Y-54441849D01*
X172018887Y-54991000D01*
X172128120Y-55540151D01*
X172439189Y-56005698D01*
X172821275Y-56261000D01*
X172439189Y-56516302D01*
X172269005Y-56771000D01*
X168910000Y-56771000D01*
X168619161Y-56828852D01*
X168372599Y-56993599D01*
X167074586Y-58291612D01*
X167215880Y-58080151D01*
X167325113Y-57531000D01*
X167215880Y-56981849D01*
X166904811Y-56516302D01*
X166522725Y-56261000D01*
X166904811Y-56005698D01*
X167215880Y-55540151D01*
X167325113Y-54991000D01*
X167215880Y-54441849D01*
X166904811Y-53976302D01*
X166522725Y-53721000D01*
X166904811Y-53465698D01*
X167215880Y-53000151D01*
X167325113Y-52451000D01*
X167215880Y-51901849D01*
X166904811Y-51436302D01*
X166522725Y-51181000D01*
X166904811Y-50925698D01*
X167215880Y-50460151D01*
X167325113Y-49911000D01*
X167260688Y-49587114D01*
X168335802Y-48512000D01*
X173354998Y-48512000D01*
X173354998Y-48640370D01*
X173354998Y-48640370D01*
G37*
X173354998Y-48640370D02*
X173132959Y-48519086D01*
X172626866Y-48758611D01*
X172250959Y-49173577D01*
X172090096Y-49561961D01*
X172212085Y-49784000D01*
X173355000Y-49784000D01*
X173355000Y-49764000D01*
X173609000Y-49764000D01*
X173609000Y-49784000D01*
X174751915Y-49784000D01*
X174873904Y-49561961D01*
X174713041Y-49173577D01*
X174337134Y-48758611D01*
X173831041Y-48519086D01*
X173609002Y-48640370D01*
X173609002Y-48512000D01*
X179136198Y-48512000D01*
X180010000Y-49385802D01*
X180010000Y-56658960D01*
X179754000Y-56658960D01*
X179518683Y-56703238D01*
X179302559Y-56842310D01*
X179157569Y-57054510D01*
X179106560Y-57306400D01*
X179106560Y-59033600D01*
X179150838Y-59268917D01*
X179289910Y-59485041D01*
X179502110Y-59630031D01*
X179543439Y-59638400D01*
X179525585Y-59650330D01*
X179401635Y-59835833D01*
X174880688Y-55314886D01*
X174945113Y-54991000D01*
X174835880Y-54441849D01*
X174524811Y-53976302D01*
X174142725Y-53721000D01*
X174524811Y-53465698D01*
X174835880Y-53000151D01*
X174945113Y-52451000D01*
X174835880Y-51901849D01*
X174524811Y-51436302D01*
X174120297Y-51166014D01*
X174337134Y-51063389D01*
X174713041Y-50648423D01*
X174873904Y-50260039D01*
X174751915Y-50038000D01*
X173609000Y-50038000D01*
X173609000Y-50058000D01*
X173355000Y-50058000D01*
X173355000Y-50038000D01*
X172212085Y-50038000D01*
X172090096Y-50260039D01*
X172250959Y-50648423D01*
X172626866Y-51063389D01*
X172843703Y-51166014D01*
X172439189Y-51436302D01*
X172128120Y-51901849D01*
X172018887Y-52451000D01*
X172128120Y-53000151D01*
X172439189Y-53465698D01*
X172821275Y-53721000D01*
X172439189Y-53976302D01*
X172128120Y-54441849D01*
X172018887Y-54991000D01*
X172128120Y-55540151D01*
X172439189Y-56005698D01*
X172821275Y-56261000D01*
X172439189Y-56516302D01*
X172269005Y-56771000D01*
X168910000Y-56771000D01*
X168619161Y-56828852D01*
X168372599Y-56993599D01*
X167074586Y-58291612D01*
X167215880Y-58080151D01*
X167325113Y-57531000D01*
X167215880Y-56981849D01*
X166904811Y-56516302D01*
X166522725Y-56261000D01*
X166904811Y-56005698D01*
X167215880Y-55540151D01*
X167325113Y-54991000D01*
X167215880Y-54441849D01*
X166904811Y-53976302D01*
X166522725Y-53721000D01*
X166904811Y-53465698D01*
X167215880Y-53000151D01*
X167325113Y-52451000D01*
X167215880Y-51901849D01*
X166904811Y-51436302D01*
X166522725Y-51181000D01*
X166904811Y-50925698D01*
X167215880Y-50460151D01*
X167325113Y-49911000D01*
X167260688Y-49587114D01*
X168335802Y-48512000D01*
X173354998Y-48512000D01*
X173354998Y-48640370D01*
G36*
X164603420Y-49219222D02*
X164508120Y-49361849D01*
X164398887Y-49911000D01*
X164500332Y-50421000D01*
X161218236Y-50421000D01*
X161284904Y-50260039D01*
X161162915Y-50038000D01*
X160020000Y-50038000D01*
X160020000Y-50058000D01*
X159766000Y-50058000D01*
X159766000Y-50038000D01*
X158623085Y-50038000D01*
X158501096Y-50260039D01*
X158567764Y-50421000D01*
X154305000Y-50421000D01*
X154014160Y-50478852D01*
X153767599Y-50643599D01*
X153111448Y-51299750D01*
X152933725Y-51181000D01*
X153315811Y-50925698D01*
X153626880Y-50460151D01*
X153736113Y-49911000D01*
X153666685Y-49561961D01*
X158501096Y-49561961D01*
X158623085Y-49784000D01*
X159766000Y-49784000D01*
X159766000Y-48640371D01*
X160020000Y-48640371D01*
X160020000Y-49784000D01*
X161162915Y-49784000D01*
X161284904Y-49561961D01*
X161124041Y-49173577D01*
X160748134Y-48758611D01*
X160242041Y-48519086D01*
X160020000Y-48640371D01*
X159766000Y-48640371D01*
X159543959Y-48519086D01*
X159037866Y-48758611D01*
X158661959Y-49173577D01*
X158501096Y-49561961D01*
X153666685Y-49561961D01*
X153626880Y-49361849D01*
X153315811Y-48896302D01*
X152850264Y-48585233D01*
X152301113Y-48476000D01*
X152244887Y-48476000D01*
X151695736Y-48585233D01*
X151230189Y-48896302D01*
X151128000Y-49049238D01*
X151128000Y-48066802D01*
X151571802Y-47623000D01*
X163007198Y-47623000D01*
X164603420Y-49219222D01*
X164603420Y-49219222D01*
G37*
X164603420Y-49219222D02*
X164508120Y-49361849D01*
X164398887Y-49911000D01*
X164500332Y-50421000D01*
X161218236Y-50421000D01*
X161284904Y-50260039D01*
X161162915Y-50038000D01*
X160020000Y-50038000D01*
X160020000Y-50058000D01*
X159766000Y-50058000D01*
X159766000Y-50038000D01*
X158623085Y-50038000D01*
X158501096Y-50260039D01*
X158567764Y-50421000D01*
X154305000Y-50421000D01*
X154014160Y-50478852D01*
X153767599Y-50643599D01*
X153111448Y-51299750D01*
X152933725Y-51181000D01*
X153315811Y-50925698D01*
X153626880Y-50460151D01*
X153736113Y-49911000D01*
X153666685Y-49561961D01*
X158501096Y-49561961D01*
X158623085Y-49784000D01*
X159766000Y-49784000D01*
X159766000Y-48640371D01*
X160020000Y-48640371D01*
X160020000Y-49784000D01*
X161162915Y-49784000D01*
X161284904Y-49561961D01*
X161124041Y-49173577D01*
X160748134Y-48758611D01*
X160242041Y-48519086D01*
X160020000Y-48640371D01*
X159766000Y-48640371D01*
X159543959Y-48519086D01*
X159037866Y-48758611D01*
X158661959Y-49173577D01*
X158501096Y-49561961D01*
X153666685Y-49561961D01*
X153626880Y-49361849D01*
X153315811Y-48896302D01*
X152850264Y-48585233D01*
X152301113Y-48476000D01*
X152244887Y-48476000D01*
X151695736Y-48585233D01*
X151230189Y-48896302D01*
X151128000Y-49049238D01*
X151128000Y-48066802D01*
X151571802Y-47623000D01*
X163007198Y-47623000D01*
X164603420Y-49219222D01*
G36*
X132650000Y-48882069D02*
X132448470Y-48744369D01*
X132196580Y-48693360D01*
X130027420Y-48693360D01*
X129792103Y-48737638D01*
X129575979Y-48876710D01*
X129430989Y-49088910D01*
X129379980Y-49340800D01*
X129379980Y-52541200D01*
X129424258Y-52776517D01*
X129563330Y-52992641D01*
X129775530Y-53137631D01*
X130027420Y-53188640D01*
X132196580Y-53188640D01*
X132431897Y-53144362D01*
X132648021Y-53005290D01*
X132650000Y-53002394D01*
X132650000Y-77573000D01*
X105816446Y-77573000D01*
X105550000Y-77520000D01*
X104550000Y-77520000D01*
X104283554Y-77573000D01*
X92110000Y-77573000D01*
X92110000Y-75243599D01*
X92223699Y-75243599D01*
X92487281Y-75881515D01*
X92974918Y-76370004D01*
X93612373Y-76634699D01*
X94302599Y-76635301D01*
X94940515Y-76371719D01*
X95429004Y-75884082D01*
X95693699Y-75246627D01*
X95694301Y-74556401D01*
X95430719Y-73918485D01*
X94943082Y-73429996D01*
X94305627Y-73165301D01*
X93615401Y-73164699D01*
X92977485Y-73428281D01*
X92488996Y-73915918D01*
X92224301Y-74553373D01*
X92223699Y-75243599D01*
X92110000Y-75243599D01*
X92110000Y-55211000D01*
X93367000Y-55211000D01*
X93367000Y-70311000D01*
X93424852Y-70601839D01*
X93589599Y-70848401D01*
X95309599Y-72568401D01*
X95556160Y-72733148D01*
X95847000Y-72791000D01*
X95972504Y-72791000D01*
X96040538Y-72955655D01*
X96499927Y-73415846D01*
X97100453Y-73665206D01*
X97750694Y-73665774D01*
X98351655Y-73417462D01*
X98811846Y-72958073D01*
X98876852Y-72801522D01*
X98940538Y-72955655D01*
X99399927Y-73415846D01*
X100000453Y-73665206D01*
X100650694Y-73665774D01*
X101251655Y-73417462D01*
X101711846Y-72958073D01*
X101826975Y-72680811D01*
X101940538Y-72955655D01*
X102399927Y-73415846D01*
X103000453Y-73665206D01*
X103650694Y-73665774D01*
X104251655Y-73417462D01*
X104711846Y-72958073D01*
X104826975Y-72680811D01*
X104940538Y-72955655D01*
X105399927Y-73415846D01*
X106000453Y-73665206D01*
X106650694Y-73665774D01*
X107251655Y-73417462D01*
X107711846Y-72958073D01*
X107877098Y-72560101D01*
X108040538Y-72955655D01*
X108499927Y-73415846D01*
X109100453Y-73665206D01*
X109750694Y-73665774D01*
X110351655Y-73417462D01*
X110811846Y-72958073D01*
X110931117Y-72670836D01*
X111040538Y-72935655D01*
X111499927Y-73395846D01*
X112100453Y-73645206D01*
X112750694Y-73645774D01*
X113351655Y-73397462D01*
X113811846Y-72938073D01*
X113926975Y-72660811D01*
X114040538Y-72935655D01*
X114499927Y-73395846D01*
X115100453Y-73645206D01*
X115750694Y-73645774D01*
X116351655Y-73397462D01*
X116811846Y-72938073D01*
X116926975Y-72660811D01*
X117040538Y-72935655D01*
X117499927Y-73395846D01*
X118100453Y-73645206D01*
X118750694Y-73645774D01*
X119351655Y-73397462D01*
X119811846Y-72938073D01*
X120061206Y-72337547D01*
X120061774Y-71687306D01*
X119813462Y-71086345D01*
X119354073Y-70626154D01*
X118753547Y-70376794D01*
X118103306Y-70376226D01*
X117502345Y-70624538D01*
X117042154Y-71083927D01*
X116927025Y-71361189D01*
X116813462Y-71086345D01*
X116354073Y-70626154D01*
X115753547Y-70376794D01*
X115103306Y-70376226D01*
X114502345Y-70624538D01*
X114042154Y-71083927D01*
X113927025Y-71361189D01*
X113813462Y-71086345D01*
X113354073Y-70626154D01*
X112753547Y-70376794D01*
X112103306Y-70376226D01*
X111502345Y-70624538D01*
X111042154Y-71083927D01*
X110922883Y-71371164D01*
X110813462Y-71106345D01*
X110354073Y-70646154D01*
X109753547Y-70396794D01*
X109103306Y-70396226D01*
X108936111Y-70465309D01*
X108687000Y-70216198D01*
X108687000Y-65873525D01*
X109100453Y-66045206D01*
X109750694Y-66045774D01*
X110351655Y-65797462D01*
X110811846Y-65338073D01*
X110931117Y-65050836D01*
X111040538Y-65315655D01*
X111499927Y-65775846D01*
X112100453Y-66025206D01*
X112750694Y-66025774D01*
X113351655Y-65777462D01*
X113811846Y-65318073D01*
X113926975Y-65040811D01*
X114040538Y-65315655D01*
X114499927Y-65775846D01*
X115100453Y-66025206D01*
X115750694Y-66025774D01*
X116351655Y-65777462D01*
X116811846Y-65318073D01*
X116926975Y-65040811D01*
X117040538Y-65315655D01*
X117499927Y-65775846D01*
X118100453Y-66025206D01*
X118750694Y-66025774D01*
X119351655Y-65777462D01*
X119385187Y-65743989D01*
X120067000Y-66425802D01*
X120067000Y-74434043D01*
X119740339Y-74433758D01*
X119226697Y-74645990D01*
X118833371Y-75038630D01*
X118747051Y-75246512D01*
X118662010Y-75040697D01*
X118269370Y-74647371D01*
X117756100Y-74434243D01*
X117200339Y-74433758D01*
X116686697Y-74645990D01*
X116293371Y-75038630D01*
X116207051Y-75246512D01*
X116122010Y-75040697D01*
X115729370Y-74647371D01*
X115216100Y-74434243D01*
X114660339Y-74433758D01*
X114146697Y-74645990D01*
X113753371Y-75038630D01*
X113667051Y-75246512D01*
X113582010Y-75040697D01*
X113189370Y-74647371D01*
X112676100Y-74434243D01*
X112120339Y-74433758D01*
X111606697Y-74645990D01*
X111213371Y-75038630D01*
X111127051Y-75246512D01*
X111042010Y-75040697D01*
X110649370Y-74647371D01*
X110136100Y-74434243D01*
X109580339Y-74433758D01*
X109066697Y-74645990D01*
X108673371Y-75038630D01*
X108587051Y-75246512D01*
X108502010Y-75040697D01*
X108109370Y-74647371D01*
X107596100Y-74434243D01*
X107040339Y-74433758D01*
X106526697Y-74645990D01*
X106133371Y-75038630D01*
X106047051Y-75246512D01*
X105962010Y-75040697D01*
X105569370Y-74647371D01*
X105056100Y-74434243D01*
X104500339Y-74433758D01*
X103986697Y-74645990D01*
X103593371Y-75038630D01*
X103507051Y-75246512D01*
X103422010Y-75040697D01*
X103029370Y-74647371D01*
X102516100Y-74434243D01*
X101960339Y-74433758D01*
X101446697Y-74645990D01*
X101053371Y-75038630D01*
X100967051Y-75246512D01*
X100882010Y-75040697D01*
X100489370Y-74647371D01*
X99976100Y-74434243D01*
X99420339Y-74433758D01*
X98906697Y-74645990D01*
X98513371Y-75038630D01*
X98427051Y-75246512D01*
X98342010Y-75040697D01*
X97949370Y-74647371D01*
X97436100Y-74434243D01*
X96880339Y-74433758D01*
X96366697Y-74645990D01*
X95973371Y-75038630D01*
X95760243Y-75551900D01*
X95759758Y-76107661D01*
X95971990Y-76621303D01*
X96364630Y-77014629D01*
X96877900Y-77227757D01*
X97433661Y-77228242D01*
X97947303Y-77016010D01*
X98340629Y-76623370D01*
X98426949Y-76415488D01*
X98511990Y-76621303D01*
X98904630Y-77014629D01*
X99417900Y-77227757D01*
X99973661Y-77228242D01*
X100487303Y-77016010D01*
X100880629Y-76623370D01*
X100966949Y-76415488D01*
X101051990Y-76621303D01*
X101444630Y-77014629D01*
X101957900Y-77227757D01*
X102513661Y-77228242D01*
X103027303Y-77016010D01*
X103420629Y-76623370D01*
X103506949Y-76415488D01*
X103591990Y-76621303D01*
X103984630Y-77014629D01*
X104497900Y-77227757D01*
X105053661Y-77228242D01*
X105567303Y-77016010D01*
X105960629Y-76623370D01*
X106046949Y-76415488D01*
X106131990Y-76621303D01*
X106524630Y-77014629D01*
X107037900Y-77227757D01*
X107593661Y-77228242D01*
X108107303Y-77016010D01*
X108500629Y-76623370D01*
X108586949Y-76415488D01*
X108671990Y-76621303D01*
X109064630Y-77014629D01*
X109577900Y-77227757D01*
X110133661Y-77228242D01*
X110647303Y-77016010D01*
X111040629Y-76623370D01*
X111126949Y-76415488D01*
X111211990Y-76621303D01*
X111604630Y-77014629D01*
X112117900Y-77227757D01*
X112673661Y-77228242D01*
X113187303Y-77016010D01*
X113580629Y-76623370D01*
X113666949Y-76415488D01*
X113751990Y-76621303D01*
X114144630Y-77014629D01*
X114657900Y-77227757D01*
X115213661Y-77228242D01*
X115727303Y-77016010D01*
X116120629Y-76623370D01*
X116206949Y-76415488D01*
X116291990Y-76621303D01*
X116684630Y-77014629D01*
X117197900Y-77227757D01*
X117753661Y-77228242D01*
X118267303Y-77016010D01*
X118660629Y-76623370D01*
X118746949Y-76415488D01*
X118831990Y-76621303D01*
X119224630Y-77014629D01*
X119737900Y-77227757D01*
X120293661Y-77228242D01*
X120807303Y-77016010D01*
X121012457Y-76811213D01*
X121756392Y-76811213D01*
X121825857Y-77053397D01*
X122349302Y-77240144D01*
X122904368Y-77212362D01*
X123288143Y-77053397D01*
X123357608Y-76811213D01*
X122557000Y-76010605D01*
X121756392Y-76811213D01*
X121012457Y-76811213D01*
X121200629Y-76623370D01*
X121280395Y-76431273D01*
X121334603Y-76562143D01*
X121576787Y-76631608D01*
X122377395Y-75831000D01*
X122736605Y-75831000D01*
X123537213Y-76631608D01*
X123779397Y-76562143D01*
X123829509Y-76421682D01*
X123911990Y-76621303D01*
X124304630Y-77014629D01*
X124817900Y-77227757D01*
X125373661Y-77228242D01*
X125887303Y-77016010D01*
X126280629Y-76623370D01*
X126493757Y-76110100D01*
X126494242Y-75554339D01*
X126448486Y-75443599D01*
X128823699Y-75443599D01*
X129087281Y-76081515D01*
X129574918Y-76570004D01*
X130212373Y-76834699D01*
X130902599Y-76835301D01*
X131540515Y-76571719D01*
X132029004Y-76084082D01*
X132293699Y-75446627D01*
X132294301Y-74756401D01*
X132030719Y-74118485D01*
X131543082Y-73629996D01*
X130905627Y-73365301D01*
X130215401Y-73364699D01*
X129577485Y-73628281D01*
X129088996Y-74115918D01*
X128824301Y-74753373D01*
X128823699Y-75443599D01*
X126448486Y-75443599D01*
X126282010Y-75040697D01*
X125889370Y-74647371D01*
X125376100Y-74434243D01*
X124820339Y-74433758D01*
X124306697Y-74645990D01*
X123913371Y-75038630D01*
X123833605Y-75230727D01*
X123779397Y-75099857D01*
X123537213Y-75030392D01*
X122736605Y-75831000D01*
X122377395Y-75831000D01*
X122363253Y-75816858D01*
X122542858Y-75637253D01*
X122557000Y-75651395D01*
X123357608Y-74850787D01*
X123288143Y-74608603D01*
X122764698Y-74421856D01*
X122209632Y-74449638D01*
X121825857Y-74608603D01*
X121756393Y-74850785D01*
X121641382Y-74735774D01*
X121587000Y-74790156D01*
X121587000Y-66111000D01*
X121529148Y-65820161D01*
X121529148Y-65820160D01*
X121364401Y-65573599D01*
X120061596Y-64270794D01*
X120061774Y-64067306D01*
X119813462Y-63466345D01*
X119354073Y-63006154D01*
X118753547Y-62756794D01*
X118103306Y-62756226D01*
X117502345Y-63004538D01*
X117042154Y-63463927D01*
X116927025Y-63741189D01*
X116813462Y-63466345D01*
X116354073Y-63006154D01*
X116187000Y-62936779D01*
X116187000Y-61571213D01*
X116676392Y-61571213D01*
X116745857Y-61813397D01*
X117269302Y-62000144D01*
X117824368Y-61972362D01*
X118208143Y-61813397D01*
X118277608Y-61571213D01*
X119216392Y-61571213D01*
X119285857Y-61813397D01*
X119809302Y-62000144D01*
X120364368Y-61972362D01*
X120748143Y-61813397D01*
X120817608Y-61571213D01*
X120017000Y-60770605D01*
X119216392Y-61571213D01*
X118277608Y-61571213D01*
X117477000Y-60770605D01*
X116676392Y-61571213D01*
X116187000Y-61571213D01*
X116187000Y-61223531D01*
X116200395Y-61191273D01*
X116254603Y-61322143D01*
X116496787Y-61391608D01*
X117297395Y-60591000D01*
X117656605Y-60591000D01*
X118457213Y-61391608D01*
X118699397Y-61322143D01*
X118743453Y-61198656D01*
X118794603Y-61322143D01*
X119036787Y-61391608D01*
X119837395Y-60591000D01*
X120196605Y-60591000D01*
X120997213Y-61391608D01*
X121239397Y-61322143D01*
X121289509Y-61181682D01*
X121371990Y-61381303D01*
X121764630Y-61774629D01*
X122277900Y-61987757D01*
X122833661Y-61988242D01*
X123347303Y-61776010D01*
X123740629Y-61383370D01*
X123826949Y-61175488D01*
X123911990Y-61381303D01*
X124304630Y-61774629D01*
X124817900Y-61987757D01*
X125373661Y-61988242D01*
X125887303Y-61776010D01*
X126280629Y-61383370D01*
X126493757Y-60870100D01*
X126494242Y-60314339D01*
X126282010Y-59800697D01*
X125889370Y-59407371D01*
X125376100Y-59194243D01*
X124820339Y-59193758D01*
X124306697Y-59405990D01*
X123913371Y-59798630D01*
X123827051Y-60006512D01*
X123742010Y-59800697D01*
X123349370Y-59407371D01*
X122836100Y-59194243D01*
X122280339Y-59193758D01*
X121766697Y-59405990D01*
X121373371Y-59798630D01*
X121293605Y-59990727D01*
X121239397Y-59859857D01*
X120997213Y-59790392D01*
X120196605Y-60591000D01*
X119837395Y-60591000D01*
X119036787Y-59790392D01*
X118794603Y-59859857D01*
X118750547Y-59983344D01*
X118699397Y-59859857D01*
X118457213Y-59790392D01*
X117656605Y-60591000D01*
X117297395Y-60591000D01*
X117283253Y-60576858D01*
X117462858Y-60397253D01*
X117477000Y-60411395D01*
X118277608Y-59610787D01*
X119216392Y-59610787D01*
X120017000Y-60411395D01*
X120817608Y-59610787D01*
X120748143Y-59368603D01*
X120224698Y-59181856D01*
X119669632Y-59209638D01*
X119285857Y-59368603D01*
X119216392Y-59610787D01*
X118277608Y-59610787D01*
X118208143Y-59368603D01*
X117684698Y-59181856D01*
X117207038Y-59205764D01*
X119341802Y-57071000D01*
X120133903Y-57071000D01*
X120202850Y-57140067D01*
X120688124Y-57341570D01*
X121213571Y-57342029D01*
X121699196Y-57141373D01*
X122071067Y-56770150D01*
X122272570Y-56284876D01*
X122273029Y-55759429D01*
X122159708Y-55485172D01*
X122364401Y-55348401D01*
X122911065Y-54801737D01*
X123245571Y-54802029D01*
X123731196Y-54601373D01*
X124063754Y-54269395D01*
X124393850Y-54600067D01*
X124879124Y-54801570D01*
X125404571Y-54802029D01*
X125890196Y-54601373D01*
X126222754Y-54269395D01*
X126552850Y-54600067D01*
X126916633Y-54751123D01*
X126554804Y-54900627D01*
X126182933Y-55271850D01*
X125981430Y-55757124D01*
X125980971Y-56282571D01*
X126181627Y-56768196D01*
X126552850Y-57140067D01*
X127038124Y-57341570D01*
X127563571Y-57342029D01*
X128049196Y-57141373D01*
X128421067Y-56770150D01*
X128622570Y-56284876D01*
X128623029Y-55759429D01*
X128422373Y-55273804D01*
X128051150Y-54901933D01*
X127687367Y-54750877D01*
X128049196Y-54601373D01*
X128421067Y-54230150D01*
X128622570Y-53744876D01*
X128623029Y-53219429D01*
X128422373Y-52733804D01*
X128051150Y-52361933D01*
X127565876Y-52160430D01*
X127040429Y-52159971D01*
X126554804Y-52360627D01*
X126222246Y-52692605D01*
X125892150Y-52361933D01*
X125406876Y-52160430D01*
X124881429Y-52159971D01*
X124395804Y-52360627D01*
X124063246Y-52692605D01*
X123733150Y-52361933D01*
X123247876Y-52160430D01*
X122722429Y-52159971D01*
X122236804Y-52360627D01*
X121864933Y-52731850D01*
X121853698Y-52758907D01*
X121131605Y-53481000D01*
X121145748Y-53495143D01*
X120966143Y-53674748D01*
X120952000Y-53660605D01*
X120937858Y-53674748D01*
X120758253Y-53495143D01*
X120772395Y-53481000D01*
X120027021Y-52735626D01*
X119792723Y-52795717D01*
X119618721Y-53291517D01*
X119647699Y-53816164D01*
X119744971Y-54051000D01*
X117027000Y-54051000D01*
X116736161Y-54108852D01*
X116489599Y-54273599D01*
X115489599Y-55273599D01*
X115324852Y-55520161D01*
X115274440Y-55773597D01*
X115274440Y-55361000D01*
X115230162Y-55125683D01*
X115091090Y-54909559D01*
X114878890Y-54764569D01*
X114627000Y-54713560D01*
X113127000Y-54713560D01*
X112891683Y-54757838D01*
X112675559Y-54896910D01*
X112530569Y-55109110D01*
X112479560Y-55361000D01*
X112479560Y-56307584D01*
X112403309Y-56276000D01*
X111312750Y-56276000D01*
X111154000Y-56434750D01*
X111154000Y-57534000D01*
X111174000Y-57534000D01*
X111174000Y-57788000D01*
X111154000Y-57788000D01*
X111154000Y-58887250D01*
X111312750Y-59046000D01*
X112317198Y-59046000D01*
X112169397Y-59193801D01*
X112120339Y-59193758D01*
X111606697Y-59405990D01*
X111213371Y-59798630D01*
X111127051Y-60006512D01*
X111042010Y-59800697D01*
X110649370Y-59407371D01*
X110136100Y-59194243D01*
X109784738Y-59193936D01*
X109626981Y-59036179D01*
X109650691Y-59046000D01*
X110741250Y-59046000D01*
X110900000Y-58887250D01*
X110900000Y-57788000D01*
X110880000Y-57788000D01*
X110880000Y-57534000D01*
X110900000Y-57534000D01*
X110900000Y-56434750D01*
X110741250Y-56276000D01*
X109650691Y-56276000D01*
X109574440Y-56307584D01*
X109574440Y-55361000D01*
X109530162Y-55125683D01*
X109391090Y-54909559D01*
X109178890Y-54764569D01*
X108927000Y-54713560D01*
X107427000Y-54713560D01*
X107191683Y-54757838D01*
X106975559Y-54896910D01*
X106830569Y-55109110D01*
X106779560Y-55361000D01*
X106779560Y-57596286D01*
X106764401Y-57573599D01*
X103590630Y-54399828D01*
X103609003Y-54355579D01*
X109791786Y-54355579D01*
X109979408Y-54809657D01*
X110326515Y-55157371D01*
X110780266Y-55345785D01*
X111271579Y-55346214D01*
X111725657Y-55158592D01*
X112073371Y-54811485D01*
X112261785Y-54357734D01*
X112262214Y-53866421D01*
X112074592Y-53412343D01*
X111727485Y-53064629D01*
X111273734Y-52876215D01*
X110782421Y-52875786D01*
X110328343Y-53063408D01*
X109980629Y-53410515D01*
X109792215Y-53864266D01*
X109791786Y-54355579D01*
X103609003Y-54355579D01*
X103761759Y-53987702D01*
X103762240Y-53436715D01*
X103551831Y-52927485D01*
X103162564Y-52537539D01*
X102653702Y-52326241D01*
X102102715Y-52325760D01*
X101593485Y-52536169D01*
X101502182Y-52627313D01*
X101412564Y-52537539D01*
X100903702Y-52326241D01*
X100352715Y-52325760D01*
X99843485Y-52536169D01*
X99453539Y-52925436D01*
X99242241Y-53434298D01*
X99241760Y-53985285D01*
X99452169Y-54494515D01*
X99841436Y-54884461D01*
X100025586Y-54960927D01*
X99843485Y-55036169D01*
X99453539Y-55425436D01*
X99377073Y-55609586D01*
X99301831Y-55427485D01*
X98912564Y-55037539D01*
X98450671Y-54845744D01*
X98800461Y-54496564D01*
X99011759Y-53987702D01*
X99012240Y-53436715D01*
X98801831Y-52927485D01*
X98412564Y-52537539D01*
X97903702Y-52326241D01*
X97352715Y-52325760D01*
X96843485Y-52536169D01*
X96752182Y-52627313D01*
X96662564Y-52537539D01*
X96153702Y-52326241D01*
X95602715Y-52325760D01*
X95093485Y-52536169D01*
X94703539Y-52925436D01*
X94492241Y-53434298D01*
X94491947Y-53771251D01*
X93589599Y-54673599D01*
X93424852Y-54920161D01*
X93367000Y-55211000D01*
X92110000Y-55211000D01*
X92110000Y-49996750D01*
X96492000Y-49996750D01*
X96492000Y-50599310D01*
X96588673Y-50832699D01*
X96767302Y-51011327D01*
X97000691Y-51108000D01*
X98841250Y-51108000D01*
X99000000Y-50949250D01*
X99000000Y-49838000D01*
X99254000Y-49838000D01*
X99254000Y-50949250D01*
X99412750Y-51108000D01*
X101253309Y-51108000D01*
X101486698Y-51011327D01*
X101665327Y-50832699D01*
X101762000Y-50599310D01*
X101762000Y-49996750D01*
X101603250Y-49838000D01*
X99254000Y-49838000D01*
X99000000Y-49838000D01*
X96650750Y-49838000D01*
X96492000Y-49996750D01*
X92110000Y-49996750D01*
X92110000Y-48822690D01*
X96492000Y-48822690D01*
X96492000Y-49425250D01*
X96650750Y-49584000D01*
X99000000Y-49584000D01*
X99000000Y-48472750D01*
X99254000Y-48472750D01*
X99254000Y-49584000D01*
X101603250Y-49584000D01*
X101762000Y-49425250D01*
X101762000Y-48822690D01*
X101665327Y-48589301D01*
X101486698Y-48410673D01*
X101253309Y-48314000D01*
X99412750Y-48314000D01*
X99254000Y-48472750D01*
X99000000Y-48472750D01*
X98841250Y-48314000D01*
X97000691Y-48314000D01*
X96767302Y-48410673D01*
X96588673Y-48589301D01*
X96492000Y-48822690D01*
X92110000Y-48822690D01*
X92110000Y-47361000D01*
X106329560Y-47361000D01*
X106329560Y-49861000D01*
X106373838Y-50096317D01*
X106512910Y-50312441D01*
X106725110Y-50457431D01*
X106977000Y-50508440D01*
X108477000Y-50508440D01*
X108712317Y-50464162D01*
X108928441Y-50325090D01*
X109073431Y-50112890D01*
X109124440Y-49861000D01*
X109124440Y-47361000D01*
X109123420Y-47355579D01*
X109791786Y-47355579D01*
X109979408Y-47809657D01*
X110326515Y-48157371D01*
X110780266Y-48345785D01*
X111271579Y-48346214D01*
X111725657Y-48158592D01*
X112073371Y-47811485D01*
X112260428Y-47361000D01*
X112929560Y-47361000D01*
X112929560Y-49861000D01*
X112973838Y-50096317D01*
X113112910Y-50312441D01*
X113325110Y-50457431D01*
X113577000Y-50508440D01*
X115077000Y-50508440D01*
X115312317Y-50464162D01*
X115409980Y-50401318D01*
X115409980Y-52541200D01*
X115454258Y-52776517D01*
X115593330Y-52992641D01*
X115805530Y-53137631D01*
X116057420Y-53188640D01*
X118226580Y-53188640D01*
X118461897Y-53144362D01*
X118678021Y-53005290D01*
X118823011Y-52793090D01*
X118871018Y-52556021D01*
X120206626Y-52556021D01*
X120952000Y-53301395D01*
X121697374Y-52556021D01*
X121637283Y-52321723D01*
X121141483Y-52147721D01*
X120616836Y-52176699D01*
X120266717Y-52321723D01*
X120206626Y-52556021D01*
X118871018Y-52556021D01*
X118874020Y-52541200D01*
X118874020Y-49433510D01*
X121879360Y-49433510D01*
X121879360Y-51432490D01*
X121923638Y-51667807D01*
X122062710Y-51883931D01*
X122274910Y-52028921D01*
X122526800Y-52079930D01*
X125727200Y-52079930D01*
X125962517Y-52035652D01*
X126178641Y-51896580D01*
X126323631Y-51684380D01*
X126374640Y-51432490D01*
X126374640Y-49433510D01*
X126330362Y-49198193D01*
X126191290Y-48982069D01*
X125979090Y-48837079D01*
X125727200Y-48786070D01*
X122526800Y-48786070D01*
X122291483Y-48830348D01*
X122075359Y-48969420D01*
X121930369Y-49181620D01*
X121879360Y-49433510D01*
X118874020Y-49433510D01*
X118874020Y-49340800D01*
X118829742Y-49105483D01*
X118690670Y-48889359D01*
X118478470Y-48744369D01*
X118226580Y-48693360D01*
X116057420Y-48693360D01*
X115822103Y-48737638D01*
X115724440Y-48800482D01*
X115724440Y-47361000D01*
X115680162Y-47125683D01*
X115541090Y-46909559D01*
X115328890Y-46764569D01*
X115077000Y-46713560D01*
X113577000Y-46713560D01*
X113341683Y-46757838D01*
X113125559Y-46896910D01*
X112980569Y-47109110D01*
X112929560Y-47361000D01*
X112260428Y-47361000D01*
X112261785Y-47357734D01*
X112262214Y-46866421D01*
X112074592Y-46412343D01*
X111727485Y-46064629D01*
X111273734Y-45876215D01*
X110782421Y-45875786D01*
X110328343Y-46063408D01*
X109980629Y-46410515D01*
X109792215Y-46864266D01*
X109791786Y-47355579D01*
X109123420Y-47355579D01*
X109080162Y-47125683D01*
X108941090Y-46909559D01*
X108728890Y-46764569D01*
X108477000Y-46713560D01*
X106977000Y-46713560D01*
X106741683Y-46757838D01*
X106525559Y-46896910D01*
X106380569Y-47109110D01*
X106329560Y-47361000D01*
X92110000Y-47361000D01*
X92110000Y-45721000D01*
X132650000Y-45721000D01*
X132650000Y-48882069D01*
X132650000Y-48882069D01*
G37*
X132650000Y-48882069D02*
X132448470Y-48744369D01*
X132196580Y-48693360D01*
X130027420Y-48693360D01*
X129792103Y-48737638D01*
X129575979Y-48876710D01*
X129430989Y-49088910D01*
X129379980Y-49340800D01*
X129379980Y-52541200D01*
X129424258Y-52776517D01*
X129563330Y-52992641D01*
X129775530Y-53137631D01*
X130027420Y-53188640D01*
X132196580Y-53188640D01*
X132431897Y-53144362D01*
X132648021Y-53005290D01*
X132650000Y-53002394D01*
X132650000Y-77573000D01*
X105816446Y-77573000D01*
X105550000Y-77520000D01*
X104550000Y-77520000D01*
X104283554Y-77573000D01*
X92110000Y-77573000D01*
X92110000Y-75243599D01*
X92223699Y-75243599D01*
X92487281Y-75881515D01*
X92974918Y-76370004D01*
X93612373Y-76634699D01*
X94302599Y-76635301D01*
X94940515Y-76371719D01*
X95429004Y-75884082D01*
X95693699Y-75246627D01*
X95694301Y-74556401D01*
X95430719Y-73918485D01*
X94943082Y-73429996D01*
X94305627Y-73165301D01*
X93615401Y-73164699D01*
X92977485Y-73428281D01*
X92488996Y-73915918D01*
X92224301Y-74553373D01*
X92223699Y-75243599D01*
X92110000Y-75243599D01*
X92110000Y-55211000D01*
X93367000Y-55211000D01*
X93367000Y-70311000D01*
X93424852Y-70601839D01*
X93589599Y-70848401D01*
X95309599Y-72568401D01*
X95556160Y-72733148D01*
X95847000Y-72791000D01*
X95972504Y-72791000D01*
X96040538Y-72955655D01*
X96499927Y-73415846D01*
X97100453Y-73665206D01*
X97750694Y-73665774D01*
X98351655Y-73417462D01*
X98811846Y-72958073D01*
X98876852Y-72801522D01*
X98940538Y-72955655D01*
X99399927Y-73415846D01*
X100000453Y-73665206D01*
X100650694Y-73665774D01*
X101251655Y-73417462D01*
X101711846Y-72958073D01*
X101826975Y-72680811D01*
X101940538Y-72955655D01*
X102399927Y-73415846D01*
X103000453Y-73665206D01*
X103650694Y-73665774D01*
X104251655Y-73417462D01*
X104711846Y-72958073D01*
X104826975Y-72680811D01*
X104940538Y-72955655D01*
X105399927Y-73415846D01*
X106000453Y-73665206D01*
X106650694Y-73665774D01*
X107251655Y-73417462D01*
X107711846Y-72958073D01*
X107877098Y-72560101D01*
X108040538Y-72955655D01*
X108499927Y-73415846D01*
X109100453Y-73665206D01*
X109750694Y-73665774D01*
X110351655Y-73417462D01*
X110811846Y-72958073D01*
X110931117Y-72670836D01*
X111040538Y-72935655D01*
X111499927Y-73395846D01*
X112100453Y-73645206D01*
X112750694Y-73645774D01*
X113351655Y-73397462D01*
X113811846Y-72938073D01*
X113926975Y-72660811D01*
X114040538Y-72935655D01*
X114499927Y-73395846D01*
X115100453Y-73645206D01*
X115750694Y-73645774D01*
X116351655Y-73397462D01*
X116811846Y-72938073D01*
X116926975Y-72660811D01*
X117040538Y-72935655D01*
X117499927Y-73395846D01*
X118100453Y-73645206D01*
X118750694Y-73645774D01*
X119351655Y-73397462D01*
X119811846Y-72938073D01*
X120061206Y-72337547D01*
X120061774Y-71687306D01*
X119813462Y-71086345D01*
X119354073Y-70626154D01*
X118753547Y-70376794D01*
X118103306Y-70376226D01*
X117502345Y-70624538D01*
X117042154Y-71083927D01*
X116927025Y-71361189D01*
X116813462Y-71086345D01*
X116354073Y-70626154D01*
X115753547Y-70376794D01*
X115103306Y-70376226D01*
X114502345Y-70624538D01*
X114042154Y-71083927D01*
X113927025Y-71361189D01*
X113813462Y-71086345D01*
X113354073Y-70626154D01*
X112753547Y-70376794D01*
X112103306Y-70376226D01*
X111502345Y-70624538D01*
X111042154Y-71083927D01*
X110922883Y-71371164D01*
X110813462Y-71106345D01*
X110354073Y-70646154D01*
X109753547Y-70396794D01*
X109103306Y-70396226D01*
X108936111Y-70465309D01*
X108687000Y-70216198D01*
X108687000Y-65873525D01*
X109100453Y-66045206D01*
X109750694Y-66045774D01*
X110351655Y-65797462D01*
X110811846Y-65338073D01*
X110931117Y-65050836D01*
X111040538Y-65315655D01*
X111499927Y-65775846D01*
X112100453Y-66025206D01*
X112750694Y-66025774D01*
X113351655Y-65777462D01*
X113811846Y-65318073D01*
X113926975Y-65040811D01*
X114040538Y-65315655D01*
X114499927Y-65775846D01*
X115100453Y-66025206D01*
X115750694Y-66025774D01*
X116351655Y-65777462D01*
X116811846Y-65318073D01*
X116926975Y-65040811D01*
X117040538Y-65315655D01*
X117499927Y-65775846D01*
X118100453Y-66025206D01*
X118750694Y-66025774D01*
X119351655Y-65777462D01*
X119385187Y-65743989D01*
X120067000Y-66425802D01*
X120067000Y-74434043D01*
X119740339Y-74433758D01*
X119226697Y-74645990D01*
X118833371Y-75038630D01*
X118747051Y-75246512D01*
X118662010Y-75040697D01*
X118269370Y-74647371D01*
X117756100Y-74434243D01*
X117200339Y-74433758D01*
X116686697Y-74645990D01*
X116293371Y-75038630D01*
X116207051Y-75246512D01*
X116122010Y-75040697D01*
X115729370Y-74647371D01*
X115216100Y-74434243D01*
X114660339Y-74433758D01*
X114146697Y-74645990D01*
X113753371Y-75038630D01*
X113667051Y-75246512D01*
X113582010Y-75040697D01*
X113189370Y-74647371D01*
X112676100Y-74434243D01*
X112120339Y-74433758D01*
X111606697Y-74645990D01*
X111213371Y-75038630D01*
X111127051Y-75246512D01*
X111042010Y-75040697D01*
X110649370Y-74647371D01*
X110136100Y-74434243D01*
X109580339Y-74433758D01*
X109066697Y-74645990D01*
X108673371Y-75038630D01*
X108587051Y-75246512D01*
X108502010Y-75040697D01*
X108109370Y-74647371D01*
X107596100Y-74434243D01*
X107040339Y-74433758D01*
X106526697Y-74645990D01*
X106133371Y-75038630D01*
X106047051Y-75246512D01*
X105962010Y-75040697D01*
X105569370Y-74647371D01*
X105056100Y-74434243D01*
X104500339Y-74433758D01*
X103986697Y-74645990D01*
X103593371Y-75038630D01*
X103507051Y-75246512D01*
X103422010Y-75040697D01*
X103029370Y-74647371D01*
X102516100Y-74434243D01*
X101960339Y-74433758D01*
X101446697Y-74645990D01*
X101053371Y-75038630D01*
X100967051Y-75246512D01*
X100882010Y-75040697D01*
X100489370Y-74647371D01*
X99976100Y-74434243D01*
X99420339Y-74433758D01*
X98906697Y-74645990D01*
X98513371Y-75038630D01*
X98427051Y-75246512D01*
X98342010Y-75040697D01*
X97949370Y-74647371D01*
X97436100Y-74434243D01*
X96880339Y-74433758D01*
X96366697Y-74645990D01*
X95973371Y-75038630D01*
X95760243Y-75551900D01*
X95759758Y-76107661D01*
X95971990Y-76621303D01*
X96364630Y-77014629D01*
X96877900Y-77227757D01*
X97433661Y-77228242D01*
X97947303Y-77016010D01*
X98340629Y-76623370D01*
X98426949Y-76415488D01*
X98511990Y-76621303D01*
X98904630Y-77014629D01*
X99417900Y-77227757D01*
X99973661Y-77228242D01*
X100487303Y-77016010D01*
X100880629Y-76623370D01*
X100966949Y-76415488D01*
X101051990Y-76621303D01*
X101444630Y-77014629D01*
X101957900Y-77227757D01*
X102513661Y-77228242D01*
X103027303Y-77016010D01*
X103420629Y-76623370D01*
X103506949Y-76415488D01*
X103591990Y-76621303D01*
X103984630Y-77014629D01*
X104497900Y-77227757D01*
X105053661Y-77228242D01*
X105567303Y-77016010D01*
X105960629Y-76623370D01*
X106046949Y-76415488D01*
X106131990Y-76621303D01*
X106524630Y-77014629D01*
X107037900Y-77227757D01*
X107593661Y-77228242D01*
X108107303Y-77016010D01*
X108500629Y-76623370D01*
X108586949Y-76415488D01*
X108671990Y-76621303D01*
X109064630Y-77014629D01*
X109577900Y-77227757D01*
X110133661Y-77228242D01*
X110647303Y-77016010D01*
X111040629Y-76623370D01*
X111126949Y-76415488D01*
X111211990Y-76621303D01*
X111604630Y-77014629D01*
X112117900Y-77227757D01*
X112673661Y-77228242D01*
X113187303Y-77016010D01*
X113580629Y-76623370D01*
X113666949Y-76415488D01*
X113751990Y-76621303D01*
X114144630Y-77014629D01*
X114657900Y-77227757D01*
X115213661Y-77228242D01*
X115727303Y-77016010D01*
X116120629Y-76623370D01*
X116206949Y-76415488D01*
X116291990Y-76621303D01*
X116684630Y-77014629D01*
X117197900Y-77227757D01*
X117753661Y-77228242D01*
X118267303Y-77016010D01*
X118660629Y-76623370D01*
X118746949Y-76415488D01*
X118831990Y-76621303D01*
X119224630Y-77014629D01*
X119737900Y-77227757D01*
X120293661Y-77228242D01*
X120807303Y-77016010D01*
X121012457Y-76811213D01*
X121756392Y-76811213D01*
X121825857Y-77053397D01*
X122349302Y-77240144D01*
X122904368Y-77212362D01*
X123288143Y-77053397D01*
X123357608Y-76811213D01*
X122557000Y-76010605D01*
X121756392Y-76811213D01*
X121012457Y-76811213D01*
X121200629Y-76623370D01*
X121280395Y-76431273D01*
X121334603Y-76562143D01*
X121576787Y-76631608D01*
X122377395Y-75831000D01*
X122736605Y-75831000D01*
X123537213Y-76631608D01*
X123779397Y-76562143D01*
X123829509Y-76421682D01*
X123911990Y-76621303D01*
X124304630Y-77014629D01*
X124817900Y-77227757D01*
X125373661Y-77228242D01*
X125887303Y-77016010D01*
X126280629Y-76623370D01*
X126493757Y-76110100D01*
X126494242Y-75554339D01*
X126448486Y-75443599D01*
X128823699Y-75443599D01*
X129087281Y-76081515D01*
X129574918Y-76570004D01*
X130212373Y-76834699D01*
X130902599Y-76835301D01*
X131540515Y-76571719D01*
X132029004Y-76084082D01*
X132293699Y-75446627D01*
X132294301Y-74756401D01*
X132030719Y-74118485D01*
X131543082Y-73629996D01*
X130905627Y-73365301D01*
X130215401Y-73364699D01*
X129577485Y-73628281D01*
X129088996Y-74115918D01*
X128824301Y-74753373D01*
X128823699Y-75443599D01*
X126448486Y-75443599D01*
X126282010Y-75040697D01*
X125889370Y-74647371D01*
X125376100Y-74434243D01*
X124820339Y-74433758D01*
X124306697Y-74645990D01*
X123913371Y-75038630D01*
X123833605Y-75230727D01*
X123779397Y-75099857D01*
X123537213Y-75030392D01*
X122736605Y-75831000D01*
X122377395Y-75831000D01*
X122363253Y-75816858D01*
X122542858Y-75637253D01*
X122557000Y-75651395D01*
X123357608Y-74850787D01*
X123288143Y-74608603D01*
X122764698Y-74421856D01*
X122209632Y-74449638D01*
X121825857Y-74608603D01*
X121756393Y-74850785D01*
X121641382Y-74735774D01*
X121587000Y-74790156D01*
X121587000Y-66111000D01*
X121529148Y-65820161D01*
X121529148Y-65820160D01*
X121364401Y-65573599D01*
X120061596Y-64270794D01*
X120061774Y-64067306D01*
X119813462Y-63466345D01*
X119354073Y-63006154D01*
X118753547Y-62756794D01*
X118103306Y-62756226D01*
X117502345Y-63004538D01*
X117042154Y-63463927D01*
X116927025Y-63741189D01*
X116813462Y-63466345D01*
X116354073Y-63006154D01*
X116187000Y-62936779D01*
X116187000Y-61571213D01*
X116676392Y-61571213D01*
X116745857Y-61813397D01*
X117269302Y-62000144D01*
X117824368Y-61972362D01*
X118208143Y-61813397D01*
X118277608Y-61571213D01*
X119216392Y-61571213D01*
X119285857Y-61813397D01*
X119809302Y-62000144D01*
X120364368Y-61972362D01*
X120748143Y-61813397D01*
X120817608Y-61571213D01*
X120017000Y-60770605D01*
X119216392Y-61571213D01*
X118277608Y-61571213D01*
X117477000Y-60770605D01*
X116676392Y-61571213D01*
X116187000Y-61571213D01*
X116187000Y-61223531D01*
X116200395Y-61191273D01*
X116254603Y-61322143D01*
X116496787Y-61391608D01*
X117297395Y-60591000D01*
X117656605Y-60591000D01*
X118457213Y-61391608D01*
X118699397Y-61322143D01*
X118743453Y-61198656D01*
X118794603Y-61322143D01*
X119036787Y-61391608D01*
X119837395Y-60591000D01*
X120196605Y-60591000D01*
X120997213Y-61391608D01*
X121239397Y-61322143D01*
X121289509Y-61181682D01*
X121371990Y-61381303D01*
X121764630Y-61774629D01*
X122277900Y-61987757D01*
X122833661Y-61988242D01*
X123347303Y-61776010D01*
X123740629Y-61383370D01*
X123826949Y-61175488D01*
X123911990Y-61381303D01*
X124304630Y-61774629D01*
X124817900Y-61987757D01*
X125373661Y-61988242D01*
X125887303Y-61776010D01*
X126280629Y-61383370D01*
X126493757Y-60870100D01*
X126494242Y-60314339D01*
X126282010Y-59800697D01*
X125889370Y-59407371D01*
X125376100Y-59194243D01*
X124820339Y-59193758D01*
X124306697Y-59405990D01*
X123913371Y-59798630D01*
X123827051Y-60006512D01*
X123742010Y-59800697D01*
X123349370Y-59407371D01*
X122836100Y-59194243D01*
X122280339Y-59193758D01*
X121766697Y-59405990D01*
X121373371Y-59798630D01*
X121293605Y-59990727D01*
X121239397Y-59859857D01*
X120997213Y-59790392D01*
X120196605Y-60591000D01*
X119837395Y-60591000D01*
X119036787Y-59790392D01*
X118794603Y-59859857D01*
X118750547Y-59983344D01*
X118699397Y-59859857D01*
X118457213Y-59790392D01*
X117656605Y-60591000D01*
X117297395Y-60591000D01*
X117283253Y-60576858D01*
X117462858Y-60397253D01*
X117477000Y-60411395D01*
X118277608Y-59610787D01*
X119216392Y-59610787D01*
X120017000Y-60411395D01*
X120817608Y-59610787D01*
X120748143Y-59368603D01*
X120224698Y-59181856D01*
X119669632Y-59209638D01*
X119285857Y-59368603D01*
X119216392Y-59610787D01*
X118277608Y-59610787D01*
X118208143Y-59368603D01*
X117684698Y-59181856D01*
X117207038Y-59205764D01*
X119341802Y-57071000D01*
X120133903Y-57071000D01*
X120202850Y-57140067D01*
X120688124Y-57341570D01*
X121213571Y-57342029D01*
X121699196Y-57141373D01*
X122071067Y-56770150D01*
X122272570Y-56284876D01*
X122273029Y-55759429D01*
X122159708Y-55485172D01*
X122364401Y-55348401D01*
X122911065Y-54801737D01*
X123245571Y-54802029D01*
X123731196Y-54601373D01*
X124063754Y-54269395D01*
X124393850Y-54600067D01*
X124879124Y-54801570D01*
X125404571Y-54802029D01*
X125890196Y-54601373D01*
X126222754Y-54269395D01*
X126552850Y-54600067D01*
X126916633Y-54751123D01*
X126554804Y-54900627D01*
X126182933Y-55271850D01*
X125981430Y-55757124D01*
X125980971Y-56282571D01*
X126181627Y-56768196D01*
X126552850Y-57140067D01*
X127038124Y-57341570D01*
X127563571Y-57342029D01*
X128049196Y-57141373D01*
X128421067Y-56770150D01*
X128622570Y-56284876D01*
X128623029Y-55759429D01*
X128422373Y-55273804D01*
X128051150Y-54901933D01*
X127687367Y-54750877D01*
X128049196Y-54601373D01*
X128421067Y-54230150D01*
X128622570Y-53744876D01*
X128623029Y-53219429D01*
X128422373Y-52733804D01*
X128051150Y-52361933D01*
X127565876Y-52160430D01*
X127040429Y-52159971D01*
X126554804Y-52360627D01*
X126222246Y-52692605D01*
X125892150Y-52361933D01*
X125406876Y-52160430D01*
X124881429Y-52159971D01*
X124395804Y-52360627D01*
X124063246Y-52692605D01*
X123733150Y-52361933D01*
X123247876Y-52160430D01*
X122722429Y-52159971D01*
X122236804Y-52360627D01*
X121864933Y-52731850D01*
X121853698Y-52758907D01*
X121131605Y-53481000D01*
X121145748Y-53495143D01*
X120966143Y-53674748D01*
X120952000Y-53660605D01*
X120937858Y-53674748D01*
X120758253Y-53495143D01*
X120772395Y-53481000D01*
X120027021Y-52735626D01*
X119792723Y-52795717D01*
X119618721Y-53291517D01*
X119647699Y-53816164D01*
X119744971Y-54051000D01*
X117027000Y-54051000D01*
X116736161Y-54108852D01*
X116489599Y-54273599D01*
X115489599Y-55273599D01*
X115324852Y-55520161D01*
X115274440Y-55773597D01*
X115274440Y-55361000D01*
X115230162Y-55125683D01*
X115091090Y-54909559D01*
X114878890Y-54764569D01*
X114627000Y-54713560D01*
X113127000Y-54713560D01*
X112891683Y-54757838D01*
X112675559Y-54896910D01*
X112530569Y-55109110D01*
X112479560Y-55361000D01*
X112479560Y-56307584D01*
X112403309Y-56276000D01*
X111312750Y-56276000D01*
X111154000Y-56434750D01*
X111154000Y-57534000D01*
X111174000Y-57534000D01*
X111174000Y-57788000D01*
X111154000Y-57788000D01*
X111154000Y-58887250D01*
X111312750Y-59046000D01*
X112317198Y-59046000D01*
X112169397Y-59193801D01*
X112120339Y-59193758D01*
X111606697Y-59405990D01*
X111213371Y-59798630D01*
X111127051Y-60006512D01*
X111042010Y-59800697D01*
X110649370Y-59407371D01*
X110136100Y-59194243D01*
X109784738Y-59193936D01*
X109626981Y-59036179D01*
X109650691Y-59046000D01*
X110741250Y-59046000D01*
X110900000Y-58887250D01*
X110900000Y-57788000D01*
X110880000Y-57788000D01*
X110880000Y-57534000D01*
X110900000Y-57534000D01*
X110900000Y-56434750D01*
X110741250Y-56276000D01*
X109650691Y-56276000D01*
X109574440Y-56307584D01*
X109574440Y-55361000D01*
X109530162Y-55125683D01*
X109391090Y-54909559D01*
X109178890Y-54764569D01*
X108927000Y-54713560D01*
X107427000Y-54713560D01*
X107191683Y-54757838D01*
X106975559Y-54896910D01*
X106830569Y-55109110D01*
X106779560Y-55361000D01*
X106779560Y-57596286D01*
X106764401Y-57573599D01*
X103590630Y-54399828D01*
X103609003Y-54355579D01*
X109791786Y-54355579D01*
X109979408Y-54809657D01*
X110326515Y-55157371D01*
X110780266Y-55345785D01*
X111271579Y-55346214D01*
X111725657Y-55158592D01*
X112073371Y-54811485D01*
X112261785Y-54357734D01*
X112262214Y-53866421D01*
X112074592Y-53412343D01*
X111727485Y-53064629D01*
X111273734Y-52876215D01*
X110782421Y-52875786D01*
X110328343Y-53063408D01*
X109980629Y-53410515D01*
X109792215Y-53864266D01*
X109791786Y-54355579D01*
X103609003Y-54355579D01*
X103761759Y-53987702D01*
X103762240Y-53436715D01*
X103551831Y-52927485D01*
X103162564Y-52537539D01*
X102653702Y-52326241D01*
X102102715Y-52325760D01*
X101593485Y-52536169D01*
X101502182Y-52627313D01*
X101412564Y-52537539D01*
X100903702Y-52326241D01*
X100352715Y-52325760D01*
X99843485Y-52536169D01*
X99453539Y-52925436D01*
X99242241Y-53434298D01*
X99241760Y-53985285D01*
X99452169Y-54494515D01*
X99841436Y-54884461D01*
X100025586Y-54960927D01*
X99843485Y-55036169D01*
X99453539Y-55425436D01*
X99377073Y-55609586D01*
X99301831Y-55427485D01*
X98912564Y-55037539D01*
X98450671Y-54845744D01*
X98800461Y-54496564D01*
X99011759Y-53987702D01*
X99012240Y-53436715D01*
X98801831Y-52927485D01*
X98412564Y-52537539D01*
X97903702Y-52326241D01*
X97352715Y-52325760D01*
X96843485Y-52536169D01*
X96752182Y-52627313D01*
X96662564Y-52537539D01*
X96153702Y-52326241D01*
X95602715Y-52325760D01*
X95093485Y-52536169D01*
X94703539Y-52925436D01*
X94492241Y-53434298D01*
X94491947Y-53771251D01*
X93589599Y-54673599D01*
X93424852Y-54920161D01*
X93367000Y-55211000D01*
X92110000Y-55211000D01*
X92110000Y-49996750D01*
X96492000Y-49996750D01*
X96492000Y-50599310D01*
X96588673Y-50832699D01*
X96767302Y-51011327D01*
X97000691Y-51108000D01*
X98841250Y-51108000D01*
X99000000Y-50949250D01*
X99000000Y-49838000D01*
X99254000Y-49838000D01*
X99254000Y-50949250D01*
X99412750Y-51108000D01*
X101253309Y-51108000D01*
X101486698Y-51011327D01*
X101665327Y-50832699D01*
X101762000Y-50599310D01*
X101762000Y-49996750D01*
X101603250Y-49838000D01*
X99254000Y-49838000D01*
X99000000Y-49838000D01*
X96650750Y-49838000D01*
X96492000Y-49996750D01*
X92110000Y-49996750D01*
X92110000Y-48822690D01*
X96492000Y-48822690D01*
X96492000Y-49425250D01*
X96650750Y-49584000D01*
X99000000Y-49584000D01*
X99000000Y-48472750D01*
X99254000Y-48472750D01*
X99254000Y-49584000D01*
X101603250Y-49584000D01*
X101762000Y-49425250D01*
X101762000Y-48822690D01*
X101665327Y-48589301D01*
X101486698Y-48410673D01*
X101253309Y-48314000D01*
X99412750Y-48314000D01*
X99254000Y-48472750D01*
X99000000Y-48472750D01*
X98841250Y-48314000D01*
X97000691Y-48314000D01*
X96767302Y-48410673D01*
X96588673Y-48589301D01*
X96492000Y-48822690D01*
X92110000Y-48822690D01*
X92110000Y-47361000D01*
X106329560Y-47361000D01*
X106329560Y-49861000D01*
X106373838Y-50096317D01*
X106512910Y-50312441D01*
X106725110Y-50457431D01*
X106977000Y-50508440D01*
X108477000Y-50508440D01*
X108712317Y-50464162D01*
X108928441Y-50325090D01*
X109073431Y-50112890D01*
X109124440Y-49861000D01*
X109124440Y-47361000D01*
X109123420Y-47355579D01*
X109791786Y-47355579D01*
X109979408Y-47809657D01*
X110326515Y-48157371D01*
X110780266Y-48345785D01*
X111271579Y-48346214D01*
X111725657Y-48158592D01*
X112073371Y-47811485D01*
X112260428Y-47361000D01*
X112929560Y-47361000D01*
X112929560Y-49861000D01*
X112973838Y-50096317D01*
X113112910Y-50312441D01*
X113325110Y-50457431D01*
X113577000Y-50508440D01*
X115077000Y-50508440D01*
X115312317Y-50464162D01*
X115409980Y-50401318D01*
X115409980Y-52541200D01*
X115454258Y-52776517D01*
X115593330Y-52992641D01*
X115805530Y-53137631D01*
X116057420Y-53188640D01*
X118226580Y-53188640D01*
X118461897Y-53144362D01*
X118678021Y-53005290D01*
X118823011Y-52793090D01*
X118871018Y-52556021D01*
X120206626Y-52556021D01*
X120952000Y-53301395D01*
X121697374Y-52556021D01*
X121637283Y-52321723D01*
X121141483Y-52147721D01*
X120616836Y-52176699D01*
X120266717Y-52321723D01*
X120206626Y-52556021D01*
X118871018Y-52556021D01*
X118874020Y-52541200D01*
X118874020Y-49433510D01*
X121879360Y-49433510D01*
X121879360Y-51432490D01*
X121923638Y-51667807D01*
X122062710Y-51883931D01*
X122274910Y-52028921D01*
X122526800Y-52079930D01*
X125727200Y-52079930D01*
X125962517Y-52035652D01*
X126178641Y-51896580D01*
X126323631Y-51684380D01*
X126374640Y-51432490D01*
X126374640Y-49433510D01*
X126330362Y-49198193D01*
X126191290Y-48982069D01*
X125979090Y-48837079D01*
X125727200Y-48786070D01*
X122526800Y-48786070D01*
X122291483Y-48830348D01*
X122075359Y-48969420D01*
X121930369Y-49181620D01*
X121879360Y-49433510D01*
X118874020Y-49433510D01*
X118874020Y-49340800D01*
X118829742Y-49105483D01*
X118690670Y-48889359D01*
X118478470Y-48744369D01*
X118226580Y-48693360D01*
X116057420Y-48693360D01*
X115822103Y-48737638D01*
X115724440Y-48800482D01*
X115724440Y-47361000D01*
X115680162Y-47125683D01*
X115541090Y-46909559D01*
X115328890Y-46764569D01*
X115077000Y-46713560D01*
X113577000Y-46713560D01*
X113341683Y-46757838D01*
X113125559Y-46896910D01*
X112980569Y-47109110D01*
X112929560Y-47361000D01*
X112260428Y-47361000D01*
X112261785Y-47357734D01*
X112262214Y-46866421D01*
X112074592Y-46412343D01*
X111727485Y-46064629D01*
X111273734Y-45876215D01*
X110782421Y-45875786D01*
X110328343Y-46063408D01*
X109980629Y-46410515D01*
X109792215Y-46864266D01*
X109791786Y-47355579D01*
X109123420Y-47355579D01*
X109080162Y-47125683D01*
X108941090Y-46909559D01*
X108728890Y-46764569D01*
X108477000Y-46713560D01*
X106977000Y-46713560D01*
X106741683Y-46757838D01*
X106525559Y-46896910D01*
X106380569Y-47109110D01*
X106329560Y-47361000D01*
X92110000Y-47361000D01*
X92110000Y-45721000D01*
X132650000Y-45721000D01*
X132650000Y-48882069D01*
G36*
X96841436Y-54884461D02*
X97303329Y-55076256D01*
X96953539Y-55425436D01*
X96944884Y-55446281D01*
X96848517Y-55419088D01*
X96056605Y-56211000D01*
X96848517Y-57002912D01*
X96944453Y-56975841D01*
X96952169Y-56994515D01*
X97341436Y-57384461D01*
X97367000Y-57395076D01*
X97367000Y-59111000D01*
X97383549Y-59194197D01*
X96880339Y-59193758D01*
X96366697Y-59405990D01*
X95973371Y-59798630D01*
X95760243Y-60311900D01*
X95759758Y-60867661D01*
X95971990Y-61381303D01*
X96364630Y-61774629D01*
X96397000Y-61788070D01*
X96397000Y-62081000D01*
X96454852Y-62371839D01*
X96619599Y-62618401D01*
X96667000Y-62665802D01*
X96667000Y-62956504D01*
X96502345Y-63024538D01*
X96042154Y-63483927D01*
X95792794Y-64084453D01*
X95792226Y-64734694D01*
X96040538Y-65335655D01*
X96499927Y-65795846D01*
X97100453Y-66045206D01*
X97750694Y-66045774D01*
X98067000Y-65915079D01*
X98067000Y-70526951D01*
X97753547Y-70396794D01*
X97103306Y-70396226D01*
X96502345Y-70644538D01*
X96042154Y-71103927D01*
X96028239Y-71137437D01*
X94887000Y-69996198D01*
X94887000Y-57214540D01*
X94970034Y-57297574D01*
X95085089Y-57182519D01*
X95153077Y-57423460D01*
X95672171Y-57608201D01*
X96222448Y-57580230D01*
X96600923Y-57423460D01*
X96668912Y-57182517D01*
X95877000Y-56390605D01*
X95862858Y-56404748D01*
X95683253Y-56225143D01*
X95697395Y-56211000D01*
X95683253Y-56196858D01*
X95862858Y-56017253D01*
X95877000Y-56031395D01*
X96668912Y-55239483D01*
X96600923Y-54998540D01*
X96486389Y-54957778D01*
X96660515Y-54885831D01*
X96751818Y-54794687D01*
X96841436Y-54884461D01*
X96841436Y-54884461D01*
G37*
X96841436Y-54884461D02*
X97303329Y-55076256D01*
X96953539Y-55425436D01*
X96944884Y-55446281D01*
X96848517Y-55419088D01*
X96056605Y-56211000D01*
X96848517Y-57002912D01*
X96944453Y-56975841D01*
X96952169Y-56994515D01*
X97341436Y-57384461D01*
X97367000Y-57395076D01*
X97367000Y-59111000D01*
X97383549Y-59194197D01*
X96880339Y-59193758D01*
X96366697Y-59405990D01*
X95973371Y-59798630D01*
X95760243Y-60311900D01*
X95759758Y-60867661D01*
X95971990Y-61381303D01*
X96364630Y-61774629D01*
X96397000Y-61788070D01*
X96397000Y-62081000D01*
X96454852Y-62371839D01*
X96619599Y-62618401D01*
X96667000Y-62665802D01*
X96667000Y-62956504D01*
X96502345Y-63024538D01*
X96042154Y-63483927D01*
X95792794Y-64084453D01*
X95792226Y-64734694D01*
X96040538Y-65335655D01*
X96499927Y-65795846D01*
X97100453Y-66045206D01*
X97750694Y-66045774D01*
X98067000Y-65915079D01*
X98067000Y-70526951D01*
X97753547Y-70396794D01*
X97103306Y-70396226D01*
X96502345Y-70644538D01*
X96042154Y-71103927D01*
X96028239Y-71137437D01*
X94887000Y-69996198D01*
X94887000Y-57214540D01*
X94970034Y-57297574D01*
X95085089Y-57182519D01*
X95153077Y-57423460D01*
X95672171Y-57608201D01*
X96222448Y-57580230D01*
X96600923Y-57423460D01*
X96668912Y-57182517D01*
X95877000Y-56390605D01*
X95862858Y-56404748D01*
X95683253Y-56225143D01*
X95697395Y-56211000D01*
X95683253Y-56196858D01*
X95862858Y-56017253D01*
X95877000Y-56031395D01*
X96668912Y-55239483D01*
X96600923Y-54998540D01*
X96486389Y-54957778D01*
X96660515Y-54885831D01*
X96751818Y-54794687D01*
X96841436Y-54884461D01*
G36*
X171145000Y-94910132D02*
X171145000Y-101389868D01*
X168699868Y-103835000D01*
X119410000Y-103835000D01*
X118975654Y-103921397D01*
X118607434Y-104167434D01*
X118361397Y-104535654D01*
X118275000Y-104970000D01*
X118361397Y-105404346D01*
X118607434Y-105772566D01*
X118975654Y-106018603D01*
X119410000Y-106105000D01*
X169170000Y-106105000D01*
X169604346Y-106018603D01*
X169972566Y-105772566D01*
X173082566Y-102662566D01*
X173328603Y-102294346D01*
X173415000Y-101860000D01*
X173415000Y-94440000D01*
X173407502Y-94402304D01*
X177720000Y-98714802D01*
X177720000Y-101410000D01*
X177777852Y-101700839D01*
X177942599Y-101947401D01*
X179857225Y-103862027D01*
X179782041Y-104240000D01*
X179896115Y-104813489D01*
X180220971Y-105299670D01*
X180535752Y-105510000D01*
X180220971Y-105720330D01*
X179896115Y-106206511D01*
X179782041Y-106780000D01*
X179896115Y-107353489D01*
X180220971Y-107839670D01*
X180535752Y-108050000D01*
X180220971Y-108260330D01*
X179896115Y-108746511D01*
X179782041Y-109320000D01*
X179896115Y-109893489D01*
X180220971Y-110379670D01*
X180535752Y-110590000D01*
X180220971Y-110800330D01*
X179896115Y-111286511D01*
X179782041Y-111860000D01*
X179896115Y-112433489D01*
X180220971Y-112919670D01*
X180535752Y-113130000D01*
X180220971Y-113340330D01*
X179896115Y-113826511D01*
X179782041Y-114400000D01*
X179896115Y-114973489D01*
X180220971Y-115459670D01*
X180535752Y-115670000D01*
X180220971Y-115880330D01*
X179896115Y-116366511D01*
X179782041Y-116940000D01*
X179896115Y-117513489D01*
X180220971Y-117999670D01*
X180535752Y-118210000D01*
X180220971Y-118420330D01*
X179896115Y-118906511D01*
X179782041Y-119480000D01*
X179896115Y-120053489D01*
X180220971Y-120539670D01*
X180707152Y-120864526D01*
X181280641Y-120978600D01*
X181339359Y-120978600D01*
X181912848Y-120864526D01*
X182378442Y-120553426D01*
X182383238Y-120578917D01*
X182522310Y-120795041D01*
X182734510Y-120940031D01*
X182986400Y-120991040D01*
X184713600Y-120991040D01*
X184948917Y-120946762D01*
X185100000Y-120849543D01*
X185100000Y-131980000D01*
X178290000Y-131980000D01*
X178018295Y-132034046D01*
X177787954Y-132187954D01*
X177634046Y-132418295D01*
X177580000Y-132690000D01*
X177580000Y-134226513D01*
X177553930Y-134185999D01*
X177341730Y-134041009D01*
X177089840Y-133990000D01*
X176949840Y-133990000D01*
X176949840Y-126279840D01*
X176891988Y-125989001D01*
X176727241Y-125742439D01*
X171040000Y-120055198D01*
X171040000Y-118037531D01*
X171070303Y-118025010D01*
X171275457Y-117820213D01*
X172019392Y-117820213D01*
X172088857Y-118062397D01*
X172612302Y-118249144D01*
X173167368Y-118221362D01*
X173551143Y-118062397D01*
X173620608Y-117820213D01*
X172820000Y-117019605D01*
X172019392Y-117820213D01*
X171275457Y-117820213D01*
X171463629Y-117632370D01*
X171543395Y-117440273D01*
X171597603Y-117571143D01*
X171839787Y-117640608D01*
X172640395Y-116840000D01*
X172999605Y-116840000D01*
X173800213Y-117640608D01*
X174042397Y-117571143D01*
X174229144Y-117047698D01*
X174201362Y-116492632D01*
X174042397Y-116108857D01*
X173800213Y-116039392D01*
X172999605Y-116840000D01*
X172640395Y-116840000D01*
X171839787Y-116039392D01*
X171597603Y-116108857D01*
X171547491Y-116249318D01*
X171465010Y-116049697D01*
X171072370Y-115656371D01*
X170864488Y-115570051D01*
X171070303Y-115485010D01*
X171275457Y-115280213D01*
X172019392Y-115280213D01*
X172088857Y-115522397D01*
X172212344Y-115566453D01*
X172088857Y-115617603D01*
X172019392Y-115859787D01*
X172820000Y-116660395D01*
X173620608Y-115859787D01*
X173551143Y-115617603D01*
X173427656Y-115573547D01*
X173551143Y-115522397D01*
X173620608Y-115280213D01*
X172820000Y-114479605D01*
X172019392Y-115280213D01*
X171275457Y-115280213D01*
X171463629Y-115092370D01*
X171543395Y-114900273D01*
X171597603Y-115031143D01*
X171839787Y-115100608D01*
X172640395Y-114300000D01*
X172999605Y-114300000D01*
X173800213Y-115100608D01*
X174042397Y-115031143D01*
X174229144Y-114507698D01*
X174201362Y-113952632D01*
X174042397Y-113568857D01*
X173800213Y-113499392D01*
X172999605Y-114300000D01*
X172640395Y-114300000D01*
X171839787Y-113499392D01*
X171597603Y-113568857D01*
X171547491Y-113709318D01*
X171465010Y-113509697D01*
X171275432Y-113319787D01*
X172019392Y-113319787D01*
X172820000Y-114120395D01*
X173620608Y-113319787D01*
X173551143Y-113077603D01*
X173027698Y-112890856D01*
X172472632Y-112918638D01*
X172088857Y-113077603D01*
X172019392Y-113319787D01*
X171275432Y-113319787D01*
X171072370Y-113116371D01*
X170559100Y-112903243D01*
X170003339Y-112902758D01*
X169489697Y-113114990D01*
X169096371Y-113507630D01*
X169010051Y-113715512D01*
X168925010Y-113509697D01*
X168532370Y-113116371D01*
X168019100Y-112903243D01*
X167463339Y-112902758D01*
X166949697Y-113114990D01*
X166556371Y-113507630D01*
X166470051Y-113715512D01*
X166385010Y-113509697D01*
X165992370Y-113116371D01*
X165479100Y-112903243D01*
X164923339Y-112902758D01*
X164409697Y-113114990D01*
X164016371Y-113507630D01*
X163930051Y-113715512D01*
X163845010Y-113509697D01*
X163452370Y-113116371D01*
X162939100Y-112903243D01*
X162383339Y-112902758D01*
X161869697Y-113114990D01*
X161476371Y-113507630D01*
X161390051Y-113715512D01*
X161305010Y-113509697D01*
X160912370Y-113116371D01*
X160399100Y-112903243D01*
X159843339Y-112902758D01*
X159329697Y-113114990D01*
X158936371Y-113507630D01*
X158850051Y-113715512D01*
X158765010Y-113509697D01*
X158372370Y-113116371D01*
X157859100Y-112903243D01*
X157303339Y-112902758D01*
X156789697Y-113114990D01*
X156396371Y-113507630D01*
X156310051Y-113715512D01*
X156225010Y-113509697D01*
X155832370Y-113116371D01*
X155319100Y-112903243D01*
X154763339Y-112902758D01*
X154249697Y-113114990D01*
X153856371Y-113507630D01*
X153770051Y-113715512D01*
X153685010Y-113509697D01*
X153292370Y-113116371D01*
X152779100Y-112903243D01*
X152223339Y-112902758D01*
X151709697Y-113114990D01*
X151316371Y-113507630D01*
X151230051Y-113715512D01*
X151145010Y-113509697D01*
X150752370Y-113116371D01*
X150239100Y-112903243D01*
X149683339Y-112902758D01*
X149169697Y-113114990D01*
X148776371Y-113507630D01*
X148690051Y-113715512D01*
X148605010Y-113509697D01*
X148212370Y-113116371D01*
X147699100Y-112903243D01*
X147143339Y-112902758D01*
X146629697Y-113114990D01*
X146236371Y-113507630D01*
X146150051Y-113715512D01*
X146065010Y-113509697D01*
X145672370Y-113116371D01*
X145159100Y-112903243D01*
X144603339Y-112902758D01*
X144089697Y-113114990D01*
X143696371Y-113507630D01*
X143610051Y-113715512D01*
X143525010Y-113509697D01*
X143132370Y-113116371D01*
X142619100Y-112903243D01*
X142063339Y-112902758D01*
X141549697Y-113114990D01*
X141156371Y-113507630D01*
X141070051Y-113715512D01*
X140985010Y-113509697D01*
X140592370Y-113116371D01*
X140079100Y-112903243D01*
X139523339Y-112902758D01*
X139009697Y-113114990D01*
X138616371Y-113507630D01*
X138530051Y-113715512D01*
X138445010Y-113509697D01*
X138052370Y-113116371D01*
X137539100Y-112903243D01*
X136983339Y-112902758D01*
X136469697Y-113114990D01*
X136076371Y-113507630D01*
X135990051Y-113715512D01*
X135905010Y-113509697D01*
X135512370Y-113116371D01*
X134999100Y-112903243D01*
X134443339Y-112902758D01*
X133929697Y-113114990D01*
X133536371Y-113507630D01*
X133450051Y-113715512D01*
X133365010Y-113509697D01*
X132972370Y-113116371D01*
X132459100Y-112903243D01*
X131903339Y-112902758D01*
X131389697Y-113114990D01*
X130996371Y-113507630D01*
X130910051Y-113715512D01*
X130825010Y-113509697D01*
X130432370Y-113116371D01*
X129919100Y-112903243D01*
X129363339Y-112902758D01*
X128849697Y-113114990D01*
X128456371Y-113507630D01*
X128370051Y-113715512D01*
X128285010Y-113509697D01*
X127892370Y-113116371D01*
X127379100Y-112903243D01*
X126823339Y-112902758D01*
X126309697Y-113114990D01*
X125916371Y-113507630D01*
X125830051Y-113715512D01*
X125745010Y-113509697D01*
X125352370Y-113116371D01*
X124839100Y-112903243D01*
X124283339Y-112902758D01*
X123769697Y-113114990D01*
X123376371Y-113507630D01*
X123290051Y-113715512D01*
X123205010Y-113509697D01*
X122812370Y-113116371D01*
X122299100Y-112903243D01*
X121743339Y-112902758D01*
X121229697Y-113114990D01*
X120836371Y-113507630D01*
X120756605Y-113699727D01*
X120702397Y-113568857D01*
X120460213Y-113499392D01*
X119659605Y-114300000D01*
X119673748Y-114314143D01*
X119494143Y-114493748D01*
X119480000Y-114479605D01*
X119465858Y-114493748D01*
X119286253Y-114314143D01*
X119300395Y-114300000D01*
X118499787Y-113499392D01*
X118257603Y-113568857D01*
X118070856Y-114092302D01*
X118084753Y-114369951D01*
X117880000Y-114165198D01*
X117880000Y-113319787D01*
X118679392Y-113319787D01*
X119480000Y-114120395D01*
X120280608Y-113319787D01*
X120211143Y-113077603D01*
X119687698Y-112890856D01*
X119132632Y-112918638D01*
X118748857Y-113077603D01*
X118679392Y-113319787D01*
X117880000Y-113319787D01*
X117880000Y-99970000D01*
X167760000Y-99970000D01*
X168050839Y-99912148D01*
X168297401Y-99747401D01*
X169547401Y-98497401D01*
X169712148Y-98250839D01*
X169770000Y-97960000D01*
X169770000Y-95949440D01*
X169772000Y-95949440D01*
X170007317Y-95905162D01*
X170223441Y-95766090D01*
X170368431Y-95553890D01*
X170419440Y-95302000D01*
X170419440Y-94184572D01*
X171145000Y-94910132D01*
X171145000Y-94910132D01*
G37*
X171145000Y-94910132D02*
X171145000Y-101389868D01*
X168699868Y-103835000D01*
X119410000Y-103835000D01*
X118975654Y-103921397D01*
X118607434Y-104167434D01*
X118361397Y-104535654D01*
X118275000Y-104970000D01*
X118361397Y-105404346D01*
X118607434Y-105772566D01*
X118975654Y-106018603D01*
X119410000Y-106105000D01*
X169170000Y-106105000D01*
X169604346Y-106018603D01*
X169972566Y-105772566D01*
X173082566Y-102662566D01*
X173328603Y-102294346D01*
X173415000Y-101860000D01*
X173415000Y-94440000D01*
X173407502Y-94402304D01*
X177720000Y-98714802D01*
X177720000Y-101410000D01*
X177777852Y-101700839D01*
X177942599Y-101947401D01*
X179857225Y-103862027D01*
X179782041Y-104240000D01*
X179896115Y-104813489D01*
X180220971Y-105299670D01*
X180535752Y-105510000D01*
X180220971Y-105720330D01*
X179896115Y-106206511D01*
X179782041Y-106780000D01*
X179896115Y-107353489D01*
X180220971Y-107839670D01*
X180535752Y-108050000D01*
X180220971Y-108260330D01*
X179896115Y-108746511D01*
X179782041Y-109320000D01*
X179896115Y-109893489D01*
X180220971Y-110379670D01*
X180535752Y-110590000D01*
X180220971Y-110800330D01*
X179896115Y-111286511D01*
X179782041Y-111860000D01*
X179896115Y-112433489D01*
X180220971Y-112919670D01*
X180535752Y-113130000D01*
X180220971Y-113340330D01*
X179896115Y-113826511D01*
X179782041Y-114400000D01*
X179896115Y-114973489D01*
X180220971Y-115459670D01*
X180535752Y-115670000D01*
X180220971Y-115880330D01*
X179896115Y-116366511D01*
X179782041Y-116940000D01*
X179896115Y-117513489D01*
X180220971Y-117999670D01*
X180535752Y-118210000D01*
X180220971Y-118420330D01*
X179896115Y-118906511D01*
X179782041Y-119480000D01*
X179896115Y-120053489D01*
X180220971Y-120539670D01*
X180707152Y-120864526D01*
X181280641Y-120978600D01*
X181339359Y-120978600D01*
X181912848Y-120864526D01*
X182378442Y-120553426D01*
X182383238Y-120578917D01*
X182522310Y-120795041D01*
X182734510Y-120940031D01*
X182986400Y-120991040D01*
X184713600Y-120991040D01*
X184948917Y-120946762D01*
X185100000Y-120849543D01*
X185100000Y-131980000D01*
X178290000Y-131980000D01*
X178018295Y-132034046D01*
X177787954Y-132187954D01*
X177634046Y-132418295D01*
X177580000Y-132690000D01*
X177580000Y-134226513D01*
X177553930Y-134185999D01*
X177341730Y-134041009D01*
X177089840Y-133990000D01*
X176949840Y-133990000D01*
X176949840Y-126279840D01*
X176891988Y-125989001D01*
X176727241Y-125742439D01*
X171040000Y-120055198D01*
X171040000Y-118037531D01*
X171070303Y-118025010D01*
X171275457Y-117820213D01*
X172019392Y-117820213D01*
X172088857Y-118062397D01*
X172612302Y-118249144D01*
X173167368Y-118221362D01*
X173551143Y-118062397D01*
X173620608Y-117820213D01*
X172820000Y-117019605D01*
X172019392Y-117820213D01*
X171275457Y-117820213D01*
X171463629Y-117632370D01*
X171543395Y-117440273D01*
X171597603Y-117571143D01*
X171839787Y-117640608D01*
X172640395Y-116840000D01*
X172999605Y-116840000D01*
X173800213Y-117640608D01*
X174042397Y-117571143D01*
X174229144Y-117047698D01*
X174201362Y-116492632D01*
X174042397Y-116108857D01*
X173800213Y-116039392D01*
X172999605Y-116840000D01*
X172640395Y-116840000D01*
X171839787Y-116039392D01*
X171597603Y-116108857D01*
X171547491Y-116249318D01*
X171465010Y-116049697D01*
X171072370Y-115656371D01*
X170864488Y-115570051D01*
X171070303Y-115485010D01*
X171275457Y-115280213D01*
X172019392Y-115280213D01*
X172088857Y-115522397D01*
X172212344Y-115566453D01*
X172088857Y-115617603D01*
X172019392Y-115859787D01*
X172820000Y-116660395D01*
X173620608Y-115859787D01*
X173551143Y-115617603D01*
X173427656Y-115573547D01*
X173551143Y-115522397D01*
X173620608Y-115280213D01*
X172820000Y-114479605D01*
X172019392Y-115280213D01*
X171275457Y-115280213D01*
X171463629Y-115092370D01*
X171543395Y-114900273D01*
X171597603Y-115031143D01*
X171839787Y-115100608D01*
X172640395Y-114300000D01*
X172999605Y-114300000D01*
X173800213Y-115100608D01*
X174042397Y-115031143D01*
X174229144Y-114507698D01*
X174201362Y-113952632D01*
X174042397Y-113568857D01*
X173800213Y-113499392D01*
X172999605Y-114300000D01*
X172640395Y-114300000D01*
X171839787Y-113499392D01*
X171597603Y-113568857D01*
X171547491Y-113709318D01*
X171465010Y-113509697D01*
X171275432Y-113319787D01*
X172019392Y-113319787D01*
X172820000Y-114120395D01*
X173620608Y-113319787D01*
X173551143Y-113077603D01*
X173027698Y-112890856D01*
X172472632Y-112918638D01*
X172088857Y-113077603D01*
X172019392Y-113319787D01*
X171275432Y-113319787D01*
X171072370Y-113116371D01*
X170559100Y-112903243D01*
X170003339Y-112902758D01*
X169489697Y-113114990D01*
X169096371Y-113507630D01*
X169010051Y-113715512D01*
X168925010Y-113509697D01*
X168532370Y-113116371D01*
X168019100Y-112903243D01*
X167463339Y-112902758D01*
X166949697Y-113114990D01*
X166556371Y-113507630D01*
X166470051Y-113715512D01*
X166385010Y-113509697D01*
X165992370Y-113116371D01*
X165479100Y-112903243D01*
X164923339Y-112902758D01*
X164409697Y-113114990D01*
X164016371Y-113507630D01*
X163930051Y-113715512D01*
X163845010Y-113509697D01*
X163452370Y-113116371D01*
X162939100Y-112903243D01*
X162383339Y-112902758D01*
X161869697Y-113114990D01*
X161476371Y-113507630D01*
X161390051Y-113715512D01*
X161305010Y-113509697D01*
X160912370Y-113116371D01*
X160399100Y-112903243D01*
X159843339Y-112902758D01*
X159329697Y-113114990D01*
X158936371Y-113507630D01*
X158850051Y-113715512D01*
X158765010Y-113509697D01*
X158372370Y-113116371D01*
X157859100Y-112903243D01*
X157303339Y-112902758D01*
X156789697Y-113114990D01*
X156396371Y-113507630D01*
X156310051Y-113715512D01*
X156225010Y-113509697D01*
X155832370Y-113116371D01*
X155319100Y-112903243D01*
X154763339Y-112902758D01*
X154249697Y-113114990D01*
X153856371Y-113507630D01*
X153770051Y-113715512D01*
X153685010Y-113509697D01*
X153292370Y-113116371D01*
X152779100Y-112903243D01*
X152223339Y-112902758D01*
X151709697Y-113114990D01*
X151316371Y-113507630D01*
X151230051Y-113715512D01*
X151145010Y-113509697D01*
X150752370Y-113116371D01*
X150239100Y-112903243D01*
X149683339Y-112902758D01*
X149169697Y-113114990D01*
X148776371Y-113507630D01*
X148690051Y-113715512D01*
X148605010Y-113509697D01*
X148212370Y-113116371D01*
X147699100Y-112903243D01*
X147143339Y-112902758D01*
X146629697Y-113114990D01*
X146236371Y-113507630D01*
X146150051Y-113715512D01*
X146065010Y-113509697D01*
X145672370Y-113116371D01*
X145159100Y-112903243D01*
X144603339Y-112902758D01*
X144089697Y-113114990D01*
X143696371Y-113507630D01*
X143610051Y-113715512D01*
X143525010Y-113509697D01*
X143132370Y-113116371D01*
X142619100Y-112903243D01*
X142063339Y-112902758D01*
X141549697Y-113114990D01*
X141156371Y-113507630D01*
X141070051Y-113715512D01*
X140985010Y-113509697D01*
X140592370Y-113116371D01*
X140079100Y-112903243D01*
X139523339Y-112902758D01*
X139009697Y-113114990D01*
X138616371Y-113507630D01*
X138530051Y-113715512D01*
X138445010Y-113509697D01*
X138052370Y-113116371D01*
X137539100Y-112903243D01*
X136983339Y-112902758D01*
X136469697Y-113114990D01*
X136076371Y-113507630D01*
X135990051Y-113715512D01*
X135905010Y-113509697D01*
X135512370Y-113116371D01*
X134999100Y-112903243D01*
X134443339Y-112902758D01*
X133929697Y-113114990D01*
X133536371Y-113507630D01*
X133450051Y-113715512D01*
X133365010Y-113509697D01*
X132972370Y-113116371D01*
X132459100Y-112903243D01*
X131903339Y-112902758D01*
X131389697Y-113114990D01*
X130996371Y-113507630D01*
X130910051Y-113715512D01*
X130825010Y-113509697D01*
X130432370Y-113116371D01*
X129919100Y-112903243D01*
X129363339Y-112902758D01*
X128849697Y-113114990D01*
X128456371Y-113507630D01*
X128370051Y-113715512D01*
X128285010Y-113509697D01*
X127892370Y-113116371D01*
X127379100Y-112903243D01*
X126823339Y-112902758D01*
X126309697Y-113114990D01*
X125916371Y-113507630D01*
X125830051Y-113715512D01*
X125745010Y-113509697D01*
X125352370Y-113116371D01*
X124839100Y-112903243D01*
X124283339Y-112902758D01*
X123769697Y-113114990D01*
X123376371Y-113507630D01*
X123290051Y-113715512D01*
X123205010Y-113509697D01*
X122812370Y-113116371D01*
X122299100Y-112903243D01*
X121743339Y-112902758D01*
X121229697Y-113114990D01*
X120836371Y-113507630D01*
X120756605Y-113699727D01*
X120702397Y-113568857D01*
X120460213Y-113499392D01*
X119659605Y-114300000D01*
X119673748Y-114314143D01*
X119494143Y-114493748D01*
X119480000Y-114479605D01*
X119465858Y-114493748D01*
X119286253Y-114314143D01*
X119300395Y-114300000D01*
X118499787Y-113499392D01*
X118257603Y-113568857D01*
X118070856Y-114092302D01*
X118084753Y-114369951D01*
X117880000Y-114165198D01*
X117880000Y-113319787D01*
X118679392Y-113319787D01*
X119480000Y-114120395D01*
X120280608Y-113319787D01*
X120211143Y-113077603D01*
X119687698Y-112890856D01*
X119132632Y-112918638D01*
X118748857Y-113077603D01*
X118679392Y-113319787D01*
X117880000Y-113319787D01*
X117880000Y-99970000D01*
X167760000Y-99970000D01*
X168050839Y-99912148D01*
X168297401Y-99747401D01*
X169547401Y-98497401D01*
X169712148Y-98250839D01*
X169770000Y-97960000D01*
X169770000Y-95949440D01*
X169772000Y-95949440D01*
X170007317Y-95905162D01*
X170223441Y-95766090D01*
X170368431Y-95553890D01*
X170419440Y-95302000D01*
X170419440Y-94184572D01*
X171145000Y-94910132D01*
G36*
X132857954Y-78732046D02*
X133088295Y-78885954D01*
X133360000Y-78940000D01*
X134360000Y-78940000D01*
X134631705Y-78885954D01*
X134862046Y-78732046D01*
X134918872Y-78647000D01*
X179820431Y-78647000D01*
X179782041Y-78840000D01*
X179803921Y-78950000D01*
X171820000Y-78950000D01*
X171529161Y-79007852D01*
X171282599Y-79172599D01*
X170568183Y-79887015D01*
X170559100Y-79883243D01*
X170003339Y-79882758D01*
X169489697Y-80094990D01*
X169096371Y-80487630D01*
X169010051Y-80695512D01*
X168925010Y-80489697D01*
X168532370Y-80096371D01*
X168019100Y-79883243D01*
X167463339Y-79882758D01*
X166949697Y-80094990D01*
X166556371Y-80487630D01*
X166470051Y-80695512D01*
X166385010Y-80489697D01*
X165992370Y-80096371D01*
X165479100Y-79883243D01*
X164923339Y-79882758D01*
X164409697Y-80094990D01*
X164016371Y-80487630D01*
X163930051Y-80695512D01*
X163845010Y-80489697D01*
X163452370Y-80096371D01*
X162939100Y-79883243D01*
X162383339Y-79882758D01*
X161869697Y-80094990D01*
X161476371Y-80487630D01*
X161390051Y-80695512D01*
X161305010Y-80489697D01*
X160912370Y-80096371D01*
X160399100Y-79883243D01*
X159843339Y-79882758D01*
X159329697Y-80094990D01*
X158936371Y-80487630D01*
X158850051Y-80695512D01*
X158765010Y-80489697D01*
X158372370Y-80096371D01*
X157859100Y-79883243D01*
X157303339Y-79882758D01*
X156789697Y-80094990D01*
X156396371Y-80487630D01*
X156310051Y-80695512D01*
X156225010Y-80489697D01*
X155832370Y-80096371D01*
X155319100Y-79883243D01*
X154763339Y-79882758D01*
X154249697Y-80094990D01*
X153856371Y-80487630D01*
X153770051Y-80695512D01*
X153685010Y-80489697D01*
X153292370Y-80096371D01*
X152779100Y-79883243D01*
X152223339Y-79882758D01*
X151709697Y-80094990D01*
X151316371Y-80487630D01*
X151230051Y-80695512D01*
X151145010Y-80489697D01*
X150752370Y-80096371D01*
X150239100Y-79883243D01*
X149683339Y-79882758D01*
X149169697Y-80094990D01*
X148776371Y-80487630D01*
X148690051Y-80695512D01*
X148605010Y-80489697D01*
X148212370Y-80096371D01*
X147699100Y-79883243D01*
X147143339Y-79882758D01*
X146629697Y-80094990D01*
X146236371Y-80487630D01*
X146150051Y-80695512D01*
X146065010Y-80489697D01*
X145672370Y-80096371D01*
X145159100Y-79883243D01*
X144603339Y-79882758D01*
X144089697Y-80094990D01*
X143696371Y-80487630D01*
X143610051Y-80695512D01*
X143525010Y-80489697D01*
X143132370Y-80096371D01*
X142619100Y-79883243D01*
X142063339Y-79882758D01*
X141549697Y-80094990D01*
X141156371Y-80487630D01*
X141070051Y-80695512D01*
X140985010Y-80489697D01*
X140592370Y-80096371D01*
X140079100Y-79883243D01*
X139523339Y-79882758D01*
X139009697Y-80094990D01*
X138616371Y-80487630D01*
X138530051Y-80695512D01*
X138445010Y-80489697D01*
X138052370Y-80096371D01*
X137539100Y-79883243D01*
X136983339Y-79882758D01*
X136469697Y-80094990D01*
X136076371Y-80487630D01*
X135990051Y-80695512D01*
X135905010Y-80489697D01*
X135512370Y-80096371D01*
X134999100Y-79883243D01*
X134443339Y-79882758D01*
X133929697Y-80094990D01*
X133536371Y-80487630D01*
X133450051Y-80695512D01*
X133365010Y-80489697D01*
X132972370Y-80096371D01*
X132459100Y-79883243D01*
X131903339Y-79882758D01*
X131389697Y-80094990D01*
X130996371Y-80487630D01*
X130910051Y-80695512D01*
X130825010Y-80489697D01*
X130432370Y-80096371D01*
X129919100Y-79883243D01*
X129363339Y-79882758D01*
X128849697Y-80094990D01*
X128456371Y-80487630D01*
X128370051Y-80695512D01*
X128285010Y-80489697D01*
X127892370Y-80096371D01*
X127379100Y-79883243D01*
X126823339Y-79882758D01*
X126309697Y-80094990D01*
X125916371Y-80487630D01*
X125830051Y-80695512D01*
X125745010Y-80489697D01*
X125352370Y-80096371D01*
X124839100Y-79883243D01*
X124283339Y-79882758D01*
X123769697Y-80094990D01*
X123376371Y-80487630D01*
X123290051Y-80695512D01*
X123205010Y-80489697D01*
X122812370Y-80096371D01*
X122299100Y-79883243D01*
X121743339Y-79882758D01*
X121229697Y-80094990D01*
X120836371Y-80487630D01*
X120756605Y-80679727D01*
X120702397Y-80548857D01*
X120460213Y-80479392D01*
X119659605Y-81280000D01*
X119673748Y-81294143D01*
X119494143Y-81473748D01*
X119480000Y-81459605D01*
X118679392Y-82260213D01*
X118748857Y-82502397D01*
X118889318Y-82552509D01*
X118689697Y-82634990D01*
X118296371Y-83027630D01*
X118089595Y-83525603D01*
X116582599Y-85032599D01*
X116417852Y-85279161D01*
X116360000Y-85570000D01*
X116360000Y-114480000D01*
X116417852Y-114770839D01*
X116582599Y-115017401D01*
X118095817Y-116530619D01*
X118083243Y-116560900D01*
X118082758Y-117116661D01*
X118294990Y-117630303D01*
X118687630Y-118023629D01*
X119200900Y-118236757D01*
X119756661Y-118237242D01*
X119880000Y-118186279D01*
X119880000Y-121791574D01*
X119612603Y-121144422D01*
X118938904Y-120469547D01*
X118058225Y-120103857D01*
X117104639Y-120103025D01*
X116223322Y-120467177D01*
X115548447Y-121140876D01*
X115310000Y-121715120D01*
X115310000Y-90610000D01*
X115255954Y-90338295D01*
X115102046Y-90107954D01*
X114871705Y-89954046D01*
X114600000Y-89900000D01*
X106260000Y-89900000D01*
X106260000Y-84731661D01*
X106652758Y-84731661D01*
X106864990Y-85245303D01*
X107257630Y-85638629D01*
X107770900Y-85851757D01*
X108326661Y-85852242D01*
X108840303Y-85640010D01*
X109233629Y-85247370D01*
X109446757Y-84734100D01*
X109447242Y-84178339D01*
X109235010Y-83664697D01*
X108842370Y-83271371D01*
X108650273Y-83191605D01*
X108781143Y-83137397D01*
X108850608Y-82895213D01*
X108050000Y-82094605D01*
X107249392Y-82895213D01*
X107318857Y-83137397D01*
X107459318Y-83187509D01*
X107259697Y-83269990D01*
X106866371Y-83662630D01*
X106653243Y-84175900D01*
X106652758Y-84731661D01*
X106260000Y-84731661D01*
X106260000Y-81707302D01*
X106640856Y-81707302D01*
X106668638Y-82262368D01*
X106827603Y-82646143D01*
X107069787Y-82715608D01*
X107870395Y-81915000D01*
X108229605Y-81915000D01*
X109030213Y-82715608D01*
X109258949Y-82650000D01*
X110080214Y-82650000D01*
X110348142Y-83996964D01*
X111111135Y-85138865D01*
X112253036Y-85901858D01*
X113600000Y-86169786D01*
X114946964Y-85901858D01*
X116088865Y-85138865D01*
X116851858Y-83996964D01*
X117119786Y-82650000D01*
X116851858Y-81303036D01*
X116697687Y-81072302D01*
X118070856Y-81072302D01*
X118098638Y-81627368D01*
X118257603Y-82011143D01*
X118499787Y-82080608D01*
X119300395Y-81280000D01*
X118499787Y-80479392D01*
X118257603Y-80548857D01*
X118070856Y-81072302D01*
X116697687Y-81072302D01*
X116181510Y-80299787D01*
X118679392Y-80299787D01*
X119480000Y-81100395D01*
X120280608Y-80299787D01*
X120211143Y-80057603D01*
X119687698Y-79870856D01*
X119132632Y-79898638D01*
X118748857Y-80057603D01*
X118679392Y-80299787D01*
X116181510Y-80299787D01*
X116088865Y-80161135D01*
X114946964Y-79398142D01*
X113600000Y-79130214D01*
X112253036Y-79398142D01*
X111111135Y-80161135D01*
X110348142Y-81303036D01*
X110080214Y-82650000D01*
X109258949Y-82650000D01*
X109272397Y-82646143D01*
X109459144Y-82122698D01*
X109431362Y-81567632D01*
X109272397Y-81183857D01*
X109030213Y-81114392D01*
X108229605Y-81915000D01*
X107870395Y-81915000D01*
X107069787Y-81114392D01*
X106827603Y-81183857D01*
X106640856Y-81707302D01*
X106260000Y-81707302D01*
X106260000Y-80934787D01*
X107249392Y-80934787D01*
X108050000Y-81735395D01*
X108850608Y-80934787D01*
X108781143Y-80692603D01*
X108257698Y-80505856D01*
X107702632Y-80533638D01*
X107318857Y-80692603D01*
X107249392Y-80934787D01*
X106260000Y-80934787D01*
X106260000Y-78647000D01*
X132801128Y-78647000D01*
X132857954Y-78732046D01*
X132857954Y-78732046D01*
G37*
X132857954Y-78732046D02*
X133088295Y-78885954D01*
X133360000Y-78940000D01*
X134360000Y-78940000D01*
X134631705Y-78885954D01*
X134862046Y-78732046D01*
X134918872Y-78647000D01*
X179820431Y-78647000D01*
X179782041Y-78840000D01*
X179803921Y-78950000D01*
X171820000Y-78950000D01*
X171529161Y-79007852D01*
X171282599Y-79172599D01*
X170568183Y-79887015D01*
X170559100Y-79883243D01*
X170003339Y-79882758D01*
X169489697Y-80094990D01*
X169096371Y-80487630D01*
X169010051Y-80695512D01*
X168925010Y-80489697D01*
X168532370Y-80096371D01*
X168019100Y-79883243D01*
X167463339Y-79882758D01*
X166949697Y-80094990D01*
X166556371Y-80487630D01*
X166470051Y-80695512D01*
X166385010Y-80489697D01*
X165992370Y-80096371D01*
X165479100Y-79883243D01*
X164923339Y-79882758D01*
X164409697Y-80094990D01*
X164016371Y-80487630D01*
X163930051Y-80695512D01*
X163845010Y-80489697D01*
X163452370Y-80096371D01*
X162939100Y-79883243D01*
X162383339Y-79882758D01*
X161869697Y-80094990D01*
X161476371Y-80487630D01*
X161390051Y-80695512D01*
X161305010Y-80489697D01*
X160912370Y-80096371D01*
X160399100Y-79883243D01*
X159843339Y-79882758D01*
X159329697Y-80094990D01*
X158936371Y-80487630D01*
X158850051Y-80695512D01*
X158765010Y-80489697D01*
X158372370Y-80096371D01*
X157859100Y-79883243D01*
X157303339Y-79882758D01*
X156789697Y-80094990D01*
X156396371Y-80487630D01*
X156310051Y-80695512D01*
X156225010Y-80489697D01*
X155832370Y-80096371D01*
X155319100Y-79883243D01*
X154763339Y-79882758D01*
X154249697Y-80094990D01*
X153856371Y-80487630D01*
X153770051Y-80695512D01*
X153685010Y-80489697D01*
X153292370Y-80096371D01*
X152779100Y-79883243D01*
X152223339Y-79882758D01*
X151709697Y-80094990D01*
X151316371Y-80487630D01*
X151230051Y-80695512D01*
X151145010Y-80489697D01*
X150752370Y-80096371D01*
X150239100Y-79883243D01*
X149683339Y-79882758D01*
X149169697Y-80094990D01*
X148776371Y-80487630D01*
X148690051Y-80695512D01*
X148605010Y-80489697D01*
X148212370Y-80096371D01*
X147699100Y-79883243D01*
X147143339Y-79882758D01*
X146629697Y-80094990D01*
X146236371Y-80487630D01*
X146150051Y-80695512D01*
X146065010Y-80489697D01*
X145672370Y-80096371D01*
X145159100Y-79883243D01*
X144603339Y-79882758D01*
X144089697Y-80094990D01*
X143696371Y-80487630D01*
X143610051Y-80695512D01*
X143525010Y-80489697D01*
X143132370Y-80096371D01*
X142619100Y-79883243D01*
X142063339Y-79882758D01*
X141549697Y-80094990D01*
X141156371Y-80487630D01*
X141070051Y-80695512D01*
X140985010Y-80489697D01*
X140592370Y-80096371D01*
X140079100Y-79883243D01*
X139523339Y-79882758D01*
X139009697Y-80094990D01*
X138616371Y-80487630D01*
X138530051Y-80695512D01*
X138445010Y-80489697D01*
X138052370Y-80096371D01*
X137539100Y-79883243D01*
X136983339Y-79882758D01*
X136469697Y-80094990D01*
X136076371Y-80487630D01*
X135990051Y-80695512D01*
X135905010Y-80489697D01*
X135512370Y-80096371D01*
X134999100Y-79883243D01*
X134443339Y-79882758D01*
X133929697Y-80094990D01*
X133536371Y-80487630D01*
X133450051Y-80695512D01*
X133365010Y-80489697D01*
X132972370Y-80096371D01*
X132459100Y-79883243D01*
X131903339Y-79882758D01*
X131389697Y-80094990D01*
X130996371Y-80487630D01*
X130910051Y-80695512D01*
X130825010Y-80489697D01*
X130432370Y-80096371D01*
X129919100Y-79883243D01*
X129363339Y-79882758D01*
X128849697Y-80094990D01*
X128456371Y-80487630D01*
X128370051Y-80695512D01*
X128285010Y-80489697D01*
X127892370Y-80096371D01*
X127379100Y-79883243D01*
X126823339Y-79882758D01*
X126309697Y-80094990D01*
X125916371Y-80487630D01*
X125830051Y-80695512D01*
X125745010Y-80489697D01*
X125352370Y-80096371D01*
X124839100Y-79883243D01*
X124283339Y-79882758D01*
X123769697Y-80094990D01*
X123376371Y-80487630D01*
X123290051Y-80695512D01*
X123205010Y-80489697D01*
X122812370Y-80096371D01*
X122299100Y-79883243D01*
X121743339Y-79882758D01*
X121229697Y-80094990D01*
X120836371Y-80487630D01*
X120756605Y-80679727D01*
X120702397Y-80548857D01*
X120460213Y-80479392D01*
X119659605Y-81280000D01*
X119673748Y-81294143D01*
X119494143Y-81473748D01*
X119480000Y-81459605D01*
X118679392Y-82260213D01*
X118748857Y-82502397D01*
X118889318Y-82552509D01*
X118689697Y-82634990D01*
X118296371Y-83027630D01*
X118089595Y-83525603D01*
X116582599Y-85032599D01*
X116417852Y-85279161D01*
X116360000Y-85570000D01*
X116360000Y-114480000D01*
X116417852Y-114770839D01*
X116582599Y-115017401D01*
X118095817Y-116530619D01*
X118083243Y-116560900D01*
X118082758Y-117116661D01*
X118294990Y-117630303D01*
X118687630Y-118023629D01*
X119200900Y-118236757D01*
X119756661Y-118237242D01*
X119880000Y-118186279D01*
X119880000Y-121791574D01*
X119612603Y-121144422D01*
X118938904Y-120469547D01*
X118058225Y-120103857D01*
X117104639Y-120103025D01*
X116223322Y-120467177D01*
X115548447Y-121140876D01*
X115310000Y-121715120D01*
X115310000Y-90610000D01*
X115255954Y-90338295D01*
X115102046Y-90107954D01*
X114871705Y-89954046D01*
X114600000Y-89900000D01*
X106260000Y-89900000D01*
X106260000Y-84731661D01*
X106652758Y-84731661D01*
X106864990Y-85245303D01*
X107257630Y-85638629D01*
X107770900Y-85851757D01*
X108326661Y-85852242D01*
X108840303Y-85640010D01*
X109233629Y-85247370D01*
X109446757Y-84734100D01*
X109447242Y-84178339D01*
X109235010Y-83664697D01*
X108842370Y-83271371D01*
X108650273Y-83191605D01*
X108781143Y-83137397D01*
X108850608Y-82895213D01*
X108050000Y-82094605D01*
X107249392Y-82895213D01*
X107318857Y-83137397D01*
X107459318Y-83187509D01*
X107259697Y-83269990D01*
X106866371Y-83662630D01*
X106653243Y-84175900D01*
X106652758Y-84731661D01*
X106260000Y-84731661D01*
X106260000Y-81707302D01*
X106640856Y-81707302D01*
X106668638Y-82262368D01*
X106827603Y-82646143D01*
X107069787Y-82715608D01*
X107870395Y-81915000D01*
X108229605Y-81915000D01*
X109030213Y-82715608D01*
X109258949Y-82650000D01*
X110080214Y-82650000D01*
X110348142Y-83996964D01*
X111111135Y-85138865D01*
X112253036Y-85901858D01*
X113600000Y-86169786D01*
X114946964Y-85901858D01*
X116088865Y-85138865D01*
X116851858Y-83996964D01*
X117119786Y-82650000D01*
X116851858Y-81303036D01*
X116697687Y-81072302D01*
X118070856Y-81072302D01*
X118098638Y-81627368D01*
X118257603Y-82011143D01*
X118499787Y-82080608D01*
X119300395Y-81280000D01*
X118499787Y-80479392D01*
X118257603Y-80548857D01*
X118070856Y-81072302D01*
X116697687Y-81072302D01*
X116181510Y-80299787D01*
X118679392Y-80299787D01*
X119480000Y-81100395D01*
X120280608Y-80299787D01*
X120211143Y-80057603D01*
X119687698Y-79870856D01*
X119132632Y-79898638D01*
X118748857Y-80057603D01*
X118679392Y-80299787D01*
X116181510Y-80299787D01*
X116088865Y-80161135D01*
X114946964Y-79398142D01*
X113600000Y-79130214D01*
X112253036Y-79398142D01*
X111111135Y-80161135D01*
X110348142Y-81303036D01*
X110080214Y-82650000D01*
X109258949Y-82650000D01*
X109272397Y-82646143D01*
X109459144Y-82122698D01*
X109431362Y-81567632D01*
X109272397Y-81183857D01*
X109030213Y-81114392D01*
X108229605Y-81915000D01*
X107870395Y-81915000D01*
X107069787Y-81114392D01*
X106827603Y-81183857D01*
X106640856Y-81707302D01*
X106260000Y-81707302D01*
X106260000Y-80934787D01*
X107249392Y-80934787D01*
X108050000Y-81735395D01*
X108850608Y-80934787D01*
X108781143Y-80692603D01*
X108257698Y-80505856D01*
X107702632Y-80533638D01*
X107318857Y-80692603D01*
X107249392Y-80934787D01*
X106260000Y-80934787D01*
X106260000Y-78647000D01*
X132801128Y-78647000D01*
X132857954Y-78732046D01*
G36*
X119200900Y-85216757D02*
X119756661Y-85217242D01*
X119990000Y-85120829D01*
X119990000Y-88449727D01*
X119980000Y-88500000D01*
X119980000Y-89230000D01*
X119990000Y-89280273D01*
X119990000Y-90802469D01*
X119959697Y-90814990D01*
X119566371Y-91207630D01*
X119353243Y-91720900D01*
X119352758Y-92276661D01*
X119564990Y-92790303D01*
X119957630Y-93183629D01*
X120149727Y-93263395D01*
X120018857Y-93317603D01*
X119949392Y-93559787D01*
X120750000Y-94360395D01*
X120764143Y-94346253D01*
X120943748Y-94525858D01*
X120929605Y-94540000D01*
X121730213Y-95340608D01*
X121972397Y-95271143D01*
X122022509Y-95130682D01*
X122104990Y-95330303D01*
X122497630Y-95723629D01*
X123010900Y-95936757D01*
X123566661Y-95937242D01*
X124080303Y-95725010D01*
X124473629Y-95332370D01*
X124559949Y-95124488D01*
X124644990Y-95330303D01*
X125037630Y-95723629D01*
X125550900Y-95936757D01*
X126106661Y-95937242D01*
X126620303Y-95725010D01*
X127013629Y-95332370D01*
X127099949Y-95124488D01*
X127184990Y-95330303D01*
X127577630Y-95723629D01*
X128090900Y-95936757D01*
X128646661Y-95937242D01*
X129160303Y-95725010D01*
X129553629Y-95332370D01*
X129639949Y-95124488D01*
X129724990Y-95330303D01*
X130117630Y-95723629D01*
X130630900Y-95936757D01*
X131186661Y-95937242D01*
X131700303Y-95725010D01*
X132093629Y-95332370D01*
X132179949Y-95124488D01*
X132264990Y-95330303D01*
X132657630Y-95723629D01*
X133170900Y-95936757D01*
X133726661Y-95937242D01*
X134240303Y-95725010D01*
X134633629Y-95332370D01*
X134719949Y-95124488D01*
X134804990Y-95330303D01*
X135197630Y-95723629D01*
X135710900Y-95936757D01*
X136266661Y-95937242D01*
X136780303Y-95725010D01*
X136985457Y-95520213D01*
X137729392Y-95520213D01*
X137798857Y-95762397D01*
X138322302Y-95949144D01*
X138877368Y-95921362D01*
X139261143Y-95762397D01*
X139330608Y-95520213D01*
X138530000Y-94719605D01*
X137729392Y-95520213D01*
X136985457Y-95520213D01*
X137173629Y-95332370D01*
X137253395Y-95140273D01*
X137307603Y-95271143D01*
X137549787Y-95340608D01*
X138350395Y-94540000D01*
X137549787Y-93739392D01*
X137307603Y-93808857D01*
X137257491Y-93949318D01*
X137175010Y-93749697D01*
X136782370Y-93356371D01*
X136574488Y-93270051D01*
X136780303Y-93185010D01*
X137173629Y-92792370D01*
X137259949Y-92584488D01*
X137344990Y-92790303D01*
X137737630Y-93183629D01*
X137929727Y-93263395D01*
X137798857Y-93317603D01*
X137729392Y-93559787D01*
X138530000Y-94360395D01*
X138544143Y-94346253D01*
X138723748Y-94525858D01*
X138709605Y-94540000D01*
X139510213Y-95340608D01*
X139752397Y-95271143D01*
X139802509Y-95130682D01*
X139884990Y-95330303D01*
X140277630Y-95723629D01*
X140790900Y-95936757D01*
X141346661Y-95937242D01*
X141860303Y-95725010D01*
X142253629Y-95332370D01*
X142339949Y-95124488D01*
X142424990Y-95330303D01*
X142817630Y-95723629D01*
X143330900Y-95936757D01*
X143886661Y-95937242D01*
X144400303Y-95725010D01*
X144793629Y-95332370D01*
X144879949Y-95124488D01*
X144964990Y-95330303D01*
X145357630Y-95723629D01*
X145870900Y-95936757D01*
X146426661Y-95937242D01*
X146940303Y-95725010D01*
X147333629Y-95332370D01*
X147419949Y-95124488D01*
X147504990Y-95330303D01*
X147897630Y-95723629D01*
X147930000Y-95737070D01*
X147930000Y-98450000D01*
X117880000Y-98450000D01*
X117880000Y-95520213D01*
X119949392Y-95520213D01*
X120018857Y-95762397D01*
X120542302Y-95949144D01*
X121097368Y-95921362D01*
X121481143Y-95762397D01*
X121550608Y-95520213D01*
X120750000Y-94719605D01*
X119949392Y-95520213D01*
X117880000Y-95520213D01*
X117880000Y-94332302D01*
X119340856Y-94332302D01*
X119368638Y-94887368D01*
X119527603Y-95271143D01*
X119769787Y-95340608D01*
X120570395Y-94540000D01*
X119769787Y-93739392D01*
X119527603Y-93808857D01*
X119340856Y-94332302D01*
X117880000Y-94332302D01*
X117880000Y-85884802D01*
X118739595Y-85025207D01*
X119200900Y-85216757D01*
X119200900Y-85216757D01*
G37*
X119200900Y-85216757D02*
X119756661Y-85217242D01*
X119990000Y-85120829D01*
X119990000Y-88449727D01*
X119980000Y-88500000D01*
X119980000Y-89230000D01*
X119990000Y-89280273D01*
X119990000Y-90802469D01*
X119959697Y-90814990D01*
X119566371Y-91207630D01*
X119353243Y-91720900D01*
X119352758Y-92276661D01*
X119564990Y-92790303D01*
X119957630Y-93183629D01*
X120149727Y-93263395D01*
X120018857Y-93317603D01*
X119949392Y-93559787D01*
X120750000Y-94360395D01*
X120764143Y-94346253D01*
X120943748Y-94525858D01*
X120929605Y-94540000D01*
X121730213Y-95340608D01*
X121972397Y-95271143D01*
X122022509Y-95130682D01*
X122104990Y-95330303D01*
X122497630Y-95723629D01*
X123010900Y-95936757D01*
X123566661Y-95937242D01*
X124080303Y-95725010D01*
X124473629Y-95332370D01*
X124559949Y-95124488D01*
X124644990Y-95330303D01*
X125037630Y-95723629D01*
X125550900Y-95936757D01*
X126106661Y-95937242D01*
X126620303Y-95725010D01*
X127013629Y-95332370D01*
X127099949Y-95124488D01*
X127184990Y-95330303D01*
X127577630Y-95723629D01*
X128090900Y-95936757D01*
X128646661Y-95937242D01*
X129160303Y-95725010D01*
X129553629Y-95332370D01*
X129639949Y-95124488D01*
X129724990Y-95330303D01*
X130117630Y-95723629D01*
X130630900Y-95936757D01*
X131186661Y-95937242D01*
X131700303Y-95725010D01*
X132093629Y-95332370D01*
X132179949Y-95124488D01*
X132264990Y-95330303D01*
X132657630Y-95723629D01*
X133170900Y-95936757D01*
X133726661Y-95937242D01*
X134240303Y-95725010D01*
X134633629Y-95332370D01*
X134719949Y-95124488D01*
X134804990Y-95330303D01*
X135197630Y-95723629D01*
X135710900Y-95936757D01*
X136266661Y-95937242D01*
X136780303Y-95725010D01*
X136985457Y-95520213D01*
X137729392Y-95520213D01*
X137798857Y-95762397D01*
X138322302Y-95949144D01*
X138877368Y-95921362D01*
X139261143Y-95762397D01*
X139330608Y-95520213D01*
X138530000Y-94719605D01*
X137729392Y-95520213D01*
X136985457Y-95520213D01*
X137173629Y-95332370D01*
X137253395Y-95140273D01*
X137307603Y-95271143D01*
X137549787Y-95340608D01*
X138350395Y-94540000D01*
X137549787Y-93739392D01*
X137307603Y-93808857D01*
X137257491Y-93949318D01*
X137175010Y-93749697D01*
X136782370Y-93356371D01*
X136574488Y-93270051D01*
X136780303Y-93185010D01*
X137173629Y-92792370D01*
X137259949Y-92584488D01*
X137344990Y-92790303D01*
X137737630Y-93183629D01*
X137929727Y-93263395D01*
X137798857Y-93317603D01*
X137729392Y-93559787D01*
X138530000Y-94360395D01*
X138544143Y-94346253D01*
X138723748Y-94525858D01*
X138709605Y-94540000D01*
X139510213Y-95340608D01*
X139752397Y-95271143D01*
X139802509Y-95130682D01*
X139884990Y-95330303D01*
X140277630Y-95723629D01*
X140790900Y-95936757D01*
X141346661Y-95937242D01*
X141860303Y-95725010D01*
X142253629Y-95332370D01*
X142339949Y-95124488D01*
X142424990Y-95330303D01*
X142817630Y-95723629D01*
X143330900Y-95936757D01*
X143886661Y-95937242D01*
X144400303Y-95725010D01*
X144793629Y-95332370D01*
X144879949Y-95124488D01*
X144964990Y-95330303D01*
X145357630Y-95723629D01*
X145870900Y-95936757D01*
X146426661Y-95937242D01*
X146940303Y-95725010D01*
X147333629Y-95332370D01*
X147419949Y-95124488D01*
X147504990Y-95330303D01*
X147897630Y-95723629D01*
X147930000Y-95737070D01*
X147930000Y-98450000D01*
X117880000Y-98450000D01*
X117880000Y-95520213D01*
X119949392Y-95520213D01*
X120018857Y-95762397D01*
X120542302Y-95949144D01*
X121097368Y-95921362D01*
X121481143Y-95762397D01*
X121550608Y-95520213D01*
X120750000Y-94719605D01*
X119949392Y-95520213D01*
X117880000Y-95520213D01*
X117880000Y-94332302D01*
X119340856Y-94332302D01*
X119368638Y-94887368D01*
X119527603Y-95271143D01*
X119769787Y-95340608D01*
X120570395Y-94540000D01*
X119769787Y-93739392D01*
X119527603Y-93808857D01*
X119340856Y-94332302D01*
X117880000Y-94332302D01*
X117880000Y-85884802D01*
X118739595Y-85025207D01*
X119200900Y-85216757D01*
G36*
X157664990Y-92790303D02*
X158057630Y-93183629D01*
X158249727Y-93263395D01*
X158118857Y-93317603D01*
X158049392Y-93559787D01*
X158850000Y-94360395D01*
X158864143Y-94346253D01*
X159043748Y-94525858D01*
X159029605Y-94540000D01*
X159830213Y-95340608D01*
X160072397Y-95271143D01*
X160122509Y-95130682D01*
X160204990Y-95330303D01*
X160597630Y-95723629D01*
X161110900Y-95936757D01*
X161666661Y-95937242D01*
X162180303Y-95725010D01*
X162573629Y-95332370D01*
X162659949Y-95124488D01*
X162744990Y-95330303D01*
X163137630Y-95723629D01*
X163650900Y-95936757D01*
X164206661Y-95937242D01*
X164720303Y-95725010D01*
X165113629Y-95332370D01*
X165199949Y-95124488D01*
X165284990Y-95330303D01*
X165677630Y-95723629D01*
X166190900Y-95936757D01*
X166746661Y-95937242D01*
X167260303Y-95725010D01*
X167613763Y-95372167D01*
X167644838Y-95537317D01*
X167783910Y-95753441D01*
X167996110Y-95898431D01*
X168248000Y-95949440D01*
X168250000Y-95949440D01*
X168250000Y-97645198D01*
X167445198Y-98450000D01*
X149450000Y-98450000D01*
X149450000Y-95737531D01*
X149480303Y-95725010D01*
X149873629Y-95332370D01*
X149959949Y-95124488D01*
X150044990Y-95330303D01*
X150437630Y-95723629D01*
X150950900Y-95936757D01*
X151506661Y-95937242D01*
X152020303Y-95725010D01*
X152413629Y-95332370D01*
X152499949Y-95124488D01*
X152584990Y-95330303D01*
X152977630Y-95723629D01*
X153490900Y-95936757D01*
X154046661Y-95937242D01*
X154560303Y-95725010D01*
X154953629Y-95332370D01*
X155039949Y-95124488D01*
X155124990Y-95330303D01*
X155517630Y-95723629D01*
X156030900Y-95936757D01*
X156586661Y-95937242D01*
X157100303Y-95725010D01*
X157305457Y-95520213D01*
X158049392Y-95520213D01*
X158118857Y-95762397D01*
X158642302Y-95949144D01*
X159197368Y-95921362D01*
X159581143Y-95762397D01*
X159650608Y-95520213D01*
X158850000Y-94719605D01*
X158049392Y-95520213D01*
X157305457Y-95520213D01*
X157493629Y-95332370D01*
X157573395Y-95140273D01*
X157627603Y-95271143D01*
X157869787Y-95340608D01*
X158670395Y-94540000D01*
X157869787Y-93739392D01*
X157627603Y-93808857D01*
X157577491Y-93949318D01*
X157495010Y-93749697D01*
X157102370Y-93356371D01*
X156894488Y-93270051D01*
X157100303Y-93185010D01*
X157493629Y-92792370D01*
X157579949Y-92584488D01*
X157664990Y-92790303D01*
X157664990Y-92790303D01*
G37*
X157664990Y-92790303D02*
X158057630Y-93183629D01*
X158249727Y-93263395D01*
X158118857Y-93317603D01*
X158049392Y-93559787D01*
X158850000Y-94360395D01*
X158864143Y-94346253D01*
X159043748Y-94525858D01*
X159029605Y-94540000D01*
X159830213Y-95340608D01*
X160072397Y-95271143D01*
X160122509Y-95130682D01*
X160204990Y-95330303D01*
X160597630Y-95723629D01*
X161110900Y-95936757D01*
X161666661Y-95937242D01*
X162180303Y-95725010D01*
X162573629Y-95332370D01*
X162659949Y-95124488D01*
X162744990Y-95330303D01*
X163137630Y-95723629D01*
X163650900Y-95936757D01*
X164206661Y-95937242D01*
X164720303Y-95725010D01*
X165113629Y-95332370D01*
X165199949Y-95124488D01*
X165284990Y-95330303D01*
X165677630Y-95723629D01*
X166190900Y-95936757D01*
X166746661Y-95937242D01*
X167260303Y-95725010D01*
X167613763Y-95372167D01*
X167644838Y-95537317D01*
X167783910Y-95753441D01*
X167996110Y-95898431D01*
X168248000Y-95949440D01*
X168250000Y-95949440D01*
X168250000Y-97645198D01*
X167445198Y-98450000D01*
X149450000Y-98450000D01*
X149450000Y-95737531D01*
X149480303Y-95725010D01*
X149873629Y-95332370D01*
X149959949Y-95124488D01*
X150044990Y-95330303D01*
X150437630Y-95723629D01*
X150950900Y-95936757D01*
X151506661Y-95937242D01*
X152020303Y-95725010D01*
X152413629Y-95332370D01*
X152499949Y-95124488D01*
X152584990Y-95330303D01*
X152977630Y-95723629D01*
X153490900Y-95936757D01*
X154046661Y-95937242D01*
X154560303Y-95725010D01*
X154953629Y-95332370D01*
X155039949Y-95124488D01*
X155124990Y-95330303D01*
X155517630Y-95723629D01*
X156030900Y-95936757D01*
X156586661Y-95937242D01*
X157100303Y-95725010D01*
X157305457Y-95520213D01*
X158049392Y-95520213D01*
X158118857Y-95762397D01*
X158642302Y-95949144D01*
X159197368Y-95921362D01*
X159581143Y-95762397D01*
X159650608Y-95520213D01*
X158850000Y-94719605D01*
X158049392Y-95520213D01*
X157305457Y-95520213D01*
X157493629Y-95332370D01*
X157573395Y-95140273D01*
X157627603Y-95271143D01*
X157869787Y-95340608D01*
X158670395Y-94540000D01*
X157869787Y-93739392D01*
X157627603Y-93808857D01*
X157577491Y-93949318D01*
X157495010Y-93749697D01*
X157102370Y-93356371D01*
X156894488Y-93270051D01*
X157100303Y-93185010D01*
X157493629Y-92792370D01*
X157579949Y-92584488D01*
X157664990Y-92790303D01*
G36*
X147604685Y-91109488D02*
X147506371Y-91207630D01*
X147426605Y-91399727D01*
X147372397Y-91268857D01*
X147130213Y-91199392D01*
X146329605Y-92000000D01*
X147130213Y-92800608D01*
X147372397Y-92731143D01*
X147422509Y-92590682D01*
X147504990Y-92790303D01*
X147897630Y-93183629D01*
X148105512Y-93269949D01*
X147899697Y-93354990D01*
X147506371Y-93747630D01*
X147420051Y-93955512D01*
X147335010Y-93749697D01*
X146942370Y-93356371D01*
X146750273Y-93276605D01*
X146881143Y-93222397D01*
X146950608Y-92980213D01*
X146150000Y-92179605D01*
X146135858Y-92193748D01*
X145956253Y-92014143D01*
X145970395Y-92000000D01*
X145956253Y-91985858D01*
X146135858Y-91806253D01*
X146150000Y-91820395D01*
X146950608Y-91019787D01*
X146881143Y-90777603D01*
X146357698Y-90590856D01*
X145802632Y-90618638D01*
X145770000Y-90632155D01*
X145770000Y-89274803D01*
X147604685Y-91109488D01*
X147604685Y-91109488D01*
G37*
X147604685Y-91109488D02*
X147506371Y-91207630D01*
X147426605Y-91399727D01*
X147372397Y-91268857D01*
X147130213Y-91199392D01*
X146329605Y-92000000D01*
X147130213Y-92800608D01*
X147372397Y-92731143D01*
X147422509Y-92590682D01*
X147504990Y-92790303D01*
X147897630Y-93183629D01*
X148105512Y-93269949D01*
X147899697Y-93354990D01*
X147506371Y-93747630D01*
X147420051Y-93955512D01*
X147335010Y-93749697D01*
X146942370Y-93356371D01*
X146750273Y-93276605D01*
X146881143Y-93222397D01*
X146950608Y-92980213D01*
X146150000Y-92179605D01*
X146135858Y-92193748D01*
X145956253Y-92014143D01*
X145970395Y-92000000D01*
X145956253Y-91985858D01*
X146135858Y-91806253D01*
X146150000Y-91820395D01*
X146950608Y-91019787D01*
X146881143Y-90777603D01*
X146357698Y-90590856D01*
X145802632Y-90618638D01*
X145770000Y-90632155D01*
X145770000Y-89274803D01*
X147604685Y-91109488D01*
G36*
X128563748Y-91985858D02*
X128549605Y-92000000D01*
X128563748Y-92014143D01*
X128384143Y-92193748D01*
X128370000Y-92179605D01*
X128355858Y-92193748D01*
X128176253Y-92014143D01*
X128190395Y-92000000D01*
X128176253Y-91985858D01*
X128355858Y-91806253D01*
X128370000Y-91820395D01*
X128384143Y-91806253D01*
X128563748Y-91985858D01*
X128563748Y-91985858D01*
G37*
X128563748Y-91985858D02*
X128549605Y-92000000D01*
X128563748Y-92014143D01*
X128384143Y-92193748D01*
X128370000Y-92179605D01*
X128355858Y-92193748D01*
X128176253Y-92014143D01*
X128190395Y-92000000D01*
X128176253Y-91985858D01*
X128355858Y-91806253D01*
X128370000Y-91820395D01*
X128384143Y-91806253D01*
X128563748Y-91985858D01*
G36*
X153963748Y-91985858D02*
X153949605Y-92000000D01*
X153963748Y-92014143D01*
X153784143Y-92193748D01*
X153770000Y-92179605D01*
X153755858Y-92193748D01*
X153576253Y-92014143D01*
X153590395Y-92000000D01*
X153576253Y-91985858D01*
X153755858Y-91806253D01*
X153770000Y-91820395D01*
X153784143Y-91806253D01*
X153963748Y-91985858D01*
X153963748Y-91985858D01*
G37*
X153963748Y-91985858D02*
X153949605Y-92000000D01*
X153963748Y-92014143D01*
X153784143Y-92193748D01*
X153770000Y-92179605D01*
X153755858Y-92193748D01*
X153576253Y-92014143D01*
X153590395Y-92000000D01*
X153576253Y-91985858D01*
X153755858Y-91806253D01*
X153770000Y-91820395D01*
X153784143Y-91806253D01*
X153963748Y-91985858D01*
G36*
X164123748Y-91985858D02*
X164109605Y-92000000D01*
X164123748Y-92014143D01*
X163944143Y-92193748D01*
X163930000Y-92179605D01*
X163915858Y-92193748D01*
X163736253Y-92014143D01*
X163750395Y-92000000D01*
X163736253Y-91985858D01*
X163915858Y-91806253D01*
X163930000Y-91820395D01*
X163944143Y-91806253D01*
X164123748Y-91985858D01*
X164123748Y-91985858D01*
G37*
X164123748Y-91985858D02*
X164109605Y-92000000D01*
X164123748Y-92014143D01*
X163944143Y-92193748D01*
X163930000Y-92179605D01*
X163915858Y-92193748D01*
X163736253Y-92014143D01*
X163750395Y-92000000D01*
X163736253Y-91985858D01*
X163915858Y-91806253D01*
X163930000Y-91820395D01*
X163944143Y-91806253D01*
X164123748Y-91985858D01*
G36*
X133643748Y-91985858D02*
X133629605Y-92000000D01*
X133643748Y-92014143D01*
X133464143Y-92193748D01*
X133450000Y-92179605D01*
X133435858Y-92193748D01*
X133256253Y-92014143D01*
X133270395Y-92000000D01*
X133256253Y-91985858D01*
X133435858Y-91806253D01*
X133450000Y-91820395D01*
X133464143Y-91806253D01*
X133643748Y-91985858D01*
X133643748Y-91985858D01*
G37*
X133643748Y-91985858D02*
X133629605Y-92000000D01*
X133643748Y-92014143D01*
X133464143Y-92193748D01*
X133450000Y-92179605D01*
X133435858Y-92193748D01*
X133256253Y-92014143D01*
X133270395Y-92000000D01*
X133256253Y-91985858D01*
X133435858Y-91806253D01*
X133450000Y-91820395D01*
X133464143Y-91806253D01*
X133643748Y-91985858D01*
G36*
X173013748Y-83805858D02*
X172999605Y-83820000D01*
X173013748Y-83834143D01*
X172834143Y-84013748D01*
X172820000Y-83999605D01*
X172805858Y-84013748D01*
X172626253Y-83834143D01*
X172640395Y-83820000D01*
X172626253Y-83805858D01*
X172805858Y-83626253D01*
X172820000Y-83640395D01*
X172834143Y-83626253D01*
X173013748Y-83805858D01*
X173013748Y-83805858D01*
G37*
X173013748Y-83805858D02*
X172999605Y-83820000D01*
X173013748Y-83834143D01*
X172834143Y-84013748D01*
X172820000Y-83999605D01*
X172805858Y-84013748D01*
X172626253Y-83834143D01*
X172640395Y-83820000D01*
X172626253Y-83805858D01*
X172805858Y-83626253D01*
X172820000Y-83640395D01*
X172834143Y-83626253D01*
X173013748Y-83805858D01*
G36*
X173013748Y-81265858D02*
X172999605Y-81280000D01*
X173013748Y-81294143D01*
X172834143Y-81473748D01*
X172820000Y-81459605D01*
X172805858Y-81473748D01*
X172626253Y-81294143D01*
X172640395Y-81280000D01*
X172626253Y-81265858D01*
X172805858Y-81086253D01*
X172820000Y-81100395D01*
X172834143Y-81086253D01*
X173013748Y-81265858D01*
X173013748Y-81265858D01*
G37*
X173013748Y-81265858D02*
X172999605Y-81280000D01*
X173013748Y-81294143D01*
X172834143Y-81473748D01*
X172820000Y-81459605D01*
X172805858Y-81473748D01*
X172626253Y-81294143D01*
X172640395Y-81280000D01*
X172626253Y-81265858D01*
X172805858Y-81086253D01*
X172820000Y-81100395D01*
X172834143Y-81086253D01*
X173013748Y-81265858D01*
M02*
