G04 #@! TF.FileFunction,Soldermask,Bot*
%FSLAX46Y46*%
G04 Gerber Fmt 4.6, Leading zero omitted, Abs format (unit mm)*
G04 Created by KiCad (PCBNEW 4.0.2-stable) date 2016-05-24 오전 1:59:57*
%MOMM*%
G01*
G04 APERTURE LIST*
%ADD10C,0.100000*%
%ADD11C,2.600000*%
%ADD12C,2.940000*%
%ADD13R,2.200000X8.400000*%
%ADD14C,1.924000*%
%ADD15R,2.127200X2.127200*%
%ADD16O,2.127200X2.127200*%
%ADD17C,2.398980*%
%ADD18C,1.771600*%
%ADD19R,3.600400X2.398980*%
%ADD20R,2.569160X3.600400*%
%ADD21C,1.900000*%
%ADD22R,4.400000X1.924000*%
%ADD23C,1.600000*%
%ADD24R,2.900000X1.900000*%
%ADD25R,1.900000X2.900000*%
%ADD26R,2.400000X3.600000*%
%ADD27R,3.600400X2.569160*%
%ADD28R,2.432000X2.127200*%
%ADD29O,2.432000X2.127200*%
%ADD30O,2.000000X2.000000*%
%ADD31O,2.127200X3.448000*%
G04 APERTURE END LIST*
D10*
D11*
X93959000Y-74900000D03*
X130559000Y-75100000D03*
X137459000Y-75100000D03*
X137500000Y-48200000D03*
X183000000Y-48200000D03*
D12*
X173573640Y-127707440D03*
D13*
X176189840Y-138637440D03*
X173649840Y-138637440D03*
X171109840Y-138637440D03*
X168569840Y-138637440D03*
X166029840Y-138637440D03*
X163489840Y-138637440D03*
X160949840Y-138637440D03*
X158409840Y-138637440D03*
X155869840Y-138637440D03*
X153329840Y-138637440D03*
X150789840Y-138637440D03*
X148249840Y-138637440D03*
X145709840Y-138637440D03*
X143169840Y-138637440D03*
X140629840Y-138637440D03*
X138089840Y-138637440D03*
X135549840Y-138637440D03*
X133009840Y-138637440D03*
X130469840Y-138637440D03*
X127929840Y-138637440D03*
X125389840Y-138637440D03*
X122849840Y-138637440D03*
X120309840Y-138637440D03*
X117769840Y-138637440D03*
X115229840Y-138637440D03*
D12*
X117579340Y-122500440D03*
D14*
X172820000Y-116840000D03*
X172820000Y-114300000D03*
X170280000Y-116840000D03*
X170280000Y-114300000D03*
X167740000Y-116840000D03*
X167740000Y-114300000D03*
X165200000Y-116840000D03*
X165200000Y-114300000D03*
X162660000Y-116840000D03*
X162660000Y-114300000D03*
X160120000Y-116840000D03*
X160120000Y-114300000D03*
X157580000Y-116840000D03*
X157580000Y-114300000D03*
X155040000Y-116840000D03*
X155040000Y-114300000D03*
X152500000Y-116840000D03*
X152500000Y-114300000D03*
X149960000Y-116840000D03*
X149960000Y-114300000D03*
X147420000Y-116840000D03*
X147420000Y-114300000D03*
X144880000Y-116840000D03*
X144880000Y-114300000D03*
X142340000Y-116840000D03*
X142340000Y-114300000D03*
X139800000Y-116840000D03*
X139800000Y-114300000D03*
X137260000Y-116840000D03*
X137260000Y-114300000D03*
X134720000Y-116840000D03*
X134720000Y-114300000D03*
X132180000Y-116840000D03*
X132180000Y-114300000D03*
X129640000Y-116840000D03*
X129640000Y-114300000D03*
X127100000Y-116840000D03*
X127100000Y-114300000D03*
X124560000Y-116840000D03*
X124560000Y-114300000D03*
X122020000Y-116840000D03*
X122020000Y-114300000D03*
X119480000Y-116840000D03*
X119480000Y-114300000D03*
X119480000Y-81280000D03*
X119480000Y-83820000D03*
X122020000Y-81280000D03*
X122020000Y-83820000D03*
X124560000Y-81280000D03*
X124560000Y-83820000D03*
X127100000Y-81280000D03*
X127100000Y-83820000D03*
X129640000Y-81280000D03*
X129640000Y-83820000D03*
X132180000Y-81280000D03*
X132180000Y-83820000D03*
X134720000Y-81280000D03*
X134720000Y-83820000D03*
X137260000Y-81280000D03*
X137260000Y-83820000D03*
X139800000Y-81280000D03*
X139800000Y-83820000D03*
X142340000Y-81280000D03*
X142340000Y-83820000D03*
X144880000Y-81280000D03*
X144880000Y-83820000D03*
X147420000Y-81280000D03*
X147420000Y-83820000D03*
X149960000Y-81280000D03*
X149960000Y-83820000D03*
X152500000Y-81280000D03*
X152500000Y-83820000D03*
X155040000Y-81280000D03*
X155040000Y-83820000D03*
X157580000Y-81280000D03*
X157580000Y-83820000D03*
X160120000Y-81280000D03*
X160120000Y-83820000D03*
X162660000Y-81280000D03*
X162660000Y-83820000D03*
X165200000Y-81280000D03*
X165200000Y-83820000D03*
X167740000Y-81280000D03*
X167740000Y-83820000D03*
X170280000Y-81280000D03*
X170280000Y-83820000D03*
X172820000Y-81280000D03*
X172820000Y-83820000D03*
X108050000Y-81915000D03*
X108050000Y-84455000D03*
D10*
G36*
X168048000Y-95502000D02*
X168048000Y-93578000D01*
X169972000Y-93578000D01*
X169972000Y-95502000D01*
X168048000Y-95502000D01*
X168048000Y-95502000D01*
G37*
D14*
X169010000Y-92000000D03*
X166470000Y-94540000D03*
X166470000Y-92000000D03*
X163930000Y-94540000D03*
X163930000Y-92000000D03*
X161390000Y-94540000D03*
X161390000Y-92000000D03*
X158850000Y-94540000D03*
X158850000Y-92000000D03*
X156310000Y-94540000D03*
X156310000Y-92000000D03*
X153770000Y-94540000D03*
X153770000Y-92000000D03*
X151230000Y-94540000D03*
X151230000Y-92000000D03*
X148690000Y-94540000D03*
X148690000Y-92000000D03*
X146150000Y-94540000D03*
X146150000Y-92000000D03*
X143610000Y-94540000D03*
X143610000Y-92000000D03*
X141070000Y-94540000D03*
X141070000Y-92000000D03*
X138530000Y-94540000D03*
X138530000Y-92000000D03*
X135990000Y-94540000D03*
X135990000Y-92000000D03*
X133450000Y-94540000D03*
X133450000Y-92000000D03*
X130910000Y-94540000D03*
X130910000Y-92000000D03*
X128370000Y-94540000D03*
X128370000Y-92000000D03*
X125830000Y-94540000D03*
X125830000Y-92000000D03*
X123290000Y-94540000D03*
X123290000Y-92000000D03*
X120750000Y-94540000D03*
X120750000Y-92000000D03*
D15*
X183850000Y-119480000D03*
D16*
X181310000Y-119480000D03*
X183850000Y-116940000D03*
X181310000Y-116940000D03*
X183850000Y-114400000D03*
X181310000Y-114400000D03*
X183850000Y-111860000D03*
X181310000Y-111860000D03*
X183850000Y-109320000D03*
X181310000Y-109320000D03*
X183850000Y-106780000D03*
X181310000Y-106780000D03*
X183850000Y-104240000D03*
X181310000Y-104240000D03*
X183850000Y-101700000D03*
X181310000Y-101700000D03*
X183850000Y-99160000D03*
X181310000Y-99160000D03*
X183850000Y-96620000D03*
X181310000Y-96620000D03*
X183850000Y-94080000D03*
X181310000Y-94080000D03*
X183850000Y-91540000D03*
X181310000Y-91540000D03*
X183850000Y-89000000D03*
X181310000Y-89000000D03*
X183850000Y-86460000D03*
X181310000Y-86460000D03*
X183850000Y-83920000D03*
X181310000Y-83920000D03*
X183850000Y-81380000D03*
X181310000Y-81380000D03*
X183850000Y-78840000D03*
X181310000Y-78840000D03*
D15*
X100100000Y-80400000D03*
D16*
X102640000Y-80400000D03*
X100100000Y-82940000D03*
X102640000Y-82940000D03*
X100100000Y-85480000D03*
X102640000Y-85480000D03*
X100100000Y-88020000D03*
X102640000Y-88020000D03*
X100100000Y-90560000D03*
X102640000Y-90560000D03*
X100100000Y-93100000D03*
X102640000Y-93100000D03*
X100100000Y-95640000D03*
X102640000Y-95640000D03*
X100100000Y-98180000D03*
X102640000Y-98180000D03*
X100100000Y-100720000D03*
X102640000Y-100720000D03*
X100100000Y-103260000D03*
X102640000Y-103260000D03*
X100100000Y-105800000D03*
X102640000Y-105800000D03*
X100100000Y-108340000D03*
X102640000Y-108340000D03*
X100100000Y-110880000D03*
X102640000Y-110880000D03*
X100100000Y-113420000D03*
X102640000Y-113420000D03*
X100100000Y-115960000D03*
X102640000Y-115960000D03*
X100100000Y-118500000D03*
X102640000Y-118500000D03*
X100100000Y-121040000D03*
X102640000Y-121040000D03*
X100100000Y-123580000D03*
X102640000Y-123580000D03*
X100100000Y-126120000D03*
X102640000Y-126120000D03*
X100100000Y-128660000D03*
X102640000Y-128660000D03*
D15*
X93700000Y-80400000D03*
D16*
X96240000Y-80400000D03*
X93700000Y-82940000D03*
X96240000Y-82940000D03*
X93700000Y-85480000D03*
X96240000Y-85480000D03*
X93700000Y-88020000D03*
X96240000Y-88020000D03*
X93700000Y-90560000D03*
X96240000Y-90560000D03*
X93700000Y-93100000D03*
X96240000Y-93100000D03*
X93700000Y-95640000D03*
X96240000Y-95640000D03*
X93700000Y-98180000D03*
X96240000Y-98180000D03*
X93700000Y-100720000D03*
X96240000Y-100720000D03*
X93700000Y-103260000D03*
X96240000Y-103260000D03*
X93700000Y-105800000D03*
X96240000Y-105800000D03*
X93700000Y-108340000D03*
X96240000Y-108340000D03*
X93700000Y-110880000D03*
X96240000Y-110880000D03*
X93700000Y-113420000D03*
X96240000Y-113420000D03*
X93700000Y-115960000D03*
X96240000Y-115960000D03*
X93700000Y-118500000D03*
X96240000Y-118500000D03*
X93700000Y-121040000D03*
X96240000Y-121040000D03*
X93700000Y-123580000D03*
X96240000Y-123580000D03*
X93700000Y-126120000D03*
X96240000Y-126120000D03*
X93700000Y-128660000D03*
X96240000Y-128660000D03*
D17*
X118427000Y-72011000D03*
X118427000Y-64391000D03*
D18*
X125143000Y-53481000D03*
X122984000Y-53481000D03*
X120952000Y-56021000D03*
X127302000Y-56021000D03*
X127302000Y-53481000D03*
X120952000Y-53481000D03*
D19*
X124127000Y-50433000D03*
D20*
X117142000Y-50941000D03*
X131112000Y-50941000D03*
D21*
X102377000Y-56211000D03*
X100627000Y-56211000D03*
X98127000Y-56211000D03*
X97627000Y-53711000D03*
X95877000Y-56211000D03*
X95877000Y-53711000D03*
X102377000Y-53711000D03*
D22*
X99127000Y-49711000D03*
D21*
X100627000Y-53711000D03*
D23*
X111027000Y-54111000D03*
D24*
X111027000Y-57661000D03*
D25*
X108177000Y-56611000D03*
X107727000Y-48611000D03*
X113877000Y-56611000D03*
X114327000Y-48611000D03*
D23*
X111027000Y-47111000D03*
D14*
X125097000Y-60591000D03*
X122557000Y-60591000D03*
X120017000Y-60591000D03*
X117477000Y-60591000D03*
X114937000Y-60591000D03*
X112397000Y-60591000D03*
X109857000Y-60591000D03*
X107317000Y-60591000D03*
X104777000Y-60591000D03*
X102237000Y-60591000D03*
X99697000Y-60591000D03*
X97157000Y-60591000D03*
X97157000Y-75831000D03*
X99697000Y-75831000D03*
X102237000Y-75831000D03*
X104777000Y-75831000D03*
X107317000Y-75831000D03*
X109857000Y-75831000D03*
X112397000Y-75831000D03*
X114937000Y-75831000D03*
X117477000Y-75831000D03*
X120017000Y-75831000D03*
X122557000Y-75831000D03*
X125097000Y-75831000D03*
D17*
X112427000Y-72011000D03*
X112427000Y-64391000D03*
X115427000Y-72011000D03*
X115427000Y-64391000D03*
X109427000Y-64411000D03*
X109427000Y-72031000D03*
X106327000Y-64411000D03*
X106327000Y-72031000D03*
X103327000Y-64411000D03*
X103327000Y-72031000D03*
X100327000Y-64411000D03*
X100327000Y-72031000D03*
X97427000Y-64411000D03*
X97427000Y-72031000D03*
D18*
X143080000Y-60714000D03*
X143080000Y-62873000D03*
X145620000Y-64905000D03*
X145620000Y-58555000D03*
X143080000Y-58555000D03*
X143080000Y-64905000D03*
D26*
X140032000Y-61730000D03*
D27*
X140540000Y-68715000D03*
X140540000Y-54745000D03*
D28*
X180770000Y-58170000D03*
D29*
X180770000Y-60710000D03*
X180770000Y-63250000D03*
X180770000Y-65790000D03*
D17*
X152400000Y-64262000D03*
X160020000Y-64262000D03*
X152400000Y-68961000D03*
X160020000Y-68961000D03*
X152400000Y-73787000D03*
X160020000Y-73787000D03*
D30*
X165862000Y-49911000D03*
X165862000Y-52451000D03*
X165862000Y-54991000D03*
X165862000Y-57531000D03*
X173482000Y-57531000D03*
X173482000Y-54991000D03*
X173482000Y-52451000D03*
X173482000Y-49911000D03*
X159893000Y-57531000D03*
X159893000Y-54991000D03*
X159893000Y-52451000D03*
X159893000Y-49911000D03*
X152273000Y-49911000D03*
X152273000Y-52451000D03*
X152273000Y-54991000D03*
X152273000Y-57531000D03*
D31*
X167950000Y-62490000D03*
X173030000Y-62490000D03*
X167950000Y-75190000D03*
X173030000Y-75190000D03*
D11*
X183000000Y-75100000D03*
M02*
