G04 #@! TF.FileFunction,Profile,NP*
%FSLAX46Y46*%
G04 Gerber Fmt 4.6, Leading zero omitted, Abs format (unit mm)*
G04 Created by KiCad (PCBNEW 4.0.2-stable) date 2016-05-24 오전 1:59:57*
%MOMM*%
G01*
G04 APERTURE LIST*
%ADD10C,0.100000*%
%ADD11C,0.150000*%
G04 APERTURE END LIST*
D10*
D11*
X134360000Y-45000000D02*
X185810000Y-45000000D01*
X134360000Y-78230000D02*
X134360000Y-45000000D01*
X133360000Y-78230000D02*
X134360000Y-78230000D01*
X133360000Y-45010000D02*
X133360000Y-78230000D01*
X105550000Y-90610000D02*
X105530000Y-90610000D01*
X105550000Y-78240000D02*
X105550000Y-90620000D01*
X104550000Y-78230000D02*
X105550000Y-78230000D01*
X104550000Y-130430000D02*
X104400000Y-130430000D01*
X104550000Y-78232000D02*
X104550000Y-130430000D01*
X91400000Y-130429000D02*
X104394000Y-130429000D01*
X133360000Y-45011000D02*
X91400000Y-45011000D01*
X91400000Y-45011000D02*
X91400000Y-130429000D01*
X174796963Y-127710000D02*
G75*
G03X174796963Y-127710000I-1216963J0D01*
G01*
X118781499Y-122500000D02*
G75*
G03X118781499Y-122500000I-1201499J0D01*
G01*
X114600000Y-122370000D02*
X113170000Y-123130000D01*
X114600000Y-122360000D02*
X114600000Y-90610000D01*
X105537000Y-90610000D02*
X114600000Y-90610000D01*
X116409786Y-82650000D02*
G75*
G03X116409786Y-82650000I-2809786J0D01*
G01*
X178290000Y-132690000D02*
X185810000Y-132690000D01*
X185810000Y-132690000D02*
X185810000Y-45000000D01*
X178290000Y-143350000D02*
X178290000Y-132690000D01*
X177790000Y-143850000D02*
X178290000Y-143350000D01*
X177350000Y-143850000D02*
X177790000Y-143850000D01*
X113680000Y-143850000D02*
X177350000Y-143850000D01*
X113170000Y-143340000D02*
X113680000Y-143850000D01*
X113170000Y-142800000D02*
X113170000Y-143340000D01*
X113170000Y-123130000D02*
X113170000Y-142800000D01*
M02*
